<?xml version="1.0" encoding="UTF-8" standalone="no"?>
<!DOCTYPE svg PUBLIC "-//W3C//DTD SVG 1.1//EN"
 "http://www.w3.org/Graphics/SVG/1.1/DTD/svg11.dtd">
<!-- Generated by graphviz version 2.26.3 (20100126.1600)
 -->
<!-- Title: Relationships_component_19 Pages: 1 -->
<svg width="378pt" height="138pt"
 viewBox="0.00 0.00 378.00 138.00" xmlns="http://www.w3.org/2000/svg" xmlns:xlink="http://www.w3.org/1999/xlink">
<g id="graph1" class="graph" transform="scale(1 1) rotate(0) translate(4 134)">
<title>Relationships_component_19</title>
<polygon fill="white" stroke="white" points="-4,5 -4,-134 375,-134 375,5 -4,5"/>
<!-- Falion -->
<g id="node1" class="node"><title>Falion</title>
<ellipse fill="none" stroke="black" cx="123" cy="-111" rx="39.0967" ry="18.3848"/>
<text text-anchor="middle" x="123" y="-107.4" font-family="Times Roman,serif" font-size="14.00">Falion</text>
</g>
<!-- Jonna -->
<g id="node2" class="node"><title>Jonna</title>
<ellipse fill="none" stroke="black" cx="123" cy="-19" rx="39.0967" ry="18.3848"/>
<text text-anchor="middle" x="123" y="-15.4" font-family="Times Roman,serif" font-size="14.00">Jonna</text>
</g>
<!-- Falion&#45;&gt;Jonna -->
<g id="edge2" class="edge"><title>Falion&#45;&gt;Jonna</title>
<a xlink:title="Falion &#45;&gt; Jonna (Siblings, Ally)">
<path fill="none" stroke="green" d="M123,-92.3824C123,-79.5383 123,-62.2161 123,-47.6269"/>
<polygon fill="green" stroke="green" points="126.5,-47.5898 123,-37.5899 119.5,-47.5899 126.5,-47.5898"/>
</a>
<text text-anchor="middle" x="149.5" y="-61.4" font-family="Times Roman,serif" font-size="14.00">Siblings</text>
</g>
<!-- Lami -->
<g id="node4" class="node"><title>Lami</title>
<ellipse fill="none" stroke="black" cx="215" cy="-19" rx="34.8574" ry="18.3848"/>
<text text-anchor="middle" x="215" y="-15.4" font-family="Times Roman,serif" font-size="14.00">Lami</text>
</g>
<!-- Falion&#45;&gt;Lami -->
<g id="edge4" class="edge"><title>Falion&#45;&gt;Lami</title>
<a xlink:title="Falion &#45;&gt; Lami (Friend)">
<path fill="none" stroke="olive" d="M149.42,-97.1006C159.698,-90.9014 171.114,-82.9665 180,-74 188.15,-65.7756 195.376,-55.341 201.115,-45.7761"/>
<polygon fill="olive" stroke="olive" points="204.222,-47.3921 206.142,-36.9727 198.144,-43.9205 204.222,-47.3921"/>
</a>
</g>
<!-- Agni -->
<g id="node6" class="node"><title>Agni</title>
<ellipse fill="none" stroke="black" cx="33" cy="-19" rx="33.234" ry="18.3848"/>
<text text-anchor="middle" x="33" y="-15.4" font-family="Times Roman,serif" font-size="14.00">Agni</text>
</g>
<!-- Falion&#45;&gt;Agni -->
<g id="edge6" class="edge"><title>Falion&#45;&gt;Agni</title>
<a xlink:title="Falion &#45;&gt; Agni (Confidant)">
<path fill="none" stroke="lime" d="M106.493,-94.1258C92.4501,-79.7712 72.1191,-58.9884 56.399,-42.9189"/>
<polygon fill="lime" stroke="lime" points="58.5948,-40.1585 49.0999,-35.4577 53.591,-45.0536 58.5948,-40.1585"/>
</a>
</g>
<!-- Alva -->
<g id="node8" class="node"><title>Alva</title>
<ellipse fill="none" stroke="black" cx="290" cy="-111" rx="33.234" ry="18.3848"/>
<text text-anchor="middle" x="290" y="-107.4" font-family="Times Roman,serif" font-size="14.00">Alva</text>
</g>
<!-- Alva&#45;&gt;Lami -->
<g id="edge8" class="edge"><title>Alva&#45;&gt;Lami</title>
<a xlink:title="Alva &#45;&gt; Lami (Confidant)">
<path fill="none" stroke="lime" d="M276.244,-94.1258C264.792,-80.0784 248.322,-59.875 235.345,-43.957"/>
<polygon fill="lime" stroke="lime" points="237.954,-41.6181 228.923,-36.0788 232.529,-46.0412 237.954,-41.6181"/>
</a>
</g>
<!-- Hroggar -->
<g id="node10" class="node"><title>Hroggar</title>
<ellipse fill="none" stroke="black" cx="319" cy="-19" rx="50.9117" ry="18.3848"/>
<text text-anchor="middle" x="319" y="-15.4" font-family="Times Roman,serif" font-size="14.00">Hroggar</text>
</g>
<!-- Alva&#45;&gt;Hroggar -->
<g id="edge10" class="edge"><title>Alva&#45;&gt;Hroggar</title>
<a xlink:title="Alva &#45;&gt; Hroggar (Lover)">
<path fill="none" stroke="forestgreen" d="M295.869,-92.3824C299.957,-79.4136 305.484,-61.8793 310.11,-47.2028"/>
<polygon fill="forestgreen" stroke="forestgreen" points="313.472,-48.1795 313.14,-37.5899 306.796,-46.075 313.472,-48.1795"/>
</a>
</g>
</g>
</svg>
