<?xml version="1.0" encoding="UTF-8" standalone="no"?>
<!DOCTYPE svg PUBLIC "-//W3C//DTD SVG 1.1//EN"
 "http://www.w3.org/Graphics/SVG/1.1/DTD/svg11.dtd">
<!-- Generated by graphviz version 2.26.3 (20100126.1600)
 -->
<!-- Title: Relationships_component_8 Pages: 1 -->
<svg width="582pt" height="594pt"
 viewBox="0.00 0.00 582.00 594.00" xmlns="http://www.w3.org/2000/svg" xmlns:xlink="http://www.w3.org/1999/xlink">
<g id="graph1" class="graph" transform="scale(1 1) rotate(0) translate(4 590)">
<title>Relationships_component_8</title>
<polygon fill="white" stroke="white" points="-4,5 -4,-590 579,-590 579,5 -4,5"/>
<!-- Astrid -->
<g id="node1" class="node"><title>Astrid</title>
<a xlink:href="http://www.uesp.net/wiki/Skyrim:Astrid" xlink:title="Astrid">
<ellipse fill="none" stroke="black" cx="218" cy="-567" rx="39.8075" ry="18.3848"/>
<text text-anchor="middle" x="218" y="-563.4" font-family="Times Roman,serif" font-size="14.00">Astrid</text>
</a>
</g>
<!-- Arnbjorn -->
<g id="node2" class="node"><title>Arnbjorn</title>
<a xlink:href="http://www.uesp.net/wiki/Skyrim:Arnbjorn" xlink:title="Arnbjorn">
<ellipse fill="none" stroke="black" cx="274" cy="-19" rx="53.9477" ry="18.3848"/>
<text text-anchor="middle" x="274" y="-15.4" font-family="Times Roman,serif" font-size="14.00">Arnbjorn</text>
</a>
</g>
<!-- Astrid&#45;&gt;Arnbjorn -->
<g id="edge2" class="edge"><title>Astrid&#45;&gt;Arnbjorn</title>
<a xlink:title="Astrid &#45;&gt; Arnbjorn (Spouse, Lover)">
<path fill="none" stroke="forestgreen" d="M179.528,-561.659C116.944,-551.879 0,-528.576 0,-491 0,-491 0,-491 0,-95 0,-51.4466 130.176,-31.8262 211.074,-23.8382"/>
<polygon fill="forestgreen" stroke="forestgreen" points="211.547,-27.3091 221.17,-22.8761 210.883,-20.3406 211.547,-27.3091"/>
</a>
<text text-anchor="middle" x="25" y="-289.4" font-family="Times Roman,serif" font-size="14.00">Spouse</text>
</g>
<!-- Babette -->
<g id="node4" class="node"><title>Babette</title>
<a xlink:href="http://www.uesp.net/wiki/Skyrim:Babette" xlink:title="Babette">
<ellipse fill="none" stroke="black" cx="181" cy="-247" rx="50.2046" ry="18.3848"/>
<text text-anchor="middle" x="181" y="-243.4" font-family="Times Roman,serif" font-size="14.00">Babette</text>
</a>
</g>
<!-- Astrid&#45;&gt;Babette -->
<g id="edge4" class="edge"><title>Astrid&#45;&gt;Babette</title>
<a xlink:title="Astrid &#45;&gt; Babette (Ally)">
<path fill="none" stroke="green" d="M181.616,-558.917C148.253,-549.105 104,-528.94 104,-491 104,-491 104,-491 104,-377 104,-335.815 132.964,-296.249 155.363,-271.807"/>
<polygon fill="green" stroke="green" points="158.025,-274.088 162.36,-264.421 152.943,-269.274 158.025,-274.088"/>
</a>
</g>
<!-- Gabriella -->
<g id="node6" class="node"><title>Gabriella</title>
<a xlink:href="http://www.uesp.net/wiki/Skyrim:Gabriella" xlink:title="Gabriella">
<ellipse fill="none" stroke="black" cx="225" cy="-339" rx="55.1543" ry="18.3848"/>
<text text-anchor="middle" x="225" y="-335.4" font-family="Times Roman,serif" font-size="14.00">Gabriella</text>
</a>
</g>
<!-- Astrid&#45;&gt;Gabriella -->
<g id="edge6" class="edge"><title>Astrid&#45;&gt;Gabriella</title>
<a xlink:title="Astrid &#45;&gt; Gabriella (Ally)">
<path fill="none" stroke="green" d="M218.573,-548.342C219.794,-508.579 222.659,-415.26 224.116,-367.804"/>
<polygon fill="green" stroke="green" points="227.62,-367.699 224.429,-357.596 220.624,-367.484 227.62,-367.699"/>
</a>
</g>
<!-- Veezara -->
<g id="node8" class="node"><title>Veezara</title>
<a xlink:href="http://www.uesp.net/wiki/Skyrim:Veezara" xlink:title="Veezara">
<ellipse fill="none" stroke="black" cx="274" cy="-95" rx="51.1176" ry="18.3848"/>
<text text-anchor="middle" x="274" y="-91.4" font-family="Times Roman,serif" font-size="14.00">Veezara</text>
</a>
</g>
<!-- Astrid&#45;&gt;Veezara -->
<g id="edge8" class="edge"><title>Astrid&#45;&gt;Veezara</title>
<a xlink:title="Astrid &#45;&gt; Veezara (Ally)">
<path fill="none" stroke="green" d="M178.2,-564.152C132.867,-558.49 65,-541.569 65,-491 65,-491 65,-491 65,-209 65,-140.288 153.138,-112.743 214.942,-101.875"/>
<polygon fill="green" stroke="green" points="215.704,-105.296 224.999,-100.21 214.562,-98.3902 215.704,-105.296"/>
</a>
</g>
<!-- Nazir -->
<g id="node10" class="node"><title>Nazir</title>
<a xlink:href="http://www.uesp.net/wiki/Skyrim:Nazir" xlink:title="Nazir">
<ellipse fill="none" stroke="black" cx="423" cy="-415" rx="36.977" ry="18.3848"/>
<text text-anchor="middle" x="423" y="-411.4" font-family="Times Roman,serif" font-size="14.00">Nazir</text>
</a>
</g>
<!-- Astrid&#45;&gt;Nazir -->
<g id="edge10" class="edge"><title>Astrid&#45;&gt;Nazir</title>
<a xlink:title="Astrid &#45;&gt; Nazir (Ally)">
<path fill="none" stroke="green" d="M254.257,-559.08C298.993,-548.643 371.538,-529.334 391,-510 408.745,-492.372 416.651,-464.596 420.173,-443.621"/>
<polygon fill="green" stroke="green" points="423.647,-444.052 421.609,-433.655 416.719,-443.053 423.647,-444.052"/>
</a>
</g>
<!-- FestusKrex -->
<g id="node12" class="node"><title>FestusKrex</title>
<a xlink:href="http://www.uesp.net/wiki/Skyrim:Festus Krex" xlink:title="Festus Krex">
<ellipse fill="none" stroke="black" cx="314" cy="-491" rx="68.0887" ry="18.3848"/>
<text text-anchor="middle" x="314" y="-487.4" font-family="Times Roman,serif" font-size="14.00">Festus Krex</text>
</a>
</g>
<!-- Astrid&#45;&gt;FestusKrex -->
<g id="edge12" class="edge"><title>Astrid&#45;&gt;FestusKrex</title>
<a xlink:title="Astrid &#45;&gt; Festus Krex (Ally)">
<path fill="none" stroke="green" d="M238.359,-550.882C251.548,-540.441 268.96,-526.657 283.753,-514.945"/>
<polygon fill="green" stroke="green" points="285.991,-517.638 291.659,-508.687 281.646,-512.15 285.991,-517.638"/>
</a>
</g>
<!-- Babette&#45;&gt;Arnbjorn -->
<g id="edge14" class="edge"><title>Babette&#45;&gt;Arnbjorn</title>
<a xlink:title="Babette &#45;&gt; Arnbjorn (Ally)">
<path fill="none" stroke="green" d="M180.96,-228.293C181.651,-195.443 186.561,-126.126 214,-76 220.982,-63.2452 231.82,-51.6669 242.375,-42.3283"/>
<polygon fill="green" stroke="green" points="244.924,-44.7576 250.323,-35.6411 240.418,-39.4013 244.924,-44.7576"/>
</a>
</g>
<!-- Babette&#45;&gt;Veezara -->
<g id="edge18" class="edge"><title>Babette&#45;&gt;Veezara</title>
<a xlink:title="Babette &#45;&gt; Veezara (Ally)">
<path fill="none" stroke="green" d="M190.127,-228.554C201.84,-205.396 223.256,-164.737 245,-132 247.388,-128.405 250.026,-124.717 252.71,-121.127"/>
<polygon fill="green" stroke="green" points="255.626,-123.078 258.958,-113.02 250.081,-118.804 255.626,-123.078"/>
</a>
</g>
<!-- Cicero -->
<g id="node15" class="node"><title>Cicero</title>
<a xlink:href="http://www.uesp.net/wiki/Skyrim:Cicero" xlink:title="Cicero">
<ellipse fill="none" stroke="black" cx="366" cy="-171" rx="41.2167" ry="18.3848"/>
<text text-anchor="middle" x="366" y="-167.4" font-family="Times Roman,serif" font-size="14.00">Cicero</text>
</a>
</g>
<!-- Babette&#45;&gt;Cicero -->
<g id="edge16" class="edge"><title>Babette&#45;&gt;Cicero</title>
<a xlink:title="Babette &#45;&gt; Cicero (Ally)">
<path fill="none" stroke="green" d="M214.502,-233.237C245.871,-220.35 292.776,-201.081 326.074,-187.402"/>
<polygon fill="green" stroke="green" points="327.589,-190.564 335.509,-183.526 324.929,-184.089 327.589,-190.564"/>
</a>
</g>
<!-- Gabriella&#45;&gt;Arnbjorn -->
<g id="edge26" class="edge"><title>Gabriella&#45;&gt;Arnbjorn</title>
<a xlink:title="Gabriella &#45;&gt; Arnbjorn (Ally)">
<path fill="none" stroke="green" d="M193.422,-323.603C170.618,-311.005 140.667,-291.177 122,-266 106.096,-244.549 103,-235.704 103,-209 103,-209 103,-209 103,-95 103,-69.0353 169.666,-45.8653 219.748,-32.1226"/>
<polygon fill="green" stroke="green" points="220.766,-35.4731 229.518,-29.5017 218.953,-28.7122 220.766,-35.4731"/>
</a>
</g>
<!-- Gabriella&#45;&gt;Babette -->
<g id="edge28" class="edge"><title>Gabriella&#45;&gt;Babette</title>
<a xlink:title="Gabriella &#45;&gt; Babette (Ally)">
<path fill="none" stroke="green" d="M216.096,-320.382C209.793,-307.203 201.234,-289.308 194.147,-274.489"/>
<polygon fill="green" stroke="green" points="197.213,-272.787 189.741,-265.276 190.898,-275.807 197.213,-272.787"/>
</a>
</g>
<!-- Gabriella&#45;&gt;Veezara -->
<g id="edge32" class="edge"><title>Gabriella&#45;&gt;Veezara</title>
<a xlink:title="Gabriella &#45;&gt; Veezara (Ally)">
<path fill="none" stroke="green" d="M228.855,-320.404C231.905,-305.655 236.257,-284.516 240,-266 250.12,-215.938 261.671,-157.579 268.369,-123.61"/>
<polygon fill="green" stroke="green" points="271.866,-123.968 270.366,-113.48 264.998,-122.614 271.866,-123.968"/>
</a>
</g>
<!-- Gabriella&#45;&gt;Cicero -->
<g id="edge30" class="edge"><title>Gabriella&#45;&gt;Cicero</title>
<a xlink:title="Gabriella &#45;&gt; Cicero (Ally)">
<path fill="none" stroke="green" d="M247.388,-321.888C254.609,-315.93 262.437,-308.981 269,-302 300.345,-268.654 330.797,-225.161 348.976,-197.648"/>
<polygon fill="green" stroke="green" points="352.108,-199.253 354.653,-188.968 346.25,-195.421 352.108,-199.253"/>
</a>
</g>
<!-- Veezara&#45;&gt;Arnbjorn -->
<g id="edge34" class="edge"><title>Veezara&#45;&gt;Arnbjorn</title>
<a xlink:title="Veezara &#45;&gt; Arnbjorn (Ally)">
<path fill="none" stroke="green" d="M274,-76.2135C274,-67.6543 274,-57.3303 274,-47.8218"/>
<polygon fill="green" stroke="green" points="277.5,-47.5704 274,-37.5704 270.5,-47.5705 277.5,-47.5704"/>
</a>
</g>
<!-- Nazir&#45;&gt;Arnbjorn -->
<g id="edge36" class="edge"><title>Nazir&#45;&gt;Arnbjorn</title>
<a xlink:title="Nazir &#45;&gt; Arnbjorn (Ally)">
<path fill="none" stroke="green" d="M444.013,-399.29C451.063,-393.233 458.519,-385.867 464,-378 469.473,-370.145 470.022,-367.367 472,-358 482.089,-310.223 487.498,-177.419 474,-152 442.373,-92.4417 370.892,-55.0557 322.531,-35.5964"/>
<polygon fill="green" stroke="green" points="323.773,-32.3243 313.185,-31.9423 321.224,-38.8437 323.773,-32.3243"/>
</a>
</g>
<!-- Nazir&#45;&gt;Babette -->
<g id="edge38" class="edge"><title>Nazir&#45;&gt;Babette</title>
<a xlink:title="Nazir &#45;&gt; Babette (Ally)">
<path fill="none" stroke="green" d="M401.752,-399.715C375.413,-380.82 329.094,-347.757 289,-320 263.978,-302.677 235.444,-283.411 213.991,-269.022"/>
<polygon fill="green" stroke="green" points="215.811,-266.029 205.555,-263.371 211.915,-271.844 215.811,-266.029"/>
</a>
</g>
<!-- Nazir&#45;&gt;Gabriella -->
<g id="edge42" class="edge"><title>Nazir&#45;&gt;Gabriella</title>
<a xlink:title="Nazir &#45;&gt; Gabriella (Ally)">
<path fill="none" stroke="green" d="M393.357,-403.622C361.073,-391.23 309.013,-371.247 271.324,-356.781"/>
<polygon fill="green" stroke="green" points="272.179,-353.36 261.589,-353.044 269.67,-359.895 272.179,-353.36"/>
</a>
</g>
<!-- Nazir&#45;&gt;Veezara -->
<g id="edge44" class="edge"><title>Nazir&#45;&gt;Veezara</title>
<a xlink:title="Nazir &#45;&gt; Veezara (Ally)">
<path fill="none" stroke="green" d="M436.988,-397.727C447.466,-383.024 460,-360.866 460,-339 460,-339 460,-339 460,-171 460,-142.43 383.847,-119.305 328.996,-106.355"/>
<polygon fill="green" stroke="green" points="329.556,-102.892 319.025,-104.056 327.983,-109.713 329.556,-102.892"/>
</a>
</g>
<!-- Nazir&#45;&gt;Cicero -->
<g id="edge40" class="edge"><title>Nazir&#45;&gt;Cicero</title>
<a xlink:title="Nazir &#45;&gt; Cicero (Ally)">
<path fill="none" stroke="green" d="M424.284,-396.337C426.118,-358.866 426.565,-272.549 398,-208 396.132,-203.78 393.616,-199.684 390.809,-195.849"/>
<polygon fill="green" stroke="green" points="393.378,-193.462 384.344,-187.927 387.955,-197.888 393.378,-193.462"/>
</a>
</g>
<!-- FestusKrex&#45;&gt;Arnbjorn -->
<g id="edge46" class="edge"><title>FestusKrex&#45;&gt;Arnbjorn</title>
<a xlink:title="Festus Krex &#45;&gt; Arnbjorn (Ally)">
<path fill="none" stroke="green" d="M371.61,-481.032C403.532,-472.973 442.085,-458.738 469,-434 550.248,-359.323 574,-319.353 574,-209 574,-209 574,-209 574,-95 574,-46.677 425.886,-28.7398 337.802,-22.3452"/>
<polygon fill="green" stroke="green" points="337.853,-18.8404 327.634,-21.6387 337.367,-25.8235 337.853,-18.8404"/>
</a>
</g>
<!-- FestusKrex&#45;&gt;Babette -->
<g id="edge48" class="edge"><title>FestusKrex&#45;&gt;Babette</title>
<a xlink:title="Festus Krex &#45;&gt; Babette (Ally)">
<path fill="none" stroke="green" d="M282.202,-474.489C245.14,-453.231 185.812,-412.445 161,-358 148.85,-331.34 157.735,-297.925 167.217,-274.759"/>
<polygon fill="green" stroke="green" points="170.462,-276.073 171.257,-265.508 164.047,-273.271 170.462,-276.073"/>
</a>
</g>
<!-- FestusKrex&#45;&gt;Gabriella -->
<g id="edge52" class="edge"><title>FestusKrex&#45;&gt;Gabriella</title>
<a xlink:title="Festus Krex &#45;&gt; Gabriella (Ally)">
<path fill="none" stroke="green" d="M303.265,-472.665C287.762,-446.189 258.997,-397.062 240.99,-366.309"/>
<polygon fill="green" stroke="green" points="243.847,-364.261 235.774,-357.4 237.806,-367.798 243.847,-364.261"/>
</a>
</g>
<!-- FestusKrex&#45;&gt;Veezara -->
<g id="edge54" class="edge"><title>FestusKrex&#45;&gt;Veezara</title>
<a xlink:title="Festus Krex &#45;&gt; Veezara (Ally)">
<path fill="none" stroke="green" d="M312.666,-472.265C308.775,-418.934 296.65,-261.781 280,-132 279.655,-129.309 279.263,-126.514 278.849,-123.719"/>
<polygon fill="green" stroke="green" points="282.299,-123.126 277.294,-113.788 275.383,-124.209 282.299,-123.126"/>
</a>
</g>
<!-- FestusKrex&#45;&gt;Nazir -->
<g id="edge56" class="edge"><title>FestusKrex&#45;&gt;Nazir</title>
<a xlink:title="Festus Krex &#45;&gt; Nazir (Ally)">
<path fill="none" stroke="green" d="M341.754,-473.967C351.441,-467.846 362.31,-460.777 372,-454 379.484,-448.765 387.402,-442.886 394.709,-437.312"/>
<polygon fill="green" stroke="green" points="397.161,-439.841 402.944,-430.964 392.887,-434.297 397.161,-439.841"/>
</a>
</g>
<!-- FestusKrex&#45;&gt;Cicero -->
<g id="edge50" class="edge"><title>FestusKrex&#45;&gt;Cicero</title>
<a xlink:title="Festus Krex &#45;&gt; Cicero (Ally)">
<path fill="none" stroke="green" d="M318.284,-472.22C319.553,-466.395 320.896,-459.945 322,-454 339.203,-361.35 355.05,-250.779 362.12,-199.598"/>
<polygon fill="green" stroke="green" points="365.599,-199.99 363.493,-189.606 358.664,-199.037 365.599,-199.99"/>
</a>
</g>
<!-- Cicero&#45;&gt;Astrid -->
<g id="edge20" class="edge"><title>Cicero&#45;&gt;Astrid</title>
<a xlink:title="Cicero &#45;&gt; Astrid (Ally)">
<path fill="none" stroke="green" d="M396.245,-183.839C453.933,-210.592 574,-278.148 574,-377 574,-491 574,-491 574,-491 574,-521.984 365.097,-550.096 267.344,-561.554"/>
<polygon fill="green" stroke="green" points="266.647,-558.111 257.117,-562.74 267.453,-565.065 266.647,-558.111"/>
</a>
</g>
<!-- Cicero&#45;&gt;Arnbjorn -->
<g id="edge22" class="edge"><title>Cicero&#45;&gt;Arnbjorn</title>
<a xlink:title="Cicero &#45;&gt; Arnbjorn (Ally)">
<path fill="none" stroke="green" d="M362.521,-152.333C358.168,-132.282 349.353,-100.061 334,-76 326.117,-63.6458 314.99,-52.0874 304.457,-42.652"/>
<polygon fill="green" stroke="green" points="306.443,-39.7436 296.58,-35.8725 301.876,-45.0489 306.443,-39.7436"/>
</a>
</g>
<!-- Cicero&#45;&gt;Veezara -->
<g id="edge24" class="edge"><title>Cicero&#45;&gt;Veezara</title>
<a xlink:title="Cicero &#45;&gt; Veezara (Ally)">
<path fill="none" stroke="green" d="M346.037,-154.509C333.314,-143.999 316.629,-130.215 302.52,-118.56"/>
<polygon fill="green" stroke="green" points="304.499,-115.655 294.561,-111.985 300.041,-121.052 304.499,-115.655"/>
</a>
</g>
</g>
</svg>
