<?xml version="1.0" encoding="UTF-8" standalone="no"?>
<!DOCTYPE svg PUBLIC "-//W3C//DTD SVG 1.1//EN"
 "http://www.w3.org/Graphics/SVG/1.1/DTD/svg11.dtd">
<!-- Generated by graphviz version 2.26.3 (20100126.1600)
 -->
<!-- Title: Relationships_component_15 Pages: 1 -->
<svg width="677pt" height="322pt"
 viewBox="0.00 0.00 677.00 322.00" xmlns="http://www.w3.org/2000/svg" xmlns:xlink="http://www.w3.org/1999/xlink">
<g id="graph1" class="graph" transform="scale(1 1) rotate(0) translate(4 318)">
<title>Relationships_component_15</title>
<polygon fill="white" stroke="white" points="-4,5 -4,-318 674,-318 674,5 -4,5"/>
<!-- Kodrir -->
<g id="node1" class="node"><title>Kodrir</title>
<a xlink:href="http://www.uesp.net/wiki/Skyrim:Kodrir" xlink:title="Kodrir">
<ellipse fill="none" stroke="black" cx="117" cy="-111" rx="39.8075" ry="18.3848"/>
<text text-anchor="middle" x="117" y="-107.4" font-family="Times Roman,serif" font-size="14.00">Kodrir</text>
</a>
</g>
<!-- Leifur -->
<g id="node2" class="node"><title>Leifur</title>
<a xlink:href="http://www.uesp.net/wiki/Skyrim:Leifur" xlink:title="Leifur">
<ellipse fill="none" stroke="black" cx="39" cy="-19" rx="39.0967" ry="18.3848"/>
<text text-anchor="middle" x="39" y="-15.4" font-family="Times Roman,serif" font-size="14.00">Leifur</text>
</a>
</g>
<!-- Kodrir&#45;&gt;Leifur -->
<g id="edge2" class="edge"><title>Kodrir&#45;&gt;Leifur</title>
<a xlink:title="Kodrir &#45;&gt; Leifur (BusinessPartners, Rival)">
<path fill="none" stroke="orangered" d="M102.329,-93.6955C90.4536,-79.6889 73.5678,-59.7723 60.2186,-44.027"/>
<polygon fill="orangered" stroke="orangered" points="62.742,-41.5911 53.6054,-36.2269 57.4026,-46.1179 62.742,-41.5911"/>
</a>
<text text-anchor="middle" x="143.5" y="-61.4" font-family="Times Roman,serif" font-size="14.00">BusinessPartners</text>
</g>
<!-- Aeri -->
<g id="node4" class="node"><title>Aeri</title>
<a xlink:href="http://www.uesp.net/wiki/Skyrim:Aeri" xlink:title="Aeri">
<ellipse fill="none" stroke="black" cx="177" cy="-295" rx="31.1127" ry="18.3848"/>
<text text-anchor="middle" x="177" y="-291.4" font-family="Times Roman,serif" font-size="14.00">Aeri</text>
</a>
</g>
<!-- Aeri&#45;&gt;Kodrir -->
<g id="edge4" class="edge"><title>Aeri&#45;&gt;Kodrir</title>
<a xlink:title="Aeri &#45;&gt; Kodrir (BossEmployee, Acquaintance)">
<path fill="none" stroke="orange" d="M161.806,-278.762C149.796,-264.849 133.798,-243.676 126,-222 116.394,-195.301 114.844,-162.734 115.27,-139.802"/>
<polygon fill="orange" stroke="orange" points="118.772,-139.801 115.598,-129.693 111.776,-139.575 118.772,-139.801"/>
</a>
<text text-anchor="middle" x="175.5" y="-199.4" font-family="Times Roman,serif" font-size="14.00">BossEmployee</text>
</g>
<!-- Aeri&#45;&gt;Leifur -->
<g id="edge6" class="edge"><title>Aeri&#45;&gt;Leifur</title>
<a xlink:title="Aeri &#45;&gt; Leifur (BossEmployee, Acquaintance)">
<path fill="none" stroke="orange" d="M151.515,-284.104C112.946,-266.031 41.16,-225.812 12,-166 -6.87923,-127.276 10.0871,-76.9488 24.3443,-46.358"/>
<polygon fill="orange" stroke="orange" points="27.5928,-47.6815 28.8291,-37.1591 21.3007,-44.6138 27.5928,-47.6815"/>
</a>
<text text-anchor="middle" x="61.5" y="-153.4" font-family="Times Roman,serif" font-size="14.00">BossEmployee</text>
</g>
<!-- SkaldtheElder -->
<g id="node7" class="node"><title>SkaldtheElder</title>
<a xlink:href="http://www.uesp.net/wiki/Skyrim:Skald" xlink:title="Skald">
<ellipse fill="none" stroke="black" cx="470" cy="-203" rx="38.1838" ry="18.3848"/>
<text text-anchor="middle" x="470" y="-199.4" font-family="Times Roman,serif" font-size="14.00">Skald</text>
</a>
</g>
<!-- Aeri&#45;&gt;SkaldtheElder -->
<g id="edge8" class="edge"><title>Aeri&#45;&gt;SkaldtheElder</title>
<a xlink:title="Aeri &#45;&gt; Skald (FavorTarget, Acquaintance)">
<path fill="none" stroke="orange" d="M207.844,-291.776C245.876,-287.166 312.096,-277.061 366,-258 391.382,-249.024 418.198,-234.71 438.242,-222.935"/>
<polygon fill="orange" stroke="orange" points="440.159,-225.867 446.946,-217.732 436.567,-219.859 440.159,-225.867"/>
</a>
<text text-anchor="middle" x="445" y="-245.4" font-family="Times Roman,serif" font-size="14.00">FavorTarget</text>
</g>
<!-- EnnodiusPapius -->
<g id="node9" class="node"><title>EnnodiusPapius</title>
<a xlink:href="http://www.uesp.net/wiki/Skyrim:Ennodius Papius" xlink:title="Ennodius Papius">
<ellipse fill="none" stroke="black" cx="324" cy="-203" rx="90.0096" ry="18.3848"/>
<text text-anchor="middle" x="324" y="-199.4" font-family="Times Roman,serif" font-size="14.00">Ennodius Papius</text>
</a>
</g>
<!-- Aeri&#45;&gt;EnnodiusPapius -->
<g id="edge10" class="edge"><title>Aeri&#45;&gt;EnnodiusPapius</title>
<a xlink:title="Aeri &#45;&gt; Ennodius Papius (BossEmployee, Acquaintance)">
<path fill="none" stroke="orange" d="M198.69,-281.425C221.895,-266.902 259.118,-243.606 286.976,-226.171"/>
<polygon fill="orange" stroke="orange" points="289.042,-229.007 295.662,-220.735 285.329,-223.073 289.042,-229.007"/>
</a>
<text text-anchor="middle" x="312.5" y="-245.4" font-family="Times Roman,serif" font-size="14.00">BossEmployee</text>
</g>
<!-- Jod -->
<g id="node11" class="node"><title>Jod</title>
<a xlink:href="http://www.uesp.net/wiki/Skyrim:Jod" xlink:title="Jod">
<ellipse fill="none" stroke="black" cx="570" cy="-111" rx="27" ry="18.3848"/>
<text text-anchor="middle" x="570" y="-107.4" font-family="Times Roman,serif" font-size="14.00">Jod</text>
</a>
</g>
<!-- SkaldtheElder&#45;&gt;Jod -->
<g id="edge12" class="edge"><title>SkaldtheElder&#45;&gt;Jod</title>
<a xlink:title="Skald &#45;&gt; Jod (JarlHousecarl, Confidant)">
<path fill="none" stroke="lime" d="M482.026,-185.214C490.24,-173.817 501.809,-159.131 514,-148 521.938,-140.752 531.427,-133.923 540.319,-128.152"/>
<polygon fill="lime" stroke="lime" points="542.314,-131.033 548.931,-122.758 538.598,-125.1 542.314,-131.033"/>
</a>
<text text-anchor="middle" x="559.5" y="-153.4" font-family="Times Roman,serif" font-size="14.00">JarlHousecarl</text>
</g>
<!-- Madena -->
<g id="node13" class="node"><title>Madena</title>
<a xlink:href="http://www.uesp.net/wiki/Skyrim:Madena" xlink:title="Madena">
<ellipse fill="none" stroke="black" cx="395" cy="-111" rx="50.2046" ry="18.3848"/>
<text text-anchor="middle" x="395" y="-107.4" font-family="Times Roman,serif" font-size="14.00">Madena</text>
</a>
</g>
<!-- SkaldtheElder&#45;&gt;Madena -->
<g id="edge14" class="edge"><title>SkaldtheElder&#45;&gt;Madena</title>
<a xlink:title="Skald &#45;&gt; Madena (BossEmployee, Acquaintance)">
<path fill="none" stroke="orange" d="M441.485,-190.462C421.828,-181.534 398.758,-170.374 396,-166 391.13,-158.278 389.758,-148.654 389.95,-139.625"/>
<polygon fill="orange" stroke="orange" points="393.455,-139.7 390.778,-129.449 386.478,-139.132 393.455,-139.7"/>
</a>
<text text-anchor="middle" x="445.5" y="-153.4" font-family="Times Roman,serif" font-size="14.00">BossEmployee</text>
</g>
<!-- EnnodiusPapius&#45;&gt;Kodrir -->
<g id="edge16" class="edge"><title>EnnodiusPapius&#45;&gt;Kodrir</title>
<a xlink:title="Ennodius Papius &#45;&gt; Kodrir (Foe)">
<path fill="none" stroke="firebrick" d="M286.033,-186.126C248.962,-169.65 192.836,-144.705 155.562,-128.139"/>
<polygon fill="firebrick" stroke="firebrick" points="156.608,-124.773 146.048,-123.91 153.765,-131.17 156.608,-124.773"/>
</a>
</g>
<!-- Bulfrek -->
<g id="node16" class="node"><title>Bulfrek</title>
<a xlink:href="http://www.uesp.net/wiki/Skyrim:Bulfrek" xlink:title="Bulfrek">
<ellipse fill="none" stroke="black" cx="623" cy="-203" rx="46.1672" ry="18.3848"/>
<text text-anchor="middle" x="623" y="-199.4" font-family="Times Roman,serif" font-size="14.00">Bulfrek</text>
</a>
</g>
<!-- Bulfrek&#45;&gt;Jod -->
<g id="edge18" class="edge"><title>Bulfrek&#45;&gt;Jod</title>
<a xlink:title="Bulfrek &#45;&gt; Jod (Friend)">
<path fill="none" stroke="olive" d="M620.917,-184.43C619.043,-173.275 615.531,-159.134 609,-148 605.591,-142.189 601.004,-136.713 596.174,-131.845"/>
<polygon fill="olive" stroke="olive" points="598.227,-128.976 588.518,-124.736 593.464,-134.105 598.227,-128.976"/>
</a>
</g>
</g>
</svg>
