<?xml version="1.0" encoding="UTF-8" standalone="no"?>
<!DOCTYPE svg PUBLIC "-//W3C//DTD SVG 1.1//EN"
 "http://www.w3.org/Graphics/SVG/1.1/DTD/svg11.dtd">
<!-- Generated by graphviz version 2.26.3 (20100126.1600)
 -->
<!-- Title: Relationships_component_30 Pages: 1 -->
<svg width="296pt" height="230pt"
 viewBox="0.00 0.00 296.00 230.00" xmlns="http://www.w3.org/2000/svg" xmlns:xlink="http://www.w3.org/1999/xlink">
<g id="graph1" class="graph" transform="scale(1 1) rotate(0) translate(4 226)">
<title>Relationships_component_30</title>
<polygon fill="white" stroke="white" points="-4,5 -4,-226 293,-226 293,5 -4,5"/>
<!-- Rogatus -->
<g id="node1" class="node"><title>Rogatus</title>
<ellipse fill="none" stroke="black" cx="88" cy="-111" rx="87.889" ry="18.3848"/>
<text text-anchor="middle" x="88" y="-107.4" font-family="Times Roman,serif" font-size="14.00">Rogatus Salvius</text>
</g>
<!-- LeontiusSalvius -->
<g id="node2" class="node"><title>LeontiusSalvius</title>
<ellipse fill="none" stroke="black" cx="157" cy="-19" rx="91.2168" ry="18.3848"/>
<text text-anchor="middle" x="157" y="-15.4" font-family="Times Roman,serif" font-size="14.00">Leontius Salvius</text>
</g>
<!-- Rogatus&#45;&gt;LeontiusSalvius -->
<g id="edge2" class="edge"><title>Rogatus&#45;&gt;LeontiusSalvius</title>
<a xlink:title="Rogatus Salvius &#45;&gt; Leontius Salvius (ParentChild, Ally)">
<path fill="none" stroke="green" d="M95.8308,-92.4892C100.996,-81.3555 108.388,-67.2163 117,-56 120.159,-51.8849 123.801,-47.8348 127.573,-44.0108"/>
<polygon fill="green" stroke="green" points="130.108,-46.4293 134.896,-36.9779 125.259,-41.3807 130.108,-46.4293"/>
</a>
<text text-anchor="middle" x="157.5" y="-61.4" font-family="Times Roman,serif" font-size="14.00">ParentChild</text>
</g>
<!-- Vigdis -->
<g id="node4" class="node"><title>Vigdis</title>
<ellipse fill="none" stroke="black" cx="165" cy="-203" rx="77.7817" ry="18.3848"/>
<text text-anchor="middle" x="165" y="-199.4" font-family="Times Roman,serif" font-size="14.00">Vigdis Salvius</text>
</g>
<!-- Vigdis&#45;&gt;Rogatus -->
<g id="edge4" class="edge"><title>Vigdis&#45;&gt;Rogatus</title>
<a xlink:title="Vigdis Salvius &#45;&gt; Rogatus Salvius (Spouse, Ally)">
<path fill="none" stroke="green" d="M149.787,-184.824C138.471,-171.303 122.856,-152.646 110.155,-137.471"/>
<polygon fill="green" stroke="green" points="112.547,-134.876 103.445,-129.453 107.179,-139.368 112.547,-134.876"/>
</a>
<text text-anchor="middle" x="158" y="-153.4" font-family="Times Roman,serif" font-size="14.00">Spouse</text>
</g>
<!-- Vigdis&#45;&gt;LeontiusSalvius -->
<g id="edge6" class="edge"><title>Vigdis&#45;&gt;LeontiusSalvius</title>
<a xlink:title="Vigdis Salvius &#45;&gt; Leontius Salvius (ParentChild, Ally)">
<path fill="none" stroke="green" d="M178.024,-184.536C181.473,-178.832 184.835,-172.368 187,-166 202.815,-119.482 217.959,-100.896 198,-56 196.154,-51.8466 193.585,-47.9627 190.625,-44.3908"/>
<polygon fill="green" stroke="green" points="193.087,-41.9006 183.649,-37.0865 188.025,-46.7355 193.087,-41.9006"/>
</a>
<text text-anchor="middle" x="247.5" y="-107.4" font-family="Times Roman,serif" font-size="14.00">ParentChild</text>
</g>
</g>
</svg>
