<?xml version="1.0" encoding="UTF-8" standalone="no"?>
<!DOCTYPE svg PUBLIC "-//W3C//DTD SVG 1.1//EN"
 "http://www.w3.org/Graphics/SVG/1.1/DTD/svg11.dtd">
<!-- Generated by graphviz version 2.26.3 (20100126.1600)
 -->
<!-- Title: Relationships_component_35 Pages: 1 -->
<svg width="386pt" height="318pt"
 viewBox="0.00 0.00 386.00 318.00" xmlns="http://www.w3.org/2000/svg" xmlns:xlink="http://www.w3.org/1999/xlink">
<g id="graph1" class="graph" transform="scale(1 1) rotate(0) translate(4 314)">
<title>Relationships_component_35</title>
<polygon fill="white" stroke="white" points="-4,5 -4,-314 383,-314 383,5 -4,5"/>
<!-- AlainDufont -->
<g id="node1" class="node"><title>AlainDufont</title>
<a xlink:href="http://www.uesp.net/wiki/Skyrim:Alain Dufont" xlink:title="&lt;TABLE&gt;">
<image xlink:href="120px-SR-npc-Alain_Dufont.jpg" width="91px" height="91px" preserveAspectRatio="xMinYMin meet" x="12" y="-301"/>
<text text-anchor="start" x="13.5" y="-193.733" font-family="Times Roman,serif" font-size="14.00">Alain Dufont</text>
</a>
</g>
<!-- Muiri -->
<g id="node2" class="node"><title>Muiri</title>
<a xlink:href="http://www.uesp.net/wiki/Skyrim:Muiri" xlink:title="&lt;TABLE&gt;">
<image xlink:href="120px-SR-npc-Muiri.jpg" width="91px" height="91px" preserveAspectRatio="xMinYMin meet" x="28" y="-119"/>
<text text-anchor="start" x="56" y="-11.7333" font-family="Times Roman,serif" font-size="14.00">Muiri</text>
</a>
</g>
<!-- AlainDufont&#45;&gt;Muiri -->
<g id="edge2" class="edge"><title>AlainDufont&#45;&gt;Muiri</title>
<a xlink:title="Alain Dufont &#45;&gt; Muiri (Enemy)">
<path fill="none" stroke="red" d="M62.596,-182.345C63.8627,-167.937 65.2181,-152.52 66.5179,-137.734"/>
<polygon fill="red" stroke="red" points="70.0179,-137.887 67.4071,-127.619 63.0447,-137.274 70.0179,-137.887"/>
</a>
</g>
<!-- Bothela -->
<g id="node4" class="node"><title>Bothela</title>
<a xlink:href="http://www.uesp.net/wiki/Skyrim:Bothela" xlink:title="&lt;TABLE&gt;">
<image xlink:href="120px-SR-npc-Bothela.jpg" width="91px" height="91px" preserveAspectRatio="xMinYMin meet" x="161" y="-301"/>
<text text-anchor="start" x="179.5" y="-193.733" font-family="Times Roman,serif" font-size="14.00">Bothela</text>
</a>
</g>
<!-- Bothela&#45;&gt;Muiri -->
<g id="edge4" class="edge"><title>Bothela&#45;&gt;Muiri</title>
<a xlink:title="Bothela &#45;&gt; Muiri (MasterAssistant, Friend)">
<path fill="none" stroke="olive" d="M148.926,-201.832C140.255,-195.167 131.4,-188.388 123,-182 112.387,-173.929 106.427,-175.073 99,-164 93.5291,-155.844 89.209,-146.602 85.7978,-137.113"/>
<polygon fill="olive" stroke="olive" points="89.1132,-135.99 82.6806,-127.572 82.4593,-138.164 89.1132,-135.99"/>
</a>
<text text-anchor="middle" x="154.5" y="-151.4" font-family="Times Roman,serif" font-size="14.00">MasterAssistant</text>
</g>
<!-- Odvan -->
<g id="node6" class="node"><title>Odvan</title>
<a xlink:href="http://www.uesp.net/wiki/Skyrim:Odvan" xlink:title="&lt;TABLE&gt;">
<image xlink:href="120px-SR-npc-Odvan.jpg" width="91px" height="91px" preserveAspectRatio="xMinYMin meet" x="179" y="-119"/>
<text text-anchor="start" x="201.5" y="-11.7333" font-family="Times Roman,serif" font-size="14.00">Odvan</text>
</a>
</g>
<!-- Bothela&#45;&gt;Odvan -->
<g id="edge6" class="edge"><title>Bothela&#45;&gt;Odvan</title>
<a xlink:title="Bothela &#45;&gt; Odvan (GrandparentGrandchild, Ally)">
<path fill="none" stroke="green" d="M212.296,-182.345C213.721,-167.937 215.245,-152.52 216.708,-137.734"/>
<polygon fill="green" stroke="green" points="220.207,-137.915 217.708,-127.619 213.241,-137.226 220.207,-137.915"/>
</a>
<text text-anchor="middle" x="296.5" y="-151.4" font-family="Times Roman,serif" font-size="14.00">GrandparentGrandchild</text>
</g>
</g>
</svg>
