<?xml version="1.0" encoding="UTF-8" standalone="no"?>
<!DOCTYPE svg PUBLIC "-//W3C//DTD SVG 1.1//EN"
 "http://www.w3.org/Graphics/SVG/1.1/DTD/svg11.dtd">
<!-- Generated by graphviz version 2.26.3 (20100126.1600)
 -->
<!-- Title: Relationships_component_20 Pages: 1 -->
<svg width="194pt" height="500pt"
 viewBox="0.00 0.00 194.00 500.00" xmlns="http://www.w3.org/2000/svg" xmlns:xlink="http://www.w3.org/1999/xlink">
<g id="graph1" class="graph" transform="scale(1 1) rotate(0) translate(4 496)">
<title>Relationships_component_20</title>
<polygon fill="white" stroke="white" points="-4,5 -4,-496 191,-496 191,5 -4,5"/>
<!-- Vekel -->
<g id="node1" class="node"><title>Vekel</title>
<a xlink:href="http://www.uesp.net/wiki/Skyrim:Vekel the Man" xlink:title="&lt;TABLE&gt;">
<image xlink:href="120px-SR-npc-Vekel_the_Man.jpg" width="100px" height="91px" preserveAspectRatio="xMinYMin meet" x="12" y="-301"/>
<text text-anchor="start" x="12.5" y="-193.733" font-family="Times Roman,serif" font-size="14.00">Vekel the Man</text>
</a>
</g>
<!-- Dirge -->
<g id="node2" class="node"><title>Dirge</title>
<a xlink:href="http://www.uesp.net/wiki/Skyrim:Dirge" xlink:title="&lt;TABLE&gt;">
<image xlink:href="120px-SR-npc-Dirge.jpg" width="91px" height="91px" preserveAspectRatio="xMinYMin meet" x="70" y="-119"/>
<text text-anchor="start" x="96.5" y="-11.7333" font-family="Times Roman,serif" font-size="14.00">Dirge</text>
</a>
</g>
<!-- Vekel&#45;&gt;Dirge -->
<g id="edge2" class="edge"><title>Vekel&#45;&gt;Dirge</title>
<a xlink:title="Vekel the Man &#45;&gt; Dirge (BusinessPartners, Friend)">
<path fill="none" stroke="olive" d="M44.9144,-182.381C44.0651,-170.091 44.9554,-157.476 49,-146 50.1902,-142.623 51.5849,-139.282 53.1458,-135.993"/>
<polygon fill="olive" stroke="olive" points="56.3885,-137.347 57.9527,-126.868 50.1952,-134.084 56.3885,-137.347"/>
</a>
<text text-anchor="middle" x="108.5" y="-151.4" font-family="Times Roman,serif" font-size="14.00">BusinessPartners</text>
</g>
<!-- Tonilia -->
<g id="node4" class="node"><title>Tonilia</title>
<a xlink:href="http://www.uesp.net/wiki/Skyrim:Tonilia" xlink:title="&lt;TABLE&gt;">
<image xlink:href="120px-SR-npc-Tonilia.jpg" width="91px" height="91px" preserveAspectRatio="xMinYMin meet" x="84" y="-483"/>
<text text-anchor="start" x="107.5" y="-375.733" font-family="Times Roman,serif" font-size="14.00">Tonilia</text>
</a>
</g>
<!-- Tonilia&#45;&gt;Vekel -->
<g id="edge4" class="edge"><title>Tonilia&#45;&gt;Vekel</title>
<a xlink:title="Tonilia &#45;&gt; Vekel the Man (Courting, Lover)">
<path fill="none" stroke="forestgreen" d="M105.567,-364.345C100.211,-349.798 94.4777,-334.223 88.9869,-319.308"/>
<polygon fill="forestgreen" stroke="forestgreen" points="92.1594,-317.794 85.4201,-309.619 85.5903,-320.212 92.1594,-317.794"/>
</a>
<text text-anchor="middle" x="127.5" y="-333.4" font-family="Times Roman,serif" font-size="14.00">Courting</text>
</g>
<!-- Tonilia&#45;&gt;Dirge -->
<g id="edge6" class="edge"><title>Tonilia&#45;&gt;Dirge</title>
<a xlink:title="Tonilia &#45;&gt; Dirge (Friend)">
<path fill="none" stroke="olive" d="M157.13,-364.208C159.058,-358.137 160.734,-352.006 162,-346 180.345,-258.984 193.165,-231.294 168,-146 167.117,-143.008 166.087,-140.021 164.936,-137.056"/>
<polygon fill="olive" stroke="olive" points="168.061,-135.464 160.878,-127.676 161.636,-138.244 168.061,-135.464"/>
</a>
</g>
</g>
</svg>
