<?xml version="1.0" encoding="UTF-8" standalone="no"?>
<!DOCTYPE svg PUBLIC "-//W3C//DTD SVG 1.1//EN"
 "http://www.w3.org/Graphics/SVG/1.1/DTD/svg11.dtd">
<!-- Generated by graphviz version 2.26.3 (20100126.1600)
 -->
<!-- Title: Relationships_component_29 Pages: 1 -->
<svg width="309pt" height="382pt"
 viewBox="0.00 0.00 309.00 382.00" xmlns="http://www.w3.org/2000/svg" xmlns:xlink="http://www.w3.org/1999/xlink">
<g id="graph1" class="graph" transform="scale(1 1) rotate(0) translate(4 378)">
<title>Relationships_component_29</title>
<polygon fill="white" stroke="white" points="-4,5 -4,-378 306,-378 306,5 -4,5"/>
<!-- Jofthor -->
<g id="node1" class="node"><title>Jofthor</title>
<a xlink:href="http://www.uesp.net/wiki/Skyrim:Jofthor" xlink:title="Jofthor">
<ellipse fill="none" stroke="black" cx="201" cy="-355" rx="44.0472" ry="18.3848"/>
<text text-anchor="middle" x="201" y="-351.4" font-family="Times Roman,serif" font-size="14.00">Jofthor</text>
</a>
</g>
<!-- Boti -->
<g id="node2" class="node"><title>Boti</title>
<a xlink:href="http://www.uesp.net/wiki/Skyrim:Boti" xlink:title="Boti">
<ellipse fill="none" stroke="black" cx="138" cy="-263" rx="31.1127" ry="18.3848"/>
<text text-anchor="middle" x="138" y="-259.4" font-family="Times Roman,serif" font-size="14.00">Boti</text>
</a>
</g>
<!-- Jofthor&#45;&gt;Boti -->
<g id="edge2" class="edge"><title>Jofthor&#45;&gt;Boti</title>
<a xlink:title="Jofthor &#45;&gt; Boti (Spouse, Ally)">
<path fill="none" stroke="green" d="M180.368,-338.304C173.915,-332.373 167.144,-325.336 162,-318 156.201,-309.731 151.353,-299.839 147.567,-290.737"/>
<polygon fill="green" stroke="green" points="150.775,-289.331 143.88,-281.286 144.254,-291.875 150.775,-289.331"/>
</a>
<text text-anchor="middle" x="187" y="-305.4" font-family="Times Roman,serif" font-size="14.00">Spouse</text>
</g>
<!-- Fastred -->
<g id="node4" class="node"><title>Fastred</title>
<a xlink:href="http://www.uesp.net/wiki/Skyrim:Fastred" xlink:title="Fastred">
<ellipse fill="none" stroke="black" cx="178" cy="-171" rx="46.8775" ry="18.3848"/>
<text text-anchor="middle" x="178" y="-167.4" font-family="Times Roman,serif" font-size="14.00">Fastred</text>
</a>
</g>
<!-- Jofthor&#45;&gt;Fastred -->
<g id="edge4" class="edge"><title>Jofthor&#45;&gt;Fastred</title>
<a xlink:title="Jofthor &#45;&gt; Fastred (ParentChild, Ally)">
<path fill="none" stroke="green" d="M207.321,-336.603C216.077,-308.004 229.005,-251.637 212,-208 210.315,-203.677 207.863,-199.553 205.035,-195.732"/>
<polygon fill="green" stroke="green" points="207.529,-193.261 198.395,-187.892 202.187,-197.785 207.529,-193.261"/>
</a>
<text text-anchor="middle" x="260.5" y="-259.4" font-family="Times Roman,serif" font-size="14.00">ParentChild</text>
</g>
<!-- Boti&#45;&gt;Fastred -->
<g id="edge6" class="edge"><title>Boti&#45;&gt;Fastred</title>
<a xlink:title="Boti &#45;&gt; Fastred (ParentChild, Ally)">
<path fill="none" stroke="green" d="M130.758,-244.834C127.486,-233.696 125.451,-219.43 131,-208 133.798,-202.237 137.976,-197.103 142.707,-192.63"/>
<polygon fill="green" stroke="green" points="145.041,-195.241 150.478,-186.148 140.557,-189.865 145.041,-195.241"/>
</a>
<text text-anchor="middle" x="171.5" y="-213.4" font-family="Times Roman,serif" font-size="14.00">ParentChild</text>
</g>
<!-- BassianusAxius -->
<g id="node7" class="node"><title>BassianusAxius</title>
<a xlink:href="http://www.uesp.net/wiki/Skyrim:Bassianus Axius" xlink:title="Bassianus Axius">
<ellipse fill="none" stroke="black" cx="90" cy="-95" rx="89.8026" ry="18.3848"/>
<text text-anchor="middle" x="90" y="-91.4" font-family="Times Roman,serif" font-size="14.00">Bassianus Axius</text>
</a>
</g>
<!-- Fastred&#45;&gt;BassianusAxius -->
<g id="edge8" class="edge"><title>Fastred&#45;&gt;BassianusAxius</title>
<a xlink:title="Fastred &#45;&gt; Bassianus Axius (Lover)">
<path fill="none" stroke="forestgreen" d="M158.47,-154.133C146.813,-144.065 131.795,-131.096 118.796,-119.87"/>
<polygon fill="forestgreen" stroke="forestgreen" points="120.868,-117.034 111.012,-113.147 116.292,-122.332 120.868,-117.034"/>
</a>
</g>
<!-- Klimmek -->
<g id="node9" class="node"><title>Klimmek</title>
<a xlink:href="http://www.uesp.net/wiki/Skyrim:Klimmek" xlink:title="Klimmek">
<ellipse fill="none" stroke="black" cx="172" cy="-19" rx="53.033" ry="18.3848"/>
<text text-anchor="middle" x="172" y="-15.4" font-family="Times Roman,serif" font-size="14.00">Klimmek</text>
</a>
</g>
<!-- Fastred&#45;&gt;Klimmek -->
<g id="edge10" class="edge"><title>Fastred&#45;&gt;Klimmek</title>
<a xlink:title="Fastred &#45;&gt; Klimmek (Friend)">
<path fill="none" stroke="olive" d="M183.015,-152.39C187.514,-133.206 192.86,-102.451 189,-76 187.602,-66.4227 184.949,-56.2178 182.147,-47.1286"/>
<polygon fill="olive" stroke="olive" points="185.413,-45.8522 178.98,-37.4337 178.759,-48.0262 185.413,-45.8522"/>
</a>
</g>
<!-- BassianusAxius&#45;&gt;Klimmek -->
<g id="edge12" class="edge"><title>BassianusAxius&#45;&gt;Klimmek</title>
<a xlink:title="Bassianus Axius &#45;&gt; Klimmek (Friend)">
<path fill="none" stroke="olive" d="M109.85,-76.6025C120.659,-66.5843 134.169,-54.0629 145.829,-43.2557"/>
<polygon fill="olive" stroke="olive" points="148.223,-45.8096 153.178,-36.4449 143.464,-40.6755 148.223,-45.8096"/>
</a>
</g>
</g>
</svg>
