<?xml version="1.0" encoding="UTF-8" standalone="no"?>
<!DOCTYPE svg PUBLIC "-//W3C//DTD SVG 1.1//EN"
 "http://www.w3.org/Graphics/SVG/1.1/DTD/svg11.dtd">
<!-- Generated by graphviz version 2.26.3 (20100126.1600)
 -->
<!-- Title: Relationships_component_4 Pages: 1 -->
<svg width="2006pt" height="1574pt"
 viewBox="0.00 0.00 2006.00 1574.00" xmlns="http://www.w3.org/2000/svg" xmlns:xlink="http://www.w3.org/1999/xlink">
<g id="graph1" class="graph" transform="scale(1 1) rotate(0) translate(4 1570)">
<title>Relationships_component_4</title>
<polygon fill="white" stroke="white" points="-4,5 -4,-1570 2003,-1570 2003,5 -4,5"/>
<!-- Annekke -->
<g id="node1" class="node"><title>Annekke</title>
<a xlink:href="http://www.uesp.net/wiki/Skyrim:Annekke Crag-Jumper" xlink:title="&lt;TABLE&gt;">
<image xlink:href="120px-SR-npc-Annekke_Crag-Jumper.jpg" width="120px" height="91px" preserveAspectRatio="xMinYMin meet" x="113.5" y="-877"/>
<text text-anchor="start" x="97.5" y="-769.733" font-family="Times Roman,serif" font-size="14.00">Annekke Crag&#45;Jumper</text>
</a>
</g>
<!-- Verner -->
<g id="node2" class="node"><title>Verner</title>
<a xlink:href="http://www.uesp.net/wiki/Skyrim:Verner Rock-Chucker" xlink:title="&lt;TABLE&gt;">
<text text-anchor="start" x="12.5" y="-572.733" font-family="Times Roman,serif" font-size="14.00">Verner Rock&#45;Chucker</text>
</a>
</g>
<!-- Annekke&#45;&gt;Verner -->
<g id="edge2" class="edge"><title>Annekke&#45;&gt;Verner</title>
<a xlink:title="Annekke Crag&#45;Jumper &#45;&gt; Verner Rock&#45;Chucker (Spouse, Ally)">
<path fill="none" stroke="green" d="M144.55,-758.312C135.967,-739.097 126.478,-717.853 117.644,-698.078"/>
<polygon fill="green" stroke="green" points="120.777,-696.509 113.502,-688.806 114.385,-699.364 120.777,-696.509"/>
</a>
<text text-anchor="middle" x="160" y="-727.4" font-family="Times Roman,serif" font-size="14.00">Spouse</text>
</g>
<!-- Sylgja -->
<g id="node4" class="node"><title>Sylgja</title>
<a xlink:href="http://www.uesp.net/wiki/Skyrim:Sylgja" xlink:title="&lt;TABLE&gt;">
<text text-anchor="start" x="131.5" y="-375.733" font-family="Times Roman,serif" font-size="14.00">Sylgja</text>
</a>
</g>
<!-- Annekke&#45;&gt;Sylgja -->
<g id="edge4" class="edge"><title>Annekke&#45;&gt;Sylgja</title>
<a xlink:title="Annekke Crag&#45;Jumper &#45;&gt; Sylgja (ParentChild, Ally)">
<path fill="none" stroke="green" d="M187.365,-758.375C199.305,-694.697 211.473,-594.337 192,-510 191.349,-507.179 190.586,-504.342 189.732,-501.507"/>
<polygon fill="green" stroke="green" points="193.005,-500.26 186.502,-491.896 186.37,-502.49 193.005,-500.26"/>
</a>
<text text-anchor="middle" x="243.5" y="-621.4" font-family="Times Roman,serif" font-size="14.00">ParentChild</text>
</g>
<!-- Nurelion -->
<g id="node6" class="node"><title>Nurelion</title>
<a xlink:href="http://www.uesp.net/wiki/Skyrim:Nurelion" xlink:title="&lt;TABLE&gt;">
<text text-anchor="start" x="480" y="-572.733" font-family="Times Roman,serif" font-size="14.00">Nurelion</text>
</a>
</g>
<!-- Annekke&#45;&gt;Nurelion -->
<g id="edge6" class="edge"><title>Annekke&#45;&gt;Nurelion</title>
<a xlink:title="Annekke Crag&#45;Jumper &#45;&gt; Nurelion (Friend)">
<path fill="none" stroke="olive" d="M261.107,-763.463C264.098,-761.605 267.068,-759.78 270,-758 327.513,-723.092 394.571,-686.085 442.993,-659.995"/>
<polygon fill="olive" stroke="olive" points="444.661,-663.072 451.811,-655.254 441.346,-656.907 444.661,-663.072"/>
</a>
</g>
<!-- Verner&#45;&gt;Sylgja -->
<g id="edge8" class="edge"><title>Verner&#45;&gt;Sylgja</title>
<a xlink:title="Verner Rock&#45;Chucker &#45;&gt; Sylgja (ParentChild, Ally)">
<path fill="none" stroke="green" d="M96.5399,-561.248C100.373,-544.354 105.183,-526.289 111,-510 112.037,-507.096 113.152,-504.162 114.327,-501.218"/>
<polygon fill="green" stroke="green" points="117.631,-502.39 118.263,-491.814 111.174,-499.688 117.631,-502.39"/>
</a>
<text text-anchor="middle" x="151.5" y="-515.4" font-family="Times Roman,serif" font-size="14.00">ParentChild</text>
</g>
<!-- Filnjar -->
<g id="node27" class="node"><title>Filnjar</title>
<a xlink:href="http://www.uesp.net/wiki/Skyrim:Filnjar" xlink:title="&lt;TABLE&gt;">
<image xlink:href="120px-SR-npc-Filnjar.jpg" width="91px" height="91px" preserveAspectRatio="xMinYMin meet" x="107" y="-301"/>
<text text-anchor="start" x="131" y="-193.733" font-family="Times Roman,serif" font-size="14.00">Filnjar</text>
</a>
</g>
<!-- Sylgja&#45;&gt;Filnjar -->
<g id="edge40" class="edge"><title>Sylgja&#45;&gt;Filnjar</title>
<a xlink:title="Sylgja &#45;&gt; Filnjar (BossEmployee, Friend)">
<path fill="none" stroke="olive" d="M152,-364.345C152,-349.937 152,-334.52 152,-319.734"/>
<polygon fill="olive" stroke="olive" points="155.5,-319.619 152,-309.619 148.5,-319.619 155.5,-319.619"/>
</a>
<text text-anchor="middle" x="201.5" y="-333.4" font-family="Times Roman,serif" font-size="14.00">BossEmployee</text>
</g>
<!-- QuintusNavale -->
<g id="node22" class="node"><title>QuintusNavale</title>
<a xlink:href="http://www.uesp.net/wiki/Skyrim:Quintus Navale" xlink:title="&lt;TABLE&gt;">
<text text-anchor="start" x="634.5" y="-375.733" font-family="Times Roman,serif" font-size="14.00">Quintus Navale</text>
</a>
</g>
<!-- Nurelion&#45;&gt;QuintusNavale -->
<g id="edge64" class="edge"><title>Nurelion&#45;&gt;QuintusNavale</title>
<a xlink:title="Nurelion &#45;&gt; Quintus Navale (MasterAssistant, Ally)">
<path fill="none" stroke="green" d="M566.129,-562.126C584.354,-542.069 604.648,-519.733 623.367,-499.133"/>
<polygon fill="green" stroke="green" points="626.051,-501.384 630.185,-491.629 620.87,-496.676 626.051,-501.384"/>
</a>
<text text-anchor="middle" x="665.5" y="-515.4" font-family="Times Roman,serif" font-size="14.00">MasterAssistant</text>
</g>
<!-- Iddra -->
<g id="node9" class="node"><title>Iddra</title>
<a xlink:href="http://www.uesp.net/wiki/Skyrim:Iddra" xlink:title="&lt;TABLE&gt;">
<image xlink:href="dummy.jpg" width="91px" height="91px" preserveAspectRatio="xMinYMin meet" x="798" y="-1059"/>
<text text-anchor="start" x="825.5" y="-951.733" font-family="Times Roman,serif" font-size="14.00">Iddra</text>
</a>
</g>
<!-- Roggi -->
<g id="node10" class="node"><title>Roggi</title>
<a xlink:href="http://www.uesp.net/wiki/Skyrim:Roggi Knot-Beard" xlink:title="&lt;TABLE&gt;">
<text text-anchor="start" x="701.5" y="-557.733" font-family="Times Roman,serif" font-size="14.00">Roggi Knot&#45;Beard</text>
</a>
</g>
<!-- Iddra&#45;&gt;Roggi -->
<g id="edge10" class="edge"><title>Iddra&#45;&gt;Roggi</title>
<a xlink:title="Iddra &#45;&gt; Roggi Knot&#45;Beard (FavorTarget, Acquaintance)">
<path fill="none" stroke="orange" d="M825.52,-940.494C820.895,-922.9 816.063,-903.757 812,-886 798.918,-828.828 786.262,-764.129 776.829,-713.451"/>
<polygon fill="orange" stroke="orange" points="780.25,-712.703 774.987,-703.509 773.368,-713.979 780.25,-712.703"/>
</a>
<text text-anchor="middle" x="853" y="-818.4" font-family="Times Roman,serif" font-size="14.00">FavorTarget</text>
</g>
<!-- Kjeld -->
<g id="node12" class="node"><title>Kjeld</title>
<a xlink:href="http://www.uesp.net/wiki/Skyrim:Kjeld" xlink:title="&lt;TABLE&gt;">
<image xlink:href="dummy.jpg" width="91px" height="91px" preserveAspectRatio="xMinYMin meet" x="915" y="-877"/>
<text text-anchor="start" x="943.5" y="-769.733" font-family="Times Roman,serif" font-size="14.00">Kjeld</text>
</a>
</g>
<!-- Iddra&#45;&gt;Kjeld -->
<g id="edge12" class="edge"><title>Iddra&#45;&gt;Kjeld</title>
<a xlink:title="Iddra &#45;&gt; Kjeld (Spouse, Acquaintance)">
<path fill="none" stroke="orange" d="M883.921,-940.345C893.54,-925.382 903.858,-909.332 913.694,-894.031"/>
<polygon fill="orange" stroke="orange" points="916.639,-895.923 919.102,-885.619 910.75,-892.138 916.639,-895.923"/>
</a>
<text text-anchor="middle" x="931" y="-909.4" font-family="Times Roman,serif" font-size="14.00">Spouse</text>
</g>
<!-- Kjeld&#45;&gt;Roggi -->
<g id="edge22" class="edge"><title>Kjeld&#45;&gt;Roggi</title>
<a xlink:title="Kjeld &#45;&gt; Roggi Knot&#45;Beard (Friend)">
<path fill="none" stroke="olive" d="M902.975,-765.548C883.557,-746.325 861.483,-724.473 840.623,-703.823"/>
<polygon fill="olive" stroke="olive" points="842.871,-701.123 833.302,-696.575 837.946,-706.098 842.871,-701.123"/>
</a>
</g>
<!-- KjeldtheYounger -->
<g id="node25" class="node"><title>KjeldtheYounger</title>
<a xlink:href="http://www.uesp.net/wiki/Skyrim:Kjeld the Younger" xlink:title="&lt;TABLE&gt;">
<image xlink:href="dummy.jpg" width="120px" height="91px" preserveAspectRatio="xMinYMin meet" x="1208.5" y="-680"/>
<text text-anchor="start" x="1207.5" y="-572.733" font-family="Times Roman,serif" font-size="14.00">Kjeld the Younger</text>
</a>
</g>
<!-- Kjeld&#45;&gt;KjeldtheYounger -->
<g id="edge24" class="edge"><title>Kjeld&#45;&gt;KjeldtheYounger</title>
<a xlink:title="Kjeld &#45;&gt; Kjeld the Younger (ParentChild, Acquaintance)">
<path fill="none" stroke="orange" d="M1017.21,-764.079C1020.1,-761.932 1023.04,-759.892 1026,-758 1082.18,-722.064 1107.91,-736.764 1166,-704 1172.79,-700.17 1179.62,-695.921 1186.35,-691.438"/>
<polygon fill="orange" stroke="orange" points="1188.54,-694.183 1194.82,-685.649 1184.59,-688.405 1188.54,-694.183"/>
</a>
<text text-anchor="middle" x="1164.5" y="-727.4" font-family="Times Roman,serif" font-size="14.00">ParentChild</text>
</g>
<!-- AmbarysRendar -->
<g id="node14" class="node"><title>AmbarysRendar</title>
<a xlink:href="http://www.uesp.net/wiki/Skyrim:Ambarys Rendar" xlink:title="&lt;TABLE&gt;">
<image xlink:href="dummy.jpg" width="115px" height="91px" preserveAspectRatio="xMinYMin meet" x="477" y="-1059"/>
<text text-anchor="start" x="477.5" y="-951.733" font-family="Times Roman,serif" font-size="14.00">Ambarys Rendar</text>
</a>
</g>
<!-- MalthyrElenil -->
<g id="node15" class="node"><title>MalthyrElenil</title>
<a xlink:href="http://www.uesp.net/wiki/Skyrim:Malthyr Elenil" xlink:title="&lt;TABLE&gt;">
<text text-anchor="start" x="423.5" y="-769.733" font-family="Times Roman,serif" font-size="14.00">Malthyr Elenil</text>
</a>
</g>
<!-- AmbarysRendar&#45;&gt;MalthyrElenil -->
<g id="edge14" class="edge"><title>AmbarysRendar&#45;&gt;MalthyrElenil</title>
<a xlink:title="Ambarys Rendar &#45;&gt; Malthyr Elenil (BossEmployee, Ally)">
<path fill="none" stroke="green" d="M511.966,-940.345C506.93,-925.798 501.539,-910.223 496.376,-895.308"/>
<polygon fill="green" stroke="green" points="499.601,-893.924 493.022,-885.619 492.986,-896.214 499.601,-893.924"/>
</a>
<text text-anchor="middle" x="554.5" y="-909.4" font-family="Times Roman,serif" font-size="14.00">BossEmployee</text>
</g>
<!-- Dravynea -->
<g id="node17" class="node"><title>Dravynea</title>
<a xlink:href="http://www.uesp.net/wiki/Skyrim:Dravynea the Stoneweaver" xlink:title="&lt;TABLE&gt;">
<image xlink:href="120px-SR-npc-Dravynea_the_Stoneweaver.jpg" width="120px" height="91px" preserveAspectRatio="xMinYMin meet" x="598" y="-877"/>
<text text-anchor="start" x="561.5" y="-769.733" font-family="Times Roman,serif" font-size="14.00">Dravynea the Stoneweaver</text>
</a>
</g>
<!-- AmbarysRendar&#45;&gt;Dravynea -->
<g id="edge16" class="edge"><title>AmbarysRendar&#45;&gt;Dravynea</title>
<a xlink:title="Ambarys Rendar &#45;&gt; Dravynea the Stoneweaver (Confidant)">
<path fill="none" stroke="lime" d="M594.283,-940.444C599.135,-934.375 603.784,-928.177 608,-922 613.846,-913.435 619.43,-904.089 624.606,-894.662"/>
<polygon fill="lime" stroke="lime" points="627.811,-896.091 629.439,-885.622 621.638,-892.79 627.811,-896.091"/>
</a>
</g>
<!-- Dravynea&#45;&gt;Roggi -->
<g id="edge56" class="edge"><title>Dravynea&#45;&gt;Roggi</title>
<a xlink:title="Dravynea the Stoneweaver &#45;&gt; Roggi Knot&#45;Beard (Friend)">
<path fill="none" stroke="olive" d="M691.299,-758.312C698.914,-743.746 707.139,-728.015 715.177,-712.641"/>
<polygon fill="olive" stroke="olive" points="718.351,-714.126 719.883,-703.642 712.148,-710.882 718.351,-714.126"/>
</a>
</g>
<!-- Hrefna -->
<g id="node19" class="node"><title>Hrefna</title>
<a xlink:href="http://www.uesp.net/wiki/Skyrim:Hrefna" xlink:title="&lt;TABLE&gt;">
<image xlink:href="120px-SR-npc-Hrefna.jpg" width="91px" height="91px" preserveAspectRatio="xMinYMin meet" x="1179" y="-877"/>
<text text-anchor="start" x="1201" y="-769.733" font-family="Times Roman,serif" font-size="14.00">Hrefna</text>
</a>
</g>
<!-- SondasDrenim -->
<g id="node20" class="node"><title>SondasDrenim</title>
<a xlink:href="http://www.uesp.net/wiki/Skyrim:Sondas Drenim" xlink:title="&lt;TABLE&gt;">
<text text-anchor="start" x="1039.5" y="-572.733" font-family="Times Roman,serif" font-size="14.00">Sondas Drenim</text>
</a>
</g>
<!-- Hrefna&#45;&gt;SondasDrenim -->
<g id="edge18" class="edge"><title>Hrefna&#45;&gt;SondasDrenim</title>
<a xlink:title="Hrefna &#45;&gt; Sondas Drenim (Confidant)">
<path fill="none" stroke="lime" d="M1221.81,-758.467C1219.39,-745.783 1215.41,-732.995 1209,-722 1202.46,-710.786 1196.08,-712.177 1186,-704 1179.28,-698.547 1172.32,-692.836 1165.38,-687.086"/>
<polygon fill="lime" stroke="lime" points="1167.17,-684.027 1157.24,-680.331 1162.7,-689.412 1167.17,-684.027"/>
</a>
</g>
<!-- SondasDrenim&#45;&gt;QuintusNavale -->
<g id="edge20" class="edge"><title>SondasDrenim&#45;&gt;QuintusNavale</title>
<a xlink:title="Sondas Drenim &#45;&gt; Quintus Navale (FavorTarget, Acquaintance)">
<path fill="none" stroke="orange" d="M1026.64,-593.13C954.644,-558.022 839.048,-501.654 763.306,-464.721"/>
<polygon fill="orange" stroke="orange" points="764.794,-461.553 754.272,-460.316 761.726,-467.845 764.794,-461.553"/>
</a>
<text text-anchor="middle" x="931" y="-515.4" font-family="Times Roman,serif" font-size="14.00">FavorTarget</text>
</g>
<!-- Odfel -->
<g id="node28" class="node"><title>Odfel</title>
<a xlink:href="http://www.uesp.net/wiki/Skyrim:Odfel" xlink:title="&lt;TABLE&gt;">
<text text-anchor="start" x="55" y="-11.7333" font-family="Times Roman,serif" font-size="14.00">Odfel</text>
</a>
</g>
<!-- Filnjar&#45;&gt;Odfel -->
<g id="edge26" class="edge"><title>Filnjar&#45;&gt;Odfel</title>
<a xlink:title="Filnjar &#45;&gt; Odfel (BossEmployee, Acquaintance)">
<path fill="none" stroke="orange" d="M118.467,-182.341C115.507,-176.189 112.637,-170.004 110,-164 106.215,-155.383 102.475,-146.245 98.9096,-137.133"/>
<polygon fill="orange" stroke="orange" points="102.125,-135.742 95.2637,-127.668 95.5925,-138.258 102.125,-135.742"/>
</a>
<text text-anchor="middle" x="159.5" y="-151.4" font-family="Times Roman,serif" font-size="14.00">BossEmployee</text>
</g>
<!-- GrogmarGroBurzag -->
<g id="node30" class="node"><title>GrogmarGroBurzag</title>
<a xlink:href="http://www.uesp.net/wiki/Skyrim:Grogmar gro-Burzag" xlink:title="&lt;TABLE&gt;">
<image xlink:href="120px-SR-npc-Grogmar_gro-Burzag.jpg" width="120px" height="91px" preserveAspectRatio="xMinYMin meet" x="171.5" y="-119"/>
<text text-anchor="start" x="160.5" y="-11.7333" font-family="Times Roman,serif" font-size="14.00">Grogmar gro&#45;Burzag</text>
</a>
</g>
<!-- Filnjar&#45;&gt;GrogmarGroBurzag -->
<g id="edge28" class="edge"><title>Filnjar&#45;&gt;GrogmarGroBurzag</title>
<a xlink:title="Filnjar &#45;&gt; Grogmar gro&#45;Burzag (BossEmployee, Acquaintance)">
<path fill="none" stroke="orange" d="M199.598,-182.485C203.087,-176.407 206.292,-170.196 209,-164 212.659,-155.627 215.736,-146.584 218.317,-137.478"/>
<polygon fill="orange" stroke="orange" points="221.756,-138.163 220.926,-127.601 214.988,-136.375 221.756,-138.163"/>
</a>
<text text-anchor="middle" x="264.5" y="-151.4" font-family="Times Roman,serif" font-size="14.00">BossEmployee</text>
</g>
<!-- Elda -->
<g id="node32" class="node"><title>Elda</title>
<a xlink:href="http://www.uesp.net/wiki/Skyrim:Elda Early-Dawn" xlink:title="&lt;TABLE&gt;">
<image xlink:href="dummy.jpg" width="117px" height="91px" preserveAspectRatio="xMinYMin meet" x="1443" y="-1059"/>
<text text-anchor="start" x="1443.5" y="-951.733" font-family="Times Roman,serif" font-size="14.00">Elda Early&#45;Dawn</text>
</a>
</g>
<!-- Susanna -->
<g id="node33" class="node"><title>Susanna</title>
<a xlink:href="http://www.uesp.net/wiki/Skyrim:Susanna the Wicked" xlink:title="&lt;TABLE&gt;">
<image xlink:href="dummy.jpg" width="120px" height="91px" preserveAspectRatio="xMinYMin meet" x="1322.5" y="-877"/>
<text text-anchor="start" x="1311.5" y="-769.733" font-family="Times Roman,serif" font-size="14.00">Susanna the Wicked</text>
</a>
</g>
<!-- Elda&#45;&gt;Susanna -->
<g id="edge30" class="edge"><title>Elda&#45;&gt;Susanna</title>
<a xlink:title="Elda Early&#45;Dawn &#45;&gt; Susanna the Wicked (BossEmployee, Friend)">
<path fill="none" stroke="olive" d="M1430.95,-967.726C1414.06,-955.531 1398.02,-940.279 1388,-922 1383.58,-913.936 1380.73,-904.937 1378.99,-895.734"/>
<polygon fill="olive" stroke="olive" points="1382.43,-895.086 1377.51,-885.701 1375.5,-896.104 1382.43,-895.086"/>
</a>
<text text-anchor="middle" x="1437.5" y="-909.4" font-family="Times Roman,serif" font-size="14.00">BossEmployee</text>
</g>
<!-- Nils -->
<g id="node35" class="node"><title>Nils</title>
<a xlink:href="http://www.uesp.net/wiki/Skyrim:Nils" xlink:title="&lt;TABLE&gt;">
<image xlink:href="dummy.jpg" width="91px" height="91px" preserveAspectRatio="xMinYMin meet" x="1413" y="-680"/>
<text text-anchor="start" x="1446" y="-572.733" font-family="Times Roman,serif" font-size="14.00">Nils</text>
</a>
</g>
<!-- Elda&#45;&gt;Nils -->
<g id="edge32" class="edge"><title>Elda&#45;&gt;Nils</title>
<a xlink:title="Elda Early&#45;Dawn &#45;&gt; Nils (BossEmployee, Acquaintance)">
<path fill="none" stroke="orange" d="M1494.19,-940.267C1488.84,-890.592 1481.12,-819.891 1474,-758 1471.78,-738.719 1469.31,-717.875 1466.99,-698.536"/>
<polygon fill="orange" stroke="orange" points="1470.46,-698.085 1465.78,-688.576 1463.51,-698.923 1470.46,-698.085"/>
</a>
<text text-anchor="middle" x="1538.5" y="-818.4" font-family="Times Roman,serif" font-size="14.00">BossEmployee</text>
</g>
<!-- Brunwulf -->
<g id="node37" class="node"><title>Brunwulf</title>
<a xlink:href="http://www.uesp.net/wiki/Skyrim:Brunwulf Free-Winter" xlink:title="&lt;TABLE&gt;">
<image xlink:href="120px-SR-npc-Brunwulf_Free-Winter.jpg" width="120px" height="91px" preserveAspectRatio="xMinYMin meet" x="1646" y="-877"/>
<text text-anchor="start" x="1630.5" y="-769.733" font-family="Times Roman,serif" font-size="14.00">Brunwulf Free&#45;Winter</text>
</a>
</g>
<!-- Elda&#45;&gt;Brunwulf -->
<g id="edge34" class="edge"><title>Elda&#45;&gt;Brunwulf</title>
<a xlink:title="Elda Early&#45;Dawn &#45;&gt; Brunwulf Free&#45;Winter (Lover)">
<path fill="none" stroke="forestgreen" d="M1571.26,-941.621C1589.11,-925.774 1608.41,-908.638 1626.68,-892.422"/>
<polygon fill="forestgreen" stroke="forestgreen" points="1629.28,-894.791 1634.44,-885.535 1624.63,-889.557 1629.28,-894.791"/>
</a>
</g>
<!-- Susanna&#45;&gt;KjeldtheYounger -->
<g id="edge36" class="edge"><title>Susanna&#45;&gt;KjeldtheYounger</title>
<a xlink:title="Susanna the Wicked &#45;&gt; Kjeld the Younger (Courting, Confidant)">
<path fill="none" stroke="lime" d="M1345.14,-758.312C1333.92,-738.923 1321.51,-717.469 1309.98,-697.541"/>
<polygon fill="lime" stroke="lime" points="1312.96,-695.708 1304.92,-688.806 1306.9,-699.214 1312.96,-695.708"/>
</a>
<text text-anchor="middle" x="1362.5" y="-727.4" font-family="Times Roman,serif" font-size="14.00">Courting</text>
</g>
<!-- Susanna&#45;&gt;Nils -->
<g id="edge38" class="edge"><title>Susanna&#45;&gt;Nils</title>
<a xlink:title="Susanna the Wicked &#45;&gt; Nils (Friend)">
<path fill="none" stroke="olive" d="M1406.57,-758.312C1413.95,-739.184 1422.1,-718.046 1429.7,-698.346"/>
<polygon fill="olive" stroke="olive" points="1433.05,-699.396 1433.38,-688.806 1426.52,-696.876 1433.05,-699.396"/>
</a>
</g>
<!-- GannaUriel -->
<g id="node42" class="node"><title>GannaUriel</title>
<a xlink:href="http://www.uesp.net/wiki/Skyrim:Ganna Uriel" xlink:title="&lt;TABLE&gt;">
<image xlink:href="120px-SR-npc-Ganna_Uriel.jpg" width="91px" height="91px" preserveAspectRatio="xMinYMin meet" x="291" y="-877"/>
<text text-anchor="start" x="295" y="-769.733" font-family="Times Roman,serif" font-size="14.00">Ganna Uriel</text>
</a>
</g>
<!-- GannaUriel&#45;&gt;Roggi -->
<g id="edge42" class="edge"><title>GannaUriel&#45;&gt;Roggi</title>
<a xlink:title="Ganna Uriel &#45;&gt; Roggi Knot&#45;Beard (Friend)">
<path fill="none" stroke="olive" d="M393.056,-763.834C395.994,-761.753 398.982,-759.794 402,-758 471.24,-716.845 499.394,-731.778 575,-704 609.618,-691.281 647.169,-675.686 679.407,-661.723"/>
<polygon fill="olive" stroke="olive" points="681.018,-664.839 688.791,-657.64 678.225,-658.42 681.018,-664.839"/>
</a>
</g>
<!-- Tormir -->
<g id="node44" class="node"><title>Tormir</title>
<a xlink:href="http://www.uesp.net/wiki/Skyrim:Tormir" xlink:title="&lt;TABLE&gt;">
<image xlink:href="120px-SR-npc-Tormir.jpg" width="91px" height="91px" preserveAspectRatio="xMinYMin meet" x="1073" y="-1059"/>
<text text-anchor="start" x="1096.5" y="-951.733" font-family="Times Roman,serif" font-size="14.00">Tormir</text>
</a>
</g>
<!-- Tormir&#45;&gt;Kjeld -->
<g id="edge46" class="edge"><title>Tormir&#45;&gt;Kjeld</title>
<a xlink:title="Tormir &#45;&gt; Kjeld (Foe)">
<path fill="none" stroke="firebrick" d="M1062.74,-940.345C1049.51,-925.105 1035.3,-908.737 1021.8,-893.182"/>
<polygon fill="firebrick" stroke="firebrick" points="1024.43,-890.876 1015.23,-885.619 1019.14,-895.465 1024.43,-890.876"/>
</a>
</g>
<!-- Tormir&#45;&gt;Hrefna -->
<g id="edge44" class="edge"><title>Tormir&#45;&gt;Hrefna</title>
<a xlink:title="Tormir &#45;&gt; Hrefna (ParentChild, Friend)">
<path fill="none" stroke="olive" d="M1155.07,-940.345C1163.71,-925.521 1172.96,-909.629 1181.8,-894.456"/>
<polygon fill="olive" stroke="olive" points="1184.94,-896.022 1186.95,-885.619 1178.89,-892.499 1184.94,-896.022"/>
</a>
<text text-anchor="middle" x="1215.5" y="-909.4" font-family="Times Roman,serif" font-size="14.00">ParentChild</text>
</g>
<!-- Liesl -->
<g id="node47" class="node"><title>Liesl</title>
<a xlink:href="http://www.uesp.net/wiki/Skyrim:Liesl" xlink:title="&lt;TABLE&gt;">
<image xlink:href="dummy.jpg" width="91px" height="91px" preserveAspectRatio="xMinYMin meet" x="1655" y="-1557"/>
<text text-anchor="start" x="1685" y="-1449.73" font-family="Times Roman,serif" font-size="14.00">Liesl</text>
</a>
</g>
<!-- Edorfin -->
<g id="node48" class="node"><title>Edorfin</title>
<a xlink:href="http://www.uesp.net/wiki/Skyrim:Edorfin" xlink:title="&lt;TABLE&gt;">
<image xlink:href="dummy.jpg" width="91px" height="91px" preserveAspectRatio="xMinYMin meet" x="1598" y="-1391"/>
<text text-anchor="start" x="1619" y="-1283.73" font-family="Times Roman,serif" font-size="14.00">Edorfin</text>
</a>
</g>
<!-- Liesl&#45;&gt;Edorfin -->
<g id="edge48" class="edge"><title>Liesl&#45;&gt;Edorfin</title>
<a xlink:title="Liesl &#45;&gt; Edorfin (Rival)">
<path fill="none" stroke="orangered" d="M1678.13,-1438.29C1674.85,-1428.76 1671.46,-1418.87 1668.12,-1409.16"/>
<polygon fill="orangered" stroke="orangered" points="1671.37,-1407.86 1664.82,-1399.53 1664.75,-1410.13 1671.37,-1407.86"/>
</a>
</g>
<!-- Brond -->
<g id="node50" class="node"><title>Brond</title>
<a xlink:href="http://www.uesp.net/wiki/Skyrim:Brond" xlink:title="&lt;TABLE&gt;">
<image xlink:href="dummy.jpg" width="91px" height="91px" preserveAspectRatio="xMinYMin meet" x="1661" y="-1225"/>
<text text-anchor="start" x="1685.5" y="-1117.73" font-family="Times Roman,serif" font-size="14.00">Brond</text>
</a>
</g>
<!-- Liesl&#45;&gt;Brond -->
<g id="edge50" class="edge"><title>Liesl&#45;&gt;Brond</title>
<a xlink:title="Liesl &#45;&gt; Brond (Foe)">
<path fill="none" stroke="firebrick" d="M1706.48,-1438.4C1707.53,-1425.69 1708.45,-1412.43 1709,-1400 1711.29,-1348 1710.47,-1289.32 1709.11,-1244.25"/>
<polygon fill="firebrick" stroke="firebrick" points="1712.6,-1243.86 1708.79,-1233.98 1705.61,-1244.08 1712.6,-1243.86"/>
</a>
</g>
<!-- Edorfin&#45;&gt;Brond -->
<g id="edge52" class="edge"><title>Edorfin&#45;&gt;Brond</title>
<a xlink:title="Edorfin &#45;&gt; Brond (Rival)">
<path fill="none" stroke="orangered" d="M1667.18,-1272.29C1670.79,-1262.76 1674.55,-1252.87 1678.23,-1243.16"/>
<polygon fill="orangered" stroke="orangered" points="1681.61,-1244.13 1681.89,-1233.53 1675.07,-1241.64 1681.61,-1244.13"/>
</a>
</g>
<!-- Huki -->
<g id="node57" class="node"><title>Huki</title>
<a xlink:href="http://www.uesp.net/wiki/Skyrim:Huki Seven-Swords" xlink:title="&lt;TABLE&gt;">
<image xlink:href="dummy.jpg" width="120px" height="91px" preserveAspectRatio="xMinYMin meet" x="1646.5" y="-1059"/>
<text text-anchor="start" x="1638.5" y="-951.733" font-family="Times Roman,serif" font-size="14.00">Huki Seven&#45;Swords</text>
</a>
</g>
<!-- Brond&#45;&gt;Huki -->
<g id="edge62" class="edge"><title>Brond&#45;&gt;Huki</title>
<a xlink:title="Brond &#45;&gt; Huki Seven&#45;Swords (Friend)">
<path fill="none" stroke="olive" d="M1706,-1106.29C1706,-1096.96 1706,-1087.28 1706,-1077.77"/>
<polygon fill="olive" stroke="olive" points="1709.5,-1077.53 1706,-1067.53 1702.5,-1077.53 1709.5,-1077.53"/>
</a>
</g>
<!-- Angrenor -->
<g id="node53" class="node"><title>Angrenor</title>
<a xlink:href="http://www.uesp.net/wiki/Skyrim:Angrenor Once-Honored" xlink:title="&lt;TABLE&gt;">
<image xlink:href="120px-SR-npc-Angrenor_Once-Honored.jpg" width="120px" height="91px" preserveAspectRatio="xMinYMin meet" x="1841" y="-1059"/>
<text text-anchor="start" x="1816.5" y="-951.733" font-family="Times Roman,serif" font-size="14.00">Angrenor Once&#45;Honored</text>
</a>
</g>
<!-- Benkum -->
<g id="node54" class="node"><title>Benkum</title>
<a xlink:href="http://www.uesp.net/wiki/Skyrim:Benkum" xlink:title="&lt;TABLE&gt;">
<image xlink:href="dummy.jpg" width="91px" height="91px" preserveAspectRatio="xMinYMin meet" x="1840" y="-877"/>
<text text-anchor="start" x="1857" y="-769.733" font-family="Times Roman,serif" font-size="14.00">Benkum</text>
</a>
</g>
<!-- Angrenor&#45;&gt;Benkum -->
<g id="edge54" class="edge"><title>Angrenor&#45;&gt;Benkum</title>
<a xlink:title="Angrenor Once&#45;Honored &#45;&gt; Benkum (Friend)">
<path fill="none" stroke="olive" d="M1895.4,-940.345C1894.14,-925.937 1892.78,-910.52 1891.48,-895.734"/>
<polygon fill="olive" stroke="olive" points="1894.96,-895.274 1890.59,-885.619 1887.98,-895.887 1894.96,-895.274"/>
</a>
</g>
<!-- Huki&#45;&gt;Brunwulf -->
<g id="edge60" class="edge"><title>Huki&#45;&gt;Brunwulf</title>
<a xlink:title="Huki Seven&#45;Swords &#45;&gt; Brunwulf Free&#45;Winter (Friend)">
<path fill="none" stroke="olive" d="M1706,-940.345C1706,-925.937 1706,-910.52 1706,-895.734"/>
<polygon fill="olive" stroke="olive" points="1709.5,-895.619 1706,-885.619 1702.5,-895.619 1709.5,-895.619"/>
</a>
</g>
<!-- Huki&#45;&gt;Benkum -->
<g id="edge58" class="edge"><title>Huki&#45;&gt;Benkum</title>
<a xlink:title="Huki Seven&#45;Swords &#45;&gt; Benkum (BossEmployee, Acquaintance)">
<path fill="none" stroke="orange" d="M1755.99,-940.416C1766.52,-927.999 1777.83,-915.327 1789,-904 1798.72,-894.141 1809.49,-884.154 1820.2,-874.704"/>
<polygon fill="orange" stroke="orange" points="1822.73,-877.137 1827.97,-867.927 1818.13,-871.862 1822.73,-877.137"/>
</a>
<text text-anchor="middle" x="1838.5" y="-909.4" font-family="Times Roman,serif" font-size="14.00">BossEmployee</text>
</g>
<!-- Derkeethus -->
<g id="node62" class="node"><title>Derkeethus</title>
<a xlink:href="http://www.uesp.net/wiki/Skyrim:Derkeethus" xlink:title="&lt;TABLE&gt;">
<image xlink:href="dummy.jpg" width="91px" height="91px" preserveAspectRatio="xMinYMin meet" x="1047" y="-877"/>
<text text-anchor="start" x="1052" y="-769.733" font-family="Times Roman,serif" font-size="14.00">Derkeethus</text>
</a>
</g>
<!-- Derkeethus&#45;&gt;SondasDrenim -->
<g id="edge66" class="edge"><title>Derkeethus&#45;&gt;SondasDrenim</title>
<a xlink:title="Derkeethus &#45;&gt; Sondas Drenim (Friend)">
<path fill="none" stroke="olive" d="M1092,-758.312C1092,-739.358 1092,-718.43 1092,-698.884"/>
<polygon fill="olive" stroke="olive" points="1095.5,-698.806 1092,-688.806 1088.5,-698.806 1095.5,-698.806"/>
</a>
</g>
<!-- GemmaUriel -->
<g id="node64" class="node"><title>GemmaUriel</title>
<a xlink:href="http://www.uesp.net/wiki/Skyrim:Gemma Uriel" xlink:title="&lt;TABLE&gt;">
<image xlink:href="120px-SR-npc-Gemma_Uriel.jpg" width="92px" height="91px" preserveAspectRatio="xMinYMin meet" x="290" y="-1059"/>
<text text-anchor="start" x="290.5" y="-951.733" font-family="Times Roman,serif" font-size="14.00">Gemma Uriel</text>
</a>
</g>
<!-- GemmaUriel&#45;&gt;GannaUriel -->
<g id="edge68" class="edge"><title>GemmaUriel&#45;&gt;GannaUriel</title>
<a xlink:title="Gemma Uriel &#45;&gt; Ganna Uriel (Siblings, Friend)">
<path fill="none" stroke="olive" d="M336,-940.345C336,-925.937 336,-910.52 336,-895.734"/>
<polygon fill="olive" stroke="olive" points="339.5,-895.619 336,-885.619 332.5,-895.619 339.5,-895.619"/>
</a>
<text text-anchor="middle" x="362.5" y="-909.4" font-family="Times Roman,serif" font-size="14.00">Siblings</text>
</g>
</g>
</svg>
