<?xml version="1.0" encoding="UTF-8" standalone="no"?>
<!DOCTYPE svg PUBLIC "-//W3C//DTD SVG 1.1//EN"
 "http://www.w3.org/Graphics/SVG/1.1/DTD/svg11.dtd">
<!-- Generated by graphviz version 2.26.3 (20100126.1600)
 -->
<!-- Title: Relationships_component_11 Pages: 1 -->
<svg width="1143pt" height="864pt"
 viewBox="0.00 0.00 1142.62 864.00" xmlns="http://www.w3.org/2000/svg" xmlns:xlink="http://www.w3.org/1999/xlink">
<g id="graph1" class="graph" transform="scale(1 1) rotate(0) translate(4 860)">
<title>Relationships_component_11</title>
<polygon fill="white" stroke="white" points="-4,5 -4,-860 1139.62,-860 1139.62,5 -4,5"/>
<!-- Larak -->
<g id="node1" class="node"><title>Larak</title>
<a xlink:href="http://www.uesp.net/wiki/Skyrim:Chief Larak" xlink:title="&lt;TABLE&gt;">
<image xlink:href="120px-SR-npc-Chief_Larak.jpg" width="91px" height="91px" preserveAspectRatio="xMinYMin meet" x="249.62" y="-665"/>
<text text-anchor="start" x="255.62" y="-557.733" font-family="Times Roman,serif" font-size="14.00">Chief Larak</text>
</a>
</g>
<!-- Shuftharz -->
<g id="node2" class="node"><title>Shuftharz</title>
<a xlink:href="http://www.uesp.net/wiki/Skyrim:Shuftharz" xlink:title="&lt;TABLE&gt;">
<image xlink:href="120px-SR-npc-Shuftharz.jpg" width="91px" height="91px" preserveAspectRatio="xMinYMin meet" x="288.62" y="-483"/>
<text text-anchor="start" x="299.12" y="-375.733" font-family="Times Roman,serif" font-size="14.00">Shuftharz</text>
</a>
</g>
<!-- Larak&#45;&gt;Shuftharz -->
<g id="edge2" class="edge"><title>Larak&#45;&gt;Shuftharz</title>
<a xlink:title="Chief Larak &#45;&gt; Shuftharz (Spouse, Lover)">
<path fill="none" stroke="forestgreen" d="M308.26,-546.345C311.348,-531.937 314.651,-516.52 317.82,-501.734"/>
<polygon fill="forestgreen" stroke="forestgreen" points="321.314,-502.13 319.987,-491.619 314.47,-500.663 321.314,-502.13"/>
</a>
<text text-anchor="middle" x="339.62" y="-515.4" font-family="Times Roman,serif" font-size="14.00">Spouse</text>
</g>
<!-- Olur -->
<g id="node4" class="node"><title>Olur</title>
<a xlink:href="http://www.uesp.net/wiki/Skyrim:Olur" xlink:title="&lt;TABLE&gt;">
<image xlink:href="120px-SR-npc-Olur.jpg" width="91px" height="91px" preserveAspectRatio="xMinYMin meet" x="263.62" y="-119"/>
<text text-anchor="start" x="293.62" y="-11.7333" font-family="Times Roman,serif" font-size="14.00">Olur</text>
</a>
</g>
<!-- Larak&#45;&gt;Olur -->
<g id="edge4" class="edge"><title>Larak&#45;&gt;Olur</title>
<a xlink:title="Chief Larak &#45;&gt; Olur (InLawParentChild, Ally)">
<path fill="none" stroke="green" d="M237.496,-549.653C235.879,-548.394 234.253,-547.174 232.62,-546 187.432,-513.499 160.255,-530.04 119.62,-492 60.1278,-436.307 10.086,-404.7 37.6199,-328 74.0125,-226.623 174.981,-146.797 242.861,-102.51"/>
<polygon fill="green" stroke="green" points="244.869,-105.38 251.382,-97.0237 241.079,-99.4948 244.869,-105.38"/>
</a>
<text text-anchor="middle" x="99.6199" y="-333.4" font-family="Times Roman,serif" font-size="14.00">InLawParentChild</text>
</g>
<!-- Borgakh -->
<g id="node6" class="node"><title>Borgakh</title>
<a xlink:href="http://www.uesp.net/wiki/Skyrim:Borgakh the Steel Heart" xlink:title="&lt;TABLE&gt;">
<image xlink:href="120px-SR-npc-Borgakh_the_Steel_Heart.jpg" width="120px" height="91px" preserveAspectRatio="xMinYMin meet" x="444.62" y="-301"/>
<text text-anchor="start" x="420.12" y="-193.733" font-family="Times Roman,serif" font-size="14.00">Borgakh the Steel Heart</text>
</a>
</g>
<!-- Larak&#45;&gt;Borgakh -->
<g id="edge6" class="edge"><title>Larak&#45;&gt;Borgakh</title>
<a xlink:title="Chief Larak &#45;&gt; Borgakh the Steel Heart (InLawParentChild, Rival)">
<path fill="none" stroke="orangered" d="M351.696,-552.769C368.38,-534.301 385.822,-513.121 399.62,-492 438.669,-432.23 439.035,-411.851 466.62,-346 470.241,-337.355 473.912,-328.232 477.471,-319.155"/>
<polygon fill="orangered" stroke="orangered" points="480.772,-320.324 481.134,-309.735 474.248,-317.787 480.772,-320.324"/>
</a>
<text text-anchor="middle" x="520.62" y="-424.4" font-family="Times Roman,serif" font-size="14.00">InLawParentChild</text>
</g>
<!-- Bagrak -->
<g id="node8" class="node"><title>Bagrak</title>
<a xlink:href="http://www.uesp.net/wiki/Skyrim:Bagrak" xlink:title="&lt;TABLE&gt;">
<image xlink:href="120px-SR-npc-Bagrak.jpg" width="91px" height="91px" preserveAspectRatio="xMinYMin meet" x="140.62" y="-483"/>
<text text-anchor="start" x="161.62" y="-375.733" font-family="Times Roman,serif" font-size="14.00">Bagrak</text>
</a>
</g>
<!-- Larak&#45;&gt;Bagrak -->
<g id="edge8" class="edge"><title>Larak&#45;&gt;Bagrak</title>
<a xlink:title="Chief Larak &#45;&gt; Bagrak (Spouse, Lover)">
<path fill="none" stroke="forestgreen" d="M256.497,-546.345C247.619,-531.521 238.101,-515.629 229.014,-500.456"/>
<polygon fill="forestgreen" stroke="forestgreen" points="231.862,-498.4 223.721,-491.619 225.857,-501.996 231.862,-498.4"/>
</a>
<text text-anchor="middle" x="267.62" y="-515.4" font-family="Times Roman,serif" font-size="14.00">Spouse</text>
</g>
<!-- Shuftharz&#45;&gt;Olur -->
<g id="edge10" class="edge"><title>Shuftharz&#45;&gt;Olur</title>
<a xlink:title="Shuftharz &#45;&gt; Olur (ParentChild, Ally)">
<path fill="none" stroke="green" d="M323.836,-364.438C321.446,-346.843 319.141,-327.714 317.62,-310 312.661,-252.259 310.43,-186.665 309.429,-137.739"/>
<polygon fill="green" stroke="green" points="312.925,-137.491 309.233,-127.56 305.926,-137.626 312.925,-137.491"/>
</a>
<text text-anchor="middle" x="358.12" y="-242.4" font-family="Times Roman,serif" font-size="14.00">ParentChild</text>
</g>
<!-- Shuftharz&#45;&gt;Borgakh -->
<g id="edge12" class="edge"><title>Shuftharz&#45;&gt;Borgakh</title>
<a xlink:title="Shuftharz &#45;&gt; Borgakh the Steel Heart (InLawParentChild, Ally)">
<path fill="none" stroke="green" d="M328.689,-364.462C330.449,-351.352 334.544,-338.392 342.62,-328 357.369,-309.02 371.783,-320.046 393.62,-310 395.183,-309.281 396.753,-308.547 398.328,-307.8"/>
<polygon fill="green" stroke="green" points="399.934,-310.91 407.39,-303.383 396.867,-304.618 399.934,-310.91"/>
</a>
<text text-anchor="middle" x="404.62" y="-333.4" font-family="Times Roman,serif" font-size="14.00">InLawParentChild</text>
</g>
<!-- Borgakh&#45;&gt;Olur -->
<g id="edge24" class="edge"><title>Borgakh&#45;&gt;Olur</title>
<a xlink:title="Borgakh the Steel Heart &#45;&gt; Olur (Siblings, Ally)">
<path fill="none" stroke="green" d="M436.069,-182.345C415.618,-163.356 393.282,-142.615 373.102,-123.876"/>
<polygon fill="green" stroke="green" points="375.482,-121.31 365.772,-117.07 370.719,-126.439 375.482,-121.31"/>
</a>
<text text-anchor="middle" x="438.12" y="-151.4" font-family="Times Roman,serif" font-size="14.00">Siblings</text>
</g>
<!-- Bagrak&#45;&gt;Olur -->
<g id="edge26" class="edge"><title>Bagrak&#45;&gt;Olur</title>
<a xlink:title="Bagrak &#45;&gt; Olur (InLawParentChild, Ally)">
<path fill="none" stroke="green" d="M170.999,-364.299C162.39,-312.908 157.518,-239.899 182.62,-182 195.419,-152.478 219.644,-126.964 243.46,-107.289"/>
<polygon fill="green" stroke="green" points="245.889,-109.827 251.504,-100.842 241.512,-104.365 245.889,-109.827"/>
</a>
<text text-anchor="middle" x="244.62" y="-242.4" font-family="Times Roman,serif" font-size="14.00">InLawParentChild</text>
</g>
<!-- Bagrak&#45;&gt;Borgakh -->
<g id="edge28" class="edge"><title>Bagrak&#45;&gt;Borgakh</title>
<a xlink:title="Bagrak &#45;&gt; Borgakh the Steel Heart (ParentChild, Ally)">
<path fill="none" stroke="green" d="M213.855,-364.454C222.992,-350.362 234.505,-336.969 248.62,-328 303.43,-293.173 332.044,-330.629 393.62,-310 395.07,-309.514 396.522,-309.008 397.976,-308.484"/>
<polygon fill="green" stroke="green" points="399.509,-311.643 407.569,-304.767 396.98,-305.116 399.509,-311.643"/>
</a>
<text text-anchor="middle" x="289.12" y="-333.4" font-family="Times Roman,serif" font-size="14.00">ParentChild</text>
</g>
<!-- Sharamph -->
<g id="node12" class="node"><title>Sharamph</title>
<a xlink:href="http://www.uesp.net/wiki/Skyrim:Sharamph" xlink:title="&lt;TABLE&gt;">
<image xlink:href="120px-SR-npc-Sharamph.jpg" width="91px" height="91px" preserveAspectRatio="xMinYMin meet" x="360.62" y="-847"/>
<text text-anchor="start" x="370.62" y="-739.733" font-family="Times Roman,serif" font-size="14.00">Sharamph</text>
</a>
</g>
<!-- Sharamph&#45;&gt;Larak -->
<g id="edge14" class="edge"><title>Sharamph&#45;&gt;Larak</title>
<a xlink:title="Sharamph &#45;&gt; Chief Larak (InLawGrandparentGrandchild, Ally)">
<path fill="none" stroke="green" d="M348.457,-778.547C289.871,-763.464 204.715,-737.495 185.62,-710 181.057,-703.429 181.342,-698.76 185.62,-692 195.613,-676.209 208.071,-684.366 223.62,-674 225.471,-672.766 227.323,-671.486 229.171,-670.167"/>
<polygon fill="green" stroke="green" points="231.297,-672.948 237.228,-664.169 227.117,-667.333 231.297,-672.948"/>
</a>
<text text-anchor="middle" x="288.62" y="-697.4" font-family="Times Roman,serif" font-size="14.00">InLawGrandparentGrandchild</text>
</g>
<!-- Sharamph&#45;&gt;Shuftharz -->
<g id="edge16" class="edge"><title>Sharamph&#45;&gt;Shuftharz</title>
<a xlink:title="Sharamph &#45;&gt; Shuftharz (InLawGrandparentGrandchild, Ally)">
<path fill="none" stroke="green" d="M402.232,-728.303C397.993,-670.499 388.678,-583.349 368.62,-510 367.854,-507.201 367.013,-504.371 366.112,-501.532"/>
<polygon fill="green" stroke="green" points="369.36,-500.212 362.835,-491.865 362.73,-502.459 369.36,-500.212"/>
</a>
<text text-anchor="middle" x="499.62" y="-606.4" font-family="Times Roman,serif" font-size="14.00">InLawGrandparentGrandchild</text>
</g>
<!-- Sharamph&#45;&gt;Olur -->
<g id="edge18" class="edge"><title>Sharamph&#45;&gt;Olur</title>
<a xlink:title="Sharamph &#45;&gt; Olur (GreatGrandparentGreatgrandchild, Ally)">
<path fill="none" stroke="green" d="M462.671,-783.175C591.664,-761.615 894.62,-701.265 894.62,-610 894.62,-610 894.62,-610 894.62,-246 894.62,-138.478 530.264,-87.3615 376.158,-70.55"/>
<polygon fill="green" stroke="green" points="376.192,-67.0336 365.875,-69.4452 375.444,-73.9935 376.192,-67.0336"/>
</a>
<text text-anchor="middle" x="1014.62" y="-424.4" font-family="Times Roman,serif" font-size="14.00">GreatGrandparentGreatgrandchild</text>
</g>
<!-- Sharamph&#45;&gt;Borgakh -->
<g id="edge20" class="edge"><title>Sharamph&#45;&gt;Borgakh</title>
<a xlink:title="Sharamph &#45;&gt; Borgakh the Steel Heart (GreatGrandparentGreatgrandchild, Ally)">
<path fill="none" stroke="green" d="M463.055,-775.827C510.93,-758.969 576.06,-727.377 606.62,-674 630.221,-632.777 587.499,-366.348 586.62,-364 580.695,-348.181 572.168,-332.476 562.829,-317.93"/>
<polygon fill="green" stroke="green" points="565.691,-315.912 557.251,-309.507 559.855,-319.777 565.691,-315.912"/>
</a>
<text text-anchor="middle" x="727.62" y="-515.4" font-family="Times Roman,serif" font-size="14.00">GreatGrandparentGreatgrandchild</text>
</g>
<!-- Sharamph&#45;&gt;Bagrak -->
<g id="edge22" class="edge"><title>Sharamph&#45;&gt;Bagrak</title>
<a xlink:title="Sharamph &#45;&gt; Bagrak (InLawGrandparentGrandchild, Ally)">
<path fill="none" stroke="green" d="M348.289,-782.786C251.317,-765.901 61.6211,-726.826 22.6199,-674 -11.1695,-628.233 -3.25054,-596.666 22.6199,-546 42.9777,-506.13 83.7949,-476.609 119.489,-457.066"/>
<polygon fill="green" stroke="green" points="121.249,-460.095 128.438,-452.312 117.965,-453.913 121.249,-460.095"/>
</a>
<text text-anchor="middle" x="125.62" y="-606.4" font-family="Times Roman,serif" font-size="14.00">InLawGrandparentGrandchild</text>
</g>
</g>
</svg>
