<?xml version="1.0" encoding="UTF-8" standalone="no"?>
<!DOCTYPE svg PUBLIC "-//W3C//DTD SVG 1.1//EN"
 "http://www.w3.org/Graphics/SVG/1.1/DTD/svg11.dtd">
<!-- Generated by graphviz version 2.26.3 (20100126.1600)
 -->
<!-- Title: Relationships_component_26 Pages: 1 -->
<svg width="326pt" height="214pt"
 viewBox="0.00 0.00 326.00 214.00" xmlns="http://www.w3.org/2000/svg" xmlns:xlink="http://www.w3.org/1999/xlink">
<g id="graph1" class="graph" transform="scale(1 1) rotate(0) translate(4 210)">
<title>Relationships_component_26</title>
<polygon fill="white" stroke="white" points="-4,5 -4,-210 323,-210 323,5 -4,5"/>
<!-- Wilhelm -->
<g id="node1" class="node"><title>Wilhelm</title>
<a xlink:href="http://www.uesp.net/wiki/Skyrim:Wilhelm" xlink:title="Wilhelm">
<ellipse fill="none" stroke="black" cx="51" cy="-95" rx="51.1176" ry="18.3848"/>
<text text-anchor="middle" x="51" y="-91.4" font-family="Times Roman,serif" font-size="14.00">Wilhelm</text>
</a>
</g>
<!-- Lynly -->
<g id="node2" class="node"><title>Lynly</title>
<a xlink:href="http://www.uesp.net/wiki/Skyrim:Lynly Star-Sung" xlink:title="Lynly Star&#45;Sung">
<ellipse fill="none" stroke="black" cx="99" cy="-19" rx="89.0955" ry="18.3848"/>
<text text-anchor="middle" x="99" y="-15.4" font-family="Times Roman,serif" font-size="14.00">Lynly Star&#45;Sung</text>
</a>
</g>
<!-- Wilhelm&#45;&gt;Lynly -->
<g id="edge2" class="edge"><title>Wilhelm&#45;&gt;Lynly</title>
<a xlink:title="Wilhelm &#45;&gt; Lynly Star&#45;Sung (Confidant)">
<path fill="none" stroke="lime" d="M62.6195,-76.6025C68.4135,-67.4286 75.5333,-56.1556 81.9334,-46.0221"/>
<polygon fill="lime" stroke="lime" points="84.9404,-47.8154 87.3212,-37.4915 79.022,-44.0774 84.9404,-47.8154"/>
</a>
</g>
<!-- Drifa -->
<g id="node4" class="node"><title>Drifa</title>
<a xlink:href="http://www.uesp.net/wiki/Skyrim:Drifa" xlink:title="Drifa">
<ellipse fill="none" stroke="black" cx="219" cy="-187" rx="34.8574" ry="18.3848"/>
<text text-anchor="middle" x="219" y="-183.4" font-family="Times Roman,serif" font-size="14.00">Drifa</text>
</a>
</g>
<!-- Bersi -->
<g id="node5" class="node"><title>Bersi</title>
<a xlink:href="http://www.uesp.net/wiki/Skyrim:Bersi Honey-Hand" xlink:title="Bersi Honey&#45;Hand">
<ellipse fill="none" stroke="black" cx="219" cy="-95" rx="99.201" ry="18.3848"/>
<text text-anchor="middle" x="219" y="-91.4" font-family="Times Roman,serif" font-size="14.00">Bersi Honey&#45;Hand</text>
</a>
</g>
<!-- Drifa&#45;&gt;Bersi -->
<g id="edge4" class="edge"><title>Drifa&#45;&gt;Bersi</title>
<a xlink:title="Drifa &#45;&gt; Bersi Honey&#45;Hand (Spouse, Ally)">
<path fill="none" stroke="green" d="M219,-168.382C219,-155.538 219,-138.216 219,-123.627"/>
<polygon fill="green" stroke="green" points="222.5,-123.59 219,-113.59 215.5,-123.59 222.5,-123.59"/>
</a>
<text text-anchor="middle" x="244" y="-137.4" font-family="Times Roman,serif" font-size="14.00">Spouse</text>
</g>
<!-- Bersi&#45;&gt;Lynly -->
<g id="edge6" class="edge"><title>Bersi&#45;&gt;Lynly</title>
<a xlink:title="Bersi Honey&#45;Hand &#45;&gt; Lynly Star&#45;Sung (Confidant)">
<path fill="none" stroke="lime" d="M190.865,-77.1814C174.466,-66.795 153.592,-53.5749 135.887,-42.362"/>
<polygon fill="lime" stroke="lime" points="137.279,-39.1007 126.958,-36.707 133.534,-45.0144 137.279,-39.1007"/>
</a>
</g>
</g>
</svg>
