<?xml version="1.0" encoding="UTF-8" standalone="no"?>
<!DOCTYPE svg PUBLIC "-//W3C//DTD SVG 1.1//EN"
 "http://www.w3.org/Graphics/SVG/1.1/DTD/svg11.dtd">
<!-- Generated by graphviz version 2.26.3 (20100126.1600)
 -->
<!-- Title: Relationships_component_37 Pages: 1 -->
<svg width="242pt" height="500pt"
 viewBox="0.00 0.00 242.00 500.00" xmlns="http://www.w3.org/2000/svg" xmlns:xlink="http://www.w3.org/1999/xlink">
<g id="graph1" class="graph" transform="scale(1 1) rotate(0) translate(4 496)">
<title>Relationships_component_37</title>
<polygon fill="white" stroke="white" points="-4,5 -4,-496 239,-496 239,5 -4,5"/>
<!-- Sorli -->
<g id="node1" class="node"><title>Sorli</title>
<a xlink:href="http://www.uesp.net/wiki/Skyrim:Sorli the Builder" xlink:title="&lt;TABLE&gt;">
<text text-anchor="start" x="12.5" y="-375.733" font-family="Times Roman,serif" font-size="14.00">Sorli the Builder</text>
</a>
</g>
<!-- Sirgar -->
<g id="node2" class="node"><title>Sirgar</title>
<a xlink:href="http://www.uesp.net/wiki/Skyrim:Sirgar" xlink:title="&lt;TABLE&gt;">
<image xlink:href="120px-SR-npc-Sirgar.jpg" width="91px" height="91px" preserveAspectRatio="xMinYMin meet" x="23" y="-119"/>
<text text-anchor="start" x="47.5" y="-11.7333" font-family="Times Roman,serif" font-size="14.00">Sirgar</text>
</a>
</g>
<!-- Sorli&#45;&gt;Sirgar -->
<g id="edge2" class="edge"><title>Sorli&#45;&gt;Sirgar</title>
<a xlink:title="Sorli the Builder &#45;&gt; Sirgar (ParentChild, Ally)">
<path fill="none" stroke="green" d="M43.4861,-364.271C37.9205,-346.928 32.8215,-327.966 30,-310 21.174,-253.8 21.174,-238.2 30,-182 32.2925,-167.403 36.0884,-152.148 40.4166,-137.638"/>
<polygon fill="green" stroke="green" points="43.8703,-138.317 43.4861,-127.729 37.1838,-136.246 43.8703,-138.317"/>
</a>
<text text-anchor="middle" x="70.5" y="-242.4" font-family="Times Roman,serif" font-size="14.00">ParentChild</text>
</g>
<!-- Pactur -->
<g id="node4" class="node"><title>Pactur</title>
<a xlink:href="http://www.uesp.net/wiki/Skyrim:Pactur" xlink:title="&lt;TABLE&gt;">
<image xlink:href="120px-SR-npc-Pactur.jpg" width="91px" height="91px" preserveAspectRatio="xMinYMin meet" x="132" y="-301"/>
<text text-anchor="start" x="155" y="-193.733" font-family="Times Roman,serif" font-size="14.00">Pactur</text>
</a>
</g>
<!-- Sorli&#45;&gt;Pactur -->
<g id="edge4" class="edge"><title>Sorli&#45;&gt;Pactur</title>
<a xlink:title="Sorli the Builder &#45;&gt; Pactur (Spouse, Lover)">
<path fill="none" stroke="forestgreen" d="M106.123,-364.345C115.001,-349.521 124.519,-333.629 133.606,-318.456"/>
<polygon fill="forestgreen" stroke="forestgreen" points="136.763,-319.996 138.899,-309.619 130.758,-316.4 136.763,-319.996"/>
</a>
<text text-anchor="middle" x="150" y="-333.4" font-family="Times Roman,serif" font-size="14.00">Spouse</text>
</g>
<!-- Pactur&#45;&gt;Sirgar -->
<g id="edge6" class="edge"><title>Pactur&#45;&gt;Sirgar</title>
<a xlink:title="Pactur &#45;&gt; Sirgar (ParentChild, Ally)">
<path fill="none" stroke="green" d="M138.877,-182.345C129.999,-167.521 120.481,-151.629 111.394,-136.456"/>
<polygon fill="green" stroke="green" points="114.242,-134.4 106.101,-127.619 108.237,-137.996 114.242,-134.4"/>
</a>
<text text-anchor="middle" x="165.5" y="-151.4" font-family="Times Roman,serif" font-size="14.00">ParentChild</text>
</g>
</g>
</svg>
