<?xml version="1.0" encoding="UTF-8" standalone="no"?>
<!DOCTYPE svg PUBLIC "-//W3C//DTD SVG 1.1//EN"
 "http://www.w3.org/Graphics/SVG/1.1/DTD/svg11.dtd">
<!-- Generated by graphviz version 2.26.3 (20100126.1600)
 -->
<!-- Title: Relationships_component_47 Pages: 1 -->
<svg width="303pt" height="490pt"
 viewBox="0.00 0.00 303.00 490.00" xmlns="http://www.w3.org/2000/svg" xmlns:xlink="http://www.w3.org/1999/xlink">
<g id="graph1" class="graph" transform="scale(1 1) rotate(0) translate(4 486)">
<title>Relationships_component_47</title>
<polygon fill="white" stroke="white" points="-4,5 -4,-486 300,-486 300,5 -4,5"/>
<!-- Sabjorn -->
<g id="node1" class="node"><title>Sabjorn</title>
<a xlink:href="http://www.uesp.net/wiki/Skyrim:Sabjorn" xlink:title="&lt;TABLE&gt;">
<image xlink:href="120px-SR-npc-Sabjorn.jpg" width="91px" height="91px" preserveAspectRatio="xMinYMin meet" x="85" y="-473"/>
<text text-anchor="start" x="104" y="-365.733" font-family="Times Roman,serif" font-size="14.00">Sabjorn</text>
</a>
</g>
<!-- MallusMaccius -->
<g id="node2" class="node"><title>MallusMaccius</title>
<a xlink:href="http://www.uesp.net/wiki/Skyrim:Mallus Maccius" xlink:title="&lt;TABLE&gt;">
<image xlink:href="120px-SR-npc-Mallus_Maccius.jpg" width="103px" height="91px" preserveAspectRatio="xMinYMin meet" x="12" y="-291"/>
<text text-anchor="start" x="12.5" y="-183.733" font-family="Times Roman,serif" font-size="14.00">Mallus Maccius</text>
</a>
</g>
<!-- Sabjorn&#45;&gt;MallusMaccius -->
<g id="edge2" class="edge"><title>Sabjorn&#45;&gt;MallusMaccius</title>
<a xlink:title="Sabjorn &#45;&gt; Mallus Maccius (BossEmployee, Acquaintance)">
<path fill="none" stroke="orange" d="M87.1226,-354.332C84.0628,-348.287 81.2882,-342.125 79,-336 75.8596,-327.594 73.3354,-318.565 71.3065,-309.495"/>
<polygon fill="orange" stroke="orange" points="74.7287,-308.76 69.2937,-299.665 67.871,-310.164 74.7287,-308.76"/>
</a>
<text text-anchor="middle" x="128.5" y="-323.4" font-family="Times Roman,serif" font-size="14.00">BossEmployee</text>
</g>
<!-- Eimar -->
<g id="node4" class="node"><title>Eimar</title>
<a xlink:href="http://www.uesp.net/wiki/Skyrim:Eimar" xlink:title="&lt;TABLE&gt;">
<text text-anchor="start" x="105.5" y="-11.7333" font-family="Times Roman,serif" font-size="14.00">Eimar</text>
</a>
</g>
<!-- Sabjorn&#45;&gt;Eimar -->
<g id="edge4" class="edge"><title>Sabjorn&#45;&gt;Eimar</title>
<a xlink:title="Sabjorn &#45;&gt; Eimar (BossEmployee, Acquaintance)">
<path fill="none" stroke="orange" d="M171.572,-354.045C174.148,-348.111 176.359,-342.05 178,-336 201.263,-250.209 204.389,-220.881 178,-136 177.09,-133.073 176.025,-130.158 174.835,-127.27"/>
<polygon fill="orange" stroke="orange" points="177.998,-125.773 170.634,-118.155 171.641,-128.702 177.998,-125.773"/>
</a>
<text text-anchor="middle" x="245.5" y="-232.4" font-family="Times Roman,serif" font-size="14.00">BossEmployee</text>
</g>
<!-- MallusMaccius&#45;&gt;Eimar -->
<g id="edge6" class="edge"><title>MallusMaccius&#45;&gt;Eimar</title>
<a xlink:title="Mallus Maccius &#45;&gt; Eimar (BusinessPartners, Acquaintance)">
<path fill="none" stroke="orange" d="M53.051,-172.407C53.1673,-160.053 54.7803,-147.407 59,-136 60.1606,-132.863 61.5125,-129.767 63.0209,-126.723"/>
<polygon fill="orange" stroke="orange" points="66.2001,-128.207 67.9808,-117.763 60.0757,-124.817 66.2001,-128.207"/>
</a>
<text text-anchor="middle" x="118.5" y="-141.4" font-family="Times Roman,serif" font-size="14.00">BusinessPartners</text>
</g>
</g>
</svg>
