<?xml version="1.0" encoding="UTF-8" standalone="no"?>
<!DOCTYPE svg PUBLIC "-//W3C//DTD SVG 1.1//EN"
 "http://www.w3.org/Graphics/SVG/1.1/DTD/svg11.dtd">
<!-- Generated by graphviz version 2.26.3 (20100126.1600)
 -->
<!-- Title: Relationships_component_13 Pages: 1 -->
<svg width="238pt" height="500pt"
 viewBox="0.00 0.00 238.00 500.00" xmlns="http://www.w3.org/2000/svg" xmlns:xlink="http://www.w3.org/1999/xlink">
<g id="graph1" class="graph" transform="scale(1 1) rotate(0) translate(4 496)">
<title>Relationships_component_13</title>
<polygon fill="white" stroke="white" points="-4,5 -4,-496 235,-496 235,5 -4,5"/>
<!-- Kerah -->
<g id="node1" class="node"><title>Kerah</title>
<a xlink:href="http://www.uesp.net/wiki/Skyrim:Kerah" xlink:title="&lt;TABLE&gt;">
<text text-anchor="start" x="37.5" y="-193.733" font-family="Times Roman,serif" font-size="14.00">Kerah</text>
</a>
</g>
<!-- Adara -->
<g id="node2" class="node"><title>Adara</title>
<a xlink:href="http://www.uesp.net/wiki/Skyrim:Adara" xlink:title="&lt;TABLE&gt;">
<image xlink:href="120px-SR-npc-Adara.jpg" width="91px" height="91px" preserveAspectRatio="xMinYMin meet" x="59" y="-119"/>
<text text-anchor="start" x="84" y="-11.7333" font-family="Times Roman,serif" font-size="14.00">Adara</text>
</a>
</g>
<!-- Kerah&#45;&gt;Adara -->
<g id="edge2" class="edge"><title>Kerah&#45;&gt;Adara</title>
<a xlink:title="Kerah &#45;&gt; Adara (ParentChild, Ally)">
<path fill="none" stroke="green" d="M52.0661,-182.408C52.497,-170.176 53.9177,-157.576 57,-146 57.7976,-143.005 58.7333,-140.005 59.7826,-137.018"/>
<polygon fill="green" stroke="green" points="63.1062,-138.129 63.4894,-127.541 56.5871,-135.579 63.1062,-138.129"/>
</a>
<text text-anchor="middle" x="97.5" y="-151.4" font-family="Times Roman,serif" font-size="14.00">ParentChild</text>
</g>
<!-- Endon -->
<g id="node4" class="node"><title>Endon</title>
<a xlink:href="http://www.uesp.net/wiki/Skyrim:Endon" xlink:title="&lt;TABLE&gt;">
<image xlink:href="120px-SR-npc-Endon.jpg" width="91px" height="91px" preserveAspectRatio="xMinYMin meet" x="67" y="-483"/>
<text text-anchor="start" x="90.5" y="-375.733" font-family="Times Roman,serif" font-size="14.00">Endon</text>
</a>
</g>
<!-- Endon&#45;&gt;Kerah -->
<g id="edge4" class="edge"><title>Endon&#45;&gt;Kerah</title>
<a xlink:title="Endon &#45;&gt; Kerah (Spouse, Lover)">
<path fill="none" stroke="forestgreen" d="M92.7637,-364.345C88.3675,-349.798 83.6608,-334.223 79.1534,-319.308"/>
<polygon fill="forestgreen" stroke="forestgreen" points="82.4687,-318.179 76.2255,-309.619 75.768,-320.204 82.4687,-318.179"/>
</a>
<text text-anchor="middle" x="111" y="-333.4" font-family="Times Roman,serif" font-size="14.00">Spouse</text>
</g>
<!-- Endon&#45;&gt;Adara -->
<g id="edge6" class="edge"><title>Endon&#45;&gt;Adara</title>
<a xlink:title="Endon &#45;&gt; Adara (ParentChild, Ally)">
<path fill="none" stroke="green" d="M134.232,-364.441C135.76,-358.267 137.064,-352.051 138,-346 151.593,-258.157 155.357,-233.178 138,-146 137.436,-143.166 136.772,-140.307 136.026,-137.443"/>
<polygon fill="green" stroke="green" points="139.349,-136.334 133.198,-127.707 132.626,-138.287 139.349,-136.334"/>
</a>
<text text-anchor="middle" x="189.5" y="-242.4" font-family="Times Roman,serif" font-size="14.00">ParentChild</text>
</g>
</g>
</svg>
