<?xml version="1.0" encoding="UTF-8" standalone="no"?>
<!DOCTYPE svg PUBLIC "-//W3C//DTD SVG 1.1//EN"
 "http://www.w3.org/Graphics/SVG/1.1/DTD/svg11.dtd">
<!-- Generated by graphviz version 2.26.3 (20100126.1600)
 -->
<!-- Title: Relationships_component_1 Pages: 1 -->
<svg width="1189pt" height="682pt"
 viewBox="0.00 0.00 1189.00 682.00" xmlns="http://www.w3.org/2000/svg" xmlns:xlink="http://www.w3.org/1999/xlink">
<g id="graph1" class="graph" transform="scale(1 1) rotate(0) translate(4 678)">
<title>Relationships_component_1</title>
<polygon fill="white" stroke="white" points="-4,5 -4,-678 1186,-678 1186,5 -4,5"/>
<!-- Laila -->
<g id="node1" class="node"><title>Laila</title>
<a xlink:href="http://www.uesp.net/wiki/Skyrim:Laila Law-Giver" xlink:title="&lt;TABLE&gt;">
<image xlink:href="120px-SR-npc-Laila_Law-Giver.jpg" width="111px" height="91px" preserveAspectRatio="xMinYMin meet" x="864" y="-483"/>
<text text-anchor="start" x="864.5" y="-375.733" font-family="Times Roman,serif" font-size="14.00">Laila Law&#45;Giver</text>
</a>
</g>
<!-- Anuriel -->
<g id="node2" class="node"><title>Anuriel</title>
<a xlink:href="http://www.uesp.net/wiki/Skyrim:Anuriel" xlink:title="&lt;TABLE&gt;">
<image xlink:href="120px-SR-npc-Anuriel.jpg" width="91px" height="91px" preserveAspectRatio="xMinYMin meet" x="828" y="-301"/>
<text text-anchor="start" x="848.5" y="-193.733" font-family="Times Roman,serif" font-size="14.00">Anuriel</text>
</a>
</g>
<!-- Laila&#45;&gt;Anuriel -->
<g id="edge2" class="edge"><title>Laila&#45;&gt;Anuriel</title>
<a xlink:title="Laila Law&#45;Giver &#45;&gt; Anuriel (JarlSteward, Confidant)">
<path fill="none" stroke="lime" d="M878.489,-364.459C875.882,-358.387 873.647,-352.184 872,-346 869.76,-337.589 868.436,-328.637 867.755,-319.679"/>
<polygon fill="lime" stroke="lime" points="871.246,-319.401 867.245,-309.591 864.255,-319.755 871.246,-319.401"/>
</a>
<text text-anchor="middle" x="913" y="-333.4" font-family="Times Roman,serif" font-size="14.00">JarlSteward</text>
</g>
<!-- Harrald -->
<g id="node4" class="node"><title>Harrald</title>
<a xlink:href="http://www.uesp.net/wiki/Skyrim:Harrald" xlink:title="&lt;TABLE&gt;">
<image xlink:href="120px-SR-npc-Harrald.jpg" width="91px" height="91px" preserveAspectRatio="xMinYMin meet" x="1079" y="-301"/>
<text text-anchor="start" x="1098.5" y="-193.733" font-family="Times Roman,serif" font-size="14.00">Harrald</text>
</a>
</g>
<!-- Laila&#45;&gt;Harrald -->
<g id="edge4" class="edge"><title>Laila&#45;&gt;Harrald</title>
<a xlink:title="Laila Law&#45;Giver &#45;&gt; Harrald (ParentChild, Ally)">
<path fill="none" stroke="green" d="M986.274,-369.03C1007.65,-350.218 1031.36,-329.28 1053,-310 1054.95,-308.261 1056.93,-306.494 1058.93,-304.709"/>
<polygon fill="green" stroke="green" points="1061.58,-307.031 1066.7,-297.754 1056.91,-301.815 1061.58,-307.031"/>
</a>
<text text-anchor="middle" x="1071.5" y="-333.4" font-family="Times Roman,serif" font-size="14.00">ParentChild</text>
</g>
<!-- Saerlund -->
<g id="node6" class="node"><title>Saerlund</title>
<a xlink:href="http://www.uesp.net/wiki/Skyrim:Saerlund" xlink:title="&lt;TABLE&gt;">
<image xlink:href="120px-SR-npc-Saerlund.jpg" width="91px" height="91px" preserveAspectRatio="xMinYMin meet" x="970" y="-119"/>
<text text-anchor="start" x="984.5" y="-11.7333" font-family="Times Roman,serif" font-size="14.00">Saerlund</text>
</a>
</g>
<!-- Laila&#45;&gt;Saerlund -->
<g id="edge6" class="edge"><title>Laila&#45;&gt;Saerlund</title>
<a xlink:title="Laila Law&#45;Giver &#45;&gt; Saerlund (ParentChild, Ally)">
<path fill="none" stroke="green" d="M948.159,-364.12C950.345,-358.068 952.34,-351.965 954,-346 973.73,-275.091 960.547,-253.74 977,-182 980.323,-167.512 984.618,-152.254 989.12,-137.694"/>
<polygon fill="green" stroke="green" points="992.588,-138.334 992.26,-127.745 985.912,-136.228 992.588,-138.334"/>
</a>
<text text-anchor="middle" x="1017.5" y="-242.4" font-family="Times Roman,serif" font-size="14.00">ParentChild</text>
</g>
<!-- Unmid -->
<g id="node8" class="node"><title>Unmid</title>
<a xlink:href="http://www.uesp.net/wiki/Skyrim:Unmid Snow-Shod" xlink:title="&lt;TABLE&gt;">
<image xlink:href="120px-SR-npc-Unmid_Snow-Shod.jpg" width="120px" height="91px" preserveAspectRatio="xMinYMin meet" x="588.5" y="-119"/>
<text text-anchor="start" x="584.5" y="-11.7333" font-family="Times Roman,serif" font-size="14.00">Unmid Snow&#45;Shod</text>
</a>
</g>
<!-- Laila&#45;&gt;Unmid -->
<g id="edge8" class="edge"><title>Laila&#45;&gt;Unmid</title>
<a xlink:title="Laila Law&#45;Giver &#45;&gt; Unmid Snow&#45;Shod (JarlHousecarl, Acquaintance)">
<path fill="none" stroke="orange" d="M851.783,-405.047C806.817,-386.303 749.881,-355.417 716,-310 681,-263.083 700.654,-238.401 685,-182 680.973,-167.49 676.375,-152.074 671.822,-137.337"/>
<polygon fill="orange" stroke="orange" points="675.157,-136.275 668.842,-127.767 668.473,-138.356 675.157,-136.275"/>
</a>
<text text-anchor="middle" x="761.5" y="-242.4" font-family="Times Roman,serif" font-size="14.00">JarlHousecarl</text>
</g>
<!-- Anuriel&#45;&gt;Unmid -->
<g id="edge10" class="edge"><title>Anuriel&#45;&gt;Unmid</title>
<a xlink:title="Anuriel &#45;&gt; Unmid Snow&#45;Shod (Courting, Ally)">
<path fill="none" stroke="green" d="M815.995,-193.904C811.299,-189.831 806.593,-185.82 802,-182 779.76,-163.506 755.112,-144.141 732.174,-126.571"/>
<polygon fill="green" stroke="green" points="734.21,-123.723 724.138,-120.436 729.962,-129.287 734.21,-123.723"/>
</a>
<text text-anchor="middle" x="807.5" y="-151.4" font-family="Times Roman,serif" font-size="14.00">Courting</text>
</g>
<!-- Harrald&#45;&gt;Saerlund -->
<g id="edge22" class="edge"><title>Harrald&#45;&gt;Saerlund</title>
<a xlink:title="Harrald &#45;&gt; Saerlund (Siblings, Ally)">
<path fill="none" stroke="green" d="M1085.88,-182.345C1077,-167.521 1067.48,-151.629 1058.39,-136.456"/>
<polygon fill="green" stroke="green" points="1061.24,-134.4 1053.1,-127.619 1055.24,-137.996 1061.24,-134.4"/>
</a>
<text text-anchor="middle" x="1098.5" y="-151.4" font-family="Times Roman,serif" font-size="14.00">Siblings</text>
</g>
<!-- Nura -->
<g id="node11" class="node"><title>Nura</title>
<a xlink:href="http://www.uesp.net/wiki/Skyrim:Nura Snow-Shod" xlink:title="&lt;TABLE&gt;">
<image xlink:href="120px-SR-npc-Nura_Snow-Shod.jpg" width="119px" height="91px" preserveAspectRatio="xMinYMin meet" x="531" y="-483"/>
<text text-anchor="start" x="531.5" y="-375.733" font-family="Times Roman,serif" font-size="14.00">Nura Snow&#45;Shod</text>
</a>
</g>
<!-- Nura&#45;&gt;Unmid -->
<g id="edge14" class="edge"><title>Nura&#45;&gt;Unmid</title>
<a xlink:title="Nura Snow&#45;Shod &#45;&gt; Unmid Snow&#45;Shod (ParentChild, Ally)">
<path fill="none" stroke="green" d="M588.427,-364.373C588.431,-314.296 591.193,-243.019 604,-182 607.113,-167.168 611.766,-151.717 616.897,-137.069"/>
<polygon fill="green" stroke="green" points="620.221,-138.168 620.326,-127.574 613.637,-135.791 620.221,-138.168"/>
</a>
<text text-anchor="middle" x="644.5" y="-242.4" font-family="Times Roman,serif" font-size="14.00">ParentChild</text>
</g>
<!-- Asgeir -->
<g id="node12" class="node"><title>Asgeir</title>
<a xlink:href="http://www.uesp.net/wiki/Skyrim:Asgeir Snow-Shod" xlink:title="&lt;TABLE&gt;">
<image xlink:href="120px-SR-npc-Asgeir_Snow-Shod.jpg" width="120px" height="91px" preserveAspectRatio="xMinYMin meet" x="418" y="-301"/>
<text text-anchor="start" x="414.5" y="-193.733" font-family="Times Roman,serif" font-size="14.00">Asgeir Snow&#45;Shod</text>
</a>
</g>
<!-- Nura&#45;&gt;Asgeir -->
<g id="edge12" class="edge"><title>Nura&#45;&gt;Asgeir</title>
<a xlink:title="Nura Snow&#45;Shod &#45;&gt; Asgeir Snow&#45;Shod (ParentChild, Ally)">
<path fill="none" stroke="green" d="M518.561,-376.473C509.479,-367.235 501.208,-357.007 495,-346 490.377,-337.803 486.943,-328.672 484.404,-319.352"/>
<polygon fill="green" stroke="green" points="487.802,-318.513 482.068,-309.603 480.994,-320.144 487.802,-318.513"/>
</a>
<text text-anchor="middle" x="535.5" y="-333.4" font-family="Times Roman,serif" font-size="14.00">ParentChild</text>
</g>
<!-- Asgeir&#45;&gt;Unmid -->
<g id="edge16" class="edge"><title>Asgeir&#45;&gt;Unmid</title>
<a xlink:title="Asgeir Snow&#45;Shod &#45;&gt; Unmid Snow&#45;Shod (Siblings, Ally)">
<path fill="none" stroke="green" d="M500.026,-182.485C506.235,-169.592 513.854,-156.716 523,-146 534.409,-132.633 548.527,-120.601 563.124,-110.132"/>
<polygon fill="green" stroke="green" points="565.53,-112.723 571.756,-104.15 561.543,-106.969 565.53,-112.723"/>
</a>
<text text-anchor="middle" x="549.5" y="-151.4" font-family="Times Roman,serif" font-size="14.00">Siblings</text>
</g>
<!-- Balimund -->
<g id="node16" class="node"><title>Balimund</title>
<a xlink:href="http://www.uesp.net/wiki/Skyrim:Balimund" xlink:title="&lt;TABLE&gt;">
<image xlink:href="120px-SR-npc-Balimund.jpg" width="91px" height="91px" preserveAspectRatio="xMinYMin meet" x="987" y="-665"/>
<text text-anchor="start" x="1000" y="-557.733" font-family="Times Roman,serif" font-size="14.00">Balimund</text>
</a>
</g>
<!-- Balimund&#45;&gt;Laila -->
<g id="edge18" class="edge"><title>Balimund&#45;&gt;Laila</title>
<a xlink:title="Balimund &#45;&gt; Laila Law&#45;Giver (Confidant)">
<path fill="none" stroke="lime" d="M992.478,-546.345C983.274,-531.521 973.407,-515.629 963.986,-500.456"/>
<polygon fill="lime" stroke="lime" points="966.748,-498.268 958.5,-491.619 960.801,-501.961 966.748,-498.268"/>
</a>
</g>
<!-- Asbjorn -->
<g id="node18" class="node"><title>Asbjorn</title>
<a xlink:href="http://www.uesp.net/wiki/Skyrim:Asbjorn Fire-Tamer" xlink:title="&lt;TABLE&gt;">
<image xlink:href="120px-SR-npc-Asbjorn_Fire-Tamer.jpg" width="120px" height="91px" preserveAspectRatio="xMinYMin meet" x="1020.5" y="-483"/>
<text text-anchor="start" x="1016.5" y="-375.733" font-family="Times Roman,serif" font-size="14.00">Asbjorn Fire&#45;Tamer</text>
</a>
</g>
<!-- Balimund&#45;&gt;Asbjorn -->
<g id="edge20" class="edge"><title>Balimund&#45;&gt;Asbjorn</title>
<a xlink:title="Balimund &#45;&gt; Asbjorn Fire&#45;Tamer (ParentChild, Ally)">
<path fill="none" stroke="green" d="M1048.79,-546.345C1052.62,-531.798 1056.73,-516.223 1060.67,-501.308"/>
<polygon fill="green" stroke="green" points="1064.06,-502.181 1063.22,-491.619 1057.29,-500.396 1064.06,-502.181"/>
</a>
<text text-anchor="middle" x="1097.5" y="-515.4" font-family="Times Roman,serif" font-size="14.00">ParentChild</text>
</g>
<!-- VittoriaVici -->
<g id="node21" class="node"><title>VittoriaVici</title>
<a xlink:href="http://www.uesp.net/wiki/Skyrim:Vittoria Vici" xlink:title="&lt;TABLE&gt;">
<image xlink:href="120px-SR-npc-Vittoria_Vici.jpg" width="91px" height="91px" preserveAspectRatio="xMinYMin meet" x="12" y="-483"/>
<text text-anchor="start" x="17" y="-375.733" font-family="Times Roman,serif" font-size="14.00">Vittoria Vici</text>
</a>
</g>
<!-- VittoriaVici&#45;&gt;Asgeir -->
<g id="edge24" class="edge"><title>VittoriaVici&#45;&gt;Asgeir</title>
<a xlink:title="Vittoria Vici &#45;&gt; Asgeir Snow&#45;Shod (Courting, Lover)">
<path fill="none" stroke="forestgreen" d="M114.192,-398.182C137.872,-386.553 165.863,-373.712 192,-364 276.699,-332.528 306.384,-348.772 388,-310 389.578,-309.251 391.157,-308.473 392.736,-307.672"/>
<polygon fill="forestgreen" stroke="forestgreen" points="394.603,-310.642 401.759,-302.828 391.292,-304.474 394.603,-310.642"/>
</a>
<text text-anchor="middle" x="371.5" y="-333.4" font-family="Times Roman,serif" font-size="14.00">Courting</text>
</g>
<!-- JareeRa -->
<g id="node23" class="node"><title>JareeRa</title>
<a xlink:href="http://www.uesp.net/wiki/Skyrim:Jaree-Ra" xlink:title="&lt;TABLE&gt;">
<image xlink:href="120px-SR-npc-Jaree-Ra.jpg" width="91px" height="91px" preserveAspectRatio="xMinYMin meet" x="144" y="-119"/>
<text text-anchor="start" x="160" y="-11.7333" font-family="Times Roman,serif" font-size="14.00">Jaree&#45;Ra</text>
</a>
</g>
<!-- VittoriaVici&#45;&gt;JareeRa -->
<g id="edge26" class="edge"><title>VittoriaVici&#45;&gt;JareeRa</title>
<a xlink:title="Vittoria Vici &#45;&gt; Jaree&#45;Ra (BossEmployee, Acquaintance)">
<path fill="none" stroke="orange" d="M28.9491,-364.4C10.5267,-312.569 -5.26433,-238.906 24,-182 44.7866,-141.579 86.5517,-111.923 122.859,-92.451"/>
<polygon fill="orange" stroke="orange" points="124.7,-95.439 131.957,-87.7196 121.47,-89.2287 124.7,-95.439"/>
</a>
<text text-anchor="middle" x="73.5" y="-242.4" font-family="Times Roman,serif" font-size="14.00">BossEmployee</text>
</g>
<!-- Deeja -->
<g id="node25" class="node"><title>Deeja</title>
<a xlink:href="http://www.uesp.net/wiki/Skyrim:Deeja" xlink:title="&lt;TABLE&gt;">
<image xlink:href="120px-SR-npc-Deeja.jpg" width="91px" height="91px" preserveAspectRatio="xMinYMin meet" x="144" y="-301"/>
<text text-anchor="start" x="169.5" y="-193.733" font-family="Times Roman,serif" font-size="14.00">Deeja</text>
</a>
</g>
<!-- VittoriaVici&#45;&gt;Deeja -->
<g id="edge28" class="edge"><title>VittoriaVici&#45;&gt;Deeja</title>
<a xlink:title="Vittoria Vici &#45;&gt; Deeja (BossEmployee, Acquaintance)">
<path fill="none" stroke="orange" d="M57.2827,-364.426C59.9186,-351.318 64.7104,-338.368 73,-328 86.4518,-311.176 99.7159,-321.388 118,-310 119.888,-308.824 121.774,-307.595 123.651,-306.323"/>
<polygon fill="orange" stroke="orange" points="125.712,-309.152 131.817,-300.493 121.645,-303.455 125.712,-309.152"/>
</a>
<text text-anchor="middle" x="122.5" y="-333.4" font-family="Times Roman,serif" font-size="14.00">BossEmployee</text>
</g>
<!-- Deeja&#45;&gt;JareeRa -->
<g id="edge34" class="edge"><title>Deeja&#45;&gt;JareeRa</title>
<a xlink:title="Deeja &#45;&gt; Jaree&#45;Ra (Siblings, Confidant)">
<path fill="none" stroke="lime" d="M189,-182.345C189,-167.937 189,-152.52 189,-137.734"/>
<polygon fill="lime" stroke="lime" points="192.5,-137.619 189,-127.619 185.5,-137.619 192.5,-137.619"/>
</a>
<text text-anchor="middle" x="215.5" y="-151.4" font-family="Times Roman,serif" font-size="14.00">Siblings</text>
</g>
<!-- GulumEi -->
<g id="node27" class="node"><title>GulumEi</title>
<a xlink:href="http://www.uesp.net/wiki/Skyrim:Gulum-Ei" xlink:title="&lt;TABLE&gt;">
<image xlink:href="120px-SR-npc-Gulum-Ei.jpg" width="91px" height="91px" preserveAspectRatio="xMinYMin meet" x="213" y="-483"/>
<text text-anchor="start" x="226.5" y="-375.733" font-family="Times Roman,serif" font-size="14.00">Gulum&#45;Ei</text>
</a>
</g>
<!-- GulumEi&#45;&gt;JareeRa -->
<g id="edge30" class="edge"><title>GulumEi&#45;&gt;JareeRa</title>
<a xlink:title="Gulum&#45;Ei &#45;&gt; Jaree&#45;Ra (Siblings, Ally)">
<path fill="none" stroke="green" d="M312.043,-364.468C316.967,-352.874 319.348,-340.48 317,-328 300.945,-242.671 286.839,-222.622 246,-146 244.267,-142.749 242.429,-139.472 240.515,-136.197"/>
<polygon fill="green" stroke="green" points="243.459,-134.3 235.293,-127.549 237.466,-137.919 243.459,-134.3"/>
</a>
<text text-anchor="middle" x="340.5" y="-242.4" font-family="Times Roman,serif" font-size="14.00">Siblings</text>
</g>
<!-- GulumEi&#45;&gt;Deeja -->
<g id="edge32" class="edge"><title>GulumEi&#45;&gt;Deeja</title>
<a xlink:title="Gulum&#45;Ei &#45;&gt; Deeja (Siblings, Confidant)">
<path fill="none" stroke="lime" d="M200.833,-379.44C192.328,-369.325 184.812,-358.042 180,-346 176.71,-337.768 175.082,-328.859 174.587,-319.869"/>
<polygon fill="lime" stroke="lime" points="178.085,-319.677 174.479,-309.714 171.085,-319.751 178.085,-319.677"/>
</a>
<text text-anchor="middle" x="206.5" y="-333.4" font-family="Times Roman,serif" font-size="14.00">Siblings</text>
</g>
<!-- Vulwulf -->
<g id="node31" class="node"><title>Vulwulf</title>
<a xlink:href="http://www.uesp.net/wiki/Skyrim:Vulwulf Snow-Shod" xlink:title="&lt;TABLE&gt;">
<image xlink:href="120px-SR-npc-Vulwulf_Snow-Shod.jpg" width="120px" height="91px" preserveAspectRatio="xMinYMin meet" x="411.5" y="-665"/>
<text text-anchor="start" x="403.5" y="-557.733" font-family="Times Roman,serif" font-size="14.00">Vulwulf Snow&#45;Shod</text>
</a>
</g>
<!-- Vulwulf&#45;&gt;Nura -->
<g id="edge36" class="edge"><title>Vulwulf&#45;&gt;Nura</title>
<a xlink:title="Vulwulf Snow&#45;Shod &#45;&gt; Nura Snow&#45;Shod (Spouse, Ally)">
<path fill="none" stroke="green" d="M512.62,-546.345C522.404,-531.382 532.898,-515.332 542.903,-500.031"/>
<polygon fill="green" stroke="green" points="545.86,-501.904 548.403,-491.619 540.001,-498.073 545.86,-501.904"/>
</a>
<text text-anchor="middle" x="560" y="-515.4" font-family="Times Roman,serif" font-size="14.00">Spouse</text>
</g>
<!-- Vulwulf&#45;&gt;Asgeir -->
<g id="edge38" class="edge"><title>Vulwulf&#45;&gt;Asgeir</title>
<a xlink:title="Vulwulf Snow&#45;Shod &#45;&gt; Asgeir Snow&#45;Shod (ParentChild, Ally)">
<path fill="none" stroke="green" d="M443.916,-546.46C437.765,-529.116 432.126,-510.107 429,-492 419.321,-435.941 417.877,-419.791 429,-364 431.971,-349.099 436.86,-333.725 442.428,-319.197"/>
<polygon fill="green" stroke="green" points="445.727,-320.371 446.171,-309.785 439.223,-317.784 445.727,-320.371"/>
</a>
<text text-anchor="middle" x="469.5" y="-424.4" font-family="Times Roman,serif" font-size="14.00">ParentChild</text>
</g>
</g>
</svg>
