<?xml version="1.0" encoding="UTF-8" standalone="no"?>
<!DOCTYPE svg PUBLIC "-//W3C//DTD SVG 1.1//EN"
 "http://www.w3.org/Graphics/SVG/1.1/DTD/svg11.dtd">
<!-- Generated by graphviz version 2.26.3 (20100126.1600)
 -->
<!-- Title: Relationships_component_36 Pages: 1 -->
<svg width="182pt" height="484pt"
 viewBox="0.00 0.00 182.00 484.00" xmlns="http://www.w3.org/2000/svg" xmlns:xlink="http://www.w3.org/1999/xlink">
<g id="graph1" class="graph" transform="scale(1 1) rotate(0) translate(4 480)">
<title>Relationships_component_36</title>
<polygon fill="white" stroke="white" points="-4,5 -4,-480 179,-480 179,5 -4,5"/>
<!-- Freir -->
<g id="node1" class="node"><title>Freir</title>
<a xlink:href="http://www.uesp.net/wiki/Skyrim:Freir" xlink:title="&lt;TABLE&gt;">
<image xlink:href="120px-SR-npc-Freir.jpg" width="91px" height="91px" preserveAspectRatio="xMinYMin meet" x="12" y="-285"/>
<text text-anchor="start" x="41.5" y="-177.733" font-family="Times Roman,serif" font-size="14.00">Freir</text>
</a>
</g>
<!-- SilanaPetreia -->
<g id="node2" class="node"><title>SilanaPetreia</title>
<a xlink:href="http://www.uesp.net/wiki/Skyrim:Silana Petreia" xlink:title="&lt;TABLE&gt;">
<image xlink:href="120px-SR-npc-Silana_Petreia.jpg" width="97px" height="91px" preserveAspectRatio="xMinYMin meet" x="66" y="-119"/>
<text text-anchor="start" x="66.5" y="-11.7333" font-family="Times Roman,serif" font-size="14.00">Silana Petreia</text>
</a>
</g>
<!-- Freir&#45;&gt;SilanaPetreia -->
<g id="edge2" class="edge"><title>Freir&#45;&gt;SilanaPetreia</title>
<a xlink:title="Freir &#45;&gt; Silana Petreia (Ally)">
<path fill="none" stroke="green" d="M78.8747,-166.295C82.1476,-156.763 85.544,-146.872 88.8778,-137.163"/>
<polygon fill="green" stroke="green" points="92.2465,-138.129 92.1839,-127.535 85.6259,-135.856 92.2465,-138.129"/>
</a>
</g>
<!-- Rorlund -->
<g id="node4" class="node"><title>Rorlund</title>
<a xlink:href="http://www.uesp.net/wiki/Skyrim:Rorlund" xlink:title="&lt;TABLE&gt;">
<image xlink:href="120px-SR-npc-Rorlund.jpg" width="91px" height="91px" preserveAspectRatio="xMinYMin meet" x="59" y="-467"/>
<text text-anchor="start" x="77.5" y="-359.733" font-family="Times Roman,serif" font-size="14.00">Rorlund</text>
</a>
</g>
<!-- Rorlund&#45;&gt;Freir -->
<g id="edge4" class="edge"><title>Rorlund&#45;&gt;Freir</title>
<a xlink:title="Rorlund &#45;&gt; Freir (Spouse, Lover)">
<path fill="none" stroke="forestgreen" d="M83.0807,-348.167C81.2813,-342.05 79.5565,-335.922 78,-330 75.7721,-321.523 73.6219,-312.594 71.6025,-303.702"/>
<polygon fill="forestgreen" stroke="forestgreen" points="74.967,-302.708 69.3809,-293.705 68.1337,-304.227 74.967,-302.708"/>
</a>
<text text-anchor="middle" x="103" y="-317.4" font-family="Times Roman,serif" font-size="14.00">Spouse</text>
</g>
<!-- Rorlund&#45;&gt;SilanaPetreia -->
<g id="edge6" class="edge"><title>Rorlund&#45;&gt;SilanaPetreia</title>
<a xlink:title="Rorlund &#45;&gt; Silana Petreia (Ally)">
<path fill="none" stroke="green" d="M124.524,-348.375C125.935,-342.215 127.137,-336.02 128,-330 137.246,-265.493 132.071,-191.403 125.549,-137.826"/>
<polygon fill="green" stroke="green" points="129,-137.214 124.275,-127.731 122.055,-138.091 129,-137.214"/>
</a>
</g>
</g>
</svg>
