<?xml version="1.0" encoding="UTF-8" standalone="no"?>
<!DOCTYPE svg PUBLIC "-//W3C//DTD SVG 1.1//EN"
 "http://www.w3.org/Graphics/SVG/1.1/DTD/svg11.dtd">
<!-- Generated by graphviz version 2.26.3 (20100126.1600)
 -->
<!-- Title: Relationships_component_19 Pages: 1 -->
<svg width="518pt" height="318pt"
 viewBox="0.00 0.00 518.00 318.00" xmlns="http://www.w3.org/2000/svg" xmlns:xlink="http://www.w3.org/1999/xlink">
<g id="graph1" class="graph" transform="scale(1 1) rotate(0) translate(4 314)">
<title>Relationships_component_19</title>
<polygon fill="white" stroke="white" points="-4,5 -4,-314 515,-314 515,5 -4,5"/>
<!-- Falion -->
<g id="node1" class="node"><title>Falion</title>
<a xlink:href="http://www.uesp.net/wiki/Skyrim:Falion" xlink:title="&lt;TABLE&gt;">
<text text-anchor="start" x="169.5" y="-193.733" font-family="Times Roman,serif" font-size="14.00">Falion</text>
</a>
</g>
<!-- Jonna -->
<g id="node2" class="node"><title>Jonna</title>
<a xlink:href="http://www.uesp.net/wiki/Skyrim:Jonna" xlink:title="&lt;TABLE&gt;">
<text text-anchor="start" x="169.5" y="-11.7333" font-family="Times Roman,serif" font-size="14.00">Jonna</text>
</a>
</g>
<!-- Falion&#45;&gt;Jonna -->
<g id="edge2" class="edge"><title>Falion&#45;&gt;Jonna</title>
<a xlink:title="Falion &#45;&gt; Jonna (Siblings, Ally)">
<path fill="none" stroke="green" d="M189,-182.345C189,-167.937 189,-152.52 189,-137.734"/>
<polygon fill="green" stroke="green" points="192.5,-137.619 189,-127.619 185.5,-137.619 192.5,-137.619"/>
</a>
<text text-anchor="middle" x="215.5" y="-151.4" font-family="Times Roman,serif" font-size="14.00">Siblings</text>
</g>
<!-- Lami -->
<g id="node4" class="node"><title>Lami</title>
<a xlink:href="http://www.uesp.net/wiki/Skyrim:Lami" xlink:title="&lt;TABLE&gt;">
<image xlink:href="120px-SR-npc-Lami.jpg" width="91px" height="91px" preserveAspectRatio="xMinYMin meet" x="276" y="-119"/>
<text text-anchor="start" x="304.5" y="-11.7333" font-family="Times Roman,serif" font-size="14.00">Lami</text>
</a>
</g>
<!-- Falion&#45;&gt;Lami -->
<g id="edge4" class="edge"><title>Falion&#45;&gt;Lami</title>
<a xlink:title="Falion &#45;&gt; Lami (Friend)">
<path fill="none" stroke="olive" d="M235.167,-182.345C246.019,-167.382 257.66,-151.332 268.758,-136.031"/>
<polygon fill="olive" stroke="olive" points="271.821,-137.769 274.859,-127.619 266.154,-133.659 271.821,-137.769"/>
</a>
</g>
<!-- Agni -->
<g id="node6" class="node"><title>Agni</title>
<a xlink:href="http://www.uesp.net/wiki/Skyrim:Agni" xlink:title="&lt;TABLE&gt;">
<image xlink:href="120px-SR-npc-Agni.jpg" width="91px" height="91px" preserveAspectRatio="xMinYMin meet" x="12" y="-119"/>
<text text-anchor="start" x="42" y="-11.7333" font-family="Times Roman,serif" font-size="14.00">Agni</text>
</a>
</g>
<!-- Falion&#45;&gt;Agni -->
<g id="edge6" class="edge"><title>Falion&#45;&gt;Agni</title>
<a xlink:title="Falion &#45;&gt; Agni (Confidant)">
<path fill="none" stroke="lime" d="M142.833,-182.345C131.981,-167.382 120.34,-151.332 109.242,-136.031"/>
<polygon fill="lime" stroke="lime" points="111.846,-133.659 103.141,-127.619 106.179,-137.769 111.846,-133.659"/>
</a>
</g>
<!-- Alva -->
<g id="node8" class="node"><title>Alva</title>
<a xlink:href="http://www.uesp.net/wiki/Skyrim:Alva" xlink:title="&lt;TABLE&gt;">
<image xlink:href="120px-SR-npc-Alva.jpg" width="91px" height="91px" preserveAspectRatio="xMinYMin meet" x="298" y="-301"/>
<text text-anchor="start" x="328" y="-193.733" font-family="Times Roman,serif" font-size="14.00">Alva</text>
</a>
</g>
<!-- Alva&#45;&gt;Lami -->
<g id="edge8" class="edge"><title>Alva&#45;&gt;Lami</title>
<a xlink:title="Alva &#45;&gt; Lami (Confidant)">
<path fill="none" stroke="lime" d="M335.305,-182.345C333.564,-167.937 331.7,-152.52 329.913,-137.734"/>
<polygon fill="lime" stroke="lime" points="333.365,-137.127 328.69,-127.619 326.416,-137.967 333.365,-137.127"/>
</a>
</g>
<!-- Hroggar -->
<g id="node10" class="node"><title>Hroggar</title>
<a xlink:href="http://www.uesp.net/wiki/Skyrim:Hroggar" xlink:title="&lt;TABLE&gt;">
<image xlink:href="120px-SR-npc-Hroggar.jpg" width="91px" height="91px" preserveAspectRatio="xMinYMin meet" x="408" y="-119"/>
<text text-anchor="start" x="425.5" y="-11.7333" font-family="Times Roman,serif" font-size="14.00">Hroggar</text>
</a>
</g>
<!-- Alva&#45;&gt;Hroggar -->
<g id="edge10" class="edge"><title>Alva&#45;&gt;Hroggar</title>
<a xlink:title="Alva &#45;&gt; Hroggar (Lover)">
<path fill="none" stroke="forestgreen" d="M381.473,-182.345C390.432,-167.521 400.037,-151.629 409.208,-136.456"/>
<polygon fill="forestgreen" stroke="forestgreen" points="412.372,-137.988 414.549,-127.619 406.381,-134.367 412.372,-137.988"/>
</a>
</g>
</g>
</svg>
