<?xml version="1.0" encoding="UTF-8" standalone="no"?>
<!DOCTYPE svg PUBLIC "-//W3C//DTD SVG 1.1//EN"
 "http://www.w3.org/Graphics/SVG/1.1/DTD/svg11.dtd">
<!-- Generated by graphviz version 2.26.3 (20100126.1600)
 -->
<!-- Title: Relationships_component_35 Pages: 1 -->
<svg width="405pt" height="138pt"
 viewBox="0.00 0.00 405.00 138.00" xmlns="http://www.w3.org/2000/svg" xmlns:xlink="http://www.w3.org/1999/xlink">
<g id="graph1" class="graph" transform="scale(1 1) rotate(0) translate(4 134)">
<title>Relationships_component_35</title>
<polygon fill="white" stroke="white" points="-4,5 -4,-134 402,-134 402,5 -4,5"/>
<!-- AlainDufont -->
<g id="node1" class="node"><title>AlainDufont</title>
<a xlink:href="http://www.uesp.net/wiki/Skyrim:Alain Dufont" xlink:title="Alain Dufont">
<ellipse fill="none" stroke="black" cx="73" cy="-111" rx="73.0388" ry="18.3848"/>
<text text-anchor="middle" x="73" y="-107.4" font-family="Times Roman,serif" font-size="14.00">Alain Dufont</text>
</a>
</g>
<!-- Muiri -->
<g id="node2" class="node"><title>Muiri</title>
<a xlink:href="http://www.uesp.net/wiki/Skyrim:Muiri" xlink:title="Muiri">
<ellipse fill="none" stroke="black" cx="89" cy="-19" rx="36.0624" ry="18.3848"/>
<text text-anchor="middle" x="89" y="-15.4" font-family="Times Roman,serif" font-size="14.00">Muiri</text>
</a>
</g>
<!-- AlainDufont&#45;&gt;Muiri -->
<g id="edge2" class="edge"><title>AlainDufont&#45;&gt;Muiri</title>
<a xlink:title="Alain Dufont &#45;&gt; Muiri (Enemy)">
<path fill="none" stroke="red" d="M76.2378,-92.3824C78.4716,-79.5383 81.4842,-62.2161 84.0214,-47.6269"/>
<polygon fill="red" stroke="red" points="87.5017,-48.0417 85.767,-37.5899 80.6052,-46.8423 87.5017,-48.0417"/>
</a>
</g>
<!-- Bothela -->
<g id="node4" class="node"><title>Bothela</title>
<a xlink:href="http://www.uesp.net/wiki/Skyrim:Bothela" xlink:title="Bothela">
<ellipse fill="none" stroke="black" cx="226" cy="-111" rx="48.9975" ry="18.3848"/>
<text text-anchor="middle" x="226" y="-107.4" font-family="Times Roman,serif" font-size="14.00">Bothela</text>
</a>
</g>
<!-- Bothela&#45;&gt;Muiri -->
<g id="edge4" class="edge"><title>Bothela&#45;&gt;Muiri</title>
<a xlink:title="Bothela &#45;&gt; Muiri (MasterAssistant, Friend)">
<path fill="none" stroke="olive" d="M184.96,-100.74C158.284,-93.4158 126.571,-83.2611 116,-74 107.779,-66.7976 101.808,-56.5165 97.6047,-46.7885"/>
<polygon fill="olive" stroke="olive" points="100.839,-45.4482 93.9731,-37.3792 94.3087,-47.9687 100.839,-45.4482"/>
</a>
<text text-anchor="middle" x="171.5" y="-61.4" font-family="Times Roman,serif" font-size="14.00">MasterAssistant</text>
</g>
<!-- Odvan -->
<g id="node6" class="node"><title>Odvan</title>
<a xlink:href="http://www.uesp.net/wiki/Skyrim:Odvan" xlink:title="Odvan">
<ellipse fill="none" stroke="black" cx="240" cy="-19" rx="43.8406" ry="18.3848"/>
<text text-anchor="middle" x="240" y="-15.4" font-family="Times Roman,serif" font-size="14.00">Odvan</text>
</a>
</g>
<!-- Bothela&#45;&gt;Odvan -->
<g id="edge6" class="edge"><title>Bothela&#45;&gt;Odvan</title>
<a xlink:title="Bothela &#45;&gt; Odvan (GrandparentGrandchild, Ally)">
<path fill="none" stroke="green" d="M228.833,-92.3824C230.788,-79.5383 233.424,-62.2161 235.644,-47.6269"/>
<polygon fill="green" stroke="green" points="239.127,-48.0027 237.171,-37.5899 232.206,-46.9495 239.127,-48.0027"/>
</a>
<text text-anchor="middle" x="315.5" y="-61.4" font-family="Times Roman,serif" font-size="14.00">GrandparentGrandchild</text>
</g>
</g>
</svg>
