<?xml version="1.0" encoding="UTF-8" standalone="no"?>
<!DOCTYPE svg PUBLIC "-//W3C//DTD SVG 1.1//EN"
 "http://www.w3.org/Graphics/SVG/1.1/DTD/svg11.dtd">
<!-- Generated by graphviz version 2.26.3 (20100126.1600)
 -->
<!-- Title: Relationships_component_29 Pages: 1 -->
<svg width="273pt" height="832pt"
 viewBox="0.00 0.00 273.00 832.00" xmlns="http://www.w3.org/2000/svg" xmlns:xlink="http://www.w3.org/1999/xlink">
<g id="graph1" class="graph" transform="scale(1 1) rotate(0) translate(4 828)">
<title>Relationships_component_29</title>
<polygon fill="white" stroke="white" points="-4,5 -4,-828 270,-828 270,5 -4,5"/>
<!-- Jofthor -->
<g id="node1" class="node"><title>Jofthor</title>
<a xlink:href="http://www.uesp.net/wiki/Skyrim:Jofthor" xlink:title="&lt;TABLE&gt;">
<image xlink:href="120px-SR-npc-Jofthor.jpg" width="91px" height="91px" preserveAspectRatio="xMinYMin meet" x="111" y="-815"/>
<text text-anchor="start" x="133" y="-707.733" font-family="Times Roman,serif" font-size="14.00">Jofthor</text>
</a>
</g>
<!-- Boti -->
<g id="node2" class="node"><title>Boti</title>
<a xlink:href="http://www.uesp.net/wiki/Skyrim:Boti" xlink:title="&lt;TABLE&gt;">
<image xlink:href="120px-SR-npc-Boti.jpg" width="91px" height="91px" preserveAspectRatio="xMinYMin meet" x="48" y="-633"/>
<text text-anchor="start" x="79.5" y="-525.733" font-family="Times Roman,serif" font-size="14.00">Boti</text>
</a>
</g>
<!-- Jofthor&#45;&gt;Boti -->
<g id="edge2" class="edge"><title>Jofthor&#45;&gt;Boti</title>
<a xlink:title="Jofthor &#45;&gt; Boti (Spouse, Ally)">
<path fill="none" stroke="green" d="M130.575,-696.151C128.294,-690.038 126.068,-683.914 124,-678 121.004,-669.432 117.998,-660.401 115.099,-651.415"/>
<polygon fill="green" stroke="green" points="118.375,-650.168 112.001,-641.705 111.706,-652.295 118.375,-650.168"/>
</a>
<text text-anchor="middle" x="149" y="-665.4" font-family="Times Roman,serif" font-size="14.00">Spouse</text>
</g>
<!-- Fastred -->
<g id="node4" class="node"><title>Fastred</title>
<a xlink:href="http://www.uesp.net/wiki/Skyrim:Fastred" xlink:title="&lt;TABLE&gt;">
<image xlink:href="120px-SR-npc-Fastred.jpg" width="91px" height="91px" preserveAspectRatio="xMinYMin meet" x="95" y="-451"/>
<text text-anchor="start" x="115" y="-343.733" font-family="Times Roman,serif" font-size="14.00">Fastred</text>
</a>
</g>
<!-- Jofthor&#45;&gt;Fastred -->
<g id="edge4" class="edge"><title>Jofthor&#45;&gt;Fastred</title>
<a xlink:title="Jofthor &#45;&gt; Fastred (ParentChild, Ally)">
<path fill="none" stroke="green" d="M171.399,-696.207C172.456,-690.082 173.356,-683.941 174,-678 183.585,-589.629 191.357,-565.178 174,-478 173.436,-475.166 172.772,-472.307 172.026,-469.443"/>
<polygon fill="green" stroke="green" points="175.349,-468.334 169.198,-459.707 168.626,-470.287 175.349,-468.334"/>
</a>
<text text-anchor="middle" x="224.5" y="-574.4" font-family="Times Roman,serif" font-size="14.00">ParentChild</text>
</g>
<!-- Boti&#45;&gt;Fastred -->
<g id="edge6" class="edge"><title>Boti&#45;&gt;Fastred</title>
<a xlink:title="Boti &#45;&gt; Fastred (ParentChild, Ally)">
<path fill="none" stroke="green" d="M88.0661,-514.408C88.497,-502.176 89.9177,-489.576 93,-478 93.7976,-475.005 94.7333,-472.005 95.7826,-469.018"/>
<polygon fill="green" stroke="green" points="99.1062,-470.129 99.4894,-459.541 92.5871,-467.579 99.1062,-470.129"/>
</a>
<text text-anchor="middle" x="133.5" y="-483.4" font-family="Times Roman,serif" font-size="14.00">ParentChild</text>
</g>
<!-- BassianusAxius -->
<g id="node7" class="node"><title>BassianusAxius</title>
<a xlink:href="http://www.uesp.net/wiki/Skyrim:Bassianus Axius" xlink:title="&lt;TABLE&gt;">
<image xlink:href="120px-SR-npc-Bassianus_Axius.jpg" width="112px" height="91px" preserveAspectRatio="xMinYMin meet" x="12" y="-285"/>
<text text-anchor="start" x="12.5" y="-177.733" font-family="Times Roman,serif" font-size="14.00">Bassianus Axius</text>
</a>
</g>
<!-- Fastred&#45;&gt;BassianusAxius -->
<g id="edge8" class="edge"><title>Fastred&#45;&gt;BassianusAxius</title>
<a xlink:title="Fastred &#45;&gt; Bassianus Axius (Lover)">
<path fill="none" stroke="forestgreen" d="M112.369,-332.295C108.192,-322.664 103.855,-312.666 99.6018,-302.86"/>
<polygon fill="forestgreen" stroke="forestgreen" points="102.747,-301.316 95.5572,-293.535 96.3255,-304.102 102.747,-301.316"/>
</a>
</g>
<!-- Klimmek -->
<g id="node9" class="node"><title>Klimmek</title>
<a xlink:href="http://www.uesp.net/wiki/Skyrim:Klimmek" xlink:title="&lt;TABLE&gt;">
<image xlink:href="120px-SR-npc-Klimmek.jpg" width="91px" height="91px" preserveAspectRatio="xMinYMin meet" x="89" y="-119"/>
<text text-anchor="start" x="105" y="-11.7333" font-family="Times Roman,serif" font-size="14.00">Klimmek</text>
</a>
</g>
<!-- Fastred&#45;&gt;Klimmek -->
<g id="edge10" class="edge"><title>Fastred&#45;&gt;Klimmek</title>
<a xlink:title="Fastred &#45;&gt; Klimmek (Friend)">
<path fill="none" stroke="olive" d="M143.975,-332.011C146.212,-285.841 148.013,-222.035 145,-166 144.508,-156.857 143.771,-147.273 142.906,-137.794"/>
<polygon fill="olive" stroke="olive" points="146.364,-137.194 141.922,-127.575 139.396,-137.865 146.364,-137.194"/>
</a>
</g>
<!-- BassianusAxius&#45;&gt;Klimmek -->
<g id="edge12" class="edge"><title>BassianusAxius&#45;&gt;Klimmek</title>
<a xlink:title="Bassianus Axius &#45;&gt; Klimmek (Friend)">
<path fill="none" stroke="olive" d="M93.3286,-166.295C97.1578,-156.664 101.133,-146.666 105.032,-136.86"/>
<polygon fill="olive" stroke="olive" points="108.297,-138.12 108.739,-127.535 101.792,-135.534 108.297,-138.12"/>
</a>
</g>
</g>
</svg>
