<?xml version="1.0" encoding="UTF-8" standalone="no"?>
<!DOCTYPE svg PUBLIC "-//W3C//DTD SVG 1.1//EN"
 "http://www.w3.org/Graphics/SVG/1.1/DTD/svg11.dtd">
<!-- Generated by graphviz version 2.26.3 (20100126.1600)
 -->
<!-- Title: Relationships_component_0 Pages: 1 -->
<svg width="186pt" height="194pt"
 viewBox="0.00 0.00 186.00 194.00" xmlns="http://www.w3.org/2000/svg" xmlns:xlink="http://www.w3.org/1999/xlink">
<g id="graph1" class="graph" transform="scale(1 1) rotate(0) translate(4 190)">
<title>Relationships_component_0</title>
<polygon fill="white" stroke="white" points="-4,5 -4,-190 183,-190 183,5 -4,5"/>
<!-- BrelynaMaryon -->
<g id="node1" class="node"><title>BrelynaMaryon</title>
<ellipse fill="none" stroke="black" cx="89" cy="-167" rx="89.0955" ry="18.3848"/>
<text text-anchor="middle" x="89" y="-163.4" font-family="Times Roman,serif" font-size="14.00">Brelyna Maryon</text>
</g>
<!-- Onmund -->
<g id="node2" class="node"><title>Onmund</title>
<ellipse fill="none" stroke="black" cx="89" cy="-19" rx="53.2379" ry="18.3848"/>
<text text-anchor="middle" x="89" y="-15.4" font-family="Times Roman,serif" font-size="14.00">Onmund</text>
</g>
<!-- BrelynaMaryon&#45;&gt;Onmund -->
<g id="edge2" class="edge"><title>BrelynaMaryon&#45;&gt;Onmund</title>
<a xlink:title="Brelyna Maryon &#45;&gt; Onmund (Friend)">
<path fill="none" stroke="olive" d="M81.7556,-148.488C78.0281,-137.97 73.8805,-124.452 72,-112 69.478,-95.3005 69.478,-90.6995 72,-74 73.3516,-65.0504 75.8744,-55.5497 78.5706,-47.008"/>
<polygon fill="olive" stroke="olive" points="81.894,-48.1055 81.7556,-37.5116 75.2573,-45.8796 81.894,-48.1055"/>
</a>
</g>
<!-- Jzargo -->
<g id="node4" class="node"><title>Jzargo</title>
<ellipse fill="none" stroke="black" cx="125" cy="-93" rx="44.0472" ry="18.3848"/>
<text text-anchor="middle" x="125" y="-89.4" font-family="Times Roman,serif" font-size="14.00">J&#39;zargo</text>
</g>
<!-- BrelynaMaryon&#45;&gt;Jzargo -->
<g id="edge4" class="edge"><title>BrelynaMaryon&#45;&gt;Jzargo</title>
<a xlink:title="Brelyna Maryon &#45;&gt; J&#39;zargo (Friend)">
<path fill="none" stroke="olive" d="M98.0843,-148.327C102.197,-139.874 107.139,-129.714 111.661,-120.42"/>
<polygon fill="olive" stroke="olive" points="114.94,-121.679 116.167,-111.156 108.645,-118.617 114.94,-121.679"/>
</a>
</g>
<!-- Jzargo&#45;&gt;Onmund -->
<g id="edge6" class="edge"><title>Jzargo&#45;&gt;Onmund</title>
<a xlink:title="J&#39;zargo &#45;&gt; Onmund (Friend)">
<path fill="none" stroke="olive" d="M116.101,-74.7079C111.947,-66.1693 106.916,-55.8269 102.321,-46.3828"/>
<polygon fill="olive" stroke="olive" points="105.443,-44.7994 97.9213,-37.3382 99.1487,-47.8617 105.443,-44.7994"/>
</a>
</g>
</g>
</svg>
