<?xml version="1.0" encoding="UTF-8" standalone="no"?>
<!DOCTYPE svg PUBLIC "-//W3C//DTD SVG 1.1//EN"
 "http://www.w3.org/Graphics/SVG/1.1/DTD/svg11.dtd">
<!-- Generated by graphviz version 2.26.3 (20100126.1600)
 -->
<!-- Title: Relationships_component_12 Pages: 1 -->
<svg width="535pt" height="414pt"
 viewBox="0.00 0.00 534.76 414.00" xmlns="http://www.w3.org/2000/svg" xmlns:xlink="http://www.w3.org/1999/xlink">
<g id="graph1" class="graph" transform="scale(1 1) rotate(0) translate(4 410)">
<title>Relationships_component_12</title>
<polygon fill="white" stroke="white" points="-4,5 -4,-410 531.758,-410 531.758,5 -4,5"/>
<!-- Mauhulakh -->
<g id="node1" class="node"><title>Mauhulakh</title>
<a xlink:href="http://www.uesp.net/wiki/Skyrim:Chief Mauhulakh" xlink:title="Chief Mauhulakh">
<ellipse fill="none" stroke="black" cx="243.758" cy="-203" rx="94.0452" ry="18.3848"/>
<text text-anchor="middle" x="243.758" y="-199.4" font-family="Times Roman,serif" font-size="14.00">Chief Mauhulakh</text>
</a>
</g>
<!-- Urog -->
<g id="node2" class="node"><title>Urog</title>
<a xlink:href="http://www.uesp.net/wiki/Skyrim:Urog" xlink:title="Urog">
<ellipse fill="none" stroke="black" cx="243.758" cy="-111" rx="34.8574" ry="18.3848"/>
<text text-anchor="middle" x="243.758" y="-107.4" font-family="Times Roman,serif" font-size="14.00">Urog</text>
</a>
</g>
<!-- Mauhulakh&#45;&gt;Urog -->
<g id="edge2" class="edge"><title>Mauhulakh&#45;&gt;Urog</title>
<a xlink:title="Chief Mauhulakh &#45;&gt; Urog (ParentChild, Rival)">
<path fill="none" stroke="orangered" d="M243.758,-184.382C243.758,-171.538 243.758,-154.216 243.758,-139.627"/>
<polygon fill="orangered" stroke="orangered" points="247.258,-139.59 243.758,-129.59 240.258,-139.59 247.258,-139.59"/>
</a>
<text text-anchor="middle" x="284.258" y="-153.4" font-family="Times Roman,serif" font-size="14.00">ParentChild</text>
</g>
<!-- Dushnamub -->
<g id="node4" class="node"><title>Dushnamub</title>
<a xlink:href="http://www.uesp.net/wiki/Skyrim:Dushnamub" xlink:title="Dushnamub">
<ellipse fill="none" stroke="black" cx="243.758" cy="-19" rx="70.2092" ry="18.3848"/>
<text text-anchor="middle" x="243.758" y="-15.4" font-family="Times Roman,serif" font-size="14.00">Dushnamub</text>
</a>
</g>
<!-- Urog&#45;&gt;Dushnamub -->
<g id="edge4" class="edge"><title>Urog&#45;&gt;Dushnamub</title>
<a xlink:title="Urog &#45;&gt; Dushnamub (Siblings, Acquaintance)">
<path fill="none" stroke="orange" d="M243.758,-92.3824C243.758,-79.5383 243.758,-62.2161 243.758,-47.6269"/>
<polygon fill="orange" stroke="orange" points="247.258,-47.5898 243.758,-37.5899 240.258,-47.5899 247.258,-47.5898"/>
</a>
<text text-anchor="middle" x="270.258" y="-61.4" font-family="Times Roman,serif" font-size="14.00">Siblings</text>
</g>
<!-- Bolar -->
<g id="node6" class="node"><title>Bolar</title>
<a xlink:href="http://www.uesp.net/wiki/Skyrim:Bolar" xlink:title="Bolar">
<ellipse fill="none" stroke="black" cx="91.7581" cy="-295" rx="36.977" ry="18.3848"/>
<text text-anchor="middle" x="91.7581" y="-291.4" font-family="Times Roman,serif" font-size="14.00">Bolar</text>
</a>
</g>
<!-- Bolar&#45;&gt;Mauhulakh -->
<g id="edge6" class="edge"><title>Bolar&#45;&gt;Mauhulakh</title>
<a xlink:title="Bolar &#45;&gt; Chief Mauhulakh (AuntUncle, Acquaintance)">
<path fill="none" stroke="orange" d="M111.431,-279.308C126.406,-267.728 147.779,-251.97 167.758,-240 176.821,-234.57 186.797,-229.269 196.456,-224.452"/>
<polygon fill="orange" stroke="orange" points="198.131,-227.529 205.579,-219.994 195.057,-221.24 198.131,-227.529"/>
</a>
<text text-anchor="middle" x="204.258" y="-245.4" font-family="Times Roman,serif" font-size="14.00">AuntUncle</text>
</g>
<!-- Bolar&#45;&gt;Urog -->
<g id="edge8" class="edge"><title>Bolar&#45;&gt;Urog</title>
<a xlink:title="Bolar &#45;&gt; Urog (AuntUncle, Confidant)">
<path fill="none" stroke="lime" d="M80.3153,-277.312C66.8472,-254.028 48.5959,-212.693 67.7581,-184 96.8652,-140.416 157.357,-122.818 199.237,-115.736"/>
<polygon fill="lime" stroke="lime" points="199.845,-119.183 209.189,-114.189 198.77,-112.266 199.845,-119.183"/>
</a>
<text text-anchor="middle" x="104.258" y="-199.4" font-family="Times Roman,serif" font-size="14.00">AuntUncle</text>
</g>
<!-- Bolar&#45;&gt;Dushnamub -->
<g id="edge10" class="edge"><title>Bolar&#45;&gt;Dushnamub</title>
<a xlink:title="Bolar &#45;&gt; Dushnamub (AuntUncle, Acquaintance)">
<path fill="none" stroke="orange" d="M71.16,-279.455C38.0854,-252.529 -20.4291,-195.531 7.75806,-148 44.8873,-85.3908 124.309,-51.1976 180.748,-34.0294"/>
<polygon fill="orange" stroke="orange" points="182.044,-37.2965 190.652,-31.1186 180.07,-30.5806 182.044,-37.2965"/>
</a>
<text text-anchor="middle" x="44.2581" y="-153.4" font-family="Times Roman,serif" font-size="14.00">AuntUncle</text>
</g>
<!-- Yatul -->
<g id="node10" class="node"><title>Yatul</title>
<a xlink:href="http://www.uesp.net/wiki/Skyrim:Yatul" xlink:title="Yatul">
<ellipse fill="none" stroke="black" cx="309.758" cy="-387" rx="34.8574" ry="18.3848"/>
<text text-anchor="middle" x="309.758" y="-383.4" font-family="Times Roman,serif" font-size="14.00">Yatul</text>
</a>
</g>
<!-- Yatul&#45;&gt;Mauhulakh -->
<g id="edge12" class="edge"><title>Yatul&#45;&gt;Mauhulakh</title>
<a xlink:title="Yatul &#45;&gt; Chief Mauhulakh (AuntUncle, Confidant)">
<path fill="none" stroke="lime" d="M301.495,-368.895C294.947,-354.24 285.765,-332.989 278.758,-314 268.506,-286.218 258.522,-253.867 251.858,-231.283"/>
<polygon fill="lime" stroke="lime" points="255.206,-230.262 249.041,-221.646 248.487,-232.226 255.206,-230.262"/>
</a>
<text text-anchor="middle" x="315.258" y="-291.4" font-family="Times Roman,serif" font-size="14.00">AuntUncle</text>
</g>
<!-- Yatul&#45;&gt;Urog -->
<g id="edge14" class="edge"><title>Yatul&#45;&gt;Urog</title>
<a xlink:title="Yatul &#45;&gt; Urog (AuntUncle, Ally)">
<path fill="none" stroke="green" d="M323.1,-369.861C333.186,-355.753 346.211,-334.765 351.758,-314 357.86,-291.159 353.97,-211.222 346.758,-184 342.177,-166.708 341.738,-160.309 328.758,-148 316.591,-136.463 300.25,-128.188 285.147,-122.431"/>
<polygon fill="green" stroke="green" points="286.053,-119.039 275.458,-119.003 283.718,-125.638 286.053,-119.039"/>
</a>
<text text-anchor="middle" x="390.258" y="-245.4" font-family="Times Roman,serif" font-size="14.00">AuntUncle</text>
</g>
<!-- Yatul&#45;&gt;Dushnamub -->
<g id="edge18" class="edge"><title>Yatul&#45;&gt;Dushnamub</title>
<a xlink:title="Yatul &#45;&gt; Dushnamub (AuntUncle, Acquaintance)">
<path fill="none" stroke="orange" d="M343.156,-380.959C385.696,-371.118 453.758,-347.213 453.758,-295 453.758,-295 453.758,-295 453.758,-111 453.758,-78.5072 368.344,-50.04 306.463,-33.6795"/>
<polygon fill="orange" stroke="orange" points="307.308,-30.2831 296.75,-31.1589 305.55,-37.0587 307.308,-30.2831"/>
</a>
<text text-anchor="middle" x="490.258" y="-199.4" font-family="Times Roman,serif" font-size="14.00">AuntUncle</text>
</g>
<!-- Yatul&#45;&gt;Bolar -->
<g id="edge16" class="edge"><title>Yatul&#45;&gt;Bolar</title>
<a xlink:title="Yatul &#45;&gt; Bolar (Siblings, Ally)">
<path fill="none" stroke="green" d="M277.717,-379.402C252.694,-372.967 217.327,-362.759 187.758,-350 165.175,-340.256 141.166,-326.499 122.807,-315.182"/>
<polygon fill="green" stroke="green" points="124.614,-312.184 114.279,-309.85 120.903,-318.119 124.614,-312.184"/>
</a>
<text text-anchor="middle" x="214.258" y="-337.4" font-family="Times Roman,serif" font-size="14.00">Siblings</text>
</g>
</g>
</svg>
