<?xml version="1.0" encoding="UTF-8" standalone="no"?>
<!DOCTYPE svg PUBLIC "-//W3C//DTD SVG 1.1//EN"
 "http://www.w3.org/Graphics/SVG/1.1/DTD/svg11.dtd">
<!-- Generated by graphviz version 2.26.3 (20100126.1600)
 -->
<!-- Title: Relationships_component_31 Pages: 1 -->
<svg width="238pt" height="500pt"
 viewBox="0.00 0.00 238.00 500.00" xmlns="http://www.w3.org/2000/svg" xmlns:xlink="http://www.w3.org/1999/xlink">
<g id="graph1" class="graph" transform="scale(1 1) rotate(0) translate(4 496)">
<title>Relationships_component_31</title>
<polygon fill="white" stroke="white" points="-4,5 -4,-496 235,-496 235,5 -4,5"/>
<!-- Horgeir -->
<g id="node1" class="node"><title>Horgeir</title>
<a xlink:href="http://www.uesp.net/wiki/Skyrim:Horgeir" xlink:title="&lt;TABLE&gt;">
<image xlink:href="120px-SR-npc-Horgeir.jpg" width="91px" height="91px" preserveAspectRatio="xMinYMin meet" x="58" y="-483"/>
<text text-anchor="start" x="77.5" y="-375.733" font-family="Times Roman,serif" font-size="14.00">Horgeir</text>
</a>
</g>
<!-- Olda -->
<g id="node2" class="node"><title>Olda</title>
<a xlink:href="http://www.uesp.net/wiki/Skyrim:Olda" xlink:title="&lt;TABLE&gt;">
<text text-anchor="start" x="41.5" y="-193.733" font-family="Times Roman,serif" font-size="14.00">Olda</text>
</a>
</g>
<!-- Horgeir&#45;&gt;Olda -->
<g id="edge2" class="edge"><title>Horgeir&#45;&gt;Olda</title>
<a xlink:title="Horgeir &#45;&gt; Olda (InLawBrotherSister, Ally)">
<path fill="none" stroke="green" d="M45.8376,-375.35C38.973,-366.267 32.9916,-356.381 29,-346 25.7562,-337.564 24.8567,-328.597 25.5077,-319.63"/>
<polygon fill="green" stroke="green" points="29.0012,-319.911 26.8592,-309.535 22.0631,-318.983 29.0012,-319.911"/>
</a>
<text text-anchor="middle" x="97" y="-333.4" font-family="Times Roman,serif" font-size="14.00">InLawBrotherSister</text>
</g>
<!-- Lodvar -->
<g id="node4" class="node"><title>Lodvar</title>
<a xlink:href="http://www.uesp.net/wiki/Skyrim:Lodvar" xlink:title="&lt;TABLE&gt;">
<text text-anchor="start" x="108.5" y="-11.7333" font-family="Times Roman,serif" font-size="14.00">Lodvar</text>
</a>
</g>
<!-- Horgeir&#45;&gt;Lodvar -->
<g id="edge4" class="edge"><title>Horgeir&#45;&gt;Lodvar</title>
<a xlink:title="Horgeir &#45;&gt; Lodvar (Siblings, Rival)">
<path fill="none" stroke="orangered" d="M156.878,-364.389C160.111,-358.424 162.9,-352.261 165,-346 187.936,-277.636 173.883,-195.32 157.626,-137.32"/>
<polygon fill="orangered" stroke="orangered" points="160.928,-136.14 154.789,-127.506 154.203,-138.084 160.928,-136.14"/>
</a>
<text text-anchor="middle" x="203.5" y="-242.4" font-family="Times Roman,serif" font-size="14.00">Siblings</text>
</g>
<!-- Olda&#45;&gt;Lodvar -->
<g id="edge6" class="edge"><title>Olda&#45;&gt;Lodvar</title>
<a xlink:title="Olda &#45;&gt; Lodvar (Spouse, Acquaintance)">
<path fill="none" stroke="orange" d="M83.2314,-182.345C89.2832,-167.66 95.7666,-151.926 101.966,-136.882"/>
<polygon fill="orange" stroke="orange" points="105.209,-138.198 105.783,-127.619 98.7373,-135.531 105.209,-138.198"/>
</a>
<text text-anchor="middle" x="121" y="-151.4" font-family="Times Roman,serif" font-size="14.00">Spouse</text>
</g>
</g>
</svg>
