<?xml version="1.0" encoding="UTF-8" standalone="no"?>
<!DOCTYPE svg PUBLIC "-//W3C//DTD SVG 1.1//EN"
 "http://www.w3.org/Graphics/SVG/1.1/DTD/svg11.dtd">
<!-- Generated by graphviz version 2.26.3 (20100126.1600)
 -->
<!-- Title: Relationships_component_39 Pages: 1 -->
<svg width="195pt" height="230pt"
 viewBox="0.00 0.00 194.81 230.00" xmlns="http://www.w3.org/2000/svg" xmlns:xlink="http://www.w3.org/1999/xlink">
<g id="graph1" class="graph" transform="scale(1 1) rotate(0) translate(4 226)">
<title>Relationships_component_39</title>
<polygon fill="white" stroke="white" points="-4,5 -4,-226 191.808,-226 191.808,5 -4,5"/>
<!-- Katla -->
<g id="node1" class="node"><title>Katla</title>
<a xlink:href="http://www.uesp.net/wiki/Skyrim:Katla" xlink:title="Katla">
<ellipse fill="none" stroke="black" cx="37.808" cy="-203" rx="36.7696" ry="18.3848"/>
<text text-anchor="middle" x="37.808" y="-199.4" font-family="Times Roman,serif" font-size="14.00">Katla</text>
</a>
</g>
<!-- Knud -->
<g id="node2" class="node"><title>Knud</title>
<a xlink:href="http://www.uesp.net/wiki/Skyrim:Knud" xlink:title="Knud">
<ellipse fill="none" stroke="black" cx="37.808" cy="-19" rx="36.7696" ry="18.3848"/>
<text text-anchor="middle" x="37.808" y="-15.4" font-family="Times Roman,serif" font-size="14.00">Knud</text>
</a>
</g>
<!-- Katla&#45;&gt;Knud -->
<g id="edge2" class="edge"><title>Katla&#45;&gt;Knud</title>
<a xlink:title="Katla &#45;&gt; Knud (ParentChild, Ally)">
<path fill="none" stroke="green" d="M26.4947,-185.232C18.1012,-170.94 7.35689,-150.01 2.80795,-130 -0.935983,-113.531 -0.935983,-108.469 2.80795,-92 6.46843,-75.8984 14.1405,-59.201 21.3712,-45.8459"/>
<polygon fill="green" stroke="green" points="24.6275,-47.1973 26.4947,-36.7683 18.5314,-43.7566 24.6275,-47.1973"/>
</a>
<text text-anchor="middle" x="43.308" y="-107.4" font-family="Times Roman,serif" font-size="14.00">ParentChild</text>
</g>
<!-- Snilling -->
<g id="node4" class="node"><title>Snilling</title>
<a xlink:href="http://www.uesp.net/wiki/Skyrim:Snilling" xlink:title="Snilling">
<ellipse fill="none" stroke="black" cx="139.808" cy="-111" rx="46.8775" ry="18.3848"/>
<text text-anchor="middle" x="139.808" y="-107.4" font-family="Times Roman,serif" font-size="14.00">Snilling</text>
</a>
</g>
<!-- Katla&#45;&gt;Snilling -->
<g id="edge4" class="edge"><title>Katla&#45;&gt;Snilling</title>
<a xlink:title="Katla &#45;&gt; Snilling (Spouse, Lover)">
<path fill="none" stroke="forestgreen" d="M56.0435,-186.552C71.8455,-172.299 94.9251,-151.483 112.859,-135.307"/>
<polygon fill="forestgreen" stroke="forestgreen" points="115.61,-137.539 120.692,-128.242 110.922,-132.341 115.61,-137.539"/>
</a>
<text text-anchor="middle" x="122.808" y="-153.4" font-family="Times Roman,serif" font-size="14.00">Spouse</text>
</g>
<!-- Snilling&#45;&gt;Knud -->
<g id="edge6" class="edge"><title>Snilling&#45;&gt;Knud</title>
<a xlink:title="Snilling &#45;&gt; Knud (ParentChild, Ally)">
<path fill="none" stroke="green" d="M120.623,-93.6955C104.508,-79.1611 81.3385,-58.2628 63.6021,-42.2653"/>
<polygon fill="green" stroke="green" points="65.6501,-39.3991 55.8801,-35.3004 60.9617,-44.5971 65.6501,-39.3991"/>
</a>
<text text-anchor="middle" x="138.308" y="-61.4" font-family="Times Roman,serif" font-size="14.00">ParentChild</text>
</g>
</g>
</svg>
