<?xml version="1.0" encoding="UTF-8" standalone="no"?>
<!DOCTYPE svg PUBLIC "-//W3C//DTD SVG 1.1//EN"
 "http://www.w3.org/Graphics/SVG/1.1/DTD/svg11.dtd">
<!-- Generated by graphviz version 2.26.3 (20100126.1600)
 -->
<!-- Title: Relationships_component_23 Pages: 1 -->
<svg width="1195pt" height="322pt"
 viewBox="0.00 0.00 1194.95 322.00" xmlns="http://www.w3.org/2000/svg" xmlns:xlink="http://www.w3.org/1999/xlink">
<g id="graph1" class="graph" transform="scale(1 1) rotate(0) translate(4 318)">
<title>Relationships_component_23</title>
<polygon fill="white" stroke="white" points="-4,5 -4,-318 1191.95,-318 1191.95,5 -4,5"/>
<!-- Elgrim -->
<g id="node1" class="node"><title>Elgrim</title>
<a xlink:href="http://www.uesp.net/wiki/Skyrim:Elgrim" xlink:title="Elgrim">
<ellipse fill="none" stroke="black" cx="579.953" cy="-295" rx="41.9273" ry="18.3848"/>
<text text-anchor="middle" x="579.953" y="-291.4" font-family="Times Roman,serif" font-size="14.00">Elgrim</text>
</a>
</g>
<!-- Hafjorg -->
<g id="node2" class="node"><title>Hafjorg</title>
<a xlink:href="http://www.uesp.net/wiki/Skyrim:Hafjorg" xlink:title="Hafjorg">
<ellipse fill="none" stroke="black" cx="542.953" cy="-203" rx="46.1672" ry="18.3848"/>
<text text-anchor="middle" x="542.953" y="-199.4" font-family="Times Roman,serif" font-size="14.00">Hafjorg</text>
</a>
</g>
<!-- Elgrim&#45;&gt;Hafjorg -->
<g id="edge2" class="edge"><title>Elgrim&#45;&gt;Hafjorg</title>
<a xlink:title="Elgrim &#45;&gt; Hafjorg (Spouse, Ally)">
<path fill="none" stroke="green" d="M564.74,-277.555C560.322,-271.683 555.899,-264.87 552.953,-258 549.445,-249.82 547.167,-240.442 545.688,-231.774"/>
<polygon fill="green" stroke="green" points="549.126,-231.089 544.251,-221.682 542.196,-232.076 549.126,-231.089"/>
</a>
<text text-anchor="middle" x="577.953" y="-245.4" font-family="Times Roman,serif" font-size="14.00">Spouse</text>
</g>
<!-- Ingun -->
<g id="node4" class="node"><title>Ingun</title>
<a xlink:href="http://www.uesp.net/wiki/Skyrim:Ingun Black-Briar" xlink:title="Ingun Black&#45;Briar">
<ellipse fill="none" stroke="black" cx="381.953" cy="-111" rx="96.1665" ry="18.3848"/>
<text text-anchor="middle" x="381.953" y="-107.4" font-family="Times Roman,serif" font-size="14.00">Ingun Black&#45;Briar</text>
</a>
</g>
<!-- Elgrim&#45;&gt;Ingun -->
<g id="edge4" class="edge"><title>Elgrim&#45;&gt;Ingun</title>
<a xlink:title="Elgrim &#45;&gt; Ingun Black&#45;Briar (Friend)">
<path fill="none" stroke="olive" d="M593.825,-277.139C597.535,-271.352 601.043,-264.691 602.953,-258 608.302,-239.262 607.283,-195.851 597.953,-184 579.993,-161.189 511.692,-140.55 456.641,-127.085"/>
<polygon fill="olive" stroke="olive" points="457.423,-123.673 446.881,-124.738 455.786,-130.479 457.423,-123.673"/>
</a>
</g>
<!-- Hafjorg&#45;&gt;Ingun -->
<g id="edge6" class="edge"><title>Hafjorg&#45;&gt;Ingun</title>
<a xlink:title="Hafjorg &#45;&gt; Ingun Black&#45;Briar (Friend)">
<path fill="none" stroke="olive" d="M516.367,-187.808C490.547,-173.054 451.032,-150.474 421.519,-133.609"/>
<polygon fill="olive" stroke="olive" points="423.126,-130.496 412.707,-128.574 419.653,-136.574 423.126,-130.496"/>
</a>
</g>
<!-- Sibbi -->
<g id="node11" class="node"><title>Sibbi</title>
<a xlink:href="http://www.uesp.net/wiki/Skyrim:Sibbi Black-Briar" xlink:title="Sibbi Black&#45;Briar">
<ellipse fill="none" stroke="black" cx="243.953" cy="-19" rx="91.2168" ry="18.3848"/>
<text text-anchor="middle" x="243.953" y="-15.4" font-family="Times Roman,serif" font-size="14.00">Sibbi Black&#45;Briar</text>
</a>
</g>
<!-- Ingun&#45;&gt;Sibbi -->
<g id="edge28" class="edge"><title>Ingun&#45;&gt;Sibbi</title>
<a xlink:title="Ingun Black&#45;Briar &#45;&gt; Sibbi Black&#45;Briar (Siblings, Ally)">
<path fill="none" stroke="green" d="M355.018,-93.0431C333.361,-78.6055 302.765,-58.208 279.168,-42.4766"/>
<polygon fill="green" stroke="green" points="281.082,-39.5465 270.82,-36.9116 277.2,-45.3709 281.082,-39.5465"/>
</a>
<text text-anchor="middle" x="352.453" y="-61.4" font-family="Times Roman,serif" font-size="14.00">Siblings</text>
</g>
<!-- Maven -->
<g id="node7" class="node"><title>Maven</title>
<a xlink:href="http://www.uesp.net/wiki/Skyrim:Maven Black-Briar" xlink:title="Maven Black&#45;Briar">
<ellipse fill="none" stroke="black" cx="165.953" cy="-295" rx="99.9096" ry="18.3848"/>
<text text-anchor="middle" x="165.953" y="-291.4" font-family="Times Roman,serif" font-size="14.00">Maven Black&#45;Briar</text>
</a>
</g>
<!-- Maven&#45;&gt;Ingun -->
<g id="edge10" class="edge"><title>Maven&#45;&gt;Ingun</title>
<a xlink:title="Maven Black&#45;Briar &#45;&gt; Ingun Black&#45;Briar (GrandparentGrandchild, Ally)">
<path fill="none" stroke="green" d="M212.024,-278.396C225.093,-272.783 239.007,-265.903 250.953,-258 276.663,-240.991 331.169,-174.984 361.135,-137.462"/>
<polygon fill="green" stroke="green" points="364.005,-139.476 367.49,-129.471 358.526,-135.119 364.005,-139.476"/>
</a>
<text text-anchor="middle" x="404.453" y="-199.4" font-family="Times Roman,serif" font-size="14.00">GrandparentGrandchild</text>
</g>
<!-- Hemming -->
<g id="node8" class="node"><title>Hemming</title>
<a xlink:href="http://www.uesp.net/wiki/Skyrim:Hemming Black-Briar" xlink:title="Hemming Black&#45;Briar">
<ellipse fill="none" stroke="black" cx="165.953" cy="-203" rx="113.844" ry="18.3848"/>
<text text-anchor="middle" x="165.953" y="-199.4" font-family="Times Roman,serif" font-size="14.00">Hemming Black&#45;Briar</text>
</a>
</g>
<!-- Maven&#45;&gt;Hemming -->
<g id="edge8" class="edge"><title>Maven&#45;&gt;Hemming</title>
<a xlink:title="Maven Black&#45;Briar &#45;&gt; Hemming Black&#45;Briar (ParentChild, Ally)">
<path fill="none" stroke="green" d="M165.953,-276.382C165.953,-263.538 165.953,-246.216 165.953,-231.627"/>
<polygon fill="green" stroke="green" points="169.453,-231.59 165.953,-221.59 162.453,-231.59 169.453,-231.59"/>
</a>
<text text-anchor="middle" x="206.453" y="-245.4" font-family="Times Roman,serif" font-size="14.00">ParentChild</text>
</g>
<!-- Maven&#45;&gt;Sibbi -->
<g id="edge12" class="edge"><title>Maven&#45;&gt;Sibbi</title>
<a xlink:title="Maven Black&#45;Briar &#45;&gt; Sibbi Black&#45;Briar (GrandparentGrandchild, Ally)">
<path fill="none" stroke="green" d="M121.414,-278.352C63.6101,-254.024 -26.0646,-205.362 7.95303,-148 43.678,-87.7587 118.557,-53.8248 174.444,-36.051"/>
<polygon fill="green" stroke="green" points="175.764,-39.3071 184.293,-33.0221 173.706,-32.6164 175.764,-39.3071"/>
</a>
<text text-anchor="middle" x="89.453" y="-153.4" font-family="Times Roman,serif" font-size="14.00">GrandparentGrandchild</text>
</g>
<!-- Hemming&#45;&gt;Ingun -->
<g id="edge14" class="edge"><title>Hemming&#45;&gt;Ingun</title>
<a xlink:title="Hemming Black&#45;Briar &#45;&gt; Ingun Black&#45;Briar (ParentChild, Ally)">
<path fill="none" stroke="green" d="M182.392,-184.477C195.194,-170.467 212.211,-152.84 220.953,-148 235.108,-140.163 268.059,-132.047 300.49,-125.42"/>
<polygon fill="green" stroke="green" points="301.397,-128.808 310.516,-123.413 300.023,-121.944 301.397,-128.808"/>
</a>
<text text-anchor="middle" x="261.453" y="-153.4" font-family="Times Roman,serif" font-size="14.00">ParentChild</text>
</g>
<!-- Hemming&#45;&gt;Sibbi -->
<g id="edge16" class="edge"><title>Hemming&#45;&gt;Sibbi</title>
<a xlink:title="Hemming Black&#45;Briar &#45;&gt; Sibbi Black&#45;Briar (ParentChild, Ally)">
<path fill="none" stroke="green" d="M170.26,-184.243C176.613,-157.141 188.54,-108.475 195.953,-92 203.254,-75.7742 213.942,-59.0908 223.381,-45.7761"/>
<polygon fill="green" stroke="green" points="226.31,-47.6994 229.355,-37.5515 220.646,-43.5856 226.31,-47.6994"/>
</a>
<text text-anchor="middle" x="236.453" y="-107.4" font-family="Times Roman,serif" font-size="14.00">ParentChild</text>
</g>
<!-- Bolli -->
<g id="node15" class="node"><title>Bolli</title>
<a xlink:href="http://www.uesp.net/wiki/Skyrim:Bolli" xlink:title="Bolli">
<ellipse fill="none" stroke="black" cx="926.953" cy="-295" rx="32.0265" ry="18.3848"/>
<text text-anchor="middle" x="926.953" y="-291.4" font-family="Times Roman,serif" font-size="14.00">Bolli</text>
</a>
</g>
<!-- Maramal -->
<g id="node16" class="node"><title>Maramal</title>
<a xlink:href="http://www.uesp.net/wiki/Skyrim:Maramal" xlink:title="Maramal">
<ellipse fill="none" stroke="black" cx="1047.95" cy="-203" rx="53.2379" ry="18.3848"/>
<text text-anchor="middle" x="1047.95" y="-199.4" font-family="Times Roman,serif" font-size="14.00">Maramal</text>
</a>
</g>
<!-- Bolli&#45;&gt;Maramal -->
<g id="edge18" class="edge"><title>Bolli&#45;&gt;Maramal</title>
<a xlink:title="Bolli &#45;&gt; Maramal (Friend)">
<path fill="none" stroke="olive" d="M948.28,-281.008C958.335,-274.254 970.411,-265.915 980.953,-258 994.056,-248.162 1008.13,-236.744 1019.98,-226.869"/>
<polygon fill="olive" stroke="olive" points="1022.38,-229.426 1027.79,-220.318 1017.88,-224.063 1022.38,-229.426"/>
</a>
</g>
<!-- TalenJei -->
<g id="node18" class="node"><title>TalenJei</title>
<a xlink:href="http://www.uesp.net/wiki/Skyrim:Talen-Jei" xlink:title="Talen&#45;Jei">
<ellipse fill="none" stroke="black" cx="805.953" cy="-203" rx="53.033" ry="18.3848"/>
<text text-anchor="middle" x="805.953" y="-199.4" font-family="Times Roman,serif" font-size="14.00">Talen&#45;Jei</text>
</a>
</g>
<!-- Bolli&#45;&gt;TalenJei -->
<g id="edge20" class="edge"><title>Bolli&#45;&gt;TalenJei</title>
<a xlink:title="Bolli &#45;&gt; Talen&#45;Jei (Friend)">
<path fill="none" stroke="olive" d="M907.512,-280.219C888.32,-265.626 858.689,-243.097 836.377,-226.132"/>
<polygon fill="olive" stroke="olive" points="838.3,-223.198 828.221,-219.931 834.063,-228.77 838.3,-223.198"/>
</a>
</g>
<!-- Nivenor -->
<g id="node20" class="node"><title>Nivenor</title>
<a xlink:href="http://www.uesp.net/wiki/Skyrim:Nivenor" xlink:title="Nivenor">
<ellipse fill="none" stroke="black" cx="926.953" cy="-203" rx="50.2046" ry="18.3848"/>
<text text-anchor="middle" x="926.953" y="-199.4" font-family="Times Roman,serif" font-size="14.00">Nivenor</text>
</a>
</g>
<!-- Bolli&#45;&gt;Nivenor -->
<g id="edge22" class="edge"><title>Bolli&#45;&gt;Nivenor</title>
<a xlink:title="Bolli &#45;&gt; Nivenor (Spouse, Ally)">
<path fill="none" stroke="green" d="M926.953,-276.382C926.953,-263.538 926.953,-246.216 926.953,-231.627"/>
<polygon fill="green" stroke="green" points="930.453,-231.59 926.953,-221.59 923.453,-231.59 930.453,-231.59"/>
</a>
<text text-anchor="middle" x="951.953" y="-245.4" font-family="Times Roman,serif" font-size="14.00">Spouse</text>
</g>
<!-- Dinya -->
<g id="node22" class="node"><title>Dinya</title>
<a xlink:href="http://www.uesp.net/wiki/Skyrim:Dinya Balu" xlink:title="Dinya Balu">
<ellipse fill="none" stroke="black" cx="1121.95" cy="-111" rx="65.0538" ry="18.3848"/>
<text text-anchor="middle" x="1121.95" y="-107.4" font-family="Times Roman,serif" font-size="14.00">Dinya Balu</text>
</a>
</g>
<!-- Maramal&#45;&gt;Dinya -->
<g id="edge24" class="edge"><title>Maramal&#45;&gt;Dinya</title>
<a xlink:title="Maramal &#45;&gt; Dinya Balu (Spouse, Ally)">
<path fill="none" stroke="green" d="M1062.57,-184.824C1073.52,-171.215 1088.65,-152.402 1100.9,-137.174"/>
<polygon fill="green" stroke="green" points="1103.82,-139.124 1107.36,-129.138 1098.37,-134.737 1103.82,-139.124"/>
</a>
<text text-anchor="middle" x="1115.95" y="-153.4" font-family="Times Roman,serif" font-size="14.00">Spouse</text>
</g>
<!-- Briehl -->
<g id="node24" class="node"><title>Briehl</title>
<a xlink:href="http://www.uesp.net/wiki/Skyrim:Briehl" xlink:title="Briehl">
<ellipse fill="none" stroke="black" cx="992.953" cy="-19" rx="39.8075" ry="18.3848"/>
<text text-anchor="middle" x="992.953" y="-15.4" font-family="Times Roman,serif" font-size="14.00">Briehl</text>
</a>
</g>
<!-- Maramal&#45;&gt;Briehl -->
<g id="edge26" class="edge"><title>Maramal&#45;&gt;Briehl</title>
<a xlink:title="Maramal &#45;&gt; Briehl (BossEmployee, Friend)">
<path fill="none" stroke="olive" d="M1014.67,-188.567C991.589,-176.567 962.624,-157.067 948.953,-130 934.553,-101.49 953.426,-67.0897 970.736,-44.2166"/>
<polygon fill="olive" stroke="olive" points="973.508,-46.354 976.978,-36.3435 968.023,-42.005 973.508,-46.354"/>
</a>
<text text-anchor="middle" x="998.453" y="-107.4" font-family="Times Roman,serif" font-size="14.00">BossEmployee</text>
</g>
<!-- Dinya&#45;&gt;Briehl -->
<g id="edge36" class="edge"><title>Dinya&#45;&gt;Briehl</title>
<a xlink:title="Dinya Balu &#45;&gt; Briehl (BossEmployee, Acquaintance)">
<path fill="none" stroke="orange" d="M1097.69,-93.6955C1076.59,-78.6491 1045.93,-56.7827 1023.23,-40.5935"/>
<polygon fill="orange" stroke="orange" points="1025.13,-37.6498 1014.96,-34.6929 1021.07,-43.3489 1025.13,-37.6498"/>
</a>
<text text-anchor="middle" x="1118.45" y="-61.4" font-family="Times Roman,serif" font-size="14.00">BossEmployee</text>
</g>
<!-- Haelga -->
<g id="node27" class="node"><title>Haelga</title>
<a xlink:href="http://www.uesp.net/wiki/Skyrim:Haelga" xlink:title="Haelga">
<ellipse fill="none" stroke="black" cx="689.953" cy="-203" rx="44.7575" ry="18.3848"/>
<text text-anchor="middle" x="689.953" y="-199.4" font-family="Times Roman,serif" font-size="14.00">Haelga</text>
</a>
</g>
<!-- Svana -->
<g id="node28" class="node"><title>Svana</title>
<a xlink:href="http://www.uesp.net/wiki/Skyrim:Svana Far-Shield" xlink:title="Svana Far&#45;Shield">
<ellipse fill="none" stroke="black" cx="587.953" cy="-111" rx="92.1303" ry="18.3848"/>
<text text-anchor="middle" x="587.953" y="-107.4" font-family="Times Roman,serif" font-size="14.00">Svana Far&#45;Shield</text>
</a>
</g>
<!-- Haelga&#45;&gt;Svana -->
<g id="edge30" class="edge"><title>Haelga&#45;&gt;Svana</title>
<a xlink:title="Haelga &#45;&gt; Svana Far&#45;Shield (AuntUncle, Ally)">
<path fill="none" stroke="green" d="M672.049,-185.962C660.441,-175.002 644.931,-160.52 630.953,-148 626.535,-144.043 621.817,-139.9 617.183,-135.878"/>
<polygon fill="green" stroke="green" points="619.391,-133.161 609.534,-129.277 614.818,-138.46 619.391,-133.161"/>
</a>
<text text-anchor="middle" x="686.453" y="-153.4" font-family="Times Roman,serif" font-size="14.00">AuntUncle</text>
</g>
<!-- BrandShei -->
<g id="node30" class="node"><title>BrandShei</title>
<a xlink:href="http://www.uesp.net/wiki/Skyrim:Brand-Shei" xlink:title="Brand&#45;Shei">
<ellipse fill="none" stroke="black" cx="763.953" cy="-111" rx="65.7609" ry="18.3848"/>
<text text-anchor="middle" x="763.953" y="-107.4" font-family="Times Roman,serif" font-size="14.00">Brand&#45;Shei</text>
</a>
</g>
<!-- Haelga&#45;&gt;BrandShei -->
<g id="edge32" class="edge"><title>Haelga&#45;&gt;BrandShei</title>
<a xlink:title="Haelga &#45;&gt; Brand&#45;Shei (Lover)">
<path fill="none" stroke="forestgreen" d="M715.788,-187.756C724.306,-181.791 733.292,-174.362 739.953,-166 746.245,-158.1 751.213,-148.297 754.958,-139.165"/>
<polygon fill="forestgreen" stroke="forestgreen" points="758.296,-140.232 758.546,-129.64 751.745,-137.764 758.296,-140.232"/>
</a>
</g>
<!-- Svana&#45;&gt;Sibbi -->
<g id="edge34" class="edge"><title>Svana&#45;&gt;Sibbi</title>
<a xlink:title="Svana Far&#45;Shield &#45;&gt; Sibbi Black&#45;Briar (Courting, Lover)">
<path fill="none" stroke="forestgreen" d="M532.711,-96.1474C491.455,-85.0629 433.683,-69.5569 382.953,-56 358.888,-49.5688 332.473,-42.5319 309.193,-36.3376"/>
<polygon fill="forestgreen" stroke="forestgreen" points="309.987,-32.9273 299.423,-33.7388 308.188,-39.6921 309.987,-32.9273"/>
</a>
<text text-anchor="middle" x="474.453" y="-61.4" font-family="Times Roman,serif" font-size="14.00">Courting</text>
</g>
<!-- Keerava -->
<g id="node34" class="node"><title>Keerava</title>
<a xlink:href="http://www.uesp.net/wiki/Skyrim:Keerava" xlink:title="Keerava">
<ellipse fill="none" stroke="black" cx="720.953" cy="-295" rx="50.9117" ry="18.3848"/>
<text text-anchor="middle" x="720.953" y="-291.4" font-family="Times Roman,serif" font-size="14.00">Keerava</text>
</a>
</g>
<!-- Keerava&#45;&gt;TalenJei -->
<g id="edge40" class="edge"><title>Keerava&#45;&gt;TalenJei</title>
<a xlink:title="Keerava &#45;&gt; Talen&#45;Jei (Lover)">
<path fill="none" stroke="forestgreen" d="M737.342,-277.261C750.159,-263.389 768.15,-243.917 782.493,-228.392"/>
<polygon fill="forestgreen" stroke="forestgreen" points="785.399,-230.404 789.614,-220.684 780.258,-225.654 785.399,-230.404"/>
</a>
</g>
<!-- Keerava&#45;&gt;Haelga -->
<g id="edge38" class="edge"><title>Keerava&#45;&gt;Haelga</title>
<a xlink:title="Keerava &#45;&gt; Haelga (Friend)">
<path fill="none" stroke="olive" d="M714.68,-276.382C710.31,-263.414 704.402,-245.879 699.456,-231.203"/>
<polygon fill="olive" stroke="olive" points="702.727,-229.949 696.217,-221.59 696.093,-232.184 702.727,-229.949"/>
</a>
</g>
<!-- Maul -->
<g id="node37" class="node"><title>Maul</title>
<a xlink:href="http://www.uesp.net/wiki/Skyrim:Maul" xlink:title="Maul">
<ellipse fill="none" stroke="black" cx="340.953" cy="-295" rx="34.8574" ry="18.3848"/>
<text text-anchor="middle" x="340.953" y="-291.4" font-family="Times Roman,serif" font-size="14.00">Maul</text>
</a>
</g>
<!-- Maul&#45;&gt;Hemming -->
<g id="edge42" class="edge"><title>Maul&#45;&gt;Hemming</title>
<a xlink:title="Maul &#45;&gt; Hemming Black&#45;Briar (Friend)">
<path fill="none" stroke="olive" d="M318.888,-280.333C300.965,-268.711 274.835,-252.42 250.953,-240 240.572,-234.601 229.231,-229.285 218.314,-224.439"/>
<polygon fill="olive" stroke="olive" points="219.428,-221.107 208.863,-220.312 216.627,-227.522 219.428,-221.107"/>
</a>
</g>
</g>
</svg>
