<?xml version="1.0" encoding="UTF-8" standalone="no"?>
<!DOCTYPE svg PUBLIC "-//W3C//DTD SVG 1.1//EN"
 "http://www.w3.org/Graphics/SVG/1.1/DTD/svg11.dtd">
<!-- Generated by graphviz version 2.26.3 (20100126.1600)
 -->
<!-- Title: Relationships_component_16 Pages: 1 -->
<svg width="803pt" height="490pt"
 viewBox="0.00 0.00 803.00 490.00" xmlns="http://www.w3.org/2000/svg" xmlns:xlink="http://www.w3.org/1999/xlink">
<g id="graph1" class="graph" transform="scale(1 1) rotate(0) translate(4 486)">
<title>Relationships_component_16</title>
<polygon fill="white" stroke="white" points="-4,5 -4,-486 800,-486 800,5 -4,5"/>
<!-- AcolyteJenssen -->
<g id="node1" class="node"><title>AcolyteJenssen</title>
<a xlink:href="http://www.uesp.net/wiki/Skyrim:Acolyte Jenssen" xlink:title="Acolyte Jenssen">
<ellipse fill="none" stroke="black" cx="88" cy="-203" rx="87.889" ry="18.3848"/>
<text text-anchor="middle" x="88" y="-199.4" font-family="Times Roman,serif" font-size="14.00">Acolyte Jenssen</text>
</a>
</g>
<!-- DanicaPureSpring -->
<g id="node2" class="node"><title>DanicaPureSpring</title>
<a xlink:href="http://www.uesp.net/wiki/Skyrim:Danica Pure-Spring" xlink:title="Danica Pure&#45;Spring">
<ellipse fill="none" stroke="black" cx="242" cy="-111" rx="106.066" ry="18.3848"/>
<text text-anchor="middle" x="242" y="-107.4" font-family="Times Roman,serif" font-size="14.00">Danica Pure&#45;Spring</text>
</a>
</g>
<!-- AcolyteJenssen&#45;&gt;DanicaPureSpring -->
<g id="edge2" class="edge"><title>AcolyteJenssen&#45;&gt;DanicaPureSpring</title>
<a xlink:title="Acolyte Jenssen &#45;&gt; Danica Pure&#45;Spring (BossEmployee, Friend)">
<path fill="none" stroke="olive" d="M101.373,-184.511C110.755,-172.677 124.225,-157.765 139,-148 149.632,-140.974 161.763,-135.089 173.877,-130.231"/>
<polygon fill="olive" stroke="olive" points="175.455,-133.375 183.561,-126.552 172.969,-126.832 175.455,-133.375"/>
</a>
<text text-anchor="middle" x="188.5" y="-153.4" font-family="Times Roman,serif" font-size="14.00">BossEmployee</text>
</g>
<!-- Ahlam -->
<g id="node4" class="node"><title>Ahlam</title>
<a xlink:href="http://www.uesp.net/wiki/Skyrim:Ahlam" xlink:title="Ahlam">
<ellipse fill="none" stroke="black" cx="343" cy="-19" rx="41.9273" ry="18.3848"/>
<text text-anchor="middle" x="343" y="-15.4" font-family="Times Roman,serif" font-size="14.00">Ahlam</text>
</a>
</g>
<!-- DanicaPureSpring&#45;&gt;Ahlam -->
<g id="edge4" class="edge"><title>DanicaPureSpring&#45;&gt;Ahlam</title>
<a xlink:title="Danica Pure&#45;Spring &#45;&gt; Ahlam (BossEmployee, Friend)">
<path fill="none" stroke="olive" d="M248.093,-92.3433C252.643,-80.7372 259.838,-66.1434 270,-56 278.642,-47.3736 289.708,-40.3693 300.597,-34.8702"/>
<polygon fill="olive" stroke="olive" points="302.094,-38.034 309.645,-30.6024 299.107,-31.703 302.094,-38.034"/>
</a>
<text text-anchor="middle" x="319.5" y="-61.4" font-family="Times Roman,serif" font-size="14.00">BossEmployee</text>
</g>
<!-- Arcadia -->
<g id="node6" class="node"><title>Arcadia</title>
<a xlink:href="http://www.uesp.net/wiki/Skyrim:Arcadia" xlink:title="Arcadia">
<ellipse fill="none" stroke="black" cx="242" cy="-203" rx="48.0833" ry="18.3848"/>
<text text-anchor="middle" x="242" y="-199.4" font-family="Times Roman,serif" font-size="14.00">Arcadia</text>
</a>
</g>
<!-- Arcadia&#45;&gt;DanicaPureSpring -->
<g id="edge6" class="edge"><title>Arcadia&#45;&gt;DanicaPureSpring</title>
<a xlink:title="Arcadia &#45;&gt; Danica Pure&#45;Spring (Confidant)">
<path fill="none" stroke="lime" d="M242,-184.382C242,-171.538 242,-154.216 242,-139.627"/>
<polygon fill="lime" stroke="lime" points="245.5,-139.59 242,-129.59 238.5,-139.59 245.5,-139.59"/>
</a>
</g>
<!-- Gorm -->
<g id="node8" class="node"><title>Gorm</title>
<a xlink:href="http://www.uesp.net/wiki/Skyrim:Gorm" xlink:title="Gorm">
<ellipse fill="none" stroke="black" cx="403" cy="-387" rx="38.8909" ry="18.3848"/>
<text text-anchor="middle" x="403" y="-383.4" font-family="Times Roman,serif" font-size="14.00">Gorm</text>
</a>
</g>
<!-- IdgrodRavencrone -->
<g id="node9" class="node"><title>IdgrodRavencrone</title>
<a xlink:href="http://www.uesp.net/wiki/Skyrim:Idgrod Ravencrone" xlink:title="Idgrod Ravencrone">
<ellipse fill="none" stroke="black" cx="478" cy="-295" rx="103.238" ry="18.3848"/>
<text text-anchor="middle" x="478" y="-291.4" font-family="Times Roman,serif" font-size="14.00">Idgrod Ravencrone</text>
</a>
</g>
<!-- Gorm&#45;&gt;IdgrodRavencrone -->
<g id="edge8" class="edge"><title>Gorm&#45;&gt;IdgrodRavencrone</title>
<a xlink:title="Gorm &#45;&gt; Idgrod Ravencrone (Friend)">
<path fill="none" stroke="olive" d="M417.107,-369.696C428.134,-356.169 443.655,-337.13 456.267,-321.66"/>
<polygon fill="olive" stroke="olive" points="459.321,-323.452 462.927,-313.49 453.895,-319.029 459.321,-323.452"/>
</a>
</g>
<!-- IdgrodTheYounger -->
<g id="node11" class="node"><title>IdgrodTheYounger</title>
<a xlink:href="http://www.uesp.net/wiki/Skyrim:Idgrod the Younger" xlink:title="Idgrod the Younger">
<ellipse fill="none" stroke="black" cx="413" cy="-203" rx="104.86" ry="18.3848"/>
<text text-anchor="middle" x="413" y="-199.4" font-family="Times Roman,serif" font-size="14.00">Idgrod the Younger</text>
</a>
</g>
<!-- IdgrodRavencrone&#45;&gt;IdgrodTheYounger -->
<g id="edge10" class="edge"><title>IdgrodRavencrone&#45;&gt;IdgrodTheYounger</title>
<a xlink:title="Idgrod Ravencrone &#45;&gt; Idgrod the Younger (ParentChild, Ally)">
<path fill="none" stroke="green" d="M464.846,-276.382C455.419,-263.04 442.578,-244.864 432.034,-229.94"/>
<polygon fill="green" stroke="green" points="434.763,-227.737 426.134,-221.59 429.046,-231.777 434.763,-227.737"/>
</a>
<text text-anchor="middle" x="491.5" y="-245.4" font-family="Times Roman,serif" font-size="14.00">ParentChild</text>
</g>
<!-- Joric -->
<g id="node13" class="node"><title>Joric</title>
<a xlink:href="http://www.uesp.net/wiki/Skyrim:Joric" xlink:title="Joric">
<ellipse fill="none" stroke="black" cx="554" cy="-111" rx="32.0265" ry="18.3848"/>
<text text-anchor="middle" x="554" y="-107.4" font-family="Times Roman,serif" font-size="14.00">Joric</text>
</a>
</g>
<!-- IdgrodRavencrone&#45;&gt;Joric -->
<g id="edge12" class="edge"><title>IdgrodRavencrone&#45;&gt;Joric</title>
<a xlink:title="Idgrod Ravencrone &#45;&gt; Joric (ParentChild, Ally)">
<path fill="none" stroke="green" d="M515.923,-277.642C523.708,-272.395 531.032,-265.881 536,-258 558.565,-222.199 559.555,-171.667 557.385,-140.147"/>
<polygon fill="green" stroke="green" points="560.844,-139.516 556.516,-129.846 553.869,-140.104 560.844,-139.516"/>
</a>
<text text-anchor="middle" x="597.5" y="-199.4" font-family="Times Roman,serif" font-size="14.00">ParentChild</text>
</g>
<!-- IdgrodTheYounger&#45;&gt;DanicaPureSpring -->
<g id="edge22" class="edge"><title>IdgrodTheYounger&#45;&gt;DanicaPureSpring</title>
<a xlink:title="Idgrod the Younger &#45;&gt; Danica Pure&#45;Spring (FavorTarget, Acquaintance)">
<path fill="none" stroke="orange" d="M380.029,-185.261C352.588,-170.498 313.36,-149.392 283.732,-133.452"/>
<polygon fill="orange" stroke="orange" points="285.334,-130.34 274.869,-128.684 282.017,-136.504 285.334,-130.34"/>
</a>
<text text-anchor="middle" x="383" y="-153.4" font-family="Times Roman,serif" font-size="14.00">FavorTarget</text>
</g>
<!-- IdgrodTheYounger&#45;&gt;Joric -->
<g id="edge24" class="edge"><title>IdgrodTheYounger&#45;&gt;Joric</title>
<a xlink:title="Idgrod the Younger &#45;&gt; Joric (Siblings, Ally)">
<path fill="none" stroke="green" d="M435.76,-184.837C450.113,-173.701 469.232,-159.435 487,-148 497.824,-141.033 510.051,-134.041 521.068,-128.04"/>
<polygon fill="green" stroke="green" points="522.827,-131.069 529.981,-123.254 519.515,-124.901 522.827,-131.069"/>
</a>
<text text-anchor="middle" x="513.5" y="-153.4" font-family="Times Roman,serif" font-size="14.00">Siblings</text>
</g>
<!-- Aslfur -->
<g id="node15" class="node"><title>Aslfur</title>
<a xlink:href="http://www.uesp.net/wiki/Skyrim:Aslfur" xlink:title="Aslfur">
<ellipse fill="none" stroke="black" cx="443" cy="-463" rx="39.0967" ry="18.3848"/>
<text text-anchor="middle" x="443" y="-459.4" font-family="Times Roman,serif" font-size="14.00">Aslfur</text>
</a>
</g>
<!-- Aslfur&#45;&gt;Gorm -->
<g id="edge14" class="edge"><title>Aslfur&#45;&gt;Gorm</title>
<a xlink:title="Aslfur &#45;&gt; Gorm (Rival)">
<path fill="none" stroke="orangered" d="M433.521,-444.989C428.674,-435.781 422.675,-424.383 417.282,-414.136"/>
<polygon fill="orangered" stroke="orangered" points="420.305,-412.364 412.55,-405.145 414.11,-415.624 420.305,-412.364"/>
</a>
</g>
<!-- Aslfur&#45;&gt;IdgrodRavencrone -->
<g id="edge16" class="edge"><title>Aslfur&#45;&gt;IdgrodRavencrone</title>
<a xlink:title="Aslfur &#45;&gt; Idgrod Ravencrone (Spouse, Ally)">
<path fill="none" stroke="green" d="M446.879,-444.379C452.976,-415.114 464.846,-358.14 472.034,-323.635"/>
<polygon fill="green" stroke="green" points="475.49,-324.208 474.103,-313.704 468.637,-322.78 475.49,-324.208"/>
</a>
<text text-anchor="middle" x="487" y="-383.4" font-family="Times Roman,serif" font-size="14.00">Spouse</text>
</g>
<!-- Aslfur&#45;&gt;IdgrodTheYounger -->
<g id="edge18" class="edge"><title>Aslfur&#45;&gt;IdgrodTheYounger</title>
<a xlink:title="Aslfur &#45;&gt; Idgrod the Younger (ParentChild, Ally)">
<path fill="none" stroke="green" d="M412.222,-451.196C392.521,-441.965 368.251,-427.126 355,-406 341.672,-384.751 349.559,-375.034 348,-350 345.897,-316.218 351.537,-306.602 366,-276 373.608,-259.902 384.202,-243.118 393.407,-229.707"/>
<polygon fill="green" stroke="green" points="396.339,-231.622 399.209,-221.423 390.605,-227.606 396.339,-231.622"/>
</a>
<text text-anchor="middle" x="388.5" y="-337.4" font-family="Times Roman,serif" font-size="14.00">ParentChild</text>
</g>
<!-- Aslfur&#45;&gt;Joric -->
<g id="edge20" class="edge"><title>Aslfur&#45;&gt;Joric</title>
<a xlink:title="Aslfur &#45;&gt; Joric (ParentChild, Ally)">
<path fill="none" stroke="green" d="M481.828,-460.226C556.762,-453.801 714,-434.642 714,-387 714,-387 714,-387 714,-203 714,-148.371 643.036,-125.701 595.629,-116.651"/>
<polygon fill="green" stroke="green" points="596.069,-113.175 585.611,-114.872 594.845,-120.067 596.069,-113.175"/>
</a>
<text text-anchor="middle" x="754.5" y="-291.4" font-family="Times Roman,serif" font-size="14.00">ParentChild</text>
</g>
<!-- Nazeem -->
<g id="node22" class="node"><title>Nazeem</title>
<a xlink:href="http://www.uesp.net/wiki/Skyrim:Nazeem" xlink:title="Nazeem">
<ellipse fill="none" stroke="black" cx="417" cy="-111" rx="51.1176" ry="18.3848"/>
<text text-anchor="middle" x="417" y="-107.4" font-family="Times Roman,serif" font-size="14.00">Nazeem</text>
</a>
</g>
<!-- Nazeem&#45;&gt;Ahlam -->
<g id="edge26" class="edge"><title>Nazeem&#45;&gt;Ahlam</title>
<a xlink:title="Nazeem &#45;&gt; Ahlam (Spouse, Ally)">
<path fill="none" stroke="green" d="M402.38,-92.8238C391.292,-79.0383 375.908,-59.9126 363.577,-44.5825"/>
<polygon fill="green" stroke="green" points="366.082,-42.1128 357.088,-36.5143 360.628,-46.5001 366.082,-42.1128"/>
</a>
<text text-anchor="middle" x="411" y="-61.4" font-family="Times Roman,serif" font-size="14.00">Spouse</text>
</g>
<!-- ArgiFarseer -->
<g id="node24" class="node"><title>ArgiFarseer</title>
<a xlink:href="http://www.uesp.net/wiki/Skyrim:Argi Farseer" xlink:title="Argi Farseer">
<ellipse fill="none" stroke="black" cx="616" cy="-387" rx="70.0036" ry="18.3848"/>
<text text-anchor="middle" x="616" y="-383.4" font-family="Times Roman,serif" font-size="14.00">Argi Farseer</text>
</a>
</g>
<!-- ArgiFarseer&#45;&gt;IdgrodRavencrone -->
<g id="edge28" class="edge"><title>ArgiFarseer&#45;&gt;IdgrodRavencrone</title>
<a xlink:title="Argi Farseer &#45;&gt; Idgrod Ravencrone (Siblings, Ally)">
<path fill="none" stroke="green" d="M590.043,-369.696C568.487,-355.325 537.598,-334.732 513.71,-318.807"/>
<polygon fill="green" stroke="green" points="515.519,-315.806 505.257,-313.171 511.636,-321.63 515.519,-315.806"/>
</a>
<text text-anchor="middle" x="585.5" y="-337.4" font-family="Times Roman,serif" font-size="14.00">Siblings</text>
</g>
<!-- Benor -->
<g id="node26" class="node"><title>Benor</title>
<a xlink:href="http://www.uesp.net/wiki/Skyrim:Benor" xlink:title="Benor">
<ellipse fill="none" stroke="black" cx="311" cy="-463" rx="41.0122" ry="18.3848"/>
<text text-anchor="middle" x="311" y="-459.4" font-family="Times Roman,serif" font-size="14.00">Benor</text>
</a>
</g>
<!-- Benor&#45;&gt;Gorm -->
<g id="edge30" class="edge"><title>Benor&#45;&gt;Gorm</title>
<a xlink:title="Benor &#45;&gt; Gorm (Friend)">
<path fill="none" stroke="olive" d="M330.963,-446.509C343.951,-435.78 361.068,-421.639 375.358,-409.835"/>
<polygon fill="olive" stroke="olive" points="377.912,-412.265 383.392,-403.198 373.454,-406.868 377.912,-412.265"/>
</a>
</g>
</g>
</svg>
