<?xml version="1.0" encoding="UTF-8" standalone="no"?>
<!DOCTYPE svg PUBLIC "-//W3C//DTD SVG 1.1//EN"
 "http://www.w3.org/Graphics/SVG/1.1/DTD/svg11.dtd">
<!-- Generated by graphviz version 2.26.3 (20100126.1600)
 -->
<!-- Title: Relationships_component_2 Pages: 1 -->
<svg width="2644pt" height="1410pt"
 viewBox="0.00 0.00 2644.00 1410.00" xmlns="http://www.w3.org/2000/svg" xmlns:xlink="http://www.w3.org/1999/xlink">
<g id="graph1" class="graph" transform="scale(1 1) rotate(0) translate(4 1406)">
<title>Relationships_component_2</title>
<polygon fill="white" stroke="white" points="-4,5 -4,-1406 2641,-1406 2641,5 -4,5"/>
<!-- Murbul -->
<g id="node1" class="node"><title>Murbul</title>
<a xlink:href="http://www.uesp.net/wiki/Skyrim:Murbul" xlink:title="&lt;TABLE&gt;">
<text text-anchor="start" x="860" y="-1285.73" font-family="Times Roman,serif" font-size="14.00">Murbul</text>
</a>
</g>
<!-- Oglub -->
<g id="node2" class="node"><title>Oglub</title>
<a xlink:href="http://www.uesp.net/wiki/Skyrim:Oglub" xlink:title="&lt;TABLE&gt;">
<text text-anchor="start" x="973" y="-1103.73" font-family="Times Roman,serif" font-size="14.00">Oglub</text>
</a>
</g>
<!-- Murbul&#45;&gt;Oglub -->
<g id="edge2" class="edge"><title>Murbul&#45;&gt;Oglub</title>
<a xlink:title="Murbul &#45;&gt; Oglub (ParentChild, Ally)">
<path fill="none" stroke="green" d="M922.123,-1274.35C931.001,-1259.52 940.519,-1243.63 949.606,-1228.46"/>
<polygon fill="green" stroke="green" points="952.763,-1230 954.899,-1219.62 946.758,-1226.4 952.763,-1230"/>
</a>
<text text-anchor="middle" x="982.5" y="-1243.4" font-family="Times Roman,serif" font-size="14.00">ParentChild</text>
</g>
<!-- Burguk -->
<g id="node4" class="node"><title>Burguk</title>
<a xlink:href="http://www.uesp.net/wiki/Skyrim:Chief Burguk" xlink:title="&lt;TABLE&gt;">
<image xlink:href="120px-SR-npc-Chief_Burguk.jpg" width="92px" height="91px" preserveAspectRatio="xMinYMin meet" x="1009" y="-847"/>
<text text-anchor="start" x="1009.5" y="-739.733" font-family="Times Roman,serif" font-size="14.00">Chief Burguk</text>
</a>
</g>
<!-- Murbul&#45;&gt;Burguk -->
<g id="edge4" class="edge"><title>Murbul&#45;&gt;Burguk</title>
<a xlink:title="Murbul &#45;&gt; Chief Burguk (GrandparentGrandchild, Ally)">
<path fill="none" stroke="green" d="M941.015,-1310.77C968.363,-1296.38 1000.79,-1277.3 1027,-1256 1090.28,-1204.58 1167.94,-1114.31 1193,-1038 1210.75,-983.951 1216.8,-961.67 1193,-910 1178,-877.437 1149.09,-850.517 1121.59,-830.653"/>
<polygon fill="green" stroke="green" points="1123.32,-827.589 1113.12,-824.716 1119.3,-833.321 1123.32,-827.589"/>
</a>
<text text-anchor="middle" x="1267.5" y="-1061.4" font-family="Times Roman,serif" font-size="14.00">GrandparentGrandchild</text>
</g>
<!-- Nagrub -->
<g id="node6" class="node"><title>Nagrub</title>
<a xlink:href="http://www.uesp.net/wiki/Skyrim:Nagrub" xlink:title="&lt;TABLE&gt;">
<image xlink:href="120px-SR-npc-Nagrub.jpg" width="91px" height="91px" preserveAspectRatio="xMinYMin meet" x="578" y="-483"/>
<text text-anchor="start" x="598" y="-375.733" font-family="Times Roman,serif" font-size="14.00">Nagrub</text>
</a>
</g>
<!-- Murbul&#45;&gt;Nagrub -->
<g id="edge6" class="edge"><title>Murbul&#45;&gt;Nagrub</title>
<a xlink:title="Murbul &#45;&gt; Nagrub (GreatGrandparentGreatgrandchild, Ally)">
<path fill="none" stroke="green" d="M826.679,-1332.33C630.79,-1312.18 0,-1240.71 0,-1156 0,-1156 0,-1156 0,-610 0,-495.261 394.269,-447.897 555.507,-433.325"/>
<polygon fill="green" stroke="green" points="556.133,-436.783 565.784,-432.412 555.514,-429.811 556.133,-436.783"/>
</a>
<text text-anchor="middle" x="120" y="-879.4" font-family="Times Roman,serif" font-size="14.00">GreatGrandparentGreatgrandchild</text>
</g>
<!-- Ghorbash -->
<g id="node8" class="node"><title>Ghorbash</title>
<a xlink:href="http://www.uesp.net/wiki/Skyrim:Ghorbash the Iron Hand" xlink:title="&lt;TABLE&gt;">
<image xlink:href="120px-SR-npc-Ghorbash_the_Iron_Hand.jpg" width="120px" height="91px" preserveAspectRatio="xMinYMin meet" x="795.5" y="-1029"/>
<text text-anchor="start" x="771.5" y="-921.733" font-family="Times Roman,serif" font-size="14.00">Ghorbash the Iron Hand</text>
</a>
</g>
<!-- Murbul&#45;&gt;Ghorbash -->
<g id="edge8" class="edge"><title>Murbul&#45;&gt;Ghorbash</title>
<a xlink:title="Murbul &#45;&gt; Ghorbash the Iron Hand (ParentChild, Ally)">
<path fill="none" stroke="green" d="M859.486,-1274.27C853.921,-1256.93 848.821,-1237.97 846,-1220 836.993,-1162.65 840.079,-1096.9 844.96,-1047.81"/>
<polygon fill="green" stroke="green" points="848.469,-1047.91 846.025,-1037.6 841.506,-1047.18 848.469,-1047.91"/>
</a>
<text text-anchor="middle" x="886.5" y="-1152.4" font-family="Times Roman,serif" font-size="14.00">ParentChild</text>
</g>
<!-- Umurn -->
<g id="node10" class="node"><title>Umurn</title>
<a xlink:href="http://www.uesp.net/wiki/Skyrim:Umurn" xlink:title="&lt;TABLE&gt;">
<image xlink:href="120px-SR-npc-Umurn.jpg" width="91px" height="91px" preserveAspectRatio="xMinYMin meet" x="1159" y="-483"/>
<text text-anchor="start" x="1180.5" y="-375.733" font-family="Times Roman,serif" font-size="14.00">Umurn</text>
</a>
</g>
<!-- Murbul&#45;&gt;Umurn -->
<g id="edge10" class="edge"><title>Murbul&#45;&gt;Umurn</title>
<a xlink:title="Murbul &#45;&gt; Umurn (GreatGrandparentGreatgrandchild, Ally)">
<path fill="none" stroke="green" d="M941.22,-1336.35C1116.31,-1329.76 1633,-1298.27 1633,-1156 1633,-1156 1633,-1156 1633,-610 1633,-548.082 1589.69,-540.84 1536,-510 1534.54,-509.16 1367.69,-468.152 1271.11,-444.455"/>
<polygon fill="green" stroke="green" points="1271.68,-440.991 1261.13,-442.007 1270.01,-447.789 1271.68,-440.991"/>
</a>
<text text-anchor="middle" x="1753" y="-879.4" font-family="Times Roman,serif" font-size="14.00">GreatGrandparentGreatgrandchild</text>
</g>
<!-- Shel -->
<g id="node12" class="node"><title>Shel</title>
<a xlink:href="http://www.uesp.net/wiki/Skyrim:Shel" xlink:title="&lt;TABLE&gt;">
<image xlink:href="120px-SR-npc-Shel.jpg" width="91px" height="91px" preserveAspectRatio="xMinYMin meet" x="553" y="-665"/>
<text text-anchor="start" x="583" y="-557.733" font-family="Times Roman,serif" font-size="14.00">Shel</text>
</a>
</g>
<!-- Murbul&#45;&gt;Shel -->
<g id="edge12" class="edge"><title>Murbul&#45;&gt;Shel</title>
<a xlink:title="Murbul &#45;&gt; Shel (InLawGrandparentGrandchild, Ally)">
<path fill="none" stroke="green" d="M826.792,-1333.74C671.737,-1320.65 255,-1274.44 255,-1156 255,-1156 255,-1156 255,-792 255,-668.332 431.136,-628.445 530.97,-615.77"/>
<polygon fill="green" stroke="green" points="531.469,-619.235 540.975,-614.558 530.627,-612.286 531.469,-619.235"/>
</a>
<text text-anchor="middle" x="358" y="-970.4" font-family="Times Roman,serif" font-size="14.00">InLawGrandparentGrandchild</text>
</g>
<!-- Gharol -->
<g id="node14" class="node"><title>Gharol</title>
<a xlink:href="http://www.uesp.net/wiki/Skyrim:Gharol" xlink:title="&lt;TABLE&gt;">
<image xlink:href="120px-SR-npc-Gharol.jpg" width="91px" height="91px" preserveAspectRatio="xMinYMin meet" x="1291" y="-665"/>
<text text-anchor="start" x="1313" y="-557.733" font-family="Times Roman,serif" font-size="14.00">Gharol</text>
</a>
</g>
<!-- Murbul&#45;&gt;Gharol -->
<g id="edge14" class="edge"><title>Murbul&#45;&gt;Gharol</title>
<a xlink:title="Murbul &#45;&gt; Gharol (InLawGrandparentGrandchild, Ally)">
<path fill="none" stroke="green" d="M941.082,-1330.2C1075.17,-1310.3 1399,-1252.25 1399,-1156 1399,-1156 1399,-1156 1399,-792 1399,-746.841 1396.06,-734.574 1381,-692 1379.92,-688.938 1378.73,-685.854 1377.46,-682.77"/>
<polygon fill="green" stroke="green" points="1380.63,-681.301 1373.42,-673.541 1374.22,-684.106 1380.63,-681.301"/>
</a>
<text text-anchor="middle" x="1502" y="-970.4" font-family="Times Roman,serif" font-size="14.00">InLawGrandparentGrandchild</text>
</g>
<!-- Arob -->
<g id="node16" class="node"><title>Arob</title>
<a xlink:href="http://www.uesp.net/wiki/Skyrim:Arob" xlink:title="&lt;TABLE&gt;">
<image xlink:href="120px-SR-npc-Arob.jpg" width="91px" height="91px" preserveAspectRatio="xMinYMin meet" x="728" y="-665"/>
<text text-anchor="start" x="757" y="-557.733" font-family="Times Roman,serif" font-size="14.00">Arob</text>
</a>
</g>
<!-- Murbul&#45;&gt;Arob -->
<g id="edge16" class="edge"><title>Murbul&#45;&gt;Arob</title>
<a xlink:title="Murbul &#45;&gt; Arob (InLawGrandparentGrandchild, Ally)">
<path fill="none" stroke="green" d="M826.897,-1323.82C719.246,-1295.4 497,-1228.02 497,-1156 497,-1156 497,-1156 497,-883 497,-801.497 537.994,-786.251 595,-728 613.074,-709.531 664.242,-676.188 707.104,-649.646"/>
<polygon fill="green" stroke="green" points="709.157,-652.492 715.831,-644.264 705.482,-646.534 709.157,-652.492"/>
</a>
<text text-anchor="middle" x="600" y="-970.4" font-family="Times Roman,serif" font-size="14.00">InLawGrandparentGrandchild</text>
</g>
<!-- Oglub&#45;&gt;Burguk -->
<g id="edge18" class="edge"><title>Oglub&#45;&gt;Burguk</title>
<a xlink:title="Oglub &#45;&gt; Chief Burguk (AuntUncle, Ally)">
<path fill="none" stroke="green" d="M1034.05,-1092.34C1064.79,-1040.67 1104.3,-964.729 1121,-892 1123.65,-880.475 1121.86,-869.137 1117.49,-858.472"/>
<polygon fill="green" stroke="green" points="1120.54,-856.748 1113.02,-849.285 1114.25,-859.809 1120.54,-856.748"/>
</a>
<text text-anchor="middle" x="1152.5" y="-970.4" font-family="Times Roman,serif" font-size="14.00">AuntUncle</text>
</g>
<!-- Oglub&#45;&gt;Ghorbash -->
<g id="edge20" class="edge"><title>Oglub&#45;&gt;Ghorbash</title>
<a xlink:title="Oglub &#45;&gt; Ghorbash the Iron Hand (Siblings, Ally)">
<path fill="none" stroke="green" d="M935.595,-1101.77C927.28,-1092.84 919.132,-1083.41 912,-1074 905.484,-1065.4 899.181,-1055.99 893.292,-1046.48"/>
<polygon fill="green" stroke="green" points="896.177,-1044.49 888.006,-1037.74 890.188,-1048.11 896.177,-1044.49"/>
</a>
<text text-anchor="middle" x="938.5" y="-1061.4" font-family="Times Roman,serif" font-size="14.00">Siblings</text>
</g>
<!-- Oglub&#45;&gt;Shel -->
<g id="edge22" class="edge"><title>Oglub&#45;&gt;Shel</title>
<a xlink:title="Oglub &#45;&gt; Shel (InLawAuntUncle, Ally)">
<path fill="none" stroke="green" d="M935.721,-1095.03C934.161,-1093.98 932.587,-1092.96 931,-1092 859.24,-1048.44 810.365,-1096.34 750,-1038 706.846,-996.295 752.783,-948.8 707,-910 668.538,-877.404 628.014,-930.103 595,-892 546.155,-835.625 556.509,-746.476 572.901,-683.527"/>
<polygon fill="green" stroke="green" points="576.338,-684.225 575.575,-673.658 569.582,-682.394 576.338,-684.225"/>
</a>
<text text-anchor="middle" x="652.5" y="-879.4" font-family="Times Roman,serif" font-size="14.00">InLawAuntUncle</text>
</g>
<!-- Oglub&#45;&gt;Gharol -->
<g id="edge24" class="edge"><title>Oglub&#45;&gt;Gharol</title>
<a xlink:title="Oglub &#45;&gt; Gharol (InLawAuntUncle, Ally)">
<path fill="none" stroke="green" d="M1050.1,-1133.48C1093.9,-1113.79 1153.38,-1081.53 1193,-1038 1247.2,-978.447 1207.42,-924.679 1270,-874 1297.31,-851.881 1325.16,-883.535 1347,-856 1385.02,-808.072 1377.1,-736.865 1362.72,-683.377"/>
<polygon fill="green" stroke="green" points="1366.04,-682.282 1359.97,-673.605 1359.31,-684.179 1366.04,-682.282"/>
</a>
<text text-anchor="middle" x="1327.5" y="-879.4" font-family="Times Roman,serif" font-size="14.00">InLawAuntUncle</text>
</g>
<!-- Oglub&#45;&gt;Arob -->
<g id="edge26" class="edge"><title>Oglub&#45;&gt;Arob</title>
<a xlink:title="Oglub &#45;&gt; Arob (InLawAuntUncle, Ally)">
<path fill="none" stroke="green" d="M1001.13,-1092.43C1004.48,-1038.33 1000.38,-961.433 960,-910 946.443,-892.732 926.976,-909.708 914,-892 892.41,-862.537 925.256,-756.963 903,-728 887.842,-708.274 870.232,-724.475 850,-710 838.887,-702.049 828.618,-692.038 819.443,-681.441"/>
<polygon fill="green" stroke="green" points="822.043,-679.094 812.958,-673.643 816.661,-683.57 822.043,-679.094"/>
</a>
<text text-anchor="middle" x="971.5" y="-879.4" font-family="Times Roman,serif" font-size="14.00">InLawAuntUncle</text>
</g>
<!-- Burguk&#45;&gt;Nagrub -->
<g id="edge28" class="edge"><title>Burguk&#45;&gt;Nagrub</title>
<a xlink:title="Chief Burguk &#45;&gt; Nagrub (ParentChild, Ally)">
<path fill="none" stroke="green" d="M996.752,-743.737C973.735,-726.058 946.488,-706.783 920,-692 901.19,-681.503 888.736,-690.593 875,-674 827.643,-616.795 891.032,-566.639 843,-510 804.893,-465.065 739.684,-444.732 690.125,-435.543"/>
<polygon fill="green" stroke="green" points="690.571,-432.068 680.119,-433.798 689.369,-438.964 690.571,-432.068"/>
</a>
<text text-anchor="middle" x="915.5" y="-606.4" font-family="Times Roman,serif" font-size="14.00">ParentChild</text>
</g>
<!-- Burguk&#45;&gt;Umurn -->
<g id="edge30" class="edge"><title>Burguk&#45;&gt;Umurn</title>
<a xlink:title="Chief Burguk &#45;&gt; Umurn (ParentChild, Ally)">
<path fill="none" stroke="green" d="M1079.85,-728.215C1082.02,-722.088 1084.1,-715.945 1086,-710 1108.91,-638.215 1079.82,-603.087 1129,-546 1142.26,-530.614 1157.27,-542.965 1171,-528 1178.12,-520.241 1183.7,-510.912 1188.09,-501.112"/>
<polygon fill="green" stroke="green" points="1191.42,-502.19 1191.93,-491.607 1184.94,-499.565 1191.42,-502.19"/>
</a>
<text text-anchor="middle" x="1169.5" y="-606.4" font-family="Times Roman,serif" font-size="14.00">ParentChild</text>
</g>
<!-- Burguk&#45;&gt;Shel -->
<g id="edge34" class="edge"><title>Burguk&#45;&gt;Shel</title>
<a xlink:title="Chief Burguk &#45;&gt; Shel (Spouse, Lover)">
<path fill="none" stroke="forestgreen" d="M996.701,-765.81C966.282,-752.958 928.167,-738.107 893,-728 850.859,-715.888 838.092,-722.283 796,-710 755.039,-698.047 745.278,-692.853 707,-674 692.87,-667.041 678.094,-658.952 664.146,-650.916"/>
<polygon fill="forestgreen" stroke="forestgreen" points="665.518,-647.664 655.115,-645.654 661.994,-653.712 665.518,-647.664"/>
</a>
<text text-anchor="middle" x="821" y="-697.4" font-family="Times Roman,serif" font-size="14.00">Spouse</text>
</g>
<!-- Burguk&#45;&gt;Gharol -->
<g id="edge36" class="edge"><title>Burguk&#45;&gt;Gharol</title>
<a xlink:title="Chief Burguk &#45;&gt; Gharol (Spouse, Lover)">
<path fill="none" stroke="forestgreen" d="M1095.38,-728.258C1106.48,-714.687 1119.51,-701.579 1134,-692 1159.36,-675.23 1171.47,-684.513 1200,-674 1223.14,-665.474 1247.73,-654.521 1269.54,-644.096"/>
<polygon fill="forestgreen" stroke="forestgreen" points="1271.22,-647.169 1278.71,-639.668 1268.18,-640.866 1271.22,-647.169"/>
</a>
<text text-anchor="middle" x="1159" y="-697.4" font-family="Times Roman,serif" font-size="14.00">Spouse</text>
</g>
<!-- Burguk&#45;&gt;Arob -->
<g id="edge38" class="edge"><title>Burguk&#45;&gt;Arob</title>
<a xlink:title="Chief Burguk &#45;&gt; Arob (Spouse, Lover)">
<path fill="none" stroke="forestgreen" d="M996.781,-759.062C976.368,-748.295 953.033,-736.844 931,-728 904.768,-717.471 894.19,-724.625 870,-710 862.01,-705.17 850.018,-694.158 837.163,-681.132"/>
<polygon fill="forestgreen" stroke="forestgreen" points="839.433,-678.446 829.953,-673.715 834.414,-683.325 839.433,-678.446"/>
</a>
<text text-anchor="middle" x="895" y="-697.4" font-family="Times Roman,serif" font-size="14.00">Spouse</text>
</g>
<!-- Lurbuk -->
<g id="node25" class="node"><title>Lurbuk</title>
<a xlink:href="http://www.uesp.net/wiki/Skyrim:Lurbuk" xlink:title="&lt;TABLE&gt;">
<image xlink:href="120px-SR-npc-Lurbuk.jpg" width="91px" height="91px" preserveAspectRatio="xMinYMin meet" x="977" y="-665"/>
<text text-anchor="start" x="998" y="-557.733" font-family="Times Roman,serif" font-size="14.00">Lurbuk</text>
</a>
</g>
<!-- Burguk&#45;&gt;Lurbuk -->
<g id="edge32" class="edge"><title>Burguk&#45;&gt;Lurbuk</title>
<a xlink:title="Chief Burguk &#45;&gt; Lurbuk (ParentChild, Rival)">
<path fill="none" stroke="orangered" d="M1011.7,-728.155C1009.02,-722.196 1006.71,-716.1 1005,-710 1002.63,-701.562 1001.82,-692.625 1002.06,-683.703"/>
<polygon fill="orangered" stroke="orangered" points="1005.56,-683.878 1002.75,-673.662 998.577,-683.4 1005.56,-683.878"/>
</a>
<text text-anchor="middle" x="1045.5" y="-697.4" font-family="Times Roman,serif" font-size="14.00">ParentChild</text>
</g>
<!-- Ghorbash&#45;&gt;Burguk -->
<g id="edge44" class="edge"><title>Ghorbash&#45;&gt;Burguk</title>
<a xlink:title="Ghorbash the Iron Hand &#45;&gt; Chief Burguk (AuntUncle, Ally)">
<path fill="none" stroke="green" d="M951.285,-948.339C981.42,-935.892 1012.2,-917.84 1033,-892 1039.27,-884.211 1043.85,-875.017 1047.17,-865.412"/>
<polygon fill="green" stroke="green" points="1050.56,-866.29 1050.1,-855.706 1043.86,-864.271 1050.56,-866.29"/>
</a>
<text text-anchor="middle" x="1080.5" y="-879.4" font-family="Times Roman,serif" font-size="14.00">AuntUncle</text>
</g>
<!-- Ghorbash&#45;&gt;Nagrub -->
<g id="edge46" class="edge"><title>Ghorbash&#45;&gt;Nagrub</title>
<a xlink:title="Ghorbash the Iron Hand &#45;&gt; Nagrub (GrandAuntUncle, Ally)">
<path fill="none" stroke="green" d="M758.971,-917.529C744.847,-909.052 730.511,-900.354 717,-892 704.417,-884.22 702.737,-879.491 689,-874 649.502,-858.212 631.481,-877.875 595,-856 523.445,-813.095 506.748,-787.949 477,-710 445.275,-626.869 422.093,-586.222 468,-510 487.228,-478.076 523.509,-457.932 556.138,-445.603"/>
<polygon fill="green" stroke="green" points="557.447,-448.852 565.674,-442.177 555.08,-442.265 557.447,-448.852"/>
</a>
<text text-anchor="middle" x="534.5" y="-697.4" font-family="Times Roman,serif" font-size="14.00">GrandAuntUncle</text>
</g>
<!-- Ghorbash&#45;&gt;Umurn -->
<g id="edge48" class="edge"><title>Ghorbash&#45;&gt;Umurn</title>
<a xlink:title="Ghorbash the Iron Hand &#45;&gt; Umurn (GrandAuntUncle, Ally)">
<path fill="none" stroke="green" d="M951.081,-944.212C985.998,-933.408 1025.77,-921.127 1062,-910 1088.21,-901.951 1101.04,-910.796 1121,-892 1177.61,-838.684 1150.49,-799.097 1182,-728 1187.48,-715.642 1206.8,-687.132 1210,-674 1223.48,-618.731 1211.44,-602.871 1210,-546 1209.64,-531.671 1209.02,-516.374 1208.33,-501.703"/>
<polygon fill="green" stroke="green" points="1211.82,-501.482 1207.83,-491.667 1204.83,-501.827 1211.82,-501.482"/>
</a>
<text text-anchor="middle" x="1259.5" y="-697.4" font-family="Times Roman,serif" font-size="14.00">GrandAuntUncle</text>
</g>
<!-- Ghorbash&#45;&gt;Shel -->
<g id="edge50" class="edge"><title>Ghorbash&#45;&gt;Shel</title>
<a xlink:title="Ghorbash the Iron Hand &#45;&gt; Shel (InLawAuntUncle, Ally)">
<path fill="none" stroke="green" d="M775.149,-910.367C755.888,-897.033 734.832,-884.001 714,-874 687.748,-861.397 670.9,-877.26 651,-856 608.088,-810.154 596.655,-738.239 594.881,-683.982"/>
<polygon fill="green" stroke="green" points="598.374,-683.643 594.652,-673.723 591.376,-683.799 598.374,-683.643"/>
</a>
<text text-anchor="middle" x="708.5" y="-788.4" font-family="Times Roman,serif" font-size="14.00">InLawAuntUncle</text>
</g>
<!-- Ghorbash&#45;&gt;Gharol -->
<g id="edge52" class="edge"><title>Ghorbash&#45;&gt;Gharol</title>
<a xlink:title="Ghorbash the Iron Hand &#45;&gt; Gharol (InLawAuntUncle, Ally)">
<path fill="none" stroke="green" d="M951.251,-941.773C985.923,-930.821 1025.49,-919.071 1062,-910 1103.71,-899.637 1123.17,-918.502 1157,-892 1220.09,-842.571 1169.16,-777.749 1232,-728 1263.98,-702.68 1294.01,-739.673 1322,-710 1328.99,-702.588 1333.53,-693.387 1336.37,-683.59"/>
<polygon fill="green" stroke="green" points="1339.83,-684.172 1338.67,-673.64 1333.01,-682.595 1339.83,-684.172"/>
</a>
<text text-anchor="middle" x="1289.5" y="-788.4" font-family="Times Roman,serif" font-size="14.00">InLawAuntUncle</text>
</g>
<!-- Ghorbash&#45;&gt;Arob -->
<g id="edge54" class="edge"><title>Ghorbash&#45;&gt;Arob</title>
<a xlink:title="Ghorbash the Iron Hand &#45;&gt; Arob (InLawAuntUncle, Ally)">
<path fill="none" stroke="green" d="M811.84,-910.23C802.349,-893.28 793.499,-874.518 788,-856 771.306,-799.782 768.188,-733.249 768.894,-683.559"/>
<polygon fill="green" stroke="green" points="772.394,-683.605 769.092,-673.538 765.395,-683.467 772.394,-683.605"/>
</a>
<text text-anchor="middle" x="845.5" y="-788.4" font-family="Times Roman,serif" font-size="14.00">InLawAuntUncle</text>
</g>
<!-- Shel&#45;&gt;Nagrub -->
<g id="edge56" class="edge"><title>Shel&#45;&gt;Nagrub</title>
<a xlink:title="Shel &#45;&gt; Nagrub (InLawParentChild, Ally)">
<path fill="none" stroke="green" d="M540.686,-590.21C500.251,-572.794 456.626,-544.81 477,-510 494.292,-480.455 526.568,-460.741 556.383,-448.064"/>
<polygon fill="green" stroke="green" points="557.997,-451.187 565.955,-444.192 555.372,-444.697 557.997,-451.187"/>
</a>
<text text-anchor="middle" x="539" y="-515.4" font-family="Times Roman,serif" font-size="14.00">InLawParentChild</text>
</g>
<!-- Shel&#45;&gt;Umurn -->
<g id="edge58" class="edge"><title>Shel&#45;&gt;Umurn</title>
<a xlink:title="Shel &#45;&gt; Umurn (InLawParentChild, Ally)">
<path fill="none" stroke="green" d="M600.229,-546.373C603.655,-532.715 609.695,-519.54 620,-510 638.854,-492.545 987.303,-452.037 1136.8,-435.368"/>
<polygon fill="green" stroke="green" points="1137.23,-438.841 1146.78,-434.257 1136.46,-431.884 1137.23,-438.841"/>
</a>
<text text-anchor="middle" x="682" y="-515.4" font-family="Times Roman,serif" font-size="14.00">InLawParentChild</text>
</g>
<!-- Gharol&#45;&gt;Nagrub -->
<g id="edge60" class="edge"><title>Gharol&#45;&gt;Nagrub</title>
<a xlink:title="Gharol &#45;&gt; Nagrub (InLawParentChild, Ally)">
<path fill="none" stroke="green" d="M1278.68,-579.308C1254.87,-567.548 1226.62,-554.846 1200,-546 1105.55,-514.617 821.072,-462.725 690.203,-439.666"/>
<polygon fill="green" stroke="green" points="690.749,-436.208 680.294,-437.923 689.537,-443.103 690.749,-436.208"/>
</a>
<text text-anchor="middle" x="1193" y="-515.4" font-family="Times Roman,serif" font-size="14.00">InLawParentChild</text>
</g>
<!-- Gharol&#45;&gt;Umurn -->
<g id="edge62" class="edge"><title>Gharol&#45;&gt;Umurn</title>
<a xlink:title="Gharol &#45;&gt; Umurn (ParentChild, Ally)">
<path fill="none" stroke="green" d="M1289.83,-546.345C1278.98,-531.382 1267.34,-515.332 1256.24,-500.031"/>
<polygon fill="green" stroke="green" points="1258.85,-497.659 1250.14,-491.619 1253.18,-501.769 1258.85,-497.659"/>
</a>
<text text-anchor="middle" x="1314.5" y="-515.4" font-family="Times Roman,serif" font-size="14.00">ParentChild</text>
</g>
<!-- LashGraDushnikh -->
<g id="node45" class="node"><title>LashGraDushnikh</title>
<a xlink:href="http://www.uesp.net/wiki/Skyrim:Lash gra-Dushnikh" xlink:title="&lt;TABLE&gt;">
<image xlink:href="120px-SR-npc-Lash_gra-Dushnikh.jpg" width="120px" height="91px" preserveAspectRatio="xMinYMin meet" x="1492" y="-483"/>
<text text-anchor="start" x="1486.5" y="-375.733" font-family="Times Roman,serif" font-size="14.00">Lash gra&#45;Dushnikh</text>
</a>
</g>
<!-- Gharol&#45;&gt;LashGraDushnikh -->
<g id="edge64" class="edge"><title>Gharol&#45;&gt;LashGraDushnikh</title>
<a xlink:title="Gharol &#45;&gt; Lash gra&#45;Dushnikh (ParentChild, Ally)">
<path fill="none" stroke="green" d="M1393.03,-561.944C1416.14,-542.473 1443.29,-519.6 1468.54,-498.32"/>
<polygon fill="green" stroke="green" points="1470.92,-500.893 1476.31,-491.773 1466.41,-495.54 1470.92,-500.893"/>
</a>
<text text-anchor="middle" x="1491.5" y="-515.4" font-family="Times Roman,serif" font-size="14.00">ParentChild</text>
</g>
<!-- Arob&#45;&gt;Nagrub -->
<g id="edge66" class="edge"><title>Arob&#45;&gt;Nagrub</title>
<a xlink:title="Arob &#45;&gt; Nagrub (ParentChild, Ally)">
<path fill="none" stroke="green" d="M764.612,-546.345C760.921,-533.532 755.617,-520.723 748,-510 733.007,-488.892 710.719,-471.783 689.096,-458.762"/>
<polygon fill="green" stroke="green" points="690.624,-455.602 680.218,-453.613 687.113,-461.657 690.624,-455.602"/>
</a>
<text text-anchor="middle" x="798.5" y="-515.4" font-family="Times Roman,serif" font-size="14.00">ParentChild</text>
</g>
<!-- Arob&#45;&gt;Umurn -->
<g id="edge68" class="edge"><title>Arob&#45;&gt;Umurn</title>
<a xlink:title="Arob &#45;&gt; Umurn (InLawParentChild, Ally)">
<path fill="none" stroke="green" d="M830.002,-555.223C850.606,-538.241 874.987,-521.092 900,-510 978.028,-475.398 1073.97,-452.5 1136.94,-439.901"/>
<polygon fill="green" stroke="green" points="1137.62,-443.334 1146.76,-437.967 1136.27,-436.466 1137.62,-443.334"/>
</a>
<text text-anchor="middle" x="962" y="-515.4" font-family="Times Roman,serif" font-size="14.00">InLawParentChild</text>
</g>
<!-- Enmon -->
<g id="node30" class="node"><title>Enmon</title>
<a xlink:href="http://www.uesp.net/wiki/Skyrim:Enmon" xlink:title="&lt;TABLE&gt;">
<image xlink:href="120px-SR-npc-Enmon.jpg" width="91px" height="91px" preserveAspectRatio="xMinYMin meet" x="1875" y="-483"/>
<text text-anchor="start" x="1896" y="-375.733" font-family="Times Roman,serif" font-size="14.00">Enmon</text>
</a>
</g>
<!-- Fjotra -->
<g id="node31" class="node"><title>Fjotra</title>
<a xlink:href="http://www.uesp.net/wiki/Skyrim:Fjotra" xlink:title="&lt;TABLE&gt;">
<image xlink:href="120px-SR-npc-Fjotra.jpg" width="91px" height="91px" preserveAspectRatio="xMinYMin meet" x="1870" y="-119"/>
<text text-anchor="start" x="1895" y="-11.7333" font-family="Times Roman,serif" font-size="14.00">Fjotra</text>
</a>
</g>
<!-- Enmon&#45;&gt;Fjotra -->
<g id="edge40" class="edge"><title>Enmon&#45;&gt;Fjotra</title>
<a xlink:title="Enmon &#45;&gt; Fjotra (ParentChild, Ally)">
<path fill="none" stroke="green" d="M1892.16,-364.202C1885.91,-346.941 1880.18,-328.036 1877,-310 1867.11,-253.977 1868.17,-238.2 1877,-182 1879.29,-167.403 1883.09,-152.148 1887.42,-137.638"/>
<polygon fill="green" stroke="green" points="1890.87,-138.317 1890.49,-127.729 1884.18,-136.246 1890.87,-138.317"/>
</a>
<text text-anchor="middle" x="1917.5" y="-242.4" font-family="Times Roman,serif" font-size="14.00">ParentChild</text>
</g>
<!-- Mena -->
<g id="node33" class="node"><title>Mena</title>
<a xlink:href="http://www.uesp.net/wiki/Skyrim:Mena" xlink:title="&lt;TABLE&gt;">
<image xlink:href="120px-SR-npc-Mena.jpg" width="91px" height="91px" preserveAspectRatio="xMinYMin meet" x="1979" y="-301"/>
<text text-anchor="start" x="2005.5" y="-193.733" font-family="Times Roman,serif" font-size="14.00">Mena</text>
</a>
</g>
<!-- Enmon&#45;&gt;Mena -->
<g id="edge42" class="edge"><title>Enmon&#45;&gt;Mena</title>
<a xlink:title="Enmon &#45;&gt; Mena (Spouse, Lover)">
<path fill="none" stroke="forestgreen" d="M1942.33,-364.314C1947.53,-351.967 1953.48,-339.348 1960,-328 1961.86,-324.756 1963.85,-321.5 1965.91,-318.255"/>
<polygon fill="forestgreen" stroke="forestgreen" points="1968.97,-319.979 1971.57,-309.708 1963.13,-316.117 1968.97,-319.979"/>
</a>
<text text-anchor="middle" x="1985" y="-333.4" font-family="Times Roman,serif" font-size="14.00">Spouse</text>
</g>
<!-- Mena&#45;&gt;Fjotra -->
<g id="edge84" class="edge"><title>Mena&#45;&gt;Fjotra</title>
<a xlink:title="Mena &#45;&gt; Fjotra (ParentChild, Ally)">
<path fill="none" stroke="green" d="M1985.88,-182.345C1977,-167.521 1967.48,-151.629 1958.39,-136.456"/>
<polygon fill="green" stroke="green" points="1961.24,-134.4 1953.1,-127.619 1955.24,-137.996 1961.24,-134.4"/>
</a>
<text text-anchor="middle" x="2012.5" y="-151.4" font-family="Times Roman,serif" font-size="14.00">ParentChild</text>
</g>
<!-- Ainethach -->
<g id="node49" class="node"><title>Ainethach</title>
<a xlink:href="http://www.uesp.net/wiki/Skyrim:Ainethach" xlink:title="&lt;TABLE&gt;">
<image xlink:href="120px-SR-npc-Ainethach.jpg" width="91px" height="91px" preserveAspectRatio="xMinYMin meet" x="1979" y="-665"/>
<text text-anchor="start" x="1989.5" y="-557.733" font-family="Times Roman,serif" font-size="14.00">Ainethach</text>
</a>
</g>
<!-- Ainethach&#45;&gt;Enmon -->
<g id="edge70" class="edge"><title>Ainethach&#45;&gt;Enmon</title>
<a xlink:title="Ainethach &#45;&gt; Enmon (BossEmployee, Friend)">
<path fill="none" stroke="olive" d="M1966.88,-583.221C1945.27,-569.897 1923,-551.538 1911,-528 1906.89,-519.933 1904.81,-511.022 1904.12,-501.942"/>
<polygon fill="olive" stroke="olive" points="1907.61,-501.573 1903.89,-491.654 1900.62,-501.729 1907.61,-501.573"/>
</a>
<text text-anchor="middle" x="1960.5" y="-515.4" font-family="Times Roman,serif" font-size="14.00">BossEmployee</text>
</g>
<!-- Ainethach&#45;&gt;Mena -->
<g id="edge74" class="edge"><title>Ainethach&#45;&gt;Mena</title>
<a xlink:title="Ainethach &#45;&gt; Mena (BossEmployee, Confidant)">
<path fill="none" stroke="lime" d="M2024,-546.18C2024,-483.086 2024,-386.608 2024,-320.146"/>
<polygon fill="lime" stroke="lime" points="2027.5,-319.747 2024,-309.747 2020.5,-319.747 2027.5,-319.747"/>
</a>
<text text-anchor="middle" x="2073.5" y="-424.4" font-family="Times Roman,serif" font-size="14.00">BossEmployee</text>
</g>
<!-- Ainethach&#45;&gt;LashGraDushnikh -->
<g id="edge72" class="edge"><title>Ainethach&#45;&gt;LashGraDushnikh</title>
<a xlink:title="Ainethach &#45;&gt; Lash gra&#45;Dushnikh (BossEmployee, Acquaintance)">
<path fill="none" stroke="orange" d="M1966.93,-602.943C1898.4,-592.934 1781.16,-570.859 1689,-528 1671.26,-519.752 1653.51,-509.053 1636.94,-497.728"/>
<polygon fill="orange" stroke="orange" points="1638.59,-494.613 1628.39,-491.759 1634.59,-500.353 1638.59,-494.613"/>
</a>
<text text-anchor="middle" x="1738.5" y="-515.4" font-family="Times Roman,serif" font-size="14.00">BossEmployee</text>
</g>
<!-- Belchimac -->
<g id="node53" class="node"><title>Belchimac</title>
<a xlink:href="http://www.uesp.net/wiki/Skyrim:Belchimac" xlink:title="&lt;TABLE&gt;">
<image xlink:href="120px-SR-npc-Belchimac.jpg" width="91px" height="91px" preserveAspectRatio="xMinYMin meet" x="1743" y="-483"/>
<text text-anchor="start" x="1753.5" y="-375.733" font-family="Times Roman,serif" font-size="14.00">Belchimac</text>
</a>
</g>
<!-- Ainethach&#45;&gt;Belchimac -->
<g id="edge76" class="edge"><title>Ainethach&#45;&gt;Belchimac</title>
<a xlink:title="Ainethach &#45;&gt; Belchimac (BossEmployee, Acquaintance)">
<path fill="none" stroke="orange" d="M1966.75,-605.015C1915.38,-597.323 1842.08,-577.758 1802,-528 1795.77,-520.269 1791.62,-511.066 1788.92,-501.419"/>
<polygon fill="orange" stroke="orange" points="1792.33,-500.629 1786.68,-491.663 1785.5,-502.193 1792.33,-500.629"/>
</a>
<text text-anchor="middle" x="1851.5" y="-515.4" font-family="Times Roman,serif" font-size="14.00">BossEmployee</text>
</g>
<!-- Rondach -->
<g id="node55" class="node"><title>Rondach</title>
<a xlink:href="http://www.uesp.net/wiki/Skyrim:Rondach" xlink:title="&lt;TABLE&gt;">
<image xlink:href="120px-SR-npc-Rondach.jpg" width="91px" height="91px" preserveAspectRatio="xMinYMin meet" x="2534" y="-483"/>
<text text-anchor="start" x="2550" y="-375.733" font-family="Times Roman,serif" font-size="14.00">Rondach</text>
</a>
</g>
<!-- Ainethach&#45;&gt;Rondach -->
<g id="edge78" class="edge"><title>Ainethach&#45;&gt;Rondach</title>
<a xlink:title="Ainethach &#45;&gt; Rondach (ParentChild, Ally)">
<path fill="none" stroke="green" d="M2081.01,-606.004C2176.01,-597.289 2370.33,-570.572 2513,-492 2513.09,-491.949 2513.18,-491.899 2513.28,-491.848"/>
<polygon fill="green" stroke="green" points="2514.99,-494.903 2521.68,-486.691 2511.33,-488.937 2514.99,-494.903"/>
</a>
<text text-anchor="middle" x="2516.5" y="-515.4" font-family="Times Roman,serif" font-size="14.00">ParentChild</text>
</g>
<!-- Voada -->
<g id="node57" class="node"><title>Voada</title>
<a xlink:href="http://www.uesp.net/wiki/Skyrim:Voada" xlink:title="&lt;TABLE&gt;">
<image xlink:href="120px-SR-npc-Voada.jpg" width="91px" height="91px" preserveAspectRatio="xMinYMin meet" x="2402" y="-301"/>
<text text-anchor="start" x="2426" y="-193.733" font-family="Times Roman,serif" font-size="14.00">Voada</text>
</a>
</g>
<!-- Ainethach&#45;&gt;Voada -->
<g id="edge80" class="edge"><title>Ainethach&#45;&gt;Voada</title>
<a xlink:title="Ainethach &#45;&gt; Voada (ParentChild, Ally)">
<path fill="none" stroke="green" d="M2081.04,-590.777C2121.02,-576.179 2174.96,-554.182 2219,-528 2241.02,-514.911 2249.85,-513.352 2264,-492 2296.64,-442.735 2267.4,-413.292 2300,-364 2320.78,-332.572 2352.61,-305.545 2381.33,-285.317"/>
<polygon fill="green" stroke="green" points="2383.49,-288.084 2389.74,-279.528 2379.52,-282.319 2383.49,-288.084"/>
</a>
<text text-anchor="middle" x="2340.5" y="-424.4" font-family="Times Roman,serif" font-size="14.00">ParentChild</text>
</g>
<!-- Ragnar -->
<g id="node59" class="node"><title>Ragnar</title>
<a xlink:href="http://www.uesp.net/wiki/Skyrim:Ragnar" xlink:title="&lt;TABLE&gt;">
<image xlink:href="120px-SR-npc-Ragnar.jpg" width="91px" height="91px" preserveAspectRatio="xMinYMin meet" x="2153" y="-483"/>
<text text-anchor="start" x="2173.5" y="-375.733" font-family="Times Roman,serif" font-size="14.00">Ragnar</text>
</a>
</g>
<!-- Ainethach&#45;&gt;Ragnar -->
<g id="edge82" class="edge"><title>Ainethach&#45;&gt;Ragnar</title>
<a xlink:title="Ainethach &#45;&gt; Ragnar (BossEmployee, Confidant)">
<path fill="none" stroke="lime" d="M2081.22,-550.154C2097.94,-532.658 2116.34,-513.414 2133.49,-495.479"/>
<polygon fill="lime" stroke="lime" points="2136.37,-497.528 2140.75,-487.882 2131.31,-492.691 2136.37,-497.528"/>
</a>
<text text-anchor="middle" x="2165.5" y="-515.4" font-family="Times Roman,serif" font-size="14.00">BossEmployee</text>
</g>
<!-- Rondach&#45;&gt;Voada -->
<g id="edge86" class="edge"><title>Rondach&#45;&gt;Voada</title>
<a xlink:title="Rondach &#45;&gt; Voada (Siblings, Ally)">
<path fill="none" stroke="green" d="M2554.13,-364.371C2548.03,-351.828 2540.94,-339.119 2533,-328 2526.67,-319.131 2519.28,-310.431 2511.56,-302.207"/>
<polygon fill="green" stroke="green" points="2513.85,-299.547 2504.38,-294.797 2508.82,-304.416 2513.85,-299.547"/>
</a>
<text text-anchor="middle" x="2570.5" y="-333.4" font-family="Times Roman,serif" font-size="14.00">Siblings</text>
</g>
<!-- Banning -->
<g id="node63" class="node"><title>Banning</title>
<a xlink:href="http://www.uesp.net/wiki/Skyrim:Banning" xlink:title="&lt;TABLE&gt;">
<image xlink:href="120px-SR-npc-Banning.jpg" width="91px" height="91px" preserveAspectRatio="xMinYMin meet" x="2402" y="-483"/>
<text text-anchor="start" x="2418.5" y="-375.733" font-family="Times Roman,serif" font-size="14.00">Banning</text>
</a>
</g>
<!-- Banning&#45;&gt;Voada -->
<g id="edge88" class="edge"><title>Banning&#45;&gt;Voada</title>
<a xlink:title="Banning &#45;&gt; Voada (FavorTarget, Acquaintance)">
<path fill="none" stroke="orange" d="M2447,-364.345C2447,-349.937 2447,-334.52 2447,-319.734"/>
<polygon fill="orange" stroke="orange" points="2450.5,-319.619 2447,-309.619 2443.5,-319.619 2450.5,-319.619"/>
</a>
<text text-anchor="middle" x="2488" y="-333.4" font-family="Times Roman,serif" font-size="14.00">FavorTarget</text>
</g>
</g>
</svg>
