<?xml version="1.0" encoding="UTF-8" standalone="no"?>
<!DOCTYPE svg PUBLIC "-//W3C//DTD SVG 1.1//EN"
 "http://www.w3.org/Graphics/SVG/1.1/DTD/svg11.dtd">
<!-- Generated by graphviz version 2.26.3 (20100126.1600)
 -->
<!-- Title: Relationships_component_22 Pages: 1 -->
<svg width="437pt" height="500pt"
 viewBox="0.00 0.00 437.00 500.00" xmlns="http://www.w3.org/2000/svg" xmlns:xlink="http://www.w3.org/1999/xlink">
<g id="graph1" class="graph" transform="scale(1 1) rotate(0) translate(4 496)">
<title>Relationships_component_22</title>
<polygon fill="white" stroke="white" points="-4,5 -4,-496 434,-496 434,5 -4,5"/>
<!-- JouaneManette -->
<g id="node1" class="node"><title>JouaneManette</title>
<a xlink:href="http://www.uesp.net/wiki/Skyrim:Jouane Manette" xlink:title="&lt;TABLE&gt;">
<image xlink:href="120px-SR-npc-Jouane_Manette.jpg" width="111px" height="91px" preserveAspectRatio="xMinYMin meet" x="19" y="-301"/>
<text text-anchor="start" x="19.5" y="-193.733" font-family="Times Roman,serif" font-size="14.00">Jouane Manette</text>
</a>
</g>
<!-- Sissel -->
<g id="node2" class="node"><title>Sissel</title>
<a xlink:href="http://www.uesp.net/wiki/Skyrim:Sissel" xlink:title="&lt;TABLE&gt;">
<image xlink:href="120px-SR-npc-Sissel.jpg" width="91px" height="91px" preserveAspectRatio="xMinYMin meet" x="171" y="-119"/>
<text text-anchor="start" x="197" y="-11.7333" font-family="Times Roman,serif" font-size="14.00">Sissel</text>
</a>
</g>
<!-- JouaneManette&#45;&gt;Sissel -->
<g id="edge2" class="edge"><title>JouaneManette&#45;&gt;Sissel</title>
<a xlink:title="Jouane Manette &#45;&gt; Sissel (MasterAssistant, Confidant)">
<path fill="none" stroke="lime" d="M76.1851,-182.394C78.9132,-169.507 83.4984,-156.656 91,-146 100.393,-132.657 109.154,-136.634 123,-128 132.041,-122.363 141.435,-116.234 150.625,-110.076"/>
<polygon fill="lime" stroke="lime" points="152.663,-112.923 158.992,-104.426 148.746,-107.122 152.663,-112.923"/>
</a>
<text text-anchor="middle" x="146.5" y="-151.4" font-family="Times Roman,serif" font-size="14.00">MasterAssistant</text>
</g>
<!-- Rorik -->
<g id="node4" class="node"><title>Rorik</title>
<a xlink:href="http://www.uesp.net/wiki/Skyrim:Rorik" xlink:title="&lt;TABLE&gt;">
<image xlink:href="120px-SR-npc-Rorik.jpg" width="91px" height="91px" preserveAspectRatio="xMinYMin meet" x="12" y="-119"/>
<text text-anchor="start" x="39.5" y="-11.7333" font-family="Times Roman,serif" font-size="14.00">Rorik</text>
</a>
</g>
<!-- JouaneManette&#45;&gt;Rorik -->
<g id="edge4" class="edge"><title>JouaneManette&#45;&gt;Rorik</title>
<a xlink:title="Jouane Manette &#45;&gt; Rorik (Ally)">
<path fill="none" stroke="green" d="M68.0542,-182.345C66.7084,-167.937 65.2683,-152.52 63.8872,-137.734"/>
<polygon fill="green" stroke="green" points="67.3574,-137.25 62.9424,-127.619 60.3877,-137.901 67.3574,-137.25"/>
</a>
</g>
<!-- Lemkil -->
<g id="node6" class="node"><title>Lemkil</title>
<a xlink:href="http://www.uesp.net/wiki/Skyrim:Lemkil" xlink:title="&lt;TABLE&gt;">
<image xlink:href="120px-SR-npc-Lemkil.jpg" width="91px" height="91px" preserveAspectRatio="xMinYMin meet" x="218" y="-483"/>
<text text-anchor="start" x="240.5" y="-375.733" font-family="Times Roman,serif" font-size="14.00">Lemkil</text>
</a>
</g>
<!-- Lemkil&#45;&gt;Sissel -->
<g id="edge6" class="edge"><title>Lemkil&#45;&gt;Sissel</title>
<a xlink:title="Lemkil &#45;&gt; Sissel (ParentChild, Rival)">
<path fill="none" stroke="orangered" d="M238.928,-364.197C233.36,-346.855 228.15,-327.911 225,-310 214.946,-252.824 213.028,-187.063 213.442,-137.926"/>
<polygon fill="orangered" stroke="orangered" points="216.944,-137.743 213.564,-127.702 209.945,-137.659 216.944,-137.743"/>
</a>
<text text-anchor="middle" x="265.5" y="-242.4" font-family="Times Roman,serif" font-size="14.00">ParentChild</text>
</g>
<!-- Britte -->
<g id="node8" class="node"><title>Britte</title>
<a xlink:href="http://www.uesp.net/wiki/Skyrim:Britte" xlink:title="&lt;TABLE&gt;">
<image xlink:href="120px-SR-npc-Britte.jpg" width="91px" height="91px" preserveAspectRatio="xMinYMin meet" x="327" y="-301"/>
<text text-anchor="start" x="352.5" y="-193.733" font-family="Times Roman,serif" font-size="14.00">Britte</text>
</a>
</g>
<!-- Lemkil&#45;&gt;Britte -->
<g id="edge8" class="edge"><title>Lemkil&#45;&gt;Britte</title>
<a xlink:title="Lemkil &#45;&gt; Britte (ParentChild, Rival)">
<path fill="none" stroke="orangered" d="M301.123,-364.345C310.001,-349.521 319.519,-333.629 328.606,-318.456"/>
<polygon fill="orangered" stroke="orangered" points="331.763,-319.996 333.899,-309.619 325.758,-316.4 331.763,-319.996"/>
</a>
<text text-anchor="middle" x="360.5" y="-333.4" font-family="Times Roman,serif" font-size="14.00">ParentChild</text>
</g>
<!-- Britte&#45;&gt;Sissel -->
<g id="edge10" class="edge"><title>Britte&#45;&gt;Sissel</title>
<a xlink:title="Britte &#45;&gt; Sissel (Siblings, Rival)">
<path fill="none" stroke="orangered" d="M317.439,-182.345C304.495,-167.244 290.601,-151.035 277.377,-135.606"/>
<polygon fill="orangered" stroke="orangered" points="279.696,-132.934 270.53,-127.619 274.381,-137.489 279.696,-132.934"/>
</a>
<text text-anchor="middle" x="324.5" y="-151.4" font-family="Times Roman,serif" font-size="14.00">Siblings</text>
</g>
</g>
</svg>
