<?xml version="1.0" encoding="UTF-8" standalone="no"?>
<!DOCTYPE svg PUBLIC "-//W3C//DTD SVG 1.1//EN"
 "http://www.w3.org/Graphics/SVG/1.1/DTD/svg11.dtd">
<!-- Generated by graphviz version 2.26.3 (20100126.1600)
 -->
<!-- Title: Relationships_component_12 Pages: 1 -->
<svg width="495pt" height="864pt"
 viewBox="0.00 0.00 495.40 864.00" xmlns="http://www.w3.org/2000/svg" xmlns:xlink="http://www.w3.org/1999/xlink">
<g id="graph1" class="graph" transform="scale(1 1) rotate(0) translate(4 860)">
<title>Relationships_component_12</title>
<polygon fill="white" stroke="white" points="-4,5 -4,-860 492.398,-860 492.398,5 -4,5"/>
<!-- Mauhulakh -->
<g id="node1" class="node"><title>Mauhulakh</title>
<a xlink:href="http://www.uesp.net/wiki/Skyrim:Chief Mauhulakh" xlink:title="&lt;TABLE&gt;">
<image xlink:href="120px-SR-npc-Chief_Mauhulakh.jpg" width="118px" height="91px" preserveAspectRatio="xMinYMin meet" x="168.398" y="-483"/>
<text text-anchor="start" x="168.898" y="-375.733" font-family="Times Roman,serif" font-size="14.00">Chief Mauhulakh</text>
</a>
</g>
<!-- Urog -->
<g id="node2" class="node"><title>Urog</title>
<a xlink:href="http://www.uesp.net/wiki/Skyrim:Urog" xlink:title="&lt;TABLE&gt;">
<image xlink:href="120px-SR-npc-Urog.jpg" width="91px" height="91px" preserveAspectRatio="xMinYMin meet" x="182.398" y="-301"/>
<text text-anchor="start" x="210.898" y="-193.733" font-family="Times Roman,serif" font-size="14.00">Urog</text>
</a>
</g>
<!-- Mauhulakh&#45;&gt;Urog -->
<g id="edge2" class="edge"><title>Mauhulakh&#45;&gt;Urog</title>
<a xlink:title="Chief Mauhulakh &#45;&gt; Urog (ParentChild, Rival)">
<path fill="none" stroke="orangered" d="M227.398,-364.345C227.398,-349.937 227.398,-334.52 227.398,-319.734"/>
<polygon fill="orangered" stroke="orangered" points="230.898,-319.619 227.398,-309.619 223.898,-319.619 230.898,-319.619"/>
</a>
<text text-anchor="middle" x="267.898" y="-333.4" font-family="Times Roman,serif" font-size="14.00">ParentChild</text>
</g>
<!-- Dushnamub -->
<g id="node4" class="node"><title>Dushnamub</title>
<a xlink:href="http://www.uesp.net/wiki/Skyrim:Dushnamub" xlink:title="&lt;TABLE&gt;">
<image xlink:href="120px-SR-npc-Dushnamub.jpg" width="91px" height="91px" preserveAspectRatio="xMinYMin meet" x="182.398" y="-119"/>
<text text-anchor="start" x="185.898" y="-11.7333" font-family="Times Roman,serif" font-size="14.00">Dushnamub</text>
</a>
</g>
<!-- Urog&#45;&gt;Dushnamub -->
<g id="edge4" class="edge"><title>Urog&#45;&gt;Dushnamub</title>
<a xlink:title="Urog &#45;&gt; Dushnamub (Siblings, Acquaintance)">
<path fill="none" stroke="orange" d="M227.398,-182.345C227.398,-167.937 227.398,-152.52 227.398,-137.734"/>
<polygon fill="orange" stroke="orange" points="230.898,-137.619 227.398,-127.619 223.898,-137.619 230.898,-137.619"/>
</a>
<text text-anchor="middle" x="253.898" y="-151.4" font-family="Times Roman,serif" font-size="14.00">Siblings</text>
</g>
<!-- Bolar -->
<g id="node6" class="node"><title>Bolar</title>
<a xlink:href="http://www.uesp.net/wiki/Skyrim:Bolar" xlink:title="&lt;TABLE&gt;">
<image xlink:href="120px-SR-npc-Bolar.jpg" width="91px" height="91px" preserveAspectRatio="xMinYMin meet" x="46.3981" y="-665"/>
<text text-anchor="start" x="73.3981" y="-557.733" font-family="Times Roman,serif" font-size="14.00">Bolar</text>
</a>
</g>
<!-- Bolar&#45;&gt;Mauhulakh -->
<g id="edge6" class="edge"><title>Bolar&#45;&gt;Mauhulakh</title>
<a xlink:title="Bolar &#45;&gt; Chief Mauhulakh (AuntUncle, Acquaintance)">
<path fill="none" stroke="orange" d="M116.807,-546.278C123.039,-533.742 130.286,-521.06 138.398,-510 141.821,-505.333 145.538,-500.721 149.446,-496.206"/>
<polygon fill="orange" stroke="orange" points="152.104,-498.485 156.184,-488.707 146.897,-493.806 152.104,-498.485"/>
</a>
<text text-anchor="middle" x="174.898" y="-515.4" font-family="Times Roman,serif" font-size="14.00">AuntUncle</text>
</g>
<!-- Bolar&#45;&gt;Urog -->
<g id="edge8" class="edge"><title>Bolar&#45;&gt;Urog</title>
<a xlink:title="Bolar &#45;&gt; Urog (AuntUncle, Confidant)">
<path fill="none" stroke="lime" d="M70.0854,-546.477C56.5629,-494.691 46.3505,-421.052 74.3981,-364 92.6705,-326.832 128.906,-298.068 161.528,-278.248"/>
<polygon fill="lime" stroke="lime" points="163.337,-281.244 170.171,-273.149 159.78,-275.215 163.337,-281.244"/>
</a>
<text text-anchor="middle" x="110.898" y="-424.4" font-family="Times Roman,serif" font-size="14.00">AuntUncle</text>
</g>
<!-- Bolar&#45;&gt;Dushnamub -->
<g id="edge10" class="edge"><title>Bolar&#45;&gt;Dushnamub</title>
<a xlink:title="Bolar &#45;&gt; Dushnamub (AuntUncle, Acquaintance)">
<path fill="none" stroke="orange" d="M49.9105,-546.279C17.7902,-488.647 -17.1228,-401.769 9.39809,-328 39.7295,-243.632 109.996,-167.036 162.61,-118.341"/>
<polygon fill="orange" stroke="orange" points="165.223,-120.694 170.238,-111.361 160.497,-115.53 165.223,-120.694"/>
</a>
<text text-anchor="middle" x="45.8981" y="-333.4" font-family="Times Roman,serif" font-size="14.00">AuntUncle</text>
</g>
<!-- Yatul -->
<g id="node10" class="node"><title>Yatul</title>
<a xlink:href="http://www.uesp.net/wiki/Skyrim:Yatul" xlink:title="&lt;TABLE&gt;">
<image xlink:href="120px-SR-npc-Yatul.jpg" width="91px" height="91px" preserveAspectRatio="xMinYMin meet" x="230.398" y="-847"/>
<text text-anchor="start" x="258.898" y="-739.733" font-family="Times Roman,serif" font-size="14.00">Yatul</text>
</a>
</g>
<!-- Yatul&#45;&gt;Mauhulakh -->
<g id="edge12" class="edge"><title>Yatul&#45;&gt;Mauhulakh</title>
<a xlink:title="Yatul &#45;&gt; Chief Mauhulakh (AuntUncle, Confidant)">
<path fill="none" stroke="lime" d="M252.85,-728.396C247.54,-710.97 242.522,-691.936 239.398,-674 229.432,-616.778 226.664,-551.02 226.261,-501.895"/>
<polygon fill="lime" stroke="lime" points="229.76,-501.656 226.209,-491.674 222.76,-501.692 229.76,-501.656"/>
</a>
<text text-anchor="middle" x="275.898" y="-606.4" font-family="Times Roman,serif" font-size="14.00">AuntUncle</text>
</g>
<!-- Yatul&#45;&gt;Urog -->
<g id="edge14" class="edge"><title>Yatul&#45;&gt;Urog</title>
<a xlink:title="Yatul &#45;&gt; Urog (AuntUncle, Ally)">
<path fill="none" stroke="green" d="M299.269,-728.226C304.688,-710.883 309.652,-691.933 312.398,-674 318.216,-635.998 327.429,-363.384 312.398,-328 307.464,-316.385 299.99,-305.615 291.481,-295.955"/>
<polygon fill="green" stroke="green" points="293.851,-293.365 284.465,-288.451 288.738,-298.146 293.851,-293.365"/>
</a>
<text text-anchor="middle" x="355.898" y="-515.4" font-family="Times Roman,serif" font-size="14.00">AuntUncle</text>
</g>
<!-- Yatul&#45;&gt;Dushnamub -->
<g id="edge18" class="edge"><title>Yatul&#45;&gt;Dushnamub</title>
<a xlink:title="Yatul &#45;&gt; Dushnamub (AuntUncle, Acquaintance)">
<path fill="none" stroke="orange" d="M332.737,-750.155C371.026,-716.981 414.398,-666.855 414.398,-610 414.398,-610 414.398,-610 414.398,-246 414.398,-176.479 347.203,-124.908 293.373,-94.7471"/>
<polygon fill="orange" stroke="orange" points="294.974,-91.6338 284.52,-89.9097 291.617,-97.7764 294.974,-91.6338"/>
</a>
<text text-anchor="middle" x="450.898" y="-424.4" font-family="Times Roman,serif" font-size="14.00">AuntUncle</text>
</g>
<!-- Yatul&#45;&gt;Bolar -->
<g id="edge16" class="edge"><title>Yatul&#45;&gt;Bolar</title>
<a xlink:title="Yatul &#45;&gt; Bolar (Siblings, Ally)">
<path fill="none" stroke="green" d="M218.238,-758.105C198.052,-744.603 176.013,-727.988 158.398,-710 150.06,-701.485 142.111,-691.8 134.793,-681.89"/>
<polygon fill="green" stroke="green" points="137.471,-679.62 128.799,-673.534 131.783,-683.7 137.471,-679.62"/>
</a>
<text text-anchor="middle" x="184.898" y="-697.4" font-family="Times Roman,serif" font-size="14.00">Siblings</text>
</g>
</g>
</svg>
