<?xml version="1.0" encoding="UTF-8" standalone="no"?>
<!DOCTYPE svg PUBLIC "-//W3C//DTD SVG 1.1//EN"
 "http://www.w3.org/Graphics/SVG/1.1/DTD/svg11.dtd">
<!-- Generated by graphviz version 2.26.3 (20100126.1600)
 -->
<!-- Title: Relationships_component_24 Pages: 1 -->
<svg width="536pt" height="318pt"
 viewBox="0.00 0.00 536.00 318.00" xmlns="http://www.w3.org/2000/svg" xmlns:xlink="http://www.w3.org/1999/xlink">
<g id="graph1" class="graph" transform="scale(1 1) rotate(0) translate(4 314)">
<title>Relationships_component_24</title>
<polygon fill="white" stroke="white" points="-4,5 -4,-314 533,-314 533,5 -4,5"/>
<!-- Indaryn -->
<g id="node1" class="node"><title>Indaryn</title>
<a xlink:href="http://www.uesp.net/wiki/Skyrim:Indaryn" xlink:title="&lt;TABLE&gt;">
<image xlink:href="120px-SR-npc-Indaryn.jpg" width="91px" height="91px" preserveAspectRatio="xMinYMin meet" x="219" y="-301"/>
<text text-anchor="start" x="237.5" y="-193.733" font-family="Times Roman,serif" font-size="14.00">Indaryn</text>
</a>
</g>
<!-- Romlyn -->
<g id="node2" class="node"><title>Romlyn</title>
<a xlink:href="http://www.uesp.net/wiki/Skyrim:Romlyn Dreth" xlink:title="&lt;TABLE&gt;">
<image xlink:href="120px-SR-npc-Romlyn_Dreth.jpg" width="98px" height="91px" preserveAspectRatio="xMinYMin meet" x="12" y="-119"/>
<text text-anchor="start" x="12.5" y="-11.7333" font-family="Times Roman,serif" font-size="14.00">Romlyn Dreth</text>
</a>
</g>
<!-- Indaryn&#45;&gt;Romlyn -->
<g id="edge2" class="edge"><title>Indaryn&#45;&gt;Romlyn</title>
<a xlink:title="Indaryn &#45;&gt; Romlyn Dreth (BossEmployee, Acquaintance)">
<path fill="none" stroke="orange" d="M206.666,-228.437C172.419,-215.414 130.231,-194.568 102,-164 94.6413,-156.032 88.5153,-146.564 83.4407,-136.679"/>
<polygon fill="orange" stroke="orange" points="86.5342,-135.035 79.0706,-127.515 80.2159,-138.048 86.5342,-135.035"/>
</a>
<text text-anchor="middle" x="151.5" y="-151.4" font-family="Times Roman,serif" font-size="14.00">BossEmployee</text>
</g>
<!-- Niluva -->
<g id="node4" class="node"><title>Niluva</title>
<a xlink:href="http://www.uesp.net/wiki/Skyrim:Niluva Hlaalu" xlink:title="&lt;TABLE&gt;">
<image xlink:href="120px-SR-npc-Niluva_Hlaalu.jpg" width="93px" height="91px" preserveAspectRatio="xMinYMin meet" x="152" y="-119"/>
<text text-anchor="start" x="152.5" y="-11.7333" font-family="Times Roman,serif" font-size="14.00">Niluva Hlaalu</text>
</a>
</g>
<!-- Indaryn&#45;&gt;Niluva -->
<g id="edge4" class="edge"><title>Indaryn&#45;&gt;Niluva</title>
<a xlink:title="Indaryn &#45;&gt; Niluva Hlaalu (BossEmployee, Acquaintance)">
<path fill="none" stroke="orange" d="M218.06,-182.117C214.982,-176.166 212.227,-170.083 210,-164 206.965,-155.708 204.66,-146.797 202.916,-137.833"/>
<polygon fill="orange" stroke="orange" points="206.321,-136.982 201.176,-127.72 199.423,-138.169 206.321,-136.982"/>
</a>
<text text-anchor="middle" x="259.5" y="-151.4" font-family="Times Roman,serif" font-size="14.00">BossEmployee</text>
</g>
<!-- Valindor -->
<g id="node6" class="node"><title>Valindor</title>
<a xlink:href="http://www.uesp.net/wiki/Skyrim:Valindor" xlink:title="&lt;TABLE&gt;">
<image xlink:href="120px-SR-npc-Valindor.jpg" width="91px" height="91px" preserveAspectRatio="xMinYMin meet" x="286" y="-119"/>
<text text-anchor="start" x="303" y="-11.7333" font-family="Times Roman,serif" font-size="14.00">Valindor</text>
</a>
</g>
<!-- Indaryn&#45;&gt;Valindor -->
<g id="edge6" class="edge"><title>Indaryn&#45;&gt;Valindor</title>
<a xlink:title="Indaryn &#45;&gt; Valindor (BossEmployee, Acquaintance)">
<path fill="none" stroke="orange" d="M301.17,-182.368C304.048,-176.264 306.716,-170.081 309,-164 312.167,-155.567 314.942,-146.555 317.356,-137.523"/>
<polygon fill="orange" stroke="orange" points="320.771,-138.294 319.836,-127.741 313.986,-136.574 320.771,-138.294"/>
</a>
<text text-anchor="middle" x="363.5" y="-151.4" font-family="Times Roman,serif" font-size="14.00">BossEmployee</text>
</g>
<!-- Ungrien -->
<g id="node8" class="node"><title>Ungrien</title>
<a xlink:href="http://www.uesp.net/wiki/Skyrim:Ungrien" xlink:title="&lt;TABLE&gt;">
<image xlink:href="120px-SR-npc-Ungrien.jpg" width="91px" height="91px" preserveAspectRatio="xMinYMin meet" x="418" y="-119"/>
<text text-anchor="start" x="436" y="-11.7333" font-family="Times Roman,serif" font-size="14.00">Ungrien</text>
</a>
</g>
<!-- Indaryn&#45;&gt;Ungrien -->
<g id="edge8" class="edge"><title>Indaryn&#45;&gt;Ungrien</title>
<a xlink:title="Indaryn &#45;&gt; Ungrien (BossEmployee, Acquaintance)">
<path fill="none" stroke="orange" d="M321.045,-225.912C352.614,-212.434 390.669,-191.984 417,-164 424.52,-156.008 430.98,-146.571 436.479,-136.737"/>
<polygon fill="orange" stroke="orange" points="439.712,-138.107 441.26,-127.626 433.514,-134.854 439.712,-138.107"/>
</a>
<text text-anchor="middle" x="478.5" y="-151.4" font-family="Times Roman,serif" font-size="14.00">BossEmployee</text>
</g>
</g>
</svg>
