<?xml version="1.0" encoding="UTF-8" standalone="no"?>
<!DOCTYPE svg PUBLIC "-//W3C//DTD SVG 1.1//EN"
 "http://www.w3.org/Graphics/SVG/1.1/DTD/svg11.dtd">
<!-- Generated by graphviz version 2.26.3 (20100126.1600)
 -->
<!-- Title: Relationships_component_25 Pages: 1 -->
<svg width="162pt" height="214pt"
 viewBox="0.00 0.00 162.00 214.00" xmlns="http://www.w3.org/2000/svg" xmlns:xlink="http://www.w3.org/1999/xlink">
<g id="graph1" class="graph" transform="scale(1 1) rotate(0) translate(4 210)">
<title>Relationships_component_25</title>
<polygon fill="white" stroke="white" points="-4,5 -4,-210 159,-210 159,5 -4,5"/>
<!-- Torom -->
<g id="node1" class="node"><title>Torom</title>
<a xlink:href="http://www.uesp.net/wiki/Skyrim:Torom" xlink:title="Torom">
<ellipse fill="none" stroke="black" cx="41" cy="-187" rx="41.2167" ry="18.3848"/>
<text text-anchor="middle" x="41" y="-183.4" font-family="Times Roman,serif" font-size="14.00">Torom</text>
</a>
</g>
<!-- Erith -->
<g id="node2" class="node"><title>Erith</title>
<a xlink:href="http://www.uesp.net/wiki/Skyrim:Erith" xlink:title="Erith">
<ellipse fill="none" stroke="black" cx="43" cy="-19" rx="34.8574" ry="18.3848"/>
<text text-anchor="middle" x="43" y="-15.4" font-family="Times Roman,serif" font-size="14.00">Erith</text>
</a>
</g>
<!-- Torom&#45;&gt;Erith -->
<g id="edge2" class="edge"><title>Torom&#45;&gt;Erith</title>
<a xlink:title="Torom &#45;&gt; Erith (Ally)">
<path fill="none" stroke="green" d="M38.5319,-168.298C37.1911,-157.192 35.6728,-142.819 35,-130 34.1148,-113.134 34.0787,-108.864 35,-92 35.8012,-77.3341 37.5014,-61.0845 39.1292,-47.6467"/>
<polygon fill="green" stroke="green" points="42.6229,-47.9157 40.4006,-37.5566 35.6778,-47.0405 42.6229,-47.9157"/>
</a>
</g>
<!-- Daighre -->
<g id="node4" class="node"><title>Daighre</title>
<a xlink:href="http://www.uesp.net/wiki/Skyrim:Daighre" xlink:title="Daighre">
<ellipse fill="none" stroke="black" cx="94" cy="-111" rx="50.2046" ry="18.3848"/>
<text text-anchor="middle" x="94" y="-107.4" font-family="Times Roman,serif" font-size="14.00">Daighre</text>
</a>
</g>
<!-- Torom&#45;&gt;Daighre -->
<g id="edge4" class="edge"><title>Torom&#45;&gt;Daighre</title>
<a xlink:title="Torom &#45;&gt; Daighre (Ally)">
<path fill="none" stroke="green" d="M53.5603,-168.989C60.1129,-159.593 68.2552,-147.917 75.5126,-137.51"/>
<polygon fill="green" stroke="green" points="78.4969,-139.35 81.3462,-129.145 72.7552,-135.345 78.4969,-139.35"/>
</a>
</g>
<!-- Daighre&#45;&gt;Erith -->
<g id="edge6" class="edge"><title>Daighre&#45;&gt;Erith</title>
<a xlink:title="Daighre &#45;&gt; Erith (ParentChild, Ally)">
<path fill="none" stroke="green" d="M83.924,-92.8238C76.4717,-79.3803 66.2041,-60.8583 57.8179,-45.7304"/>
<polygon fill="green" stroke="green" points="60.791,-43.8746 52.8815,-36.8254 54.6688,-47.2684 60.791,-43.8746"/>
</a>
<text text-anchor="middle" x="113.5" y="-61.4" font-family="Times Roman,serif" font-size="14.00">ParentChild</text>
</g>
</g>
</svg>
