<?xml version="1.0" encoding="UTF-8" standalone="no"?>
<!DOCTYPE svg PUBLIC "-//W3C//DTD SVG 1.1//EN"
 "http://www.w3.org/Graphics/SVG/1.1/DTD/svg11.dtd">
<!-- Generated by graphviz version 2.26.3 (20100126.1600)
 -->
<!-- Title: Relationships_component_39 Pages: 1 -->
<svg width="231pt" height="500pt"
 viewBox="0.00 0.00 231.00 500.00" xmlns="http://www.w3.org/2000/svg" xmlns:xlink="http://www.w3.org/1999/xlink">
<g id="graph1" class="graph" transform="scale(1 1) rotate(0) translate(4 496)">
<title>Relationships_component_39</title>
<polygon fill="white" stroke="white" points="-4,5 -4,-496 228,-496 228,5 -4,5"/>
<!-- Katla -->
<g id="node1" class="node"><title>Katla</title>
<a xlink:href="http://www.uesp.net/wiki/Skyrim:Katla" xlink:title="&lt;TABLE&gt;">
<image xlink:href="120px-SR-npc-Katla.jpg" width="91px" height="91px" preserveAspectRatio="xMinYMin meet" x="12" y="-483"/>
<text text-anchor="start" x="39.5" y="-375.733" font-family="Times Roman,serif" font-size="14.00">Katla</text>
</a>
</g>
<!-- Knud -->
<g id="node2" class="node"><title>Knud</title>
<a xlink:href="http://www.uesp.net/wiki/Skyrim:Knud" xlink:title="&lt;TABLE&gt;">
<image xlink:href="120px-SR-npc-Knud.jpg" width="91px" height="91px" preserveAspectRatio="xMinYMin meet" x="12" y="-119"/>
<text text-anchor="start" x="39.5" y="-11.7333" font-family="Times Roman,serif" font-size="14.00">Knud</text>
</a>
</g>
<!-- Katla&#45;&gt;Knud -->
<g id="edge2" class="edge"><title>Katla&#45;&gt;Knud</title>
<a xlink:title="Katla &#45;&gt; Knud (ParentChild, Ally)">
<path fill="none" stroke="green" d="M32.4861,-364.271C26.9205,-346.928 21.8215,-327.966 19,-310 10.174,-253.8 10.174,-238.2 19,-182 21.2925,-167.403 25.0884,-152.148 29.4166,-137.638"/>
<polygon fill="green" stroke="green" points="32.8703,-138.317 32.4861,-127.729 26.1838,-136.246 32.8703,-138.317"/>
</a>
<text text-anchor="middle" x="59.5" y="-242.4" font-family="Times Roman,serif" font-size="14.00">ParentChild</text>
</g>
<!-- Snilling -->
<g id="node4" class="node"><title>Snilling</title>
<a xlink:href="http://www.uesp.net/wiki/Skyrim:Snilling" xlink:title="&lt;TABLE&gt;">
<image xlink:href="120px-SR-npc-Snilling.jpg" width="91px" height="91px" preserveAspectRatio="xMinYMin meet" x="121" y="-301"/>
<text text-anchor="start" x="141" y="-193.733" font-family="Times Roman,serif" font-size="14.00">Snilling</text>
</a>
</g>
<!-- Katla&#45;&gt;Snilling -->
<g id="edge4" class="edge"><title>Katla&#45;&gt;Snilling</title>
<a xlink:title="Katla &#45;&gt; Snilling (Spouse, Lover)">
<path fill="none" stroke="forestgreen" d="M95.1229,-364.345C104.001,-349.521 113.519,-333.629 122.606,-318.456"/>
<polygon fill="forestgreen" stroke="forestgreen" points="125.763,-319.996 127.899,-309.619 119.758,-316.4 125.763,-319.996"/>
</a>
<text text-anchor="middle" x="139" y="-333.4" font-family="Times Roman,serif" font-size="14.00">Spouse</text>
</g>
<!-- Snilling&#45;&gt;Knud -->
<g id="edge6" class="edge"><title>Snilling&#45;&gt;Knud</title>
<a xlink:title="Snilling &#45;&gt; Knud (ParentChild, Ally)">
<path fill="none" stroke="green" d="M127.877,-182.345C118.999,-167.521 109.481,-151.629 100.394,-136.456"/>
<polygon fill="green" stroke="green" points="103.242,-134.4 95.1014,-127.619 97.2368,-137.996 103.242,-134.4"/>
</a>
<text text-anchor="middle" x="154.5" y="-151.4" font-family="Times Roman,serif" font-size="14.00">ParentChild</text>
</g>
</g>
</svg>
