<?xml version="1.0" encoding="UTF-8" standalone="no"?>
<!DOCTYPE svg PUBLIC "-//W3C//DTD SVG 1.1//EN"
 "http://www.w3.org/Graphics/SVG/1.1/DTD/svg11.dtd">
<!-- Generated by graphviz version 2.26.3 (20100126.1600)
 -->
<!-- Title: Relationships_component_17 Pages: 1 -->
<svg width="285pt" height="792pt"
 viewBox="0.00 0.00 285.00 792.00" xmlns="http://www.w3.org/2000/svg" xmlns:xlink="http://www.w3.org/1999/xlink">
<g id="graph1" class="graph" transform="scale(1 1) rotate(0) translate(4 788)">
<title>Relationships_component_17</title>
<polygon fill="white" stroke="white" points="-4,5 -4,-788 282,-788 282,5 -4,5"/>
<!-- Samuel -->
<g id="node1" class="node"><title>Samuel</title>
<a xlink:href="http://www.uesp.net/wiki/Skyrim:Samuel" xlink:title="&lt;TABLE&gt;">
<text text-anchor="start" x="31.5" y="-339.733" font-family="Times Roman,serif" font-size="14.00">Samuel</text>
</a>
</g>
<!-- Runa -->
<g id="node2" class="node"><title>Runa</title>
<a xlink:href="http://www.uesp.net/wiki/Skyrim:Runa Fair-Shield" xlink:title="&lt;TABLE&gt;">
<text text-anchor="start" x="65.5" y="-175.733" font-family="Times Roman,serif" font-size="14.00">Runa Fair&#45;Shield</text>
</a>
</g>
<!-- Samuel&#45;&gt;Runa -->
<g id="edge2" class="edge"><title>Samuel&#45;&gt;Runa</title>
<a xlink:title="Samuel &#45;&gt; Runa Fair&#45;Shield (Friend)">
<path fill="none" stroke="olive" d="M81.9273,-328.124C85.3919,-319.246 88.9729,-310.07 92.4966,-301.04"/>
<polygon fill="olive" stroke="olive" points="95.7657,-302.29 96.1407,-291.702 89.2447,-299.745 95.7657,-302.29"/>
</a>
</g>
<!-- Hroar -->
<g id="node4" class="node"><title>Hroar</title>
<a xlink:href="http://www.uesp.net/wiki/Skyrim:Hroar" xlink:title="&lt;TABLE&gt;">
<image xlink:href="120px-SR-npc-Hroar.jpg" width="91px" height="91px" preserveAspectRatio="xMinYMin meet" x="124" y="-119"/>
<text text-anchor="start" x="149.5" y="-11.7333" font-family="Times Roman,serif" font-size="14.00">Hroar</text>
</a>
</g>
<!-- Samuel&#45;&gt;Hroar -->
<g id="edge4" class="edge"><title>Samuel&#45;&gt;Hroar</title>
<a xlink:title="Samuel &#45;&gt; Hroar (Friend)">
<path fill="none" stroke="olive" d="M37.3961,-328.315C26.4233,-280.71 19.354,-215.279 44,-164 56.7057,-137.564 80.1803,-115.929 103.385,-99.6299"/>
<polygon fill="olive" stroke="olive" points="105.581,-102.37 111.901,-93.8673 101.658,-96.5727 105.581,-102.37"/>
</a>
</g>
<!-- Runa&#45;&gt;Hroar -->
<g id="edge6" class="edge"><title>Runa&#45;&gt;Hroar</title>
<a xlink:title="Runa Fair&#45;Shield &#45;&gt; Hroar (Friend)">
<path fill="none" stroke="olive" d="M139.695,-164.124C142.267,-155.339 144.923,-146.263 147.539,-137.325"/>
<polygon fill="olive" stroke="olive" points="150.906,-138.283 150.356,-127.702 144.187,-136.316 150.906,-138.283"/>
</a>
</g>
<!-- ConstanceMichel -->
<g id="node7" class="node"><title>ConstanceMichel</title>
<a xlink:href="http://www.uesp.net/wiki/Skyrim:Constance Michel" xlink:title="&lt;TABLE&gt;">
<image xlink:href="120px-SR-npc-Constance_Michel.jpg" width="120px" height="91px" preserveAspectRatio="xMinYMin meet" x="144" y="-775"/>
<text text-anchor="start" x="143.5" y="-667.733" font-family="Times Roman,serif" font-size="14.00">Constance Michel</text>
</a>
</g>
<!-- ConstanceMichel&#45;&gt;Samuel -->
<g id="edge8" class="edge"><title>ConstanceMichel&#45;&gt;Samuel</title>
<a xlink:title="Constance Michel &#45;&gt; Samuel (Friend)">
<path fill="none" stroke="olive" d="M130.837,-681.332C108.066,-665.483 85.4295,-644.932 72,-620 46.7627,-573.146 43.8571,-512.785 46.8083,-465.941"/>
<polygon fill="olive" stroke="olive" points="50.3069,-466.087 47.546,-455.858 43.3255,-465.576 50.3069,-466.087"/>
</a>
</g>
<!-- ConstanceMichel&#45;&gt;Runa -->
<g id="edge10" class="edge"><title>ConstanceMichel&#45;&gt;Runa</title>
<a xlink:title="Constance Michel &#45;&gt; Runa Fair&#45;Shield (Friend)">
<path fill="none" stroke="olive" d="M227.571,-656.426C231.073,-644.479 234.13,-631.977 236,-620 244.774,-563.792 247.604,-547.693 236,-492 221.859,-424.13 189.294,-352.323 162.414,-300.76"/>
<polygon fill="olive" stroke="olive" points="165.397,-298.913 157.639,-291.697 159.203,-302.175 165.397,-298.913"/>
</a>
</g>
<!-- ConstanceMichel&#45;&gt;Hroar -->
<g id="edge12" class="edge"><title>ConstanceMichel&#45;&gt;Hroar</title>
<a xlink:title="Constance Michel &#45;&gt; Hroar (Friend)">
<path fill="none" stroke="olive" d="M240.508,-656.238C245.676,-644.522 250.184,-632.148 253,-620 279.285,-506.622 223.112,-196.848 214,-164 211.552,-155.176 208.435,-146.137 204.988,-137.276"/>
<polygon fill="olive" stroke="olive" points="208.128,-135.706 201.132,-127.749 201.639,-138.332 208.128,-135.706"/>
</a>
</g>
<!-- Francois -->
<g id="node11" class="node"><title>Francois</title>
<a xlink:href="http://www.uesp.net/wiki/Skyrim:Francois Beaufort" xlink:title="&lt;TABLE&gt;">
<image xlink:href="120px-SR-npc-Francois_Beaufort.jpg" width="120px" height="91px" preserveAspectRatio="xMinYMin meet" x="94" y="-611"/>
<text text-anchor="start" x="93.5" y="-503.733" font-family="Times Roman,serif" font-size="14.00">Francois Beaufort</text>
</a>
</g>
<!-- ConstanceMichel&#45;&gt;Francois -->
<g id="edge14" class="edge"><title>ConstanceMichel&#45;&gt;Francois</title>
<a xlink:title="Constance Michel &#45;&gt; Francois Beaufort (Friend)">
<path fill="none" stroke="olive" d="M184.526,-656.124C181.847,-647.339 179.08,-638.263 176.355,-629.325"/>
<polygon fill="olive" stroke="olive" points="179.686,-628.247 173.421,-619.702 172.99,-630.288 179.686,-628.247"/>
</a>
</g>
<!-- Francois&#45;&gt;Samuel -->
<g id="edge16" class="edge"><title>Francois&#45;&gt;Samuel</title>
<a xlink:title="Francois Beaufort &#45;&gt; Samuel (Friend)">
<path fill="none" stroke="olive" d="M116.22,-492.124C110.858,-483.059 105.313,-473.683 99.8633,-464.47"/>
<polygon fill="olive" stroke="olive" points="102.781,-462.527 94.6774,-455.702 96.7557,-466.091 102.781,-462.527"/>
</a>
</g>
<!-- Francois&#45;&gt;Runa -->
<g id="edge18" class="edge"><title>Francois&#45;&gt;Runa</title>
<a xlink:title="Francois Beaufort &#45;&gt; Runa Fair&#45;Shield (Friend)">
<path fill="none" stroke="olive" d="M147.598,-492.369C142.108,-437.8 134.194,-359.142 128.427,-301.818"/>
<polygon fill="olive" stroke="olive" points="131.896,-301.332 127.412,-291.733 124.931,-302.033 131.896,-301.332"/>
</a>
</g>
<!-- Francois&#45;&gt;Hroar -->
<g id="edge20" class="edge"><title>Francois&#45;&gt;Hroar</title>
<a xlink:title="Francois Beaufort &#45;&gt; Hroar (Friend)">
<path fill="none" stroke="olive" d="M171.023,-492.373C189.526,-414.704 214.4,-279.433 198,-164 196.771,-155.353 194.974,-146.408 192.865,-137.585"/>
<polygon fill="olive" stroke="olive" points="196.21,-136.536 190.367,-127.698 189.424,-138.251 196.21,-136.536"/>
</a>
</g>
</g>
</svg>
