<?xml version="1.0" encoding="UTF-8" standalone="no"?>
<!DOCTYPE svg PUBLIC "-//W3C//DTD SVG 1.1//EN"
 "http://www.w3.org/Graphics/SVG/1.1/DTD/svg11.dtd">
<!-- Generated by graphviz version 2.26.3 (20100126.1600)
 -->
<!-- Title: Relationships_component_59 Pages: 1 -->
<svg width="164pt" height="464pt"
 viewBox="0.00 0.00 164.00 464.00" xmlns="http://www.w3.org/2000/svg" xmlns:xlink="http://www.w3.org/1999/xlink">
<g id="graph1" class="graph" transform="scale(1 1) rotate(0) translate(4 460)">
<title>Relationships_component_59</title>
<polygon fill="white" stroke="white" points="-4,5 -4,-460 161,-460 161,5 -4,5"/>
<!-- Erdi -->
<g id="node1" class="node"><title>Erdi</title>
<a xlink:href="http://www.uesp.net/wiki/Skyrim:Erdi" xlink:title="&lt;TABLE&gt;">
<image xlink:href="120px-SR-npc-Erdi.jpg" width="91px" height="91px" preserveAspectRatio="xMinYMin meet" x="12" y="-283"/>
<text text-anchor="start" x="43.5" y="-175.733" font-family="Times Roman,serif" font-size="14.00">Erdi</text>
</a>
</g>
<!-- Una -->
<g id="node2" class="node"><title>Una</title>
<a xlink:href="http://www.uesp.net/wiki/Skyrim:Una" xlink:title="&lt;TABLE&gt;">
<image xlink:href="120px-SR-npc-Una.jpg" width="91px" height="91px" preserveAspectRatio="xMinYMin meet" x="54" y="-119"/>
<text text-anchor="start" x="85.5" y="-11.7333" font-family="Times Roman,serif" font-size="14.00">Una</text>
</a>
</g>
<!-- Erdi&#45;&gt;Una -->
<g id="edge2" class="edge"><title>Erdi&#45;&gt;Una</title>
<a xlink:title="Erdi &#45;&gt; Una (Friend)">
<path fill="none" stroke="olive" d="M73.3586,-164.124C75.5843,-155.433 77.8833,-146.456 80.1485,-137.61"/>
<polygon fill="olive" stroke="olive" points="83.5957,-138.258 82.6861,-127.702 76.8145,-136.521 83.5957,-138.258"/>
</a>
</g>
<!-- Odar -->
<g id="node4" class="node"><title>Odar</title>
<a xlink:href="http://www.uesp.net/wiki/Skyrim:Odar" xlink:title="&lt;TABLE&gt;">
<text text-anchor="start" x="82.5" y="-339.733" font-family="Times Roman,serif" font-size="14.00">Odar</text>
</a>
</g>
<!-- Odar&#45;&gt;Erdi -->
<g id="edge4" class="edge"><title>Odar&#45;&gt;Erdi</title>
<a xlink:title="Odar &#45;&gt; Erdi (Friend)">
<path fill="none" stroke="olive" d="M82.6414,-328.124C80.4157,-319.433 78.1167,-310.456 75.8515,-301.61"/>
<polygon fill="olive" stroke="olive" points="79.1855,-300.521 73.3139,-291.702 72.4043,-302.258 79.1855,-300.521"/>
</a>
</g>
<!-- Odar&#45;&gt;Una -->
<g id="edge6" class="edge"><title>Odar&#45;&gt;Una</title>
<a xlink:title="Odar &#45;&gt; Una (Friend)">
<path fill="none" stroke="olive" d="M116.63,-328.389C119.281,-316.39 121.594,-303.879 123,-292 129.684,-235.505 129.684,-220.495 123,-164 121.979,-155.369 120.478,-146.404 118.717,-137.545"/>
<polygon fill="olive" stroke="olive" points="122.112,-136.678 116.63,-127.611 115.261,-138.117 122.112,-136.678"/>
</a>
</g>
</g>
</svg>
