<?xml version="1.0" encoding="UTF-8" standalone="no"?>
<!DOCTYPE svg PUBLIC "-//W3C//DTD SVG 1.1//EN"
 "http://www.w3.org/Graphics/SVG/1.1/DTD/svg11.dtd">
<!-- Generated by graphviz version 2.26.3 (20100126.1600)
 -->
<!-- Title: Relationships_component_16 Pages: 1 -->
<svg width="738pt" height="1030pt"
 viewBox="0.00 0.00 738.00 1030.00" xmlns="http://www.w3.org/2000/svg" xmlns:xlink="http://www.w3.org/1999/xlink">
<g id="graph1" class="graph" transform="scale(1 1) rotate(0) translate(4 1026)">
<title>Relationships_component_16</title>
<polygon fill="white" stroke="white" points="-4,5 -4,-1026 735,-1026 735,5 -4,5"/>
<!-- AcolyteJenssen -->
<g id="node1" class="node"><title>AcolyteJenssen</title>
<a xlink:href="http://www.uesp.net/wiki/Skyrim:Acolyte Jenssen" xlink:title="&lt;TABLE&gt;">
<image xlink:href="120px-SR-npc-Acolyte_Jenssen.jpg" width="110px" height="91px" preserveAspectRatio="xMinYMin meet" x="12" y="-483"/>
<text text-anchor="start" x="12.5" y="-375.733" font-family="Times Roman,serif" font-size="14.00">Acolyte Jenssen</text>
</a>
</g>
<!-- DanicaPureSpring -->
<g id="node2" class="node"><title>DanicaPureSpring</title>
<a xlink:href="http://www.uesp.net/wiki/Skyrim:Danica Pure-Spring" xlink:title="&lt;TABLE&gt;">
<image xlink:href="120px-SR-npc-Danica_Pure-Spring.jpg" width="120px" height="91px" preserveAspectRatio="xMinYMin meet" x="146.5" y="-301"/>
<text text-anchor="start" x="139.5" y="-193.733" font-family="Times Roman,serif" font-size="14.00">Danica Pure&#45;Spring</text>
</a>
</g>
<!-- AcolyteJenssen&#45;&gt;DanicaPureSpring -->
<g id="edge2" class="edge"><title>AcolyteJenssen&#45;&gt;DanicaPureSpring</title>
<a xlink:title="Acolyte Jenssen &#45;&gt; Danica Pure&#45;Spring (BossEmployee, Friend)">
<path fill="none" stroke="olive" d="M84.6909,-364.306C89.7905,-351.634 96.1582,-338.891 104,-328 108.621,-321.582 113.87,-315.394 119.493,-309.491"/>
<polygon fill="olive" stroke="olive" points="122.21,-311.723 126.794,-302.172 117.254,-306.78 122.21,-311.723"/>
</a>
<text text-anchor="middle" x="153.5" y="-333.4" font-family="Times Roman,serif" font-size="14.00">BossEmployee</text>
</g>
<!-- Ahlam -->
<g id="node4" class="node"><title>Ahlam</title>
<a xlink:href="http://www.uesp.net/wiki/Skyrim:Ahlam" xlink:title="&lt;TABLE&gt;">
<image xlink:href="120px-SR-npc-Ahlam.jpg" width="91px" height="91px" preserveAspectRatio="xMinYMin meet" x="246" y="-119"/>
<text text-anchor="start" x="269.5" y="-11.7333" font-family="Times Roman,serif" font-size="14.00">Ahlam</text>
</a>
</g>
<!-- DanicaPureSpring&#45;&gt;Ahlam -->
<g id="edge4" class="edge"><title>DanicaPureSpring&#45;&gt;Ahlam</title>
<a xlink:title="Danica Pure&#45;Spring &#45;&gt; Ahlam (BossEmployee, Friend)">
<path fill="none" stroke="olive" d="M210.905,-182.33C213.313,-169.919 216.843,-157.272 222,-146 223.88,-141.892 226.023,-137.825 228.364,-133.83"/>
<polygon fill="olive" stroke="olive" points="231.425,-135.536 233.778,-125.206 225.497,-131.815 231.425,-135.536"/>
</a>
<text text-anchor="middle" x="271.5" y="-151.4" font-family="Times Roman,serif" font-size="14.00">BossEmployee</text>
</g>
<!-- Arcadia -->
<g id="node6" class="node"><title>Arcadia</title>
<a xlink:href="http://www.uesp.net/wiki/Skyrim:Arcadia" xlink:title="&lt;TABLE&gt;">
<image xlink:href="120px-SR-npc-Arcadia.jpg" width="91px" height="91px" preserveAspectRatio="xMinYMin meet" x="164" y="-483"/>
<text text-anchor="start" x="183.5" y="-375.733" font-family="Times Roman,serif" font-size="14.00">Arcadia</text>
</a>
</g>
<!-- Arcadia&#45;&gt;DanicaPureSpring -->
<g id="edge6" class="edge"><title>Arcadia&#45;&gt;DanicaPureSpring</title>
<a xlink:title="Arcadia &#45;&gt; Danica Pure&#45;Spring (Confidant)">
<path fill="none" stroke="lime" d="M207.951,-364.345C207.713,-349.937 207.459,-334.52 207.215,-319.734"/>
<polygon fill="lime" stroke="lime" points="210.713,-319.56 207.049,-309.619 203.714,-319.675 210.713,-319.56"/>
</a>
</g>
<!-- Gorm -->
<g id="node8" class="node"><title>Gorm</title>
<a xlink:href="http://www.uesp.net/wiki/Skyrim:Gorm" xlink:title="&lt;TABLE&gt;">
<image xlink:href="120px-SR-npc-Gorm.jpg" width="91px" height="91px" preserveAspectRatio="xMinYMin meet" x="301" y="-847"/>
<text text-anchor="start" x="327" y="-739.733" font-family="Times Roman,serif" font-size="14.00">Gorm</text>
</a>
</g>
<!-- IdgrodRavencrone -->
<g id="node9" class="node"><title>IdgrodRavencrone</title>
<a xlink:href="http://www.uesp.net/wiki/Skyrim:Idgrod Ravencrone" xlink:title="&lt;TABLE&gt;">
<image xlink:href="120px-SR-npc-Idgrod_Ravencrone.jpg" width="120px" height="91px" preserveAspectRatio="xMinYMin meet" x="379.5" y="-665"/>
<text text-anchor="start" x="374.5" y="-557.733" font-family="Times Roman,serif" font-size="14.00">Idgrod Ravencrone</text>
</a>
</g>
<!-- Gorm&#45;&gt;IdgrodRavencrone -->
<g id="edge8" class="edge"><title>Gorm&#45;&gt;IdgrodRavencrone</title>
<a xlink:title="Gorm &#45;&gt; Idgrod Ravencrone (Friend)">
<path fill="none" stroke="olive" d="M378.527,-728.345C386.031,-713.66 394.071,-697.926 401.758,-682.882"/>
<polygon fill="olive" stroke="olive" points="405.058,-684.116 406.491,-673.619 398.824,-680.931 405.058,-684.116"/>
</a>
</g>
<!-- IdgrodTheYounger -->
<g id="node11" class="node"><title>IdgrodTheYounger</title>
<a xlink:href="http://www.uesp.net/wiki/Skyrim:Idgrod the Younger" xlink:title="&lt;TABLE&gt;">
<image xlink:href="120px-SR-npc-Idgrod_the_Younger.jpg" width="120px" height="91px" preserveAspectRatio="xMinYMin meet" x="307" y="-483"/>
<text text-anchor="start" x="300.5" y="-375.733" font-family="Times Roman,serif" font-size="14.00">Idgrod the Younger</text>
</a>
</g>
<!-- IdgrodRavencrone&#45;&gt;IdgrodTheYounger -->
<g id="edge10" class="edge"><title>IdgrodRavencrone&#45;&gt;IdgrodTheYounger</title>
<a xlink:title="Idgrod Ravencrone &#45;&gt; Idgrod the Younger (ParentChild, Ally)">
<path fill="none" stroke="green" d="M403.042,-546.184C400.147,-540.118 397.414,-533.995 395,-528 391.588,-519.525 388.43,-510.488 385.559,-501.442"/>
<polygon fill="green" stroke="green" points="388.834,-500.185 382.557,-491.65 382.141,-502.236 388.834,-500.185"/>
</a>
<text text-anchor="middle" x="435.5" y="-515.4" font-family="Times Roman,serif" font-size="14.00">ParentChild</text>
</g>
<!-- Joric -->
<g id="node13" class="node"><title>Joric</title>
<a xlink:href="http://www.uesp.net/wiki/Skyrim:Joric" xlink:title="&lt;TABLE&gt;">
<image xlink:href="120px-SR-npc-Joric.jpg" width="91px" height="91px" preserveAspectRatio="xMinYMin meet" x="447" y="-301"/>
<text text-anchor="start" x="477.5" y="-193.733" font-family="Times Roman,serif" font-size="14.00">Joric</text>
</a>
</g>
<!-- IdgrodRavencrone&#45;&gt;Joric -->
<g id="edge12" class="edge"><title>IdgrodRavencrone&#45;&gt;Joric</title>
<a xlink:title="Idgrod Ravencrone &#45;&gt; Joric (ParentChild, Ally)">
<path fill="none" stroke="green" d="M470.397,-546.34C472.588,-540.241 474.513,-534.068 476,-528 492.953,-458.807 495.817,-377.33 495.124,-319.794"/>
<polygon fill="green" stroke="green" points="498.622,-319.64 494.963,-309.698 491.623,-319.752 498.622,-319.64"/>
</a>
<text text-anchor="middle" x="534.5" y="-424.4" font-family="Times Roman,serif" font-size="14.00">ParentChild</text>
</g>
<!-- IdgrodTheYounger&#45;&gt;DanicaPureSpring -->
<g id="edge22" class="edge"><title>IdgrodTheYounger&#45;&gt;DanicaPureSpring</title>
<a xlink:title="Idgrod the Younger &#45;&gt; Danica Pure&#45;Spring (FavorTarget, Acquaintance)">
<path fill="none" stroke="orange" d="M310.69,-364.345C297.209,-349.105 282.729,-332.737 268.968,-317.182"/>
<polygon fill="orange" stroke="orange" points="271.525,-314.79 262.278,-309.619 266.282,-319.428 271.525,-314.79"/>
</a>
<text text-anchor="middle" x="332" y="-333.4" font-family="Times Roman,serif" font-size="14.00">FavorTarget</text>
</g>
<!-- IdgrodTheYounger&#45;&gt;Joric -->
<g id="edge24" class="edge"><title>IdgrodTheYounger&#45;&gt;Joric</title>
<a xlink:title="Idgrod the Younger &#45;&gt; Joric (Siblings, Ally)">
<path fill="none" stroke="green" d="M400.183,-364.485C407.301,-352.124 415.078,-339.456 423,-328 425.381,-324.557 427.876,-321.085 430.448,-317.617"/>
<polygon fill="green" stroke="green" points="433.315,-319.629 436.568,-309.546 427.737,-315.4 433.315,-319.629"/>
</a>
<text text-anchor="middle" x="449.5" y="-333.4" font-family="Times Roman,serif" font-size="14.00">Siblings</text>
</g>
<!-- Aslfur -->
<g id="node15" class="node"><title>Aslfur</title>
<a xlink:href="http://www.uesp.net/wiki/Skyrim:Aslfur" xlink:title="&lt;TABLE&gt;">
<image xlink:href="120px-SR-npc-Aslfur.jpg" width="91px" height="91px" preserveAspectRatio="xMinYMin meet" x="358" y="-1013"/>
<text text-anchor="start" x="383.5" y="-905.733" font-family="Times Roman,serif" font-size="14.00">Aslfur</text>
</a>
</g>
<!-- Aslfur&#45;&gt;Gorm -->
<g id="edge14" class="edge"><title>Aslfur&#45;&gt;Gorm</title>
<a xlink:title="Aslfur &#45;&gt; Gorm (Rival)">
<path fill="none" stroke="orangered" d="M381.125,-894.295C377.852,-884.763 374.456,-874.872 371.122,-865.163"/>
<polygon fill="orangered" stroke="orangered" points="374.374,-863.856 367.816,-855.535 367.754,-866.129 374.374,-863.856"/>
</a>
</g>
<!-- Aslfur&#45;&gt;IdgrodRavencrone -->
<g id="edge16" class="edge"><title>Aslfur&#45;&gt;IdgrodRavencrone</title>
<a xlink:title="Aslfur &#45;&gt; Idgrod Ravencrone (Spouse, Ally)">
<path fill="none" stroke="green" d="M409.603,-894.171C415.746,-834.785 424.899,-746.313 431.356,-683.891"/>
<polygon fill="green" stroke="green" points="434.861,-684.025 432.409,-673.718 427.898,-683.305 434.861,-684.025"/>
</a>
<text text-anchor="middle" x="451" y="-788.4" font-family="Times Roman,serif" font-size="14.00">Spouse</text>
</g>
<!-- Aslfur&#45;&gt;IdgrodTheYounger -->
<g id="edge18" class="edge"><title>Aslfur&#45;&gt;IdgrodTheYounger</title>
<a xlink:title="Aslfur &#45;&gt; Idgrod the Younger (ParentChild, Ally)">
<path fill="none" stroke="green" d="M345.799,-926.424C320.68,-909.207 293.802,-885.377 280,-856 225.112,-739.178 281.686,-588.475 325.759,-500.603"/>
<polygon fill="green" stroke="green" points="328.968,-502.014 330.386,-491.514 322.73,-498.838 328.968,-502.014"/>
</a>
<text text-anchor="middle" x="301.5" y="-697.4" font-family="Times Roman,serif" font-size="14.00">ParentChild</text>
</g>
<!-- Aslfur&#45;&gt;Joric -->
<g id="edge20" class="edge"><title>Aslfur&#45;&gt;Joric</title>
<a xlink:title="Aslfur &#45;&gt; Joric (ParentChild, Ally)">
<path fill="none" stroke="green" d="M460.037,-946.566C511.521,-933.343 585.773,-906.574 630,-856 649.532,-833.664 649,-821.671 649,-792 649,-792 649,-792 649,-428 649,-368.608 600.472,-319 557.375,-286.655"/>
<polygon fill="green" stroke="green" points="559.262,-283.699 549.125,-280.618 555.128,-289.348 559.262,-283.699"/>
</a>
<text text-anchor="middle" x="689.5" y="-606.4" font-family="Times Roman,serif" font-size="14.00">ParentChild</text>
</g>
<!-- Nazeem -->
<g id="node22" class="node"><title>Nazeem</title>
<a xlink:href="http://www.uesp.net/wiki/Skyrim:Nazeem" xlink:title="&lt;TABLE&gt;">
<image xlink:href="120px-SR-npc-Nazeem.jpg" width="91px" height="91px" preserveAspectRatio="xMinYMin meet" x="315" y="-301"/>
<text text-anchor="start" x="332" y="-193.733" font-family="Times Roman,serif" font-size="14.00">Nazeem</text>
</a>
</g>
<!-- Nazeem&#45;&gt;Ahlam -->
<g id="edge26" class="edge"><title>Nazeem&#45;&gt;Ahlam</title>
<a xlink:title="Nazeem &#45;&gt; Ahlam (Spouse, Ally)">
<path fill="none" stroke="green" d="M338.317,-182.323C334.025,-170.217 329.463,-157.684 325,-146 323.908,-143.141 322.781,-140.232 321.63,-137.298"/>
<polygon fill="green" stroke="green" points="324.833,-135.879 317.892,-127.874 318.326,-138.46 324.833,-135.879"/>
</a>
<text text-anchor="middle" x="356" y="-151.4" font-family="Times Roman,serif" font-size="14.00">Spouse</text>
</g>
<!-- ArgiFarseer -->
<g id="node24" class="node"><title>ArgiFarseer</title>
<a xlink:href="http://www.uesp.net/wiki/Skyrim:Argi Farseer" xlink:title="&lt;TABLE&gt;">
<image xlink:href="dummy.jpg" width="91px" height="91px" preserveAspectRatio="xMinYMin meet" x="519" y="-847"/>
<text text-anchor="start" x="523" y="-739.733" font-family="Times Roman,serif" font-size="14.00">Argi Farseer</text>
</a>
</g>
<!-- ArgiFarseer&#45;&gt;IdgrodRavencrone -->
<g id="edge28" class="edge"><title>ArgiFarseer&#45;&gt;IdgrodRavencrone</title>
<a xlink:title="Argi Farseer &#45;&gt; Idgrod Ravencrone (Siblings, Ally)">
<path fill="none" stroke="green" d="M520.281,-728.345C510.004,-713.382 498.981,-697.332 488.472,-682.031"/>
<polygon fill="green" stroke="green" points="491.241,-679.88 482.694,-673.619 485.471,-683.843 491.241,-679.88"/>
</a>
<text text-anchor="middle" x="531.5" y="-697.4" font-family="Times Roman,serif" font-size="14.00">Siblings</text>
</g>
<!-- Benor -->
<g id="node26" class="node"><title>Benor</title>
<a xlink:href="http://www.uesp.net/wiki/Skyrim:Benor" xlink:title="&lt;TABLE&gt;">
<image xlink:href="120px-SR-npc-Benor.jpg" width="91px" height="91px" preserveAspectRatio="xMinYMin meet" x="191" y="-1013"/>
<text text-anchor="start" x="215.5" y="-905.733" font-family="Times Roman,serif" font-size="14.00">Benor</text>
</a>
</g>
<!-- Benor&#45;&gt;Gorm -->
<g id="edge30" class="edge"><title>Benor&#45;&gt;Gorm</title>
<a xlink:title="Benor &#45;&gt; Gorm (Friend)">
<path fill="none" stroke="olive" d="M278.214,-894.295C284.794,-884.366 291.631,-874.047 298.322,-863.95"/>
<polygon fill="olive" stroke="olive" points="301.292,-865.804 303.899,-855.535 295.457,-861.937 301.292,-865.804"/>
</a>
</g>
</g>
</svg>
