<?xml version="1.0" encoding="UTF-8" standalone="no"?>
<!DOCTYPE svg PUBLIC "-//W3C//DTD SVG 1.1//EN"
 "http://www.w3.org/Graphics/SVG/1.1/DTD/svg11.dtd">
<!-- Generated by graphviz version 2.26.3 (20100126.1600)
 -->
<!-- Title: Relationships_component_3 Pages: 1 -->
<svg width="1210pt" height="1576pt"
 viewBox="0.00 0.00 1210.00 1576.00" xmlns="http://www.w3.org/2000/svg" xmlns:xlink="http://www.w3.org/1999/xlink">
<g id="graph1" class="graph" transform="scale(1 1) rotate(0) translate(4 1572)">
<title>Relationships_component_3</title>
<polygon fill="white" stroke="white" points="-4,5 -4,-1572 1207,-1572 1207,5 -4,5"/>
<!-- Thadgeir -->
<g id="node1" class="node"><title>Thadgeir</title>
<a xlink:href="http://www.uesp.net/wiki/Skyrim:Thadgeir" xlink:title="&lt;TABLE&gt;">
<image xlink:href="120px-SR-npc-Thadgeir.jpg" width="91px" height="91px" preserveAspectRatio="xMinYMin meet" x="113" y="-1559"/>
<text text-anchor="start" x="128" y="-1451.73" font-family="Times Roman,serif" font-size="14.00">Thadgeir</text>
</a>
</g>
<!-- Runil -->
<g id="node2" class="node"><title>Runil</title>
<a xlink:href="http://www.uesp.net/wiki/Skyrim:Runil" xlink:title="&lt;TABLE&gt;">
<image xlink:href="120px-SR-npc-Runil.jpg" width="91px" height="91px" preserveAspectRatio="xMinYMin meet" x="1016" y="-847"/>
<text text-anchor="start" x="1044" y="-739.733" font-family="Times Roman,serif" font-size="14.00">Runil</text>
</a>
</g>
<!-- Thadgeir&#45;&gt;Runil -->
<g id="edge2" class="edge"><title>Thadgeir&#45;&gt;Runil</title>
<a xlink:title="Thadgeir &#45;&gt; Runil (FavorTarget, Acquaintance)">
<path fill="none" stroke="orange" d="M215.043,-1494.38C336.217,-1473.61 611.249,-1424.66 648,-1402 823.834,-1293.59 841.645,-1221.24 937,-1038 964.394,-985.358 941.105,-958.71 975,-910 982.616,-899.056 989.998,-901.836 999,-892 1006.73,-883.55 1014.05,-874.004 1020.77,-864.248"/>
<polygon fill="orange" stroke="orange" points="1023.87,-865.903 1026.51,-855.642 1018.05,-862.017 1023.87,-865.903"/>
</a>
<text text-anchor="middle" x="950" y="-1152.4" font-family="Times Roman,serif" font-size="14.00">FavorTarget</text>
</g>
<!-- Siddgeir -->
<g id="node4" class="node"><title>Siddgeir</title>
<a xlink:href="http://www.uesp.net/wiki/Skyrim:Siddgeir" xlink:title="&lt;TABLE&gt;">
<image xlink:href="120px-SR-npc-Siddgeir.jpg" width="91px" height="91px" preserveAspectRatio="xMinYMin meet" x="303" y="-483"/>
<text text-anchor="start" x="320.5" y="-375.733" font-family="Times Roman,serif" font-size="14.00">Siddgeir</text>
</a>
</g>
<!-- Thadgeir&#45;&gt;Siddgeir -->
<g id="edge4" class="edge"><title>Thadgeir&#45;&gt;Siddgeir</title>
<a xlink:title="Thadgeir &#45;&gt; Siddgeir (AuntUncle, Friend)">
<path fill="none" stroke="olive" d="M100.958,-1474.01C55.7012,-1445.66 0,-1398.48 0,-1338 0,-1338 0,-1338 0,-701 0,-559.474 180.373,-480.229 281.404,-446.943"/>
<polygon fill="olive" stroke="olive" points="282.486,-450.271 290.925,-443.864 280.333,-443.61 282.486,-450.271"/>
</a>
<text text-anchor="middle" x="36.5" y="-970.4" font-family="Times Roman,serif" font-size="14.00">AuntUncle</text>
</g>
<!-- Helvard -->
<g id="node6" class="node"><title>Helvard</title>
<a xlink:href="http://www.uesp.net/wiki/Skyrim:Helvard" xlink:title="&lt;TABLE&gt;">
<image xlink:href="120px-SR-npc-Helvard.jpg" width="91px" height="91px" preserveAspectRatio="xMinYMin meet" x="145" y="-665"/>
<text text-anchor="start" x="163.5" y="-557.733" font-family="Times Roman,serif" font-size="14.00">Helvard</text>
</a>
</g>
<!-- Thadgeir&#45;&gt;Helvard -->
<g id="edge6" class="edge"><title>Thadgeir&#45;&gt;Helvard</title>
<a xlink:title="Thadgeir &#45;&gt; Helvard (Ally)">
<path fill="none" stroke="green" d="M125.173,-1440.29C112.502,-1410.1 101,-1373.04 101,-1338 101,-1338 101,-1338 101,-1065 101,-915.093 70.1484,-871.04 115,-728 119.872,-712.463 127.34,-696.967 135.709,-682.557"/>
<polygon fill="green" stroke="green" points="138.861,-684.107 141.021,-673.734 132.864,-680.496 138.861,-684.107"/>
</a>
</g>
<!-- Nenya -->
<g id="node8" class="node"><title>Nenya</title>
<a xlink:href="http://www.uesp.net/wiki/Skyrim:Nenya" xlink:title="&lt;TABLE&gt;">
<image xlink:href="120px-SR-npc-Nenya.jpg" width="91px" height="91px" preserveAspectRatio="xMinYMin meet" x="136" y="-847"/>
<text text-anchor="start" x="159" y="-739.733" font-family="Times Roman,serif" font-size="14.00">Nenya</text>
</a>
</g>
<!-- Thadgeir&#45;&gt;Nenya -->
<g id="edge8" class="edge"><title>Thadgeir&#45;&gt;Nenya</title>
<a xlink:title="Thadgeir &#45;&gt; Nenya (Ally)">
<path fill="none" stroke="green" d="M147.278,-1440.34C142.969,-1409.53 139,-1371.94 139,-1338 139,-1338 139,-1338 139,-974 139,-937.706 147.028,-898.36 156.064,-865.568"/>
<polygon fill="green" stroke="green" points="159.526,-866.188 158.893,-855.612 152.793,-864.274 159.526,-866.188"/>
</a>
</g>
<!-- Tekla -->
<g id="node10" class="node"><title>Tekla</title>
<a xlink:href="http://www.uesp.net/wiki/Skyrim:Tekla" xlink:title="&lt;TABLE&gt;">
<image xlink:href="120px-SR-npc-Tekla.jpg" width="91px" height="91px" preserveAspectRatio="xMinYMin meet" x="537" y="-1393"/>
<text text-anchor="start" x="564.5" y="-1285.73" font-family="Times Roman,serif" font-size="14.00">Tekla</text>
</a>
</g>
<!-- Thadgeir&#45;&gt;Tekla -->
<g id="edge10" class="edge"><title>Thadgeir&#45;&gt;Tekla</title>
<a xlink:title="Thadgeir &#45;&gt; Tekla (Confidant)">
<path fill="none" stroke="lime" d="M215.183,-1481.61C293.132,-1451.09 432.482,-1396.54 515.162,-1364.17"/>
<polygon fill="lime" stroke="lime" points="516.673,-1367.33 524.709,-1360.43 514.121,-1360.82 516.673,-1367.33"/>
</a>
</g>
<!-- Kust -->
<g id="node12" class="node"><title>Kust</title>
<a xlink:href="http://www.uesp.net/wiki/Skyrim:Kust" xlink:title="&lt;TABLE&gt;">
<image xlink:href="120px-SR-npc-Kust.jpg" width="91px" height="91px" preserveAspectRatio="xMinYMin meet" x="931" y="-665"/>
<text text-anchor="start" x="961" y="-557.733" font-family="Times Roman,serif" font-size="14.00">Kust</text>
</a>
</g>
<!-- Runil&#45;&gt;Kust -->
<g id="edge12" class="edge"><title>Runil&#45;&gt;Kust</title>
<a xlink:title="Runil &#45;&gt; Kust (MasterAssistant, Ally)">
<path fill="none" stroke="green" d="M1031.27,-728.345C1024.41,-713.66 1017.06,-697.926 1010.04,-682.882"/>
<polygon fill="green" stroke="green" points="1013.11,-681.198 1005.71,-673.619 1006.77,-684.16 1013.11,-681.198"/>
</a>
<text text-anchor="middle" x="1076.5" y="-697.4" font-family="Times Roman,serif" font-size="14.00">MasterAssistant</text>
</g>
<!-- Bolund -->
<g id="node20" class="node"><title>Bolund</title>
<a xlink:href="http://www.uesp.net/wiki/Skyrim:Bolund" xlink:title="&lt;TABLE&gt;">
<image xlink:href="120px-SR-npc-Bolund.jpg" width="91px" height="91px" preserveAspectRatio="xMinYMin meet" x="602" y="-119"/>
<text text-anchor="start" x="623" y="-11.7333" font-family="Times Roman,serif" font-size="14.00">Bolund</text>
</a>
</g>
<!-- Siddgeir&#45;&gt;Bolund -->
<g id="edge24" class="edge"><title>Siddgeir&#45;&gt;Bolund</title>
<a xlink:title="Siddgeir &#45;&gt; Bolund (BossEmployee, Ally)">
<path fill="none" stroke="green" d="M334.257,-364.374C326.448,-310.788 324.598,-234.663 362,-182 412.141,-111.4 512.646,-82.9092 579.886,-71.4991"/>
<polygon fill="green" stroke="green" points="580.652,-74.921 589.967,-69.8736 579.537,-68.0102 580.652,-74.921"/>
</a>
<text text-anchor="middle" x="411.5" y="-242.4" font-family="Times Roman,serif" font-size="14.00">BossEmployee</text>
</g>
<!-- Solaf -->
<g id="node22" class="node"><title>Solaf</title>
<a xlink:href="http://www.uesp.net/wiki/Skyrim:Solaf" xlink:title="&lt;TABLE&gt;">
<image xlink:href="120px-SR-npc-Solaf.jpg" width="91px" height="91px" preserveAspectRatio="xMinYMin meet" x="602" y="-301"/>
<text text-anchor="start" x="630.5" y="-193.733" font-family="Times Roman,serif" font-size="14.00">Solaf</text>
</a>
</g>
<!-- Siddgeir&#45;&gt;Solaf -->
<g id="edge26" class="edge"><title>Siddgeir&#45;&gt;Solaf</title>
<a xlink:title="Siddgeir &#45;&gt; Solaf (BossEmployee, Ally)">
<path fill="none" stroke="green" d="M405.207,-392.089C435.894,-372.921 474.412,-349.015 509,-328 532.442,-313.757 558.258,-298.345 581.157,-284.768"/>
<polygon fill="green" stroke="green" points="582.959,-287.768 589.779,-279.66 579.391,-281.746 582.959,-287.768"/>
</a>
<text text-anchor="middle" x="558.5" y="-333.4" font-family="Times Roman,serif" font-size="14.00">BossEmployee</text>
</g>
<!-- Helvard&#45;&gt;Siddgeir -->
<g id="edge36" class="edge"><title>Helvard&#45;&gt;Siddgeir</title>
<a xlink:title="Helvard &#45;&gt; Siddgeir (JarlHousecarl, Ally)">
<path fill="none" stroke="green" d="M185.05,-546.399C186.557,-533.582 190.08,-520.758 197,-510 216.232,-480.101 250.281,-460.269 281.184,-447.61"/>
<polygon fill="green" stroke="green" points="282.614,-450.809 290.654,-443.909 280.066,-444.29 282.614,-450.809"/>
</a>
<text text-anchor="middle" x="242.5" y="-515.4" font-family="Times Roman,serif" font-size="14.00">JarlHousecarl</text>
</g>
<!-- Nenya&#45;&gt;Siddgeir -->
<g id="edge56" class="edge"><title>Nenya&#45;&gt;Siddgeir</title>
<a xlink:title="Nenya &#45;&gt; Siddgeir (Acquaintance)">
<path fill="none" stroke="orange" d="M224.765,-728.494C235.711,-711.231 246.911,-692.252 256,-674 283.916,-617.941 308.359,-551.227 325.02,-501.426"/>
<polygon fill="orange" stroke="orange" points="328.42,-502.293 328.247,-491.699 321.776,-500.088 328.42,-502.293"/>
</a>
</g>
<!-- Nenya&#45;&gt;Helvard -->
<g id="edge58" class="edge"><title>Nenya&#45;&gt;Helvard</title>
<a xlink:title="Nenya &#45;&gt; Helvard (Ally)">
<path fill="none" stroke="green" d="M184.148,-728.345C184.86,-713.937 185.623,-698.52 186.354,-683.734"/>
<polygon fill="green" stroke="green" points="189.856,-683.78 186.854,-673.619 182.864,-683.434 189.856,-683.78"/>
</a>
</g>
<!-- Tekla&#45;&gt;Siddgeir -->
<g id="edge76" class="edge"><title>Tekla&#45;&gt;Siddgeir</title>
<a xlink:title="Tekla &#45;&gt; Siddgeir (Rival)">
<path fill="none" stroke="orangered" d="M585.245,-1274.32C588.292,-1183.96 588.259,-1013.94 555,-874 536.634,-796.726 447.978,-617.31 413,-546 405.75,-531.219 397.572,-515.645 389.526,-500.832"/>
<polygon fill="orangered" stroke="orangered" points="392.412,-498.814 384.542,-491.721 386.27,-502.174 392.412,-498.814"/>
</a>
</g>
<!-- ValgaVinicia -->
<g id="node14" class="node"><title>ValgaVinicia</title>
<a xlink:href="http://www.uesp.net/wiki/Skyrim:Valga Vinicia" xlink:title="&lt;TABLE&gt;">
<image xlink:href="120px-SR-npc-Valga_Vinicia.jpg" width="91px" height="91px" preserveAspectRatio="xMinYMin meet" x="410" y="-1211"/>
<text text-anchor="start" x="411.5" y="-1103.73" font-family="Times Roman,serif" font-size="14.00">Valga Vinicia</text>
</a>
</g>
<!-- Tekla&#45;&gt;ValgaVinicia -->
<g id="edge74" class="edge"><title>Tekla&#45;&gt;ValgaVinicia</title>
<a xlink:title="Tekla &#45;&gt; Valga Vinicia (Confidant)">
<path fill="none" stroke="lime" d="M537.582,-1274.35C527.14,-1259.38 515.941,-1243.33 505.263,-1228.03"/>
<polygon fill="lime" stroke="lime" points="507.986,-1225.82 499.393,-1219.62 502.246,-1229.82 507.986,-1225.82"/>
</a>
</g>
<!-- Narri -->
<g id="node16" class="node"><title>Narri</title>
<a xlink:href="http://www.uesp.net/wiki/Skyrim:Narri" xlink:title="&lt;TABLE&gt;">
<image xlink:href="120px-SR-npc-Narri.jpg" width="91px" height="91px" preserveAspectRatio="xMinYMin meet" x="496" y="-665"/>
<text text-anchor="start" x="524" y="-557.733" font-family="Times Roman,serif" font-size="14.00">Narri</text>
</a>
</g>
<!-- Tekla&#45;&gt;Narri -->
<g id="edge78" class="edge"><title>Tekla&#45;&gt;Narri</title>
<a xlink:title="Tekla &#45;&gt; Narri (Siblings, Ally)">
<path fill="none" stroke="green" d="M606.347,-1274.13C617.381,-1239.67 628,-1196.09 628,-1156 628,-1156 628,-1156 628,-883 628,-813.29 626.061,-794.127 604,-728 598.948,-712.858 592.068,-697.341 584.705,-682.741"/>
<polygon fill="green" stroke="green" points="587.773,-681.055 580.07,-673.781 581.556,-684.271 587.773,-681.055"/>
</a>
<text text-anchor="middle" x="654.5" y="-970.4" font-family="Times Roman,serif" font-size="14.00">Siblings</text>
</g>
<!-- Tekla&#45;&gt;Bolund -->
<g id="edge80" class="edge"><title>Tekla&#45;&gt;Bolund</title>
<a xlink:title="Tekla &#45;&gt; Bolund (Rival)">
<path fill="none" stroke="orangered" d="M639.05,-1333.37C766.967,-1321.88 1071.27,-1287.92 1145,-1220 1166.82,-1199.9 1164,-1185.67 1164,-1156 1164,-1156 1164,-1156 1164,-246 1164,-151.774 854.59,-94.4147 714.495,-73.2725"/>
<polygon fill="orangered" stroke="orangered" points="714.71,-69.7659 704.303,-71.7533 713.678,-76.6894 714.71,-69.7659"/>
</a>
</g>
<!-- Tekla&#45;&gt;Solaf -->
<g id="edge82" class="edge"><title>Tekla&#45;&gt;Solaf</title>
<a xlink:title="Tekla &#45;&gt; Solaf (Courting, Confidant)">
<path fill="none" stroke="lime" d="M619.666,-1274.27C622.677,-1268.19 625.511,-1262.04 628,-1256 646.242,-1211.76 664.022,-1203.13 685,-1038 718.363,-775.377 680.155,-460.379 659.08,-319.902"/>
<polygon fill="lime" stroke="lime" points="662.491,-319.05 657.531,-309.687 655.57,-320.099 662.491,-319.05"/>
</a>
<text text-anchor="middle" x="728.5" y="-788.4" font-family="Times Roman,serif" font-size="14.00">Courting</text>
</g>
<!-- Kust&#45;&gt;Bolund -->
<g id="edge72" class="edge"><title>Kust&#45;&gt;Bolund</title>
<a xlink:title="Kust &#45;&gt; Bolund (Rival)">
<path fill="none" stroke="orangered" d="M940.781,-546.404C890.329,-456.137 793.654,-286.234 704,-146 701.906,-142.725 699.742,-139.394 697.535,-136.043"/>
<polygon fill="orangered" stroke="orangered" points="700.432,-134.079 691.98,-127.691 694.604,-137.956 700.432,-134.079"/>
</a>
</g>
<!-- ValgaVinicia&#45;&gt;Siddgeir -->
<g id="edge14" class="edge"><title>ValgaVinicia&#45;&gt;Siddgeir</title>
<a xlink:title="Valga Vinicia &#45;&gt; Siddgeir (Rival)">
<path fill="none" stroke="orangered" d="M443.411,-1092.08C442.509,-1085.98 441.685,-1079.88 441,-1074 421.324,-905.029 443.967,-859.961 417,-692 406.506,-626.636 386.908,-553.967 371.273,-501.445"/>
<polygon fill="orangered" stroke="orangered" points="374.529,-500.12 368.302,-491.548 367.825,-502.133 374.529,-500.12"/>
</a>
</g>
<!-- ValgaVinicia&#45;&gt;Narri -->
<g id="edge16" class="edge"><title>ValgaVinicia&#45;&gt;Narri</title>
<a xlink:title="Valga Vinicia &#45;&gt; Narri (BossEmployee, Confidant)">
<path fill="none" stroke="lime" d="M448.092,-1092.25C443.337,-1034.78 439.835,-948.164 452,-874 462.908,-807.499 488.305,-735.185 509.189,-683.084"/>
<polygon fill="lime" stroke="lime" points="512.521,-684.179 513.031,-673.597 506.033,-681.552 512.521,-684.179"/>
</a>
<text text-anchor="middle" x="501.5" y="-879.4" font-family="Times Roman,serif" font-size="14.00">BossEmployee</text>
</g>
<!-- Dengeir -->
<g id="node18" class="node"><title>Dengeir</title>
<a xlink:href="http://www.uesp.net/wiki/Skyrim:Dengeir of Stuhn" xlink:title="&lt;TABLE&gt;">
<image xlink:href="dummy.jpg" width="120px" height="91px" preserveAspectRatio="xMinYMin meet" x="244" y="-1029"/>
<text text-anchor="start" x="244.5" y="-921.733" font-family="Times Roman,serif" font-size="14.00">Dengeir of Stuhn</text>
</a>
</g>
<!-- ValgaVinicia&#45;&gt;Dengeir -->
<g id="edge18" class="edge"><title>ValgaVinicia&#45;&gt;Dengeir</title>
<a xlink:title="Valga Vinicia &#45;&gt; Dengeir of Stuhn (Rival)">
<path fill="none" stroke="orangered" d="M408.018,-1092.37C398.604,-1080.14 388.639,-1067.55 379,-1056 375.991,-1052.39 372.876,-1048.73 369.703,-1045.06"/>
<polygon fill="orangered" stroke="orangered" points="372.333,-1042.75 363.122,-1037.51 367.057,-1047.35 372.333,-1042.75"/>
</a>
</g>
<!-- ValgaVinicia&#45;&gt;Bolund -->
<g id="edge20" class="edge"><title>ValgaVinicia&#45;&gt;Bolund</title>
<a xlink:title="Valga Vinicia &#45;&gt; Bolund (Rival)">
<path fill="none" stroke="orangered" d="M397.697,-1095.07C396.145,-1094 394.578,-1092.98 393,-1092 325.599,-1050.27 285.069,-1087.32 223,-1038 141.874,-973.542 38,-713.616 38,-610 38,-610 38,-610 38,-246 38,-133.904 421.559,-85.1025 579.884,-69.733"/>
<polygon fill="orangered" stroke="orangered" points="580.359,-73.2037 589.98,-68.7686 579.693,-66.2354 580.359,-73.2037"/>
</a>
</g>
<!-- ValgaVinicia&#45;&gt;Solaf -->
<g id="edge22" class="edge"><title>ValgaVinicia&#45;&gt;Solaf</title>
<a xlink:title="Valga Vinicia &#45;&gt; Solaf (Rival)">
<path fill="none" stroke="orangered" d="M480.138,-1092.31C500.619,-1039.2 529.554,-961.302 551,-892 580.573,-796.437 589.848,-772.553 607,-674 628.457,-550.712 638.967,-405.304 643.664,-319.65"/>
<polygon fill="orangered" stroke="orangered" points="647.167,-319.679 644.208,-309.506 640.177,-319.304 647.167,-319.679"/>
</a>
</g>
<!-- Narri&#45;&gt;Siddgeir -->
<g id="edge30" class="edge"><title>Narri&#45;&gt;Siddgeir</title>
<a xlink:title="Narri &#45;&gt; Siddgeir (Rival)">
<path fill="none" stroke="orangered" d="M494.375,-546.407C483.977,-533.795 472.582,-521.05 461,-510 446.588,-496.25 429.785,-482.878 413.611,-471.059"/>
<polygon fill="orangered" stroke="orangered" points="415.388,-468.025 405.227,-465.026 411.299,-473.707 415.388,-468.025"/>
</a>
</g>
<!-- Narri&#45;&gt;Bolund -->
<g id="edge32" class="edge"><title>Narri&#45;&gt;Bolund</title>
<a xlink:title="Narri &#45;&gt; Bolund (Rival)">
<path fill="none" stroke="orangered" d="M512.981,-546.283C491.468,-488.653 468.609,-401.777 489,-328 508.545,-257.284 552.6,-186.454 589.238,-135.988"/>
<polygon fill="orangered" stroke="orangered" points="592.187,-137.886 595.283,-127.753 586.544,-133.744 592.187,-137.886"/>
</a>
</g>
<!-- Narri&#45;&gt;Solaf -->
<g id="edge34" class="edge"><title>Narri&#45;&gt;Solaf</title>
<a xlink:title="Narri &#45;&gt; Solaf (Rival)">
<path fill="none" stroke="orangered" d="M559.585,-546.18C577.996,-482.956 606.169,-386.21 625.527,-319.737"/>
<polygon fill="orangered" stroke="orangered" points="629.001,-320.327 628.436,-309.747 622.28,-318.37 629.001,-320.327"/>
</a>
</g>
<!-- Dengeir&#45;&gt;Thadgeir -->
<g id="edge44" class="edge"><title>Dengeir&#45;&gt;Thadgeir</title>
<a xlink:title="Dengeir of Stuhn &#45;&gt; Thadgeir (Siblings, Confidant)">
<path fill="none" stroke="lime" d="M271.177,-1037.88C268.573,-1043.93 266.131,-1050.03 264,-1056 218.177,-1184.28 186.385,-1340.32 170.253,-1430.3"/>
<polygon fill="lime" stroke="lime" points="166.761,-1429.94 168.457,-1440.4 173.653,-1431.17 166.761,-1429.94"/>
</a>
<text text-anchor="middle" x="237.5" y="-1243.4" font-family="Times Roman,serif" font-size="14.00">Siblings</text>
</g>
<!-- Dengeir&#45;&gt;Runil -->
<g id="edge46" class="edge"><title>Dengeir&#45;&gt;Runil</title>
<a xlink:title="Dengeir of Stuhn &#45;&gt; Runil (Confidant)">
<path fill="none" stroke="lime" d="M376.077,-955.487C436.926,-940.64 526.579,-920.593 606,-910 676.378,-900.613 858.187,-916.026 925,-892 950.188,-882.943 974.713,-867.62 995.844,-851.655"/>
<polygon fill="lime" stroke="lime" points="998.007,-854.407 1003.77,-845.517 993.721,-848.872 998.007,-854.407"/>
</a>
</g>
<!-- Dengeir&#45;&gt;Siddgeir -->
<g id="edge48" class="edge"><title>Dengeir&#45;&gt;Siddgeir</title>
<a xlink:title="Dengeir of Stuhn &#45;&gt; Siddgeir (AuntUncle, Friend)">
<path fill="none" stroke="olive" d="M352.219,-910.276C362.396,-893.474 371.664,-874.769 377,-856 392.558,-801.28 406.04,-776.919 377,-728 368.472,-713.634 352.528,-724.366 344,-710 339.916,-703.121 343.939,-700 344,-692 344.486,-627.864 345.636,-554.97 346.578,-502.053"/>
<polygon fill="olive" stroke="olive" points="350.083,-501.805 346.764,-491.744 343.084,-501.679 350.083,-501.805"/>
</a>
<text text-anchor="middle" x="380.5" y="-697.4" font-family="Times Roman,serif" font-size="14.00">AuntUncle</text>
</g>
<!-- Dengeir&#45;&gt;Helvard -->
<g id="edge50" class="edge"><title>Dengeir&#45;&gt;Helvard</title>
<a xlink:title="Dengeir of Stuhn &#45;&gt; Helvard (JarlHousecarl, Ally)">
<path fill="none" stroke="green" d="M293.305,-910.469C283.876,-860.136 268.312,-788.47 247,-728 241.708,-712.985 235.05,-697.362 228.169,-682.585"/>
<polygon fill="green" stroke="green" points="231.312,-681.043 223.865,-673.506 224.986,-684.042 231.312,-681.043"/>
</a>
<text text-anchor="middle" x="327.5" y="-788.4" font-family="Times Roman,serif" font-size="14.00">JarlHousecarl</text>
</g>
<!-- Dengeir&#45;&gt;Nenya -->
<g id="edge52" class="edge"><title>Dengeir&#45;&gt;Nenya</title>
<a xlink:title="Dengeir of Stuhn &#45;&gt; Nenya (JarlSteward, Ally)">
<path fill="none" stroke="green" d="M231.886,-928.043C204.19,-910.219 178.89,-893.642 178,-892 173.622,-883.927 171.18,-874.923 170.062,-865.717"/>
<polygon fill="green" stroke="green" points="173.549,-865.404 169.339,-855.682 166.567,-865.908 173.549,-865.404"/>
</a>
<text text-anchor="middle" x="219" y="-879.4" font-family="Times Roman,serif" font-size="14.00">JarlSteward</text>
</g>
<!-- Dengeir&#45;&gt;Tekla -->
<g id="edge54" class="edge"><title>Dengeir&#45;&gt;Tekla</title>
<a xlink:title="Dengeir of Stuhn &#45;&gt; Tekla (BossEmployee, Rival)">
<path fill="none" stroke="orangered" d="M277.798,-1037.57C259.728,-1092.81 246.038,-1171.37 290,-1220 316.661,-1249.49 431.545,-1222.14 468,-1238 485.474,-1245.6 502.18,-1256.9 517.156,-1269.2"/>
<polygon fill="orangered" stroke="orangered" points="514.935,-1271.9 524.824,-1275.7 519.464,-1266.57 514.935,-1271.9"/>
</a>
<text text-anchor="middle" x="339.5" y="-1152.4" font-family="Times Roman,serif" font-size="14.00">BossEmployee</text>
</g>
<!-- Solaf&#45;&gt;Bolund -->
<g id="edge84" class="edge"><title>Solaf&#45;&gt;Bolund</title>
<a xlink:title="Solaf &#45;&gt; Bolund (Siblings, Ally)">
<path fill="none" stroke="green" d="M647,-182.345C647,-167.937 647,-152.52 647,-137.734"/>
<polygon fill="green" stroke="green" points="650.5,-137.619 647,-127.619 643.5,-137.619 650.5,-137.619"/>
</a>
<text text-anchor="middle" x="673.5" y="-151.4" font-family="Times Roman,serif" font-size="14.00">Siblings</text>
</g>
<!-- Mathies -->
<g id="node26" class="node"><title>Mathies</title>
<a xlink:href="http://www.uesp.net/wiki/Skyrim:Mathies" xlink:title="&lt;TABLE&gt;">
<image xlink:href="120px-SR-npc-Mathies.jpg" width="91px" height="91px" preserveAspectRatio="xMinYMin meet" x="996" y="-1029"/>
<text text-anchor="start" x="1014" y="-921.733" font-family="Times Roman,serif" font-size="14.00">Mathies</text>
</a>
</g>
<!-- Mathies&#45;&gt;Runil -->
<g id="edge28" class="edge"><title>Mathies&#45;&gt;Runil</title>
<a xlink:title="Mathies &#45;&gt; Runil (Confidant)">
<path fill="none" stroke="lime" d="M1048,-910.345C1049.58,-895.937 1051.27,-880.52 1052.9,-865.734"/>
<polygon fill="lime" stroke="lime" points="1056.4,-865.941 1054.01,-855.619 1049.44,-865.177 1056.4,-865.941"/>
</a>
</g>
<!-- Zaria -->
<g id="node32" class="node"><title>Zaria</title>
<a xlink:href="http://www.uesp.net/wiki/Skyrim:Zaria" xlink:title="&lt;TABLE&gt;">
<image xlink:href="120px-SR-npc-Zaria.jpg" width="91px" height="91px" preserveAspectRatio="xMinYMin meet" x="537" y="-1559"/>
<text text-anchor="start" x="564" y="-1451.73" font-family="Times Roman,serif" font-size="14.00">Zaria</text>
</a>
</g>
<!-- Zaria&#45;&gt;Tekla -->
<g id="edge42" class="edge"><title>Zaria&#45;&gt;Tekla</title>
<a xlink:title="Zaria &#45;&gt; Tekla (Friend)">
<path fill="none" stroke="olive" d="M582,-1440.29C582,-1430.96 582,-1421.28 582,-1411.77"/>
<polygon fill="olive" stroke="olive" points="585.5,-1411.53 582,-1401.53 578.5,-1411.53 585.5,-1411.53"/>
</a>
</g>
<!-- Zaria&#45;&gt;Dengeir -->
<g id="edge38" class="edge"><title>Zaria&#45;&gt;Dengeir</title>
<a xlink:title="Zaria &#45;&gt; Dengeir of Stuhn (BossEmployee, Confidant)">
<path fill="none" stroke="lime" d="M528.371,-1440.47C484.625,-1385.48 424.458,-1302.09 389,-1220 365.614,-1165.86 373.326,-1147.72 354,-1092 348.916,-1077.34 342.893,-1061.92 336.818,-1047.23"/>
<polygon fill="lime" stroke="lime" points="339.918,-1045.57 332.829,-1037.7 333.461,-1048.27 339.918,-1045.57"/>
</a>
<text text-anchor="middle" x="454.5" y="-1243.4" font-family="Times Roman,serif" font-size="14.00">BossEmployee</text>
</g>
<!-- Zaria&#45;&gt;Bolund -->
<g id="edge40" class="edge"><title>Zaria&#45;&gt;Bolund</title>
<a xlink:title="Zaria &#45;&gt; Bolund (Confidant)">
<path fill="none" stroke="lime" d="M639.217,-1500.9C792.703,-1491.04 1202,-1453.89 1202,-1338 1202,-1338 1202,-1338 1202,-246 1202,-215.621 1199.82,-203.141 1178,-182 1112.3,-118.332 841.885,-83.4453 714.263,-70.2441"/>
<polygon fill="lime" stroke="lime" points="714.519,-66.7522 704.216,-69.2191 713.809,-73.716 714.519,-66.7522"/>
</a>
</g>
<!-- Lod -->
<g id="node44" class="node"><title>Lod</title>
<a xlink:href="http://www.uesp.net/wiki/Skyrim:Lod" xlink:title="&lt;TABLE&gt;">
<image xlink:href="120px-SR-npc-Lod.jpg" width="91px" height="91px" preserveAspectRatio="xMinYMin meet" x="826" y="-1029"/>
<text text-anchor="start" x="859" y="-921.733" font-family="Times Roman,serif" font-size="14.00">Lod</text>
</a>
</g>
<!-- Lod&#45;&gt;Runil -->
<g id="edge60" class="edge"><title>Lod&#45;&gt;Runil</title>
<a xlink:title="Lod &#45;&gt; Runil (Rival)">
<path fill="none" stroke="orangered" d="M928.144,-920.382C932.728,-916.737 937.376,-913.233 942,-910 956.012,-900.202 962.668,-902.706 976,-892 986.579,-883.504 996.836,-873.551 1006.35,-863.277"/>
<polygon fill="orangered" stroke="orangered" points="1009.03,-865.524 1013.14,-855.755 1003.84,-860.834 1009.03,-865.524"/>
</a>
</g>
<!-- Lod&#45;&gt;Kust -->
<g id="edge64" class="edge"><title>Lod&#45;&gt;Kust</title>
<a xlink:title="Lod &#45;&gt; Kust (Rival)">
<path fill="none" stroke="orangered" d="M927.1,-910.347C938.95,-893.684 949.981,-875.026 957,-856 977.39,-800.732 981.356,-733.851 980.66,-683.784"/>
<polygon fill="orangered" stroke="orangered" points="984.157,-683.611 980.453,-673.685 977.159,-683.754 984.157,-683.611"/>
</a>
</g>
<!-- Lod&#45;&gt;Solaf -->
<g id="edge66" class="edge"><title>Lod&#45;&gt;Solaf</title>
<a xlink:title="Lod &#45;&gt; Solaf (Confidant)">
<path fill="none" stroke="lime" d="M813.891,-911.955C789.264,-878.856 766,-835.957 766,-792 766,-792 766,-792 766,-428 766,-382.041 739.089,-338.635 710.861,-305.747"/>
<polygon fill="lime" stroke="lime" points="713.303,-303.224 704.06,-298.044 708.055,-307.857 713.303,-303.224"/>
</a>
</g>
<!-- GunnarStoneEye -->
<g id="node46" class="node"><title>GunnarStoneEye</title>
<a xlink:href="http://www.uesp.net/wiki/Skyrim:Gunnar Stone-Eye" xlink:title="&lt;TABLE&gt;">
<image xlink:href="120px-SR-npc-Gunnar_Stone-Eye.jpg" width="120px" height="91px" preserveAspectRatio="xMinYMin meet" x="811" y="-847"/>
<text text-anchor="start" x="806.5" y="-739.733" font-family="Times Roman,serif" font-size="14.00">Gunnar Stone&#45;Eye</text>
</a>
</g>
<!-- Lod&#45;&gt;GunnarStoneEye -->
<g id="edge62" class="edge"><title>Lod&#45;&gt;GunnarStoneEye</title>
<a xlink:title="Lod &#45;&gt; Gunnar Stone&#45;Eye (Siblings, Ally)">
<path fill="none" stroke="green" d="M871,-910.345C871,-895.937 871,-880.52 871,-865.734"/>
<polygon fill="green" stroke="green" points="874.5,-865.619 871,-855.619 867.5,-865.619 874.5,-865.619"/>
</a>
<text text-anchor="middle" x="897.5" y="-879.4" font-family="Times Roman,serif" font-size="14.00">Siblings</text>
</g>
<!-- IndaraCaerellia -->
<g id="node50" class="node"><title>IndaraCaerellia</title>
<a xlink:href="http://www.uesp.net/wiki/Skyrim:Indara Caerellia" xlink:title="&lt;TABLE&gt;">
<image xlink:href="dummy.jpg" width="110px" height="91px" preserveAspectRatio="xMinYMin meet" x="1014" y="-1211"/>
<text text-anchor="start" x="1014.5" y="-1103.73" font-family="Times Roman,serif" font-size="14.00">Indara Caerellia</text>
</a>
</g>
<!-- IndaraCaerellia&#45;&gt;Runil -->
<g id="edge68" class="edge"><title>IndaraCaerellia&#45;&gt;Runil</title>
<a xlink:title="Indara Caerellia &#45;&gt; Runil (Confidant)">
<path fill="none" stroke="lime" d="M1103.5,-1092.1C1105.72,-1086.11 1107.61,-1080.02 1109,-1074 1115.94,-1043.92 1160.56,-1184.47 1107,-910 1104.1,-895.13 1099.43,-879.715 1094.15,-865.127"/>
<polygon fill="lime" stroke="lime" points="1097.39,-863.809 1090.6,-855.674 1090.84,-866.266 1097.39,-863.809"/>
</a>
</g>
<!-- IndaraCaerellia&#45;&gt;Mathies -->
<g id="edge70" class="edge"><title>IndaraCaerellia&#45;&gt;Mathies</title>
<a xlink:title="Indara Caerellia &#45;&gt; Mathies (Spouse, Lover)">
<path fill="none" stroke="forestgreen" d="M1059.21,-1092.35C1056.99,-1077.94 1054.62,-1062.52 1052.34,-1047.73"/>
<polygon fill="forestgreen" stroke="forestgreen" points="1055.77,-1046.97 1050.79,-1037.62 1048.85,-1048.03 1055.77,-1046.97"/>
</a>
<text text-anchor="middle" x="1080" y="-1061.4" font-family="Times Roman,serif" font-size="14.00">Spouse</text>
</g>
</g>
</svg>
