<?xml version="1.0" encoding="UTF-8" standalone="no"?>
<!DOCTYPE svg PUBLIC "-//W3C//DTD SVG 1.1//EN"
 "http://www.w3.org/Graphics/SVG/1.1/DTD/svg11.dtd">
<!-- Generated by graphviz version 2.26.3 (20100126.1600)
 -->
<!-- Title: Relationships_component_8 Pages: 1 -->
<svg width="597pt" height="1314pt"
 viewBox="0.00 0.00 597.00 1314.00" xmlns="http://www.w3.org/2000/svg" xmlns:xlink="http://www.w3.org/1999/xlink">
<g id="graph1" class="graph" transform="scale(1 1) rotate(0) translate(4 1310)">
<title>Relationships_component_8</title>
<polygon fill="white" stroke="white" points="-4,5 -4,-1310 594,-1310 594,5 -4,5"/>
<!-- Astrid -->
<g id="node1" class="node"><title>Astrid</title>
<a xlink:href="http://www.uesp.net/wiki/Skyrim:Astrid" xlink:title="&lt;TABLE&gt;">
<image xlink:href="120px-SR-npc-Astrid.jpg" width="91px" height="91px" preserveAspectRatio="xMinYMin meet" x="193" y="-1297"/>
<text text-anchor="start" x="218" y="-1189.73" font-family="Times Roman,serif" font-size="14.00">Astrid</text>
</a>
</g>
<!-- Arnbjorn -->
<g id="node2" class="node"><title>Arnbjorn</title>
<a xlink:href="http://www.uesp.net/wiki/Skyrim:Arnbjorn" xlink:title="&lt;TABLE&gt;">
<image xlink:href="120px-SR-npc-Arnbjorn.jpg" width="91px" height="91px" preserveAspectRatio="xMinYMin meet" x="244" y="-119"/>
<text text-anchor="start" x="259" y="-11.7333" font-family="Times Roman,serif" font-size="14.00">Arnbjorn</text>
</a>
</g>
<!-- Astrid&#45;&gt;Arnbjorn -->
<g id="edge2" class="edge"><title>Astrid&#45;&gt;Arnbjorn</title>
<a xlink:title="Astrid &#45;&gt; Arnbjorn (Spouse, Lover)">
<path fill="none" stroke="forestgreen" d="M180.993,-1228.97C110.583,-1209.1 0,-1163.91 0,-1076 0,-1076 0,-1076 0,-230 0,-128.146 136.645,-87.8776 222.015,-72.6583"/>
<polygon fill="forestgreen" stroke="forestgreen" points="222.637,-76.1029 231.903,-70.9661 221.456,-69.2032 222.637,-76.1029"/>
</a>
<text text-anchor="middle" x="25" y="-649.4" font-family="Times Roman,serif" font-size="14.00">Spouse</text>
</g>
<!-- Babette -->
<g id="node4" class="node"><title>Babette</title>
<a xlink:href="http://www.uesp.net/wiki/Skyrim:Babette" xlink:title="&lt;TABLE&gt;">
<image xlink:href="120px-SR-npc-Babette.jpg" width="91px" height="91px" preserveAspectRatio="xMinYMin meet" x="143" y="-617"/>
<text text-anchor="start" x="161" y="-509.733" font-family="Times Roman,serif" font-size="14.00">Babette</text>
</a>
</g>
<!-- Astrid&#45;&gt;Babette -->
<g id="edge4" class="edge"><title>Astrid&#45;&gt;Babette</title>
<a xlink:title="Astrid &#45;&gt; Babette (Ally)">
<path fill="none" stroke="green" d="M180.821,-1197.58C148.7,-1167.29 115,-1124.06 115,-1076 115,-1076 115,-1076 115,-827 115,-760.399 136.696,-687.655 156.433,-635.261"/>
<polygon fill="green" stroke="green" points="159.778,-636.311 160.089,-625.72 153.242,-633.805 159.778,-636.311"/>
</a>
</g>
<!-- Gabriella -->
<g id="node6" class="node"><title>Gabriella</title>
<a xlink:href="http://www.uesp.net/wiki/Skyrim:Gabriella" xlink:title="&lt;TABLE&gt;">
<image xlink:href="120px-SR-npc-Gabriella.jpg" width="91px" height="91px" preserveAspectRatio="xMinYMin meet" x="193" y="-799"/>
<text text-anchor="start" x="207.5" y="-691.733" font-family="Times Roman,serif" font-size="14.00">Gabriella</text>
</a>
</g>
<!-- Astrid&#45;&gt;Gabriella -->
<g id="edge6" class="edge"><title>Astrid&#45;&gt;Gabriella</title>
<a xlink:title="Astrid &#45;&gt; Gabriella (Ally)">
<path fill="none" stroke="green" d="M238,-1178.42C238,-1086.11 238,-915.362 238,-817.682"/>
<polygon fill="green" stroke="green" points="241.5,-817.592 238,-807.592 234.5,-817.592 241.5,-817.592"/>
</a>
</g>
<!-- Veezara -->
<g id="node8" class="node"><title>Veezara</title>
<a xlink:href="http://www.uesp.net/wiki/Skyrim:Veezara" xlink:title="&lt;TABLE&gt;">
<image xlink:href="dummy.jpg" width="91px" height="91px" preserveAspectRatio="xMinYMin meet" x="244" y="-285"/>
<text text-anchor="start" x="261" y="-177.733" font-family="Times Roman,serif" font-size="14.00">Veezara</text>
</a>
</g>
<!-- Astrid&#45;&gt;Veezara -->
<g id="edge8" class="edge"><title>Astrid&#45;&gt;Veezara</title>
<a xlink:title="Astrid &#45;&gt; Veezara (Ally)">
<path fill="none" stroke="green" d="M180.874,-1216.3C130.483,-1189.28 65,-1141.56 65,-1076 65,-1076 65,-1076 65,-479 65,-383.562 157.076,-308.149 223.162,-266.313"/>
<polygon fill="green" stroke="green" points="225.252,-269.136 231.896,-260.883 221.555,-263.191 225.252,-269.136"/>
</a>
</g>
<!-- Nazir -->
<g id="node10" class="node"><title>Nazir</title>
<a xlink:href="http://www.uesp.net/wiki/Skyrim:Nazir" xlink:title="&lt;TABLE&gt;">
<image xlink:href="120px-SR-npc-Nazir.jpg" width="91px" height="91px" preserveAspectRatio="xMinYMin meet" x="407" y="-965"/>
<text text-anchor="start" x="434" y="-857.733" font-family="Times Roman,serif" font-size="14.00">Nazir</text>
</a>
</g>
<!-- Astrid&#45;&gt;Nazir -->
<g id="edge10" class="edge"><title>Astrid&#45;&gt;Nazir</title>
<a xlink:title="Astrid &#45;&gt; Nazir (Ally)">
<path fill="none" stroke="green" d="M295.058,-1216.09C327.064,-1198.81 365.22,-1173.17 389,-1140 421.882,-1094.14 437.609,-1031.91 445.127,-983.746"/>
<polygon fill="green" stroke="green" points="448.613,-984.096 446.609,-973.692 441.688,-983.075 448.613,-984.096"/>
</a>
</g>
<!-- FestusKrex -->
<g id="node12" class="node"><title>FestusKrex</title>
<a xlink:href="http://www.uesp.net/wiki/Skyrim:Festus Krex" xlink:title="&lt;TABLE&gt;">
<image xlink:href="120px-SR-npc-Festus_Krex.jpg" width="91px" height="91px" preserveAspectRatio="xMinYMin meet" x="278" y="-1131"/>
<text text-anchor="start" x="283" y="-1023.73" font-family="Times Roman,serif" font-size="14.00">Festus Krex</text>
</a>
</g>
<!-- Astrid&#45;&gt;FestusKrex -->
<g id="edge12" class="edge"><title>Astrid&#45;&gt;FestusKrex</title>
<a xlink:title="Astrid &#45;&gt; Festus Krex (Ally)">
<path fill="none" stroke="green" d="M270.62,-1178.29C275.603,-1168.56 280.777,-1158.46 285.848,-1148.56"/>
<polygon fill="green" stroke="green" points="289.025,-1150.03 290.467,-1139.53 282.794,-1146.84 289.025,-1150.03"/>
</a>
</g>
<!-- Babette&#45;&gt;Arnbjorn -->
<g id="edge14" class="edge"><title>Babette&#45;&gt;Arnbjorn</title>
<a xlink:title="Babette &#45;&gt; Arnbjorn (Ally)">
<path fill="none" stroke="green" d="M184.111,-498.244C181.354,-418.252 183.615,-277.987 223,-166 226.509,-156.022 231.176,-146.039 236.413,-136.436"/>
<polygon fill="green" stroke="green" points="239.461,-138.157 241.365,-127.734 233.377,-134.694 239.461,-138.157"/>
</a>
</g>
<!-- Babette&#45;&gt;Veezara -->
<g id="edge18" class="edge"><title>Babette&#45;&gt;Veezara</title>
<a xlink:title="Babette &#45;&gt; Veezara (Ally)">
<path fill="none" stroke="green" d="M201.562,-498.5C213.163,-447.467 231.387,-374.28 253,-312 254.012,-309.083 255.084,-306.125 256.2,-303.15"/>
<polygon fill="green" stroke="green" points="259.543,-304.21 259.897,-293.621 253.017,-301.678 259.543,-304.21"/>
</a>
</g>
<!-- Cicero -->
<g id="node15" class="node"><title>Cicero</title>
<a xlink:href="http://www.uesp.net/wiki/Skyrim:Cicero" xlink:title="&lt;TABLE&gt;">
<image xlink:href="dummy.jpg" width="91px" height="91px" preserveAspectRatio="xMinYMin meet" x="345" y="-451"/>
<text text-anchor="start" x="369" y="-343.733" font-family="Times Roman,serif" font-size="14.00">Cicero</text>
</a>
</g>
<!-- Babette&#45;&gt;Cicero -->
<g id="edge16" class="edge"><title>Babette&#45;&gt;Cicero</title>
<a xlink:title="Babette &#45;&gt; Cicero (Ally)">
<path fill="none" stroke="green" d="M245.075,-515.097C269.922,-494.678 299.173,-470.64 324.865,-449.527"/>
<polygon fill="green" stroke="green" points="327.212,-452.128 332.716,-443.075 322.768,-446.72 327.212,-452.128"/>
</a>
</g>
<!-- Gabriella&#45;&gt;Arnbjorn -->
<g id="edge26" class="edge"><title>Gabriella&#45;&gt;Arnbjorn</title>
<a xlink:title="Gabriella &#45;&gt; Arnbjorn (Ally)">
<path fill="none" stroke="green" d="M180.748,-700.397C143.954,-667.048 103,-617.471 103,-562 103,-562 103,-562 103,-230 103,-196.773 169.904,-143.692 223.461,-106.523"/>
<polygon fill="green" stroke="green" points="225.673,-109.25 231.93,-100.7 221.707,-103.482 225.673,-109.25"/>
</a>
</g>
<!-- Gabriella&#45;&gt;Babette -->
<g id="edge28" class="edge"><title>Gabriella&#45;&gt;Babette</title>
<a xlink:title="Gabriella &#45;&gt; Babette (Ally)">
<path fill="none" stroke="green" d="M220.512,-680.345C216.516,-665.798 212.237,-650.223 208.139,-635.308"/>
<polygon fill="green" stroke="green" points="211.502,-634.334 205.478,-625.619 204.752,-636.189 211.502,-634.334"/>
</a>
</g>
<!-- Gabriella&#45;&gt;Veezara -->
<g id="edge32" class="edge"><title>Gabriella&#45;&gt;Veezara</title>
<a xlink:title="Gabriella &#45;&gt; Veezara (Ally)">
<path fill="none" stroke="green" d="M247.18,-680.378C249.568,-662.783 252.022,-643.669 254,-626 266.545,-513.915 277.336,-383.568 283.5,-303.944"/>
<polygon fill="green" stroke="green" points="287.024,-303.771 284.302,-293.532 280.044,-303.234 287.024,-303.771"/>
</a>
</g>
<!-- Gabriella&#45;&gt;Cicero -->
<g id="edge30" class="edge"><title>Gabriella&#45;&gt;Cicero</title>
<a xlink:title="Gabriella &#45;&gt; Cicero (Ally)">
<path fill="none" stroke="green" d="M274.74,-680.417C277.979,-674.249 281.118,-668.04 284,-662 314.446,-598.195 343.777,-523.193 363.836,-469.124"/>
<polygon fill="green" stroke="green" points="367.165,-470.211 367.347,-459.618 360.599,-467.786 367.165,-470.211"/>
</a>
</g>
<!-- Veezara&#45;&gt;Arnbjorn -->
<g id="edge34" class="edge"><title>Veezara&#45;&gt;Arnbjorn</title>
<a xlink:title="Veezara &#45;&gt; Arnbjorn (Ally)">
<path fill="none" stroke="green" d="M289,-166.295C289,-156.962 289,-147.284 289,-137.77"/>
<polygon fill="green" stroke="green" points="292.5,-137.535 289,-127.535 285.5,-137.535 292.5,-137.535"/>
</a>
</g>
<!-- Nazir&#45;&gt;Arnbjorn -->
<g id="edge36" class="edge"><title>Nazir&#45;&gt;Arnbjorn</title>
<a xlink:title="Nazir &#45;&gt; Arnbjorn (Ally)">
<path fill="none" stroke="green" d="M477.762,-846.456C481.529,-833.922 484.609,-820.711 486,-808 497.293,-704.78 498.671,-365.115 489,-332 464.956,-249.671 402.057,-173.112 353.156,-123.081"/>
<polygon fill="green" stroke="green" points="355.569,-120.544 346.049,-115.895 350.592,-125.466 355.569,-120.544"/>
</a>
</g>
<!-- Nazir&#45;&gt;Babette -->
<g id="edge38" class="edge"><title>Nazir&#45;&gt;Babette</title>
<a xlink:title="Nazir &#45;&gt; Babette (Ally)">
<path fill="none" stroke="green" d="M415.729,-846.125C387.607,-798.59 346.395,-733.04 304,-680 288.384,-660.463 269.973,-640.567 252.475,-622.816"/>
<polygon fill="green" stroke="green" points="254.577,-619.966 245.042,-615.346 249.615,-624.904 254.577,-619.966"/>
</a>
</g>
<!-- Nazir&#45;&gt;Gabriella -->
<g id="edge42" class="edge"><title>Nazir&#45;&gt;Gabriella</title>
<a xlink:title="Nazir &#45;&gt; Gabriella (Ally)">
<path fill="none" stroke="green" d="M394.933,-865.733C366.752,-843.873 332.614,-817.392 303.385,-794.719"/>
<polygon fill="green" stroke="green" points="305.326,-791.795 295.279,-788.432 301.036,-797.326 305.326,-791.795"/>
</a>
</g>
<!-- Nazir&#45;&gt;Veezara -->
<g id="edge44" class="edge"><title>Nazir&#45;&gt;Veezara</title>
<a xlink:title="Nazir &#45;&gt; Veezara (Ally)">
<path fill="none" stroke="green" d="M464.979,-846.434C470.196,-815.64 475,-778.041 475,-744 475,-744 475,-744 475,-396 475,-366.329 474.087,-355.521 456,-332 430.145,-298.378 389.791,-273.291 355.229,-256.411"/>
<polygon fill="green" stroke="green" points="356.651,-253.211 346.116,-252.082 353.647,-259.534 356.651,-253.211"/>
</a>
</g>
<!-- Nazir&#45;&gt;Cicero -->
<g id="edge40" class="edge"><title>Nazir&#45;&gt;Cicero</title>
<a xlink:title="Nazir &#45;&gt; Cicero (Ally)">
<path fill="none" stroke="green" d="M449.896,-846.187C446.271,-761.454 436.786,-607.428 413,-478 412.486,-475.205 411.92,-472.368 411.312,-469.51"/>
<polygon fill="green" stroke="green" points="414.724,-468.727 409.101,-459.748 407.897,-470.274 414.724,-468.727"/>
</a>
</g>
<!-- FestusKrex&#45;&gt;Arnbjorn -->
<g id="edge46" class="edge"><title>FestusKrex&#45;&gt;Arnbjorn</title>
<a xlink:title="Festus Krex &#45;&gt; Arnbjorn (Ally)">
<path fill="none" stroke="green" d="M380.399,-1061.5C425.273,-1047.04 485.346,-1020.16 518,-974 582.175,-883.278 589,-590.126 589,-479 589,-479 589,-479 589,-230 589,-124.252 444.527,-85.3313 356.097,-71.4133"/>
<polygon fill="green" stroke="green" points="356.544,-67.9411 346.134,-69.9131 355.501,-74.8631 356.544,-67.9411"/>
</a>
</g>
<!-- FestusKrex&#45;&gt;Babette -->
<g id="edge48" class="edge"><title>FestusKrex&#45;&gt;Babette</title>
<a xlink:title="Festus Krex &#45;&gt; Babette (Ally)">
<path fill="none" stroke="green" d="M273.93,-1012.26C237.443,-960.457 190.848,-883.796 172,-808 157.893,-751.269 163.394,-685.045 171.596,-635.608"/>
<polygon fill="green" stroke="green" points="175.065,-636.089 173.324,-625.638 168.168,-634.893 175.065,-636.089"/>
</a>
</g>
<!-- FestusKrex&#45;&gt;Gabriella -->
<g id="edge52" class="edge"><title>FestusKrex&#45;&gt;Gabriella</title>
<a xlink:title="Festus Krex &#45;&gt; Gabriella (Ally)">
<path fill="none" stroke="green" d="M306.712,-1012.38C292.471,-956.759 271.79,-875.978 256.84,-817.587"/>
<polygon fill="green" stroke="green" points="260.176,-816.507 254.305,-807.687 253.395,-818.243 260.176,-816.507"/>
</a>
</g>
<!-- FestusKrex&#45;&gt;Veezara -->
<g id="edge54" class="edge"><title>FestusKrex&#45;&gt;Veezara</title>
<a xlink:title="Festus Krex &#45;&gt; Veezara (Ally)">
<path fill="none" stroke="green" d="M320.444,-1012.41C314.271,-858.81 298.571,-468.159 291.983,-304.213"/>
<polygon fill="green" stroke="green" points="295.461,-303.599 291.562,-293.747 288.466,-303.88 295.461,-303.599"/>
</a>
</g>
<!-- FestusKrex&#45;&gt;Nazir -->
<g id="edge56" class="edge"><title>FestusKrex&#45;&gt;Nazir</title>
<a xlink:title="Festus Krex &#45;&gt; Nazir (Ally)">
<path fill="none" stroke="green" d="M372.506,-1012.29C380.299,-1002.27 388.401,-991.841 396.322,-981.647"/>
<polygon fill="green" stroke="green" points="399.254,-983.578 402.627,-973.535 393.727,-979.283 399.254,-983.578"/>
</a>
</g>
<!-- FestusKrex&#45;&gt;Cicero -->
<g id="edge50" class="edge"><title>FestusKrex&#45;&gt;Cicero</title>
<a xlink:title="Festus Krex &#45;&gt; Cicero (Ally)">
<path fill="none" stroke="green" d="M334.429,-1012.06C335.364,-1005.97 336.24,-999.872 337,-994 361.332,-806.06 377.836,-583.425 385.358,-470.186"/>
<polygon fill="green" stroke="green" points="388.87,-470.114 386.036,-459.905 381.885,-469.653 388.87,-470.114"/>
</a>
</g>
<!-- Cicero&#45;&gt;Astrid -->
<g id="edge20" class="edge"><title>Cicero&#45;&gt;Astrid</title>
<a xlink:title="Cicero &#45;&gt; Astrid (Ally)">
<path fill="none" stroke="green" d="M440.731,-459.675C499.69,-540.259 589,-685.655 589,-827 589,-1076 589,-1076 589,-1076 589,-1138.14 406.961,-1196.87 305.077,-1224.88"/>
<polygon fill="green" stroke="green" points="303.906,-1221.57 295.175,-1227.57 305.744,-1228.32 303.906,-1221.57"/>
</a>
</g>
<!-- Cicero&#45;&gt;Arnbjorn -->
<g id="edge22" class="edge"><title>Cicero&#45;&gt;Arnbjorn</title>
<a xlink:title="Cicero &#45;&gt; Arnbjorn (Ally)">
<path fill="none" stroke="green" d="M387.502,-332.191C383.95,-284.982 375.419,-219.812 355,-166 351.219,-156.035 346.359,-146.03 340.993,-136.389"/>
<polygon fill="green" stroke="green" points="343.976,-134.554 335.94,-127.649 337.916,-138.058 343.976,-134.554"/>
</a>
</g>
<!-- Cicero&#45;&gt;Veezara -->
<g id="edge24" class="edge"><title>Cicero&#45;&gt;Veezara</title>
<a xlink:title="Cicero &#45;&gt; Veezara (Ally)">
<path fill="none" stroke="green" d="M351.24,-332.295C345.259,-322.465 339.046,-312.253 332.961,-302.253"/>
<polygon fill="green" stroke="green" points="335.845,-300.258 327.657,-293.535 329.865,-303.897 335.845,-300.258"/>
</a>
</g>
</g>
</svg>
