<?xml version="1.0" encoding="UTF-8" standalone="no"?>
<!DOCTYPE svg PUBLIC "-//W3C//DTD SVG 1.1//EN"
 "http://www.w3.org/Graphics/SVG/1.1/DTD/svg11.dtd">
<!-- Generated by graphviz version 2.26.3 (20100126.1600)
 -->
<!-- Title: Relationships_component_21 Pages: 1 -->
<svg width="222pt" height="230pt"
 viewBox="0.00 0.00 222.00 230.00" xmlns="http://www.w3.org/2000/svg" xmlns:xlink="http://www.w3.org/1999/xlink">
<g id="graph1" class="graph" transform="scale(1 1) rotate(0) translate(4 226)">
<title>Relationships_component_21</title>
<polygon fill="white" stroke="white" points="-4,5 -4,-226 219,-226 219,5 -4,5"/>
<!-- SkulvarSableHilt -->
<g id="node1" class="node"><title>SkulvarSableHilt</title>
<ellipse fill="none" stroke="black" cx="107" cy="-111" rx="98.9949" ry="18.3848"/>
<text text-anchor="middle" x="107" y="-107.4" font-family="Times Roman,serif" font-size="14.00">Skulvar Sable&#45;Hilt</text>
</g>
<!-- Jervar -->
<g id="node2" class="node"><title>Jervar</title>
<ellipse fill="none" stroke="black" cx="107" cy="-19" rx="41.0122" ry="18.3848"/>
<text text-anchor="middle" x="107" y="-15.4" font-family="Times Roman,serif" font-size="14.00">Jervar</text>
</g>
<!-- SkulvarSableHilt&#45;&gt;Jervar -->
<g id="edge2" class="edge"><title>SkulvarSableHilt&#45;&gt;Jervar</title>
<a xlink:title="Skulvar Sable&#45;Hilt &#45;&gt; Jervar (ParentChild, Rival)">
<path fill="none" stroke="orangered" d="M107,-92.3824C107,-79.5383 107,-62.2161 107,-47.6269"/>
<polygon fill="orangered" stroke="orangered" points="110.5,-47.5898 107,-37.5899 103.5,-47.5899 110.5,-47.5898"/>
</a>
<text text-anchor="middle" x="147.5" y="-61.4" font-family="Times Roman,serif" font-size="14.00">ParentChild</text>
</g>
<!-- LillithMaidenLoom -->
<g id="node4" class="node"><title>LillithMaidenLoom</title>
<ellipse fill="none" stroke="black" cx="107" cy="-203" rx="106.98" ry="18.3848"/>
<text text-anchor="middle" x="107" y="-199.4" font-family="Times Roman,serif" font-size="14.00">Lillith Maiden&#45;Loom</text>
</g>
<!-- LillithMaidenLoom&#45;&gt;SkulvarSableHilt -->
<g id="edge4" class="edge"><title>LillithMaidenLoom&#45;&gt;SkulvarSableHilt</title>
<a xlink:title="Lillith Maiden&#45;Loom &#45;&gt; Skulvar Sable&#45;Hilt (BossEmployee, Friend)">
<path fill="none" stroke="olive" d="M107,-184.382C107,-171.538 107,-154.216 107,-139.627"/>
<polygon fill="olive" stroke="olive" points="110.5,-139.59 107,-129.59 103.5,-139.59 110.5,-139.59"/>
</a>
<text text-anchor="middle" x="156.5" y="-153.4" font-family="Times Roman,serif" font-size="14.00">BossEmployee</text>
</g>
</g>
</svg>
