<?xml version="1.0" encoding="UTF-8" standalone="no"?>
<!DOCTYPE svg PUBLIC "-//W3C//DTD SVG 1.1//EN"
 "http://www.w3.org/Graphics/SVG/1.1/DTD/svg11.dtd">
<!-- Generated by graphviz version 2.26.3 (20100126.1600)
 -->
<!-- Title: Relationships_component_27 Pages: 1 -->
<svg width="392pt" height="500pt"
 viewBox="0.00 0.00 392.00 500.00" xmlns="http://www.w3.org/2000/svg" xmlns:xlink="http://www.w3.org/1999/xlink">
<g id="graph1" class="graph" transform="scale(1 1) rotate(0) translate(4 496)">
<title>Relationships_component_27</title>
<polygon fill="white" stroke="white" points="-4,5 -4,-496 389,-496 389,5 -4,5"/>
<!-- Leigelf -->
<g id="node1" class="node"><title>Leigelf</title>
<a xlink:href="http://www.uesp.net/wiki/Skyrim:Leigelf" xlink:title="&lt;TABLE&gt;">
<image xlink:href="120px-SR-npc-Leigelf.jpg" width="91px" height="91px" preserveAspectRatio="xMinYMin meet" x="12" y="-301"/>
<text text-anchor="start" x="34.5" y="-193.733" font-family="Times Roman,serif" font-size="14.00">Leigelf</text>
</a>
</g>
<!-- Fruki -->
<g id="node2" class="node"><title>Fruki</title>
<a xlink:href="http://www.uesp.net/wiki/Skyrim:Fruki" xlink:title="&lt;TABLE&gt;">
<image xlink:href="120px-SR-npc-Fruki.jpg" width="91px" height="91px" preserveAspectRatio="xMinYMin meet" x="12" y="-119"/>
<text text-anchor="start" x="40" y="-11.7333" font-family="Times Roman,serif" font-size="14.00">Fruki</text>
</a>
</g>
<!-- Leigelf&#45;&gt;Fruki -->
<g id="edge2" class="edge"><title>Leigelf&#45;&gt;Fruki</title>
<a xlink:title="Leigelf &#45;&gt; Fruki (BossEmployee, Confidant)">
<path fill="none" stroke="lime" d="M57,-182.345C57,-167.937 57,-152.52 57,-137.734"/>
<polygon fill="lime" stroke="lime" points="60.5001,-137.619 57,-127.619 53.5001,-137.619 60.5001,-137.619"/>
</a>
<text text-anchor="middle" x="106.5" y="-151.4" font-family="Times Roman,serif" font-size="14.00">BossEmployee</text>
</g>
<!-- Beitild -->
<g id="node4" class="node"><title>Beitild</title>
<a xlink:href="http://www.uesp.net/wiki/Skyrim:Beitild" xlink:title="&lt;TABLE&gt;">
<image xlink:href="120px-SR-npc-Beitild.jpg" width="91px" height="91px" preserveAspectRatio="xMinYMin meet" x="123" y="-483"/>
<text text-anchor="start" x="146.5" y="-375.733" font-family="Times Roman,serif" font-size="14.00">Beitild</text>
</a>
</g>
<!-- Beitild&#45;&gt;Leigelf -->
<g id="edge4" class="edge"><title>Beitild&#45;&gt;Leigelf</title>
<a xlink:title="Beitild &#45;&gt; Leigelf (Spouse, Rival)">
<path fill="none" stroke="orangered" d="M124.562,-364.31C120.588,-358.163 116.677,-351.989 113,-346 107.595,-337.198 102.08,-327.853 96.7211,-318.549"/>
<polygon fill="orangered" stroke="orangered" points="99.641,-316.604 91.6398,-309.659 93.5637,-320.078 99.641,-316.604"/>
</a>
<text text-anchor="middle" x="138" y="-333.4" font-family="Times Roman,serif" font-size="14.00">Spouse</text>
</g>
<!-- Irgnir -->
<g id="node6" class="node"><title>Irgnir</title>
<a xlink:href="http://www.uesp.net/wiki/Skyrim:Irgnir" xlink:title="&lt;TABLE&gt;">
<image xlink:href="120px-SR-npc-Irgnir.jpg" width="91px" height="91px" preserveAspectRatio="xMinYMin meet" x="144" y="-301"/>
<text text-anchor="start" x="170.5" y="-193.733" font-family="Times Roman,serif" font-size="14.00">Irgnir</text>
</a>
</g>
<!-- Beitild&#45;&gt;Irgnir -->
<g id="edge6" class="edge"><title>Beitild&#45;&gt;Irgnir</title>
<a xlink:title="Beitild &#45;&gt; Irgnir (BossEmployee, Friend)">
<path fill="none" stroke="olive" d="M166.452,-364.372C166.774,-352.261 167.533,-339.715 169,-328 169.338,-325.299 169.733,-322.558 170.174,-319.797"/>
<polygon fill="olive" stroke="olive" points="173.656,-320.207 171.955,-309.75 166.763,-318.985 173.656,-320.207"/>
</a>
<text text-anchor="middle" x="218.5" y="-333.4" font-family="Times Roman,serif" font-size="14.00">BossEmployee</text>
</g>
<!-- Karl -->
<g id="node8" class="node"><title>Karl</title>
<a xlink:href="http://www.uesp.net/wiki/Skyrim:Karl" xlink:title="&lt;TABLE&gt;">
<image xlink:href="dummy.jpg" width="91px" height="91px" preserveAspectRatio="xMinYMin meet" x="190" y="-119"/>
<text text-anchor="start" x="221.5" y="-11.7333" font-family="Times Roman,serif" font-size="14.00">Karl</text>
</a>
</g>
<!-- Beitild&#45;&gt;Karl -->
<g id="edge8" class="edge"><title>Beitild&#45;&gt;Karl</title>
<a xlink:title="Beitild &#45;&gt; Karl (BossEmployee, Friend)">
<path fill="none" stroke="olive" d="M225.029,-395.178C242.072,-382.226 258.685,-365.685 268,-346 299.157,-280.159 283.348,-196.366 264.413,-137.285"/>
<polygon fill="olive" stroke="olive" points="267.691,-136.051 261.229,-127.655 261.045,-138.248 267.691,-136.051"/>
</a>
<text text-anchor="middle" x="334.5" y="-242.4" font-family="Times Roman,serif" font-size="14.00">BossEmployee</text>
</g>
<!-- Irgnir&#45;&gt;Karl -->
<g id="edge10" class="edge"><title>Irgnir&#45;&gt;Karl</title>
<a xlink:title="Irgnir &#45;&gt; Karl (Confidant)">
<path fill="none" stroke="lime" d="M205.089,-182.345C208.73,-167.937 212.627,-152.52 216.364,-137.734"/>
<polygon fill="lime" stroke="lime" points="219.863,-138.172 218.921,-127.619 213.077,-136.456 219.863,-138.172"/>
</a>
</g>
</g>
</svg>
