<?xml version="1.0" encoding="UTF-8" standalone="no"?>
<!DOCTYPE svg PUBLIC "-//W3C//DTD SVG 1.1//EN"
 "http://www.w3.org/Graphics/SVG/1.1/DTD/svg11.dtd">
<!-- Generated by graphviz version 2.26.3 (20100126.1600)
 -->
<!-- Title: Relationships_component_10 Pages: 1 -->
<svg width="146pt" height="484pt"
 viewBox="0.00 0.00 146.00 484.00" xmlns="http://www.w3.org/2000/svg" xmlns:xlink="http://www.w3.org/1999/xlink">
<g id="graph1" class="graph" transform="scale(1 1) rotate(0) translate(4 480)">
<title>Relationships_component_10</title>
<polygon fill="white" stroke="white" points="-4,5 -4,-480 143,-480 143,5 -4,5"/>
<!-- Jorgen -->
<g id="node1" class="node"><title>Jorgen</title>
<a xlink:href="http://www.uesp.net/wiki/Skyrim:Jorgen" xlink:title="&lt;TABLE&gt;">
<image xlink:href="120px-SR-npc-Jorgen.jpg" width="91px" height="91px" preserveAspectRatio="xMinYMin meet" x="12" y="-467"/>
<text text-anchor="start" x="35" y="-359.733" font-family="Times Roman,serif" font-size="14.00">Jorgen</text>
</a>
</g>
<!-- Thonnir -->
<g id="node2" class="node"><title>Thonnir</title>
<a xlink:href="http://www.uesp.net/wiki/Skyrim:Thonnir" xlink:title="&lt;TABLE&gt;">
<image xlink:href="120px-SR-npc-Thonnir.jpg" width="91px" height="91px" preserveAspectRatio="xMinYMin meet" x="12" y="-301"/>
<text text-anchor="start" x="30" y="-193.733" font-family="Times Roman,serif" font-size="14.00">Thonnir</text>
</a>
</g>
<!-- Jorgen&#45;&gt;Thonnir -->
<g id="edge2" class="edge"><title>Jorgen&#45;&gt;Thonnir</title>
<a xlink:title="Jorgen &#45;&gt; Thonnir (Friend)">
<path fill="none" stroke="olive" d="M57,-348.295C57,-338.962 57,-329.284 57,-319.77"/>
<polygon fill="olive" stroke="olive" points="60.5001,-319.535 57,-309.535 53.5001,-319.535 60.5001,-319.535"/>
</a>
</g>
<!-- Virkmund -->
<g id="node4" class="node"><title>Virkmund</title>
<a xlink:href="http://www.uesp.net/wiki/Skyrim:Virkmund" xlink:title="&lt;TABLE&gt;">
<image xlink:href="120px-SR-npc-Virkmund.jpg" width="91px" height="91px" preserveAspectRatio="xMinYMin meet" x="12" y="-119"/>
<text text-anchor="start" x="24" y="-11.7333" font-family="Times Roman,serif" font-size="14.00">Virkmund</text>
</a>
</g>
<!-- Thonnir&#45;&gt;Virkmund -->
<g id="edge4" class="edge"><title>Thonnir&#45;&gt;Virkmund</title>
<a xlink:title="Thonnir &#45;&gt; Virkmund (ParentChild, Ally)">
<path fill="none" stroke="green" d="M57,-182.345C57,-167.937 57,-152.52 57,-137.734"/>
<polygon fill="green" stroke="green" points="60.5001,-137.619 57,-127.619 53.5001,-137.619 60.5001,-137.619"/>
</a>
<text text-anchor="middle" x="97.5" y="-151.4" font-family="Times Roman,serif" font-size="14.00">ParentChild</text>
</g>
</g>
</svg>
