<?xml version="1.0" encoding="UTF-8" standalone="no"?>
<!DOCTYPE svg PUBLIC "-//W3C//DTD SVG 1.1//EN"
 "http://www.w3.org/Graphics/SVG/1.1/DTD/svg11.dtd">
<!-- Generated by graphviz version 2.26.3 (20100126.1600)
 -->
<!-- Title: Relationships_component_15 Pages: 1 -->
<svg width="708pt" height="682pt"
 viewBox="0.00 0.00 708.00 682.00" xmlns="http://www.w3.org/2000/svg" xmlns:xlink="http://www.w3.org/1999/xlink">
<g id="graph1" class="graph" transform="scale(1 1) rotate(0) translate(4 678)">
<title>Relationships_component_15</title>
<polygon fill="white" stroke="white" points="-4,5 -4,-678 705,-678 705,5 -4,5"/>
<!-- Kodrir -->
<g id="node1" class="node"><title>Kodrir</title>
<a xlink:href="http://www.uesp.net/wiki/Skyrim:Kodrir" xlink:title="&lt;TABLE&gt;">
<image xlink:href="120px-SR-npc-Kodrir.jpg" width="91px" height="91px" preserveAspectRatio="xMinYMin meet" x="90" y="-301"/>
<text text-anchor="start" x="115" y="-193.733" font-family="Times Roman,serif" font-size="14.00">Kodrir</text>
</a>
</g>
<!-- Leifur -->
<g id="node2" class="node"><title>Leifur</title>
<a xlink:href="http://www.uesp.net/wiki/Skyrim:Leifur" xlink:title="&lt;TABLE&gt;">
<image xlink:href="120px-SR-npc-Leifur.jpg" width="91px" height="91px" preserveAspectRatio="xMinYMin meet" x="12" y="-119"/>
<text text-anchor="start" x="37.5" y="-11.7333" font-family="Times Roman,serif" font-size="14.00">Leifur</text>
</a>
</g>
<!-- Kodrir&#45;&gt;Leifur -->
<g id="edge2" class="edge"><title>Kodrir&#45;&gt;Leifur</title>
<a xlink:title="Kodrir &#45;&gt; Leifur (BusinessPartners, Rival)">
<path fill="none" stroke="orangered" d="M107.719,-182.345C101.426,-167.66 94.6827,-151.926 88.235,-136.882"/>
<polygon fill="orangered" stroke="orangered" points="91.4215,-135.432 84.2652,-127.619 84.9875,-138.189 91.4215,-135.432"/>
</a>
<text text-anchor="middle" x="157.5" y="-151.4" font-family="Times Roman,serif" font-size="14.00">BusinessPartners</text>
</g>
<!-- Aeri -->
<g id="node4" class="node"><title>Aeri</title>
<a xlink:href="http://www.uesp.net/wiki/Skyrim:Aeri" xlink:title="&lt;TABLE&gt;">
<image xlink:href="120px-SR-npc-Aeri.jpg" width="91px" height="91px" preserveAspectRatio="xMinYMin meet" x="144" y="-665"/>
<text text-anchor="start" x="175.5" y="-557.733" font-family="Times Roman,serif" font-size="14.00">Aeri</text>
</a>
</g>
<!-- Aeri&#45;&gt;Kodrir -->
<g id="edge4" class="edge"><title>Aeri&#45;&gt;Kodrir</title>
<a xlink:title="Aeri &#45;&gt; Kodrir (BossEmployee, Acquaintance)">
<path fill="none" stroke="orange" d="M160.322,-546.218C153.773,-528.957 147.667,-510.048 144,-492 132.421,-435.012 130.609,-369.105 131.451,-319.861"/>
<polygon fill="orange" stroke="orange" points="134.956,-319.687 131.669,-309.614 127.957,-319.538 134.956,-319.687"/>
</a>
<text text-anchor="middle" x="193.5" y="-424.4" font-family="Times Roman,serif" font-size="14.00">BossEmployee</text>
</g>
<!-- Aeri&#45;&gt;Leifur -->
<g id="edge6" class="edge"><title>Aeri&#45;&gt;Leifur</title>
<a xlink:title="Aeri &#45;&gt; Leifur (BossEmployee, Acquaintance)">
<path fill="none" stroke="orange" d="M136.315,-546.41C97.9047,-495.684 49.0489,-420.942 28,-346 8.59436,-276.909 20.7036,-195.035 34.7226,-137.356"/>
<polygon fill="orange" stroke="orange" points="38.1326,-138.147 37.169,-127.596 31.3427,-136.445 38.1326,-138.147"/>
</a>
<text text-anchor="middle" x="77.5" y="-333.4" font-family="Times Roman,serif" font-size="14.00">BossEmployee</text>
</g>
<!-- SkaldtheElder -->
<g id="node7" class="node"><title>SkaldtheElder</title>
<a xlink:href="http://www.uesp.net/wiki/Skyrim:Skald" xlink:title="&lt;TABLE&gt;">
<image xlink:href="120px-SR-npc-Skald.jpg" width="91px" height="91px" preserveAspectRatio="xMinYMin meet" x="418" y="-483"/>
<text text-anchor="start" x="444.5" y="-375.733" font-family="Times Roman,serif" font-size="14.00">Skald</text>
</a>
</g>
<!-- Aeri&#45;&gt;SkaldtheElder -->
<g id="edge8" class="edge"><title>Aeri&#45;&gt;SkaldtheElder</title>
<a xlink:title="Aeri &#45;&gt; Skald (FavorTarget, Acquaintance)">
<path fill="none" stroke="orange" d="M246.177,-588.368C280.94,-573.882 325.349,-552.927 361,-528 373.875,-518.998 386.625,-508.327 398.522,-497.365"/>
<polygon fill="orange" stroke="orange" points="400.922,-499.912 405.813,-490.514 396.129,-494.811 400.922,-499.912"/>
</a>
<text text-anchor="middle" x="423" y="-515.4" font-family="Times Roman,serif" font-size="14.00">FavorTarget</text>
</g>
<!-- EnnodiusPapius -->
<g id="node9" class="node"><title>EnnodiusPapius</title>
<a xlink:href="http://www.uesp.net/wiki/Skyrim:Ennodius Papius" xlink:title="&lt;TABLE&gt;">
<image xlink:href="120px-SR-npc-Ennodius_Papius.jpg" width="113px" height="91px" preserveAspectRatio="xMinYMin meet" x="264" y="-483"/>
<text text-anchor="start" x="264.5" y="-375.733" font-family="Times Roman,serif" font-size="14.00">Ennodius Papius</text>
</a>
</g>
<!-- Aeri&#45;&gt;EnnodiusPapius -->
<g id="edge10" class="edge"><title>Aeri&#45;&gt;EnnodiusPapius</title>
<a xlink:title="Aeri &#45;&gt; Ennodius Papius (BossEmployee, Acquaintance)">
<path fill="none" stroke="orange" d="M234.817,-546.345C245.587,-531.382 257.14,-515.332 268.154,-500.031"/>
<polygon fill="orange" stroke="orange" points="271.207,-501.78 274.208,-491.619 265.526,-497.69 271.207,-501.78"/>
</a>
<text text-anchor="middle" x="307.5" y="-515.4" font-family="Times Roman,serif" font-size="14.00">BossEmployee</text>
</g>
<!-- Jod -->
<g id="node11" class="node"><title>Jod</title>
<a xlink:href="http://www.uesp.net/wiki/Skyrim:Jod" xlink:title="&lt;TABLE&gt;">
<image xlink:href="120px-SR-npc-Jod.jpg" width="91px" height="91px" preserveAspectRatio="xMinYMin meet" x="550" y="-301"/>
<text text-anchor="start" x="584.5" y="-193.733" font-family="Times Roman,serif" font-size="14.00">Jod</text>
</a>
</g>
<!-- SkaldtheElder&#45;&gt;Jod -->
<g id="edge12" class="edge"><title>SkaldtheElder&#45;&gt;Jod</title>
<a xlink:title="Skald &#45;&gt; Jod (JarlHousecarl, Confidant)">
<path fill="none" stroke="lime" d="M507.86,-364.368C516.488,-352.257 525.488,-339.712 534,-328 536.339,-324.782 538.736,-321.498 541.163,-318.186"/>
<polygon fill="lime" stroke="lime" points="544.142,-320.043 547.243,-309.912 538.501,-315.898 544.142,-320.043"/>
</a>
<text text-anchor="middle" x="579.5" y="-333.4" font-family="Times Roman,serif" font-size="14.00">JarlHousecarl</text>
</g>
<!-- Madena -->
<g id="node13" class="node"><title>Madena</title>
<a xlink:href="http://www.uesp.net/wiki/Skyrim:Madena" xlink:title="&lt;TABLE&gt;">
<image xlink:href="120px-SR-npc-Madena.jpg" width="91px" height="91px" preserveAspectRatio="xMinYMin meet" x="370" y="-301"/>
<text text-anchor="start" x="388" y="-193.733" font-family="Times Roman,serif" font-size="14.00">Madena</text>
</a>
</g>
<!-- SkaldtheElder&#45;&gt;Madena -->
<g id="edge14" class="edge"><title>SkaldtheElder&#45;&gt;Madena</title>
<a xlink:title="Skald &#45;&gt; Madena (BossEmployee, Acquaintance)">
<path fill="none" stroke="orange" d="M422.556,-364.441C419.935,-358.373 417.677,-352.176 416,-346 413.718,-337.6 412.292,-328.655 411.474,-319.701"/>
<polygon fill="orange" stroke="orange" points="414.958,-319.358 410.794,-309.616 407.974,-319.828 414.958,-319.358"/>
</a>
<text text-anchor="middle" x="465.5" y="-333.4" font-family="Times Roman,serif" font-size="14.00">BossEmployee</text>
</g>
<!-- EnnodiusPapius&#45;&gt;Kodrir -->
<g id="edge16" class="edge"><title>EnnodiusPapius&#45;&gt;Kodrir</title>
<a xlink:title="Ennodius Papius &#45;&gt; Kodrir (Foe)">
<path fill="none" stroke="firebrick" d="M255.296,-364.345C237.335,-346.676 217.833,-327.49 199.863,-309.811"/>
<polygon fill="firebrick" stroke="firebrick" points="201.847,-306.854 192.264,-302.336 196.938,-311.844 201.847,-306.854"/>
</a>
</g>
<!-- Bulfrek -->
<g id="node16" class="node"><title>Bulfrek</title>
<a xlink:href="http://www.uesp.net/wiki/Skyrim:Bulfrek" xlink:title="&lt;TABLE&gt;">
<image xlink:href="120px-SR-npc-Bulfrek.jpg" width="91px" height="91px" preserveAspectRatio="xMinYMin meet" x="598" y="-483"/>
<text text-anchor="start" x="618.5" y="-375.733" font-family="Times Roman,serif" font-size="14.00">Bulfrek</text>
</a>
</g>
<!-- Bulfrek&#45;&gt;Jod -->
<g id="edge18" class="edge"><title>Bulfrek&#45;&gt;Jod</title>
<a xlink:title="Bulfrek &#45;&gt; Jod (Friend)">
<path fill="none" stroke="olive" d="M636.552,-364.293C634.628,-352.131 632.158,-339.586 629,-328 628.24,-325.212 627.409,-322.393 626.522,-319.561"/>
<polygon fill="olive" stroke="olive" points="629.79,-318.297 623.307,-309.917 623.149,-320.511 629.79,-318.297"/>
</a>
</g>
</g>
</svg>
