<?xml version="1.0" encoding="UTF-8" standalone="no"?>
<!DOCTYPE svg PUBLIC "-//W3C//DTD SVG 1.1//EN"
 "http://www.w3.org/Graphics/SVG/1.1/DTD/svg11.dtd">
<!-- Generated by graphviz version 2.26.3 (20100126.1600)
 -->
<!-- Title: Relationships_component_36 Pages: 1 -->
<svg width="166pt" height="214pt"
 viewBox="0.00 0.00 166.00 214.00" xmlns="http://www.w3.org/2000/svg" xmlns:xlink="http://www.w3.org/1999/xlink">
<g id="graph1" class="graph" transform="scale(1 1) rotate(0) translate(4 210)">
<title>Relationships_component_36</title>
<polygon fill="white" stroke="white" points="-4,5 -4,-210 163,-210 163,5 -4,5"/>
<!-- Freir -->
<g id="node1" class="node"><title>Freir</title>
<a xlink:href="http://www.uesp.net/wiki/Skyrim:Freir" xlink:title="Freir">
<ellipse fill="none" stroke="black" cx="38" cy="-95" rx="33.9411" ry="18.3848"/>
<text text-anchor="middle" x="38" y="-91.4" font-family="Times Roman,serif" font-size="14.00">Freir</text>
</a>
</g>
<!-- SilanaPetreia -->
<g id="node2" class="node"><title>SilanaPetreia</title>
<a xlink:href="http://www.uesp.net/wiki/Skyrim:Silana Petreia" xlink:title="Silana Petreia">
<ellipse fill="none" stroke="black" cx="79" cy="-19" rx="79.196" ry="18.3848"/>
<text text-anchor="middle" x="79" y="-15.4" font-family="Times Roman,serif" font-size="14.00">Silana Petreia</text>
</a>
</g>
<!-- Freir&#45;&gt;SilanaPetreia -->
<g id="edge2" class="edge"><title>Freir&#45;&gt;SilanaPetreia</title>
<a xlink:title="Freir &#45;&gt; Silana Petreia (Ally)">
<path fill="none" stroke="green" d="M47.7164,-76.9891C52.6478,-67.8479 58.7431,-56.5494 64.2396,-46.3608"/>
<polygon fill="green" stroke="green" points="67.4009,-47.8724 69.0685,-37.4096 61.2402,-44.5488 67.4009,-47.8724"/>
</a>
</g>
<!-- Rorlund -->
<g id="node4" class="node"><title>Rorlund</title>
<a xlink:href="http://www.uesp.net/wiki/Skyrim:Rorlund" xlink:title="Rorlund">
<ellipse fill="none" stroke="black" cx="68" cy="-187" rx="48.9975" ry="18.3848"/>
<text text-anchor="middle" x="68" y="-183.4" font-family="Times Roman,serif" font-size="14.00">Rorlund</text>
</a>
</g>
<!-- Rorlund&#45;&gt;Freir -->
<g id="edge4" class="edge"><title>Rorlund&#45;&gt;Freir</title>
<a xlink:title="Rorlund &#45;&gt; Freir (Spouse, Lover)">
<path fill="none" stroke="forestgreen" d="M49.3766,-169.822C44.3788,-164.062 39.6342,-157.246 37,-150 34.0074,-141.769 33.2874,-132.376 33.5956,-123.711"/>
<polygon fill="forestgreen" stroke="forestgreen" points="37.0935,-123.875 34.398,-113.629 30.1156,-123.32 37.0935,-123.875"/>
</a>
<text text-anchor="middle" x="62" y="-137.4" font-family="Times Roman,serif" font-size="14.00">Spouse</text>
</g>
<!-- Rorlund&#45;&gt;SilanaPetreia -->
<g id="edge6" class="edge"><title>Rorlund&#45;&gt;SilanaPetreia</title>
<a xlink:title="Rorlund &#45;&gt; Silana Petreia (Ally)">
<path fill="none" stroke="green" d="M79.4801,-168.851C82.546,-163.052 85.4389,-156.457 87,-150 95.3663,-115.393 90.5388,-74.2267 85.507,-47.402"/>
<polygon fill="green" stroke="green" points="88.9242,-46.6412 83.5228,-37.5266 82.0613,-48.0201 88.9242,-46.6412"/>
</a>
</g>
</g>
</svg>
