<?xml version="1.0" encoding="UTF-8" standalone="no"?>
<!DOCTYPE svg PUBLIC "-//W3C//DTD SVG 1.1//EN"
 "http://www.w3.org/Graphics/SVG/1.1/DTD/svg11.dtd">
<!-- Generated by graphviz version 2.26.3 (20100126.1600)
 -->
<!-- Title: Relationships_component_23 Pages: 1 -->
<svg width="1310pt" height="682pt"
 viewBox="0.00 0.00 1309.74 682.00" xmlns="http://www.w3.org/2000/svg" xmlns:xlink="http://www.w3.org/1999/xlink">
<g id="graph1" class="graph" transform="scale(1 1) rotate(0) translate(4 678)">
<title>Relationships_component_23</title>
<polygon fill="white" stroke="white" points="-4,5 -4,-678 1306.74,-678 1306.74,5 -4,5"/>
<!-- Elgrim -->
<g id="node1" class="node"><title>Elgrim</title>
<a xlink:href="http://www.uesp.net/wiki/Skyrim:Elgrim" xlink:title="&lt;TABLE&gt;">
<text text-anchor="start" x="564.237" y="-557.733" font-family="Times Roman,serif" font-size="14.00">Elgrim</text>
</a>
</g>
<!-- Hafjorg -->
<g id="node2" class="node"><title>Hafjorg</title>
<a xlink:href="http://www.uesp.net/wiki/Skyrim:Hafjorg" xlink:title="&lt;TABLE&gt;">
<text text-anchor="start" x="514.237" y="-375.733" font-family="Times Roman,serif" font-size="14.00">Hafjorg</text>
</a>
</g>
<!-- Elgrim&#45;&gt;Hafjorg -->
<g id="edge2" class="edge"><title>Elgrim&#45;&gt;Hafjorg</title>
<a xlink:title="Elgrim &#45;&gt; Hafjorg (Spouse, Ally)">
<path fill="none" stroke="green" d="M564.818,-546.167C563.018,-540.05 561.294,-533.922 559.737,-528 557.509,-519.523 555.359,-510.594 553.339,-501.702"/>
<polygon fill="green" stroke="green" points="556.704,-500.708 551.118,-491.705 549.871,-502.227 556.704,-500.708"/>
</a>
<text text-anchor="middle" x="584.737" y="-515.4" font-family="Times Roman,serif" font-size="14.00">Spouse</text>
</g>
<!-- Ingun -->
<g id="node4" class="node"><title>Ingun</title>
<a xlink:href="http://www.uesp.net/wiki/Skyrim:Ingun Black-Briar" xlink:title="&lt;TABLE&gt;">
<text text-anchor="start" x="287.237" y="-193.733" font-family="Times Roman,serif" font-size="14.00">Ingun Black&#45;Briar</text>
</a>
</g>
<!-- Elgrim&#45;&gt;Ingun -->
<g id="edge4" class="edge"><title>Elgrim&#45;&gt;Ingun</title>
<a xlink:title="Elgrim &#45;&gt; Ingun Black&#45;Briar (Friend)">
<path fill="none" stroke="olive" d="M611.373,-546.367C628.377,-492.957 641.5,-417.088 604.737,-364 569.119,-312.565 531.64,-336.006 474.737,-310 459.436,-303.007 443.275,-295.236 427.778,-287.588"/>
<polygon fill="olive" stroke="olive" points="429.257,-284.414 418.743,-283.106 426.146,-290.685 429.257,-284.414"/>
</a>
</g>
<!-- Hafjorg&#45;&gt;Ingun -->
<g id="edge6" class="edge"><title>Hafjorg&#45;&gt;Ingun</title>
<a xlink:title="Hafjorg &#45;&gt; Ingun Black&#45;Briar (Friend)">
<path fill="none" stroke="olive" d="M481.651,-373.887C462.65,-355.876 441.201,-335.544 421.089,-316.48"/>
<polygon fill="olive" stroke="olive" points="423.413,-313.859 413.747,-309.52 418.597,-318.94 423.413,-313.859"/>
</a>
</g>
<!-- Sibbi -->
<g id="node11" class="node"><title>Sibbi</title>
<a xlink:href="http://www.uesp.net/wiki/Skyrim:Sibbi Black-Briar" xlink:title="&lt;TABLE&gt;">
<image xlink:href="120px-SR-npc-Sibbi_Black-Briar.jpg" width="114px" height="91px" preserveAspectRatio="xMinYMin meet" x="169.737" y="-119"/>
<text text-anchor="start" x="170.237" y="-11.7333" font-family="Times Roman,serif" font-size="14.00">Sibbi Black&#45;Briar</text>
</a>
</g>
<!-- Ingun&#45;&gt;Sibbi -->
<g id="edge28" class="edge"><title>Ingun&#45;&gt;Sibbi</title>
<a xlink:title="Ingun Black&#45;Briar &#45;&gt; Sibbi Black&#45;Briar (Siblings, Ally)">
<path fill="none" stroke="green" d="M304.767,-182.345C294.901,-167.382 284.319,-151.332 274.23,-136.031"/>
<polygon fill="green" stroke="green" points="277.11,-134.041 268.683,-127.619 271.266,-137.894 277.11,-134.041"/>
</a>
<text text-anchor="middle" x="317.237" y="-151.4" font-family="Times Roman,serif" font-size="14.00">Siblings</text>
</g>
<!-- Maven -->
<g id="node7" class="node"><title>Maven</title>
<a xlink:href="http://www.uesp.net/wiki/Skyrim:Maven Black-Briar" xlink:title="&lt;TABLE&gt;">
<image xlink:href="120px-SR-npc-Maven_Black-Briar.jpg" width="120px" height="91px" preserveAspectRatio="xMinYMin meet" x="117.237" y="-665"/>
<text text-anchor="start" x="114.237" y="-557.733" font-family="Times Roman,serif" font-size="14.00">Maven Black&#45;Briar</text>
</a>
</g>
<!-- Maven&#45;&gt;Ingun -->
<g id="edge10" class="edge"><title>Maven&#45;&gt;Ingun</title>
<a xlink:title="Maven Black&#45;Briar &#45;&gt; Ingun Black&#45;Briar (GrandparentGrandchild, Ally)">
<path fill="none" stroke="green" d="M250.894,-546.074C255.617,-540.263 259.976,-534.215 263.737,-528 302.932,-463.235 288.187,-436.57 309.737,-364 314.049,-349.481 318.794,-334.002 323.406,-319.197"/>
<polygon fill="green" stroke="green" points="326.769,-320.17 326.412,-309.581 320.087,-318.081 326.769,-320.17"/>
</a>
<text text-anchor="middle" x="391.237" y="-424.4" font-family="Times Roman,serif" font-size="14.00">GrandparentGrandchild</text>
</g>
<!-- Hemming -->
<g id="node8" class="node"><title>Hemming</title>
<a xlink:href="http://www.uesp.net/wiki/Skyrim:Hemming Black-Briar" xlink:title="&lt;TABLE&gt;">
<text text-anchor="start" x="107.237" y="-375.733" font-family="Times Roman,serif" font-size="14.00">Hemming Black&#45;Briar</text>
</a>
</g>
<!-- Maven&#45;&gt;Hemming -->
<g id="edge8" class="edge"><title>Maven&#45;&gt;Hemming</title>
<a xlink:title="Maven Black&#45;Briar &#45;&gt; Hemming Black&#45;Briar (ParentChild, Ally)">
<path fill="none" stroke="green" d="M177.786,-546.345C178.024,-531.937 178.278,-516.52 178.522,-501.734"/>
<polygon fill="green" stroke="green" points="182.023,-501.675 178.688,-491.619 175.024,-501.56 182.023,-501.675"/>
</a>
<text text-anchor="middle" x="219.237" y="-515.4" font-family="Times Roman,serif" font-size="14.00">ParentChild</text>
</g>
<!-- Maven&#45;&gt;Sibbi -->
<g id="edge12" class="edge"><title>Maven&#45;&gt;Sibbi</title>
<a xlink:title="Maven Black&#45;Briar &#45;&gt; Sibbi Black&#45;Briar (GrandparentGrandchild, Ally)">
<path fill="none" stroke="green" d="M101.716,-549.138C43.8231,-494.276 -21.8027,-409.876 7.737,-328 36.0529,-249.516 98.9733,-177.862 150.138,-129.072"/>
<polygon fill="green" stroke="green" points="152.721,-131.447 157.596,-122.041 147.919,-126.354 152.721,-131.447"/>
</a>
<text text-anchor="middle" x="89.237" y="-333.4" font-family="Times Roman,serif" font-size="14.00">GrandparentGrandchild</text>
</g>
<!-- Hemming&#45;&gt;Ingun -->
<g id="edge14" class="edge"><title>Hemming&#45;&gt;Ingun</title>
<a xlink:title="Hemming Black&#45;Briar &#45;&gt; Ingun Black&#45;Briar (ParentChild, Ally)">
<path fill="none" stroke="green" d="M189.19,-364.256C193.641,-351.004 200.17,-338.036 209.737,-328 226.322,-310.602 239.523,-321.302 260.737,-310 262.462,-309.081 264.19,-308.13 265.917,-307.151"/>
<polygon fill="green" stroke="green" points="267.724,-310.149 274.543,-302.04 264.155,-304.127 267.724,-310.149"/>
</a>
<text text-anchor="middle" x="250.237" y="-333.4" font-family="Times Roman,serif" font-size="14.00">ParentChild</text>
</g>
<!-- Hemming&#45;&gt;Sibbi -->
<g id="edge16" class="edge"><title>Hemming&#45;&gt;Sibbi</title>
<a xlink:title="Hemming Black&#45;Briar &#45;&gt; Sibbi Black&#45;Briar (ParentChild, Ally)">
<path fill="none" stroke="green" d="M175.48,-364.497C173.456,-314.488 173.521,-243.242 184.737,-182 187.452,-167.174 191.776,-151.725 196.639,-137.078"/>
<polygon fill="green" stroke="green" points="199.962,-138.178 199.901,-127.584 193.342,-135.904 199.962,-138.178"/>
</a>
<text text-anchor="middle" x="225.237" y="-242.4" font-family="Times Roman,serif" font-size="14.00">ParentChild</text>
</g>
<!-- Bolli -->
<g id="node15" class="node"><title>Bolli</title>
<a xlink:href="http://www.uesp.net/wiki/Skyrim:Bolli" xlink:title="&lt;TABLE&gt;">
<text text-anchor="start" x="976.237" y="-557.733" font-family="Times Roman,serif" font-size="14.00">Bolli</text>
</a>
</g>
<!-- Maramal -->
<g id="node16" class="node"><title>Maramal</title>
<a xlink:href="http://www.uesp.net/wiki/Skyrim:Maramal" xlink:title="&lt;TABLE&gt;">
<text text-anchor="start" x="1093.24" y="-375.733" font-family="Times Roman,serif" font-size="14.00">Maramal</text>
</a>
</g>
<!-- Bolli&#45;&gt;Maramal -->
<g id="edge18" class="edge"><title>Bolli&#45;&gt;Maramal</title>
<a xlink:title="Bolli &#45;&gt; Maramal (Friend)">
<path fill="none" stroke="olive" d="M1036.9,-546.345C1047.76,-531.382 1059.4,-515.332 1070.49,-500.031"/>
<polygon fill="olive" stroke="olive" points="1073.56,-501.769 1076.6,-491.619 1067.89,-497.659 1073.56,-501.769"/>
</a>
</g>
<!-- TalenJei -->
<g id="node18" class="node"><title>TalenJei</title>
<a xlink:href="http://www.uesp.net/wiki/Skyrim:Talen-Jei" xlink:title="&lt;TABLE&gt;">
<image xlink:href="120px-SR-npc-Talen-Jei.jpg" width="91px" height="91px" preserveAspectRatio="xMinYMin meet" x="813.737" y="-483"/>
<text text-anchor="start" x="829.737" y="-375.733" font-family="Times Roman,serif" font-size="14.00">Talen&#45;Jei</text>
</a>
</g>
<!-- Bolli&#45;&gt;TalenJei -->
<g id="edge20" class="edge"><title>Bolli&#45;&gt;TalenJei</title>
<a xlink:title="Bolli &#45;&gt; Talen&#45;Jei (Friend)">
<path fill="none" stroke="olive" d="M944.57,-546.345C933.718,-531.382 922.077,-515.332 910.979,-500.031"/>
<polygon fill="olive" stroke="olive" points="913.583,-497.659 904.878,-491.619 907.916,-501.769 913.583,-497.659"/>
</a>
</g>
<!-- Nivenor -->
<g id="node20" class="node"><title>Nivenor</title>
<a xlink:href="http://www.uesp.net/wiki/Skyrim:Nivenor" xlink:title="&lt;TABLE&gt;">
<text text-anchor="start" x="963.737" y="-375.733" font-family="Times Roman,serif" font-size="14.00">Nivenor</text>
</a>
</g>
<!-- Bolli&#45;&gt;Nivenor -->
<g id="edge22" class="edge"><title>Bolli&#45;&gt;Nivenor</title>
<a xlink:title="Bolli &#45;&gt; Nivenor (Spouse, Ally)">
<path fill="none" stroke="green" d="M990.737,-546.345C990.737,-531.937 990.737,-516.52 990.737,-501.734"/>
<polygon fill="green" stroke="green" points="994.237,-501.619 990.737,-491.619 987.237,-501.619 994.237,-501.619"/>
</a>
<text text-anchor="middle" x="1015.74" y="-515.4" font-family="Times Roman,serif" font-size="14.00">Spouse</text>
</g>
<!-- Dinya -->
<g id="node22" class="node"><title>Dinya</title>
<a xlink:href="http://www.uesp.net/wiki/Skyrim:Dinya Balu" xlink:title="&lt;TABLE&gt;">
<text text-anchor="start" x="1207.24" y="-193.733" font-family="Times Roman,serif" font-size="14.00">Dinya Balu</text>
</a>
</g>
<!-- Maramal&#45;&gt;Dinya -->
<g id="edge24" class="edge"><title>Maramal&#45;&gt;Dinya</title>
<a xlink:title="Maramal &#45;&gt; Dinya Balu (Spouse, Ally)">
<path fill="none" stroke="green" d="M1165.41,-364.345C1175.44,-349.382 1186.2,-333.332 1196.45,-318.031"/>
<polygon fill="green" stroke="green" points="1199.43,-319.874 1202.09,-309.619 1193.62,-315.976 1199.43,-319.874"/>
</a>
<text text-anchor="middle" x="1211.74" y="-333.4" font-family="Times Roman,serif" font-size="14.00">Spouse</text>
</g>
<!-- Briehl -->
<g id="node24" class="node"><title>Briehl</title>
<a xlink:href="http://www.uesp.net/wiki/Skyrim:Briehl" xlink:title="&lt;TABLE&gt;">
<text text-anchor="start" x="1101.74" y="-11.7333" font-family="Times Roman,serif" font-size="14.00">Briehl</text>
</a>
</g>
<!-- Maramal&#45;&gt;Briehl -->
<g id="edge26" class="edge"><title>Maramal&#45;&gt;Briehl</title>
<a xlink:title="Maramal &#45;&gt; Briehl (BossEmployee, Friend)">
<path fill="none" stroke="olive" d="M1094.9,-364.202C1088.64,-346.941 1082.92,-328.036 1079.74,-310 1069.85,-253.977 1070.06,-238.059 1079.74,-182 1082.3,-167.147 1086.56,-151.686 1091.4,-137.036"/>
<polygon fill="olive" stroke="olive" points="1094.72,-138.134 1094.65,-127.54 1088.1,-135.865 1094.72,-138.134"/>
</a>
<text text-anchor="middle" x="1129.24" y="-242.4" font-family="Times Roman,serif" font-size="14.00">BossEmployee</text>
</g>
<!-- Dinya&#45;&gt;Briehl -->
<g id="edge36" class="edge"><title>Dinya&#45;&gt;Briehl</title>
<a xlink:title="Dinya Balu &#45;&gt; Briehl (BossEmployee, Acquaintance)">
<path fill="none" stroke="orange" d="M1201.72,-182.345C1191.61,-167.382 1180.76,-151.332 1170.42,-136.031"/>
<polygon fill="orange" stroke="orange" points="1173.23,-133.944 1164.73,-127.619 1167.43,-137.864 1173.23,-133.944"/>
</a>
<text text-anchor="middle" x="1236.24" y="-151.4" font-family="Times Roman,serif" font-size="14.00">BossEmployee</text>
</g>
<!-- Haelga -->
<g id="node27" class="node"><title>Haelga</title>
<a xlink:href="http://www.uesp.net/wiki/Skyrim:Haelga" xlink:title="&lt;TABLE&gt;">
<text text-anchor="start" x="703.237" y="-375.733" font-family="Times Roman,serif" font-size="14.00">Haelga</text>
</a>
</g>
<!-- Svana -->
<g id="node28" class="node"><title>Svana</title>
<a xlink:href="http://www.uesp.net/wiki/Skyrim:Svana Far-Shield" xlink:title="&lt;TABLE&gt;">
<image xlink:href="120px-SR-npc-Svana_Far-Shield.jpg" width="116px" height="91px" preserveAspectRatio="xMinYMin meet" x="495.737" y="-301"/>
<text text-anchor="start" x="496.237" y="-193.733" font-family="Times Roman,serif" font-size="14.00">Svana Far&#45;Shield</text>
</a>
</g>
<!-- Haelga&#45;&gt;Svana -->
<g id="edge30" class="edge"><title>Haelga&#45;&gt;Svana</title>
<a xlink:title="Haelga &#45;&gt; Svana Far&#45;Shield (AuntUncle, Ally)">
<path fill="none" stroke="green" d="M669.657,-365.27C658.173,-352.845 646.132,-339.952 634.737,-328 631.376,-324.474 627.921,-320.877 624.422,-317.255"/>
<polygon fill="green" stroke="green" points="626.665,-314.541 617.191,-309.798 621.64,-319.414 626.665,-314.541"/>
</a>
<text text-anchor="middle" x="686.237" y="-333.4" font-family="Times Roman,serif" font-size="14.00">AuntUncle</text>
</g>
<!-- BrandShei -->
<g id="node30" class="node"><title>BrandShei</title>
<a xlink:href="http://www.uesp.net/wiki/Skyrim:Brand-Shei" xlink:title="&lt;TABLE&gt;">
<text text-anchor="start" x="706.737" y="-193.733" font-family="Times Roman,serif" font-size="14.00">Brand&#45;Shei</text>
</a>
</g>
<!-- Haelga&#45;&gt;BrandShei -->
<g id="edge32" class="edge"><title>Haelga&#45;&gt;BrandShei</title>
<a xlink:title="Haelga &#45;&gt; Brand&#45;Shei (Lover)">
<path fill="none" stroke="forestgreen" d="M733.033,-364.345C734.458,-349.937 735.982,-334.52 737.445,-319.734"/>
<polygon fill="forestgreen" stroke="forestgreen" points="740.944,-319.915 738.445,-309.619 733.978,-319.226 740.944,-319.915"/>
</a>
</g>
<!-- Svana&#45;&gt;Sibbi -->
<g id="edge34" class="edge"><title>Svana&#45;&gt;Sibbi</title>
<a xlink:title="Svana Far&#45;Shield &#45;&gt; Sibbi Black&#45;Briar (Courting, Lover)">
<path fill="none" stroke="forestgreen" d="M483.587,-206.956C431.057,-177.72 359.194,-137.722 304.837,-107.469"/>
<polygon fill="forestgreen" stroke="forestgreen" points="306.368,-104.315 295.928,-102.51 302.964,-110.432 306.368,-104.315"/>
</a>
<text text-anchor="middle" x="430.237" y="-151.4" font-family="Times Roman,serif" font-size="14.00">Courting</text>
</g>
<!-- Keerava -->
<g id="node34" class="node"><title>Keerava</title>
<a xlink:href="http://www.uesp.net/wiki/Skyrim:Keerava" xlink:title="&lt;TABLE&gt;">
<image xlink:href="120px-SR-npc-Keerava.jpg" width="91px" height="91px" preserveAspectRatio="xMinYMin meet" x="716.737" y="-665"/>
<text text-anchor="start" x="734.237" y="-557.733" font-family="Times Roman,serif" font-size="14.00">Keerava</text>
</a>
</g>
<!-- Keerava&#45;&gt;TalenJei -->
<g id="edge40" class="edge"><title>Keerava&#45;&gt;TalenJei</title>
<a xlink:title="Keerava &#45;&gt; Talen&#45;Jei (Lover)">
<path fill="none" stroke="forestgreen" d="M795.663,-546.345C803.564,-531.521 812.033,-515.629 820.12,-500.456"/>
<polygon fill="forestgreen" stroke="forestgreen" points="823.216,-502.09 824.83,-491.619 817.038,-498.798 823.216,-502.09"/>
</a>
</g>
<!-- Keerava&#45;&gt;Haelga -->
<g id="edge38" class="edge"><title>Keerava&#45;&gt;Haelga</title>
<a xlink:title="Keerava &#45;&gt; Haelga (Friend)">
<path fill="none" stroke="olive" d="M749.496,-546.345C746.725,-531.937 743.76,-516.52 740.917,-501.734"/>
<polygon fill="olive" stroke="olive" points="744.297,-500.778 738.971,-491.619 737.423,-502.1 744.297,-500.778"/>
</a>
</g>
<!-- Maul -->
<g id="node37" class="node"><title>Maul</title>
<a xlink:href="http://www.uesp.net/wiki/Skyrim:Maul" xlink:title="&lt;TABLE&gt;">
<image xlink:href="120px-SR-npc-Maul.jpg" width="91px" height="91px" preserveAspectRatio="xMinYMin meet" x="281.737" y="-665"/>
<text text-anchor="start" x="310.237" y="-557.733" font-family="Times Roman,serif" font-size="14.00">Maul</text>
</a>
</g>
<!-- Maul&#45;&gt;Hemming -->
<g id="edge42" class="edge"><title>Maul&#45;&gt;Hemming</title>
<a xlink:title="Maul &#45;&gt; Hemming Black&#45;Briar (Friend)">
<path fill="none" stroke="olive" d="M289.764,-546.296C281.694,-533.888 272.831,-521.25 263.737,-510 260.77,-506.33 257.653,-502.653 254.437,-499"/>
<polygon fill="olive" stroke="olive" points="257.009,-496.627 247.712,-491.547 251.812,-501.316 257.009,-496.627"/>
</a>
</g>
</g>
</svg>
