<?xml version="1.0" encoding="UTF-8" standalone="no"?>
<!DOCTYPE svg PUBLIC "-//W3C//DTD SVG 1.1//EN"
 "http://www.w3.org/Graphics/SVG/1.1/DTD/svg11.dtd">
<!-- Generated by graphviz version 2.26.3 (20100126.1600)
 -->
<!-- Title: Relationships_component_10 Pages: 1 -->
<svg width="147pt" height="214pt"
 viewBox="0.00 0.00 147.00 214.00" xmlns="http://www.w3.org/2000/svg" xmlns:xlink="http://www.w3.org/1999/xlink">
<g id="graph1" class="graph" transform="scale(1 1) rotate(0) translate(4 210)">
<title>Relationships_component_10</title>
<polygon fill="white" stroke="white" points="-4,5 -4,-210 144,-210 144,5 -4,5"/>
<!-- Jorgen -->
<g id="node1" class="node"><title>Jorgen</title>
<a xlink:href="http://www.uesp.net/wiki/Skyrim:Jorgen" xlink:title="Jorgen">
<ellipse fill="none" stroke="black" cx="58" cy="-187" rx="43.1335" ry="18.3848"/>
<text text-anchor="middle" x="58" y="-183.4" font-family="Times Roman,serif" font-size="14.00">Jorgen</text>
</a>
</g>
<!-- Thonnir -->
<g id="node2" class="node"><title>Thonnir</title>
<a xlink:href="http://www.uesp.net/wiki/Skyrim:Thonnir" xlink:title="Thonnir">
<ellipse fill="none" stroke="black" cx="58" cy="-111" rx="50.2046" ry="18.3848"/>
<text text-anchor="middle" x="58" y="-107.4" font-family="Times Roman,serif" font-size="14.00">Thonnir</text>
</a>
</g>
<!-- Jorgen&#45;&gt;Thonnir -->
<g id="edge2" class="edge"><title>Jorgen&#45;&gt;Thonnir</title>
<a xlink:title="Jorgen &#45;&gt; Thonnir (Friend)">
<path fill="none" stroke="olive" d="M58,-168.213C58,-159.654 58,-149.33 58,-139.822"/>
<polygon fill="olive" stroke="olive" points="61.5001,-139.57 58,-129.57 54.5001,-139.57 61.5001,-139.57"/>
</a>
</g>
<!-- Virkmund -->
<g id="node4" class="node"><title>Virkmund</title>
<a xlink:href="http://www.uesp.net/wiki/Skyrim:Virkmund" xlink:title="Virkmund">
<ellipse fill="none" stroke="black" cx="58" cy="-19" rx="58.1882" ry="18.3848"/>
<text text-anchor="middle" x="58" y="-15.4" font-family="Times Roman,serif" font-size="14.00">Virkmund</text>
</a>
</g>
<!-- Thonnir&#45;&gt;Virkmund -->
<g id="edge4" class="edge"><title>Thonnir&#45;&gt;Virkmund</title>
<a xlink:title="Thonnir &#45;&gt; Virkmund (ParentChild, Ally)">
<path fill="none" stroke="green" d="M58,-92.3824C58,-79.5383 58,-62.2161 58,-47.6269"/>
<polygon fill="green" stroke="green" points="61.5001,-47.5898 58,-37.5899 54.5001,-47.5899 61.5001,-47.5898"/>
</a>
<text text-anchor="middle" x="98.5" y="-61.4" font-family="Times Roman,serif" font-size="14.00">ParentChild</text>
</g>
</g>
</svg>
