<?xml version="1.0" encoding="UTF-8" standalone="no"?>
<!DOCTYPE svg PUBLIC "-//W3C//DTD SVG 1.1//EN"
 "http://www.w3.org/Graphics/SVG/1.1/DTD/svg11.dtd">
<!-- Generated by graphviz version 2.26.3 (20100126.1600)
 -->
<!-- Title: Relationships_component_47 Pages: 1 -->
<svg width="320pt" height="230pt"
 viewBox="0.00 0.00 320.00 230.00" xmlns="http://www.w3.org/2000/svg" xmlns:xlink="http://www.w3.org/1999/xlink">
<g id="graph1" class="graph" transform="scale(1 1) rotate(0) translate(4 226)">
<title>Relationships_component_47</title>
<polygon fill="white" stroke="white" points="-4,5 -4,-226 317,-226 317,5 -4,5"/>
<!-- Sabjorn -->
<g id="node1" class="node"><title>Sabjorn</title>
<ellipse fill="none" stroke="black" cx="160" cy="-203" rx="48.7904" ry="18.3848"/>
<text text-anchor="middle" x="160" y="-199.4" font-family="Times Roman,serif" font-size="14.00">Sabjorn</text>
</g>
<!-- MallusMaccius -->
<g id="node2" class="node"><title>MallusMaccius</title>
<ellipse fill="none" stroke="black" cx="83" cy="-111" rx="82.939" ry="18.3848"/>
<text text-anchor="middle" x="83" y="-107.4" font-family="Times Roman,serif" font-size="14.00">Mallus Maccius</text>
</g>
<!-- Sabjorn&#45;&gt;MallusMaccius -->
<g id="edge2" class="edge"><title>Sabjorn&#45;&gt;MallusMaccius</title>
<a xlink:title="Sabjorn &#45;&gt; Mallus Maccius (BossEmployee, Acquaintance)">
<path fill="none" stroke="orange" d="M127.416,-189.121C117.059,-183.311 106.388,-175.631 99,-166 93.1513,-158.375 89.4383,-148.67 87.082,-139.541"/>
<polygon fill="orange" stroke="orange" points="90.474,-138.666 84.9566,-129.622 83.6294,-140.133 90.474,-138.666"/>
</a>
<text text-anchor="middle" x="148.5" y="-153.4" font-family="Times Roman,serif" font-size="14.00">BossEmployee</text>
</g>
<!-- Eimar -->
<g id="node4" class="node"><title>Eimar</title>
<ellipse fill="none" stroke="black" cx="145" cy="-19" rx="39.0967" ry="18.3848"/>
<text text-anchor="middle" x="145" y="-15.4" font-family="Times Roman,serif" font-size="14.00">Eimar</text>
</g>
<!-- Sabjorn&#45;&gt;Eimar -->
<g id="edge4" class="edge"><title>Sabjorn&#45;&gt;Eimar</title>
<a xlink:title="Sabjorn &#45;&gt; Eimar (BossEmployee, Acquaintance)">
<path fill="none" stroke="orange" d="M182.749,-186.51C188.872,-180.778 194.706,-173.805 198,-166 217.01,-120.958 220.605,-99.3491 198,-56 194.242,-48.7939 188.369,-42.7038 181.878,-37.675"/>
<polygon fill="orange" stroke="orange" points="183.661,-34.6531 173.438,-31.8687 179.693,-40.4202 183.661,-34.6531"/>
</a>
<text text-anchor="middle" x="262.5" y="-107.4" font-family="Times Roman,serif" font-size="14.00">BossEmployee</text>
</g>
<!-- MallusMaccius&#45;&gt;Eimar -->
<g id="edge6" class="edge"><title>MallusMaccius&#45;&gt;Eimar</title>
<a xlink:title="Mallus Maccius &#45;&gt; Eimar (BusinessPartners, Acquaintance)">
<path fill="none" stroke="orange" d="M76.5976,-92.4636C73.8753,-81.1862 72.6122,-66.9042 79,-56 84.592,-46.4543 93.6477,-39.1849 103.283,-33.7271"/>
<polygon fill="orange" stroke="orange" points="104.868,-36.8477 112.212,-29.2109 101.709,-30.6012 104.868,-36.8477"/>
</a>
<text text-anchor="middle" x="138.5" y="-61.4" font-family="Times Roman,serif" font-size="14.00">BusinessPartners</text>
</g>
</g>
</svg>
