<?xml version="1.0" encoding="UTF-8" standalone="no"?>
<!DOCTYPE svg PUBLIC "-//W3C//DTD SVG 1.1//EN"
 "http://www.w3.org/Graphics/SVG/1.1/DTD/svg11.dtd">
<!-- Generated by graphviz version 2.26.3 (20100126.1600)
 -->
<!-- Title: Relationships_component_14 Pages: 1 -->
<svg width="196pt" height="214pt"
 viewBox="0.00 0.00 196.00 214.00" xmlns="http://www.w3.org/2000/svg" xmlns:xlink="http://www.w3.org/1999/xlink">
<g id="graph1" class="graph" transform="scale(1 1) rotate(0) translate(4 210)">
<title>Relationships_component_14</title>
<polygon fill="white" stroke="white" points="-4,5 -4,-210 193,-210 193,5 -4,5"/>
<!-- Elrindir -->
<g id="node1" class="node"><title>Elrindir</title>
<ellipse fill="none" stroke="black" cx="94" cy="-95" rx="46.1672" ry="18.3848"/>
<text text-anchor="middle" x="94" y="-91.4" font-family="Times Roman,serif" font-size="14.00">Elrindir</text>
</g>
<!-- OlavatheFeeble -->
<g id="node2" class="node"><title>OlavatheFeeble</title>
<ellipse fill="none" stroke="black" cx="94" cy="-19" rx="94.0452" ry="18.3848"/>
<text text-anchor="middle" x="94" y="-15.4" font-family="Times Roman,serif" font-size="14.00">Olava the Feeble</text>
</g>
<!-- Elrindir&#45;&gt;OlavatheFeeble -->
<g id="edge2" class="edge"><title>Elrindir&#45;&gt;OlavatheFeeble</title>
<a xlink:title="Elrindir &#45;&gt; Olava the Feeble (Friend)">
<path fill="none" stroke="olive" d="M94,-76.2135C94,-67.6543 94,-57.3303 94,-47.8218"/>
<polygon fill="olive" stroke="olive" points="97.5001,-47.5704 94,-37.5704 90.5001,-47.5705 97.5001,-47.5704"/>
</a>
</g>
<!-- Anoriath -->
<g id="node4" class="node"><title>Anoriath</title>
<ellipse fill="none" stroke="black" cx="94" cy="-187" rx="53.9477" ry="18.3848"/>
<text text-anchor="middle" x="94" y="-183.4" font-family="Times Roman,serif" font-size="14.00">Anoriath</text>
</g>
<!-- Anoriath&#45;&gt;Elrindir -->
<g id="edge4" class="edge"><title>Anoriath&#45;&gt;Elrindir</title>
<a xlink:title="Anoriath &#45;&gt; Elrindir (Siblings, Ally)">
<path fill="none" stroke="green" d="M94,-168.382C94,-155.538 94,-138.216 94,-123.627"/>
<polygon fill="green" stroke="green" points="97.5001,-123.59 94,-113.59 90.5001,-123.59 97.5001,-123.59"/>
</a>
<text text-anchor="middle" x="120.5" y="-137.4" font-family="Times Roman,serif" font-size="14.00">Siblings</text>
</g>
</g>
</svg>
