<?xml version="1.0" encoding="UTF-8" standalone="no"?>
<!DOCTYPE svg PUBLIC "-//W3C//DTD SVG 1.1//EN"
 "http://www.w3.org/Graphics/SVG/1.1/DTD/svg11.dtd">
<!-- Generated by graphviz version 2.26.3 (20100126.1600)
 -->
<!-- Title: Relationships_component_59 Pages: 1 -->
<svg width="103pt" height="194pt"
 viewBox="0.00 0.00 103.00 194.00" xmlns="http://www.w3.org/2000/svg" xmlns:xlink="http://www.w3.org/1999/xlink">
<g id="graph1" class="graph" transform="scale(1 1) rotate(0) translate(4 190)">
<title>Relationships_component_59</title>
<polygon fill="white" stroke="white" points="-4,5 -4,-190 100,-190 100,5 -4,5"/>
<!-- Erdi -->
<g id="node1" class="node"><title>Erdi</title>
<ellipse fill="none" stroke="black" cx="31" cy="-93" rx="31.1127" ry="18.3848"/>
<text text-anchor="middle" x="31" y="-89.4" font-family="Times Roman,serif" font-size="14.00">Erdi</text>
</g>
<!-- Una -->
<g id="node2" class="node"><title>Una</title>
<ellipse fill="none" stroke="black" cx="60" cy="-19" rx="31.1127" ry="18.3848"/>
<text text-anchor="middle" x="60" y="-15.4" font-family="Times Roman,serif" font-size="14.00">Una</text>
</g>
<!-- Erdi&#45;&gt;Una -->
<g id="edge2" class="edge"><title>Erdi&#45;&gt;Una</title>
<a xlink:title="Erdi &#45;&gt; Una (Friend)">
<path fill="none" stroke="olive" d="M38.1685,-74.7079C41.5048,-66.1947 45.5437,-55.8885 49.2359,-46.4671"/>
<polygon fill="olive" stroke="olive" points="52.5238,-47.6694 52.9139,-37.0817 46.0064,-45.1152 52.5238,-47.6694"/>
</a>
</g>
<!-- Odar -->
<g id="node4" class="node"><title>Odar</title>
<ellipse fill="none" stroke="black" cx="60" cy="-167" rx="34.8574" ry="18.3848"/>
<text text-anchor="middle" x="60" y="-163.4" font-family="Times Roman,serif" font-size="14.00">Odar</text>
</g>
<!-- Odar&#45;&gt;Erdi -->
<g id="edge4" class="edge"><title>Odar&#45;&gt;Erdi</title>
<a xlink:title="Odar &#45;&gt; Erdi (Friend)">
<path fill="none" stroke="olive" d="M52.8315,-148.708C49.4952,-140.195 45.4563,-129.888 41.7641,-120.467"/>
<polygon fill="olive" stroke="olive" points="44.9936,-119.115 38.0861,-111.082 38.4762,-121.669 44.9936,-119.115"/>
</a>
</g>
<!-- Odar&#45;&gt;Una -->
<g id="edge6" class="edge"><title>Odar&#45;&gt;Una</title>
<a xlink:title="Odar &#45;&gt; Una (Friend)">
<path fill="none" stroke="olive" d="M64.6362,-148.553C67.0647,-137.939 69.7814,-124.307 71,-112 72.6642,-95.1933 72.6642,-90.8067 71,-74 70.1336,-65.2507 68.5101,-55.8315 66.7712,-47.3032"/>
<polygon fill="olive" stroke="olive" points="70.1741,-46.4797 64.6362,-37.4474 63.3328,-47.9618 70.1741,-46.4797"/>
</a>
</g>
</g>
</svg>
