<?xml version="1.0" encoding="UTF-8" standalone="no"?>
<!DOCTYPE svg PUBLIC "-//W3C//DTD SVG 1.1//EN"
 "http://www.w3.org/Graphics/SVG/1.1/DTD/svg11.dtd">
<!-- Generated by graphviz version 2.26.3 (20100126.1600)
 -->
<!-- Title: Relationships_component_2 Pages: 1 -->
<svg width="2605pt" height="690pt"
 viewBox="0.00 0.00 2605.00 690.00" xmlns="http://www.w3.org/2000/svg" xmlns:xlink="http://www.w3.org/1999/xlink">
<g id="graph1" class="graph" transform="scale(1 1) rotate(0) translate(4 686)">
<title>Relationships_component_2</title>
<polygon fill="white" stroke="white" points="-4,5 -4,-686 2602,-686 2602,5 -4,5"/>
<!-- Murbul -->
<g id="node1" class="node"><title>Murbul</title>
<a xlink:href="http://www.uesp.net/wiki/Skyrim:Murbul" xlink:title="Murbul">
<ellipse fill="none" stroke="black" cx="937" cy="-663" rx="45.9619" ry="18.3848"/>
<text text-anchor="middle" x="937" y="-659.4" font-family="Times Roman,serif" font-size="14.00">Murbul</text>
</a>
</g>
<!-- Oglub -->
<g id="node2" class="node"><title>Oglub</title>
<a xlink:href="http://www.uesp.net/wiki/Skyrim:Oglub" xlink:title="Oglub">
<ellipse fill="none" stroke="black" cx="1042" cy="-571" rx="39.8075" ry="18.3848"/>
<text text-anchor="middle" x="1042" y="-567.4" font-family="Times Roman,serif" font-size="14.00">Oglub</text>
</a>
</g>
<!-- Murbul&#45;&gt;Oglub -->
<g id="edge2" class="edge"><title>Murbul&#45;&gt;Oglub</title>
<a xlink:title="Murbul &#45;&gt; Oglub (ParentChild, Ally)">
<path fill="none" stroke="green" d="M956.259,-646.126C972.79,-631.641 996.793,-610.61 1015.2,-594.482"/>
<polygon fill="green" stroke="green" points="1018,-596.68 1023.22,-587.458 1013.39,-591.415 1018,-596.68"/>
</a>
<text text-anchor="middle" x="1039.5" y="-613.4" font-family="Times Roman,serif" font-size="14.00">ParentChild</text>
</g>
<!-- Burguk -->
<g id="node4" class="node"><title>Burguk</title>
<a xlink:href="http://www.uesp.net/wiki/Skyrim:Chief Burguk" xlink:title="Chief Burguk">
<ellipse fill="none" stroke="black" cx="1063" cy="-387" rx="75.1594" ry="18.3848"/>
<text text-anchor="middle" x="1063" y="-383.4" font-family="Times Roman,serif" font-size="14.00">Chief Burguk</text>
</a>
</g>
<!-- Murbul&#45;&gt;Burguk -->
<g id="edge4" class="edge"><title>Murbul&#45;&gt;Burguk</title>
<a xlink:title="Murbul &#45;&gt; Chief Burguk (GrandparentGrandchild, Ally)">
<path fill="none" stroke="green" d="M981.7,-658.584C1012.25,-653.987 1052.71,-644.69 1084,-626 1150.17,-586.478 1173.11,-569.85 1201,-498 1207.11,-482.256 1208.97,-474.891 1201,-460 1185.95,-431.875 1155.57,-414.18 1127.13,-403.271"/>
<polygon fill="green" stroke="green" points="1128.19,-399.93 1117.59,-399.826 1125.81,-406.514 1128.19,-399.93"/>
</a>
<text text-anchor="middle" x="1275.5" y="-521.4" font-family="Times Roman,serif" font-size="14.00">GrandparentGrandchild</text>
</g>
<!-- Nagrub -->
<g id="node6" class="node"><title>Nagrub</title>
<a xlink:href="http://www.uesp.net/wiki/Skyrim:Nagrub" xlink:title="Nagrub">
<ellipse fill="none" stroke="black" cx="623" cy="-203" rx="46.8775" ry="18.3848"/>
<text text-anchor="middle" x="623" y="-199.4" font-family="Times Roman,serif" font-size="14.00">Nagrub</text>
</a>
</g>
<!-- Murbul&#45;&gt;Nagrub -->
<g id="edge6" class="edge"><title>Murbul&#45;&gt;Nagrub</title>
<a xlink:title="Murbul &#45;&gt; Nagrub (GreatGrandparentGreatgrandchild, Ally)">
<path fill="none" stroke="green" d="M890.947,-661.945C788.427,-659.222 533.727,-650.378 322,-626 177.769,-609.394 0,-716.184 0,-571 0,-571 0,-571 0,-295 0,-238.088 412.131,-212.893 565.986,-205.471"/>
<polygon fill="green" stroke="green" points="566.351,-208.958 576.174,-204.987 566.019,-201.965 566.351,-208.958"/>
</a>
<text text-anchor="middle" x="120" y="-429.4" font-family="Times Roman,serif" font-size="14.00">GreatGrandparentGreatgrandchild</text>
</g>
<!-- Ghorbash -->
<g id="node8" class="node"><title>Ghorbash</title>
<a xlink:href="http://www.uesp.net/wiki/Skyrim:Ghorbash the Iron Hand" xlink:title="Ghorbash the Iron Hand">
<ellipse fill="none" stroke="black" cx="889" cy="-479" rx="130.108" ry="18.3848"/>
<text text-anchor="middle" x="889" y="-475.4" font-family="Times Roman,serif" font-size="14.00">Ghorbash the Iron Hand</text>
</a>
</g>
<!-- Murbul&#45;&gt;Ghorbash -->
<g id="edge8" class="edge"><title>Murbul&#45;&gt;Ghorbash</title>
<a xlink:title="Murbul &#45;&gt; Ghorbash the Iron Hand (ParentChild, Ally)">
<path fill="none" stroke="green" d="M929.979,-644.598C924.568,-629.956 917.163,-608.865 912,-590 904.421,-562.306 898.01,-530.126 893.898,-507.568"/>
<polygon fill="green" stroke="green" points="897.327,-506.859 892.122,-497.631 890.436,-508.091 897.327,-506.859"/>
</a>
<text text-anchor="middle" x="952.5" y="-567.4" font-family="Times Roman,serif" font-size="14.00">ParentChild</text>
</g>
<!-- Umurn -->
<g id="node10" class="node"><title>Umurn</title>
<a xlink:href="http://www.uesp.net/wiki/Skyrim:Umurn" xlink:title="Umurn">
<ellipse fill="none" stroke="black" cx="1197" cy="-203" rx="44.7575" ry="18.3848"/>
<text text-anchor="middle" x="1197" y="-199.4" font-family="Times Roman,serif" font-size="14.00">Umurn</text>
</a>
</g>
<!-- Murbul&#45;&gt;Umurn -->
<g id="edge10" class="edge"><title>Murbul&#45;&gt;Umurn</title>
<a xlink:title="Murbul &#45;&gt; Umurn (GreatGrandparentGreatgrandchild, Ally)">
<path fill="none" stroke="green" d="M983.002,-661.783C1138.37,-657.07 1634,-636.872 1634,-571 1634,-571 1634,-571 1634,-295 1634,-246.596 1585.97,-255.154 1540,-240 1513.26,-231.187 1340.81,-215.363 1251.08,-207.579"/>
<polygon fill="green" stroke="green" points="1251.35,-204.089 1241.09,-206.716 1250.75,-211.063 1251.35,-204.089"/>
</a>
<text text-anchor="middle" x="1754" y="-429.4" font-family="Times Roman,serif" font-size="14.00">GreatGrandparentGreatgrandchild</text>
</g>
<!-- Shel -->
<g id="node12" class="node"><title>Shel</title>
<a xlink:href="http://www.uesp.net/wiki/Skyrim:Shel" xlink:title="Shel">
<ellipse fill="none" stroke="black" cx="598" cy="-295" rx="33.234" ry="18.3848"/>
<text text-anchor="middle" x="598" y="-291.4" font-family="Times Roman,serif" font-size="14.00">Shel</text>
</a>
</g>
<!-- Murbul&#45;&gt;Shel -->
<g id="edge12" class="edge"><title>Murbul&#45;&gt;Shel</title>
<a xlink:title="Murbul &#45;&gt; Shel (InLawGrandparentGrandchild, Ally)">
<path fill="none" stroke="green" d="M890.927,-661.645C737.72,-656.535 255,-635.33 255,-571 255,-571 255,-571 255,-387 255,-325.557 462.926,-304.021 555.001,-297.497"/>
<polygon fill="green" stroke="green" points="555.373,-300.98 565.112,-296.808 554.897,-293.996 555.373,-300.98"/>
</a>
<text text-anchor="middle" x="358" y="-475.4" font-family="Times Roman,serif" font-size="14.00">InLawGrandparentGrandchild</text>
</g>
<!-- Gharol -->
<g id="node14" class="node"><title>Gharol</title>
<a xlink:href="http://www.uesp.net/wiki/Skyrim:Gharol" xlink:title="Gharol">
<ellipse fill="none" stroke="black" cx="1337" cy="-295" rx="44.0472" ry="18.3848"/>
<text text-anchor="middle" x="1337" y="-291.4" font-family="Times Roman,serif" font-size="14.00">Gharol</text>
</a>
</g>
<!-- Murbul&#45;&gt;Gharol -->
<g id="edge14" class="edge"><title>Murbul&#45;&gt;Gharol</title>
<a xlink:title="Murbul &#45;&gt; Gharol (InLawGrandparentGrandchild, Ally)">
<path fill="none" stroke="green" d="M981.815,-658.798C1098.01,-647.305 1400,-613.36 1400,-571 1400,-571 1400,-571 1400,-387 1400,-360.476 1381.95,-335.99 1365.18,-318.959"/>
<polygon fill="green" stroke="green" points="1367.26,-316.101 1357.63,-311.678 1362.4,-321.139 1367.26,-316.101"/>
</a>
<text text-anchor="middle" x="1503" y="-475.4" font-family="Times Roman,serif" font-size="14.00">InLawGrandparentGrandchild</text>
</g>
<!-- Arob -->
<g id="node16" class="node"><title>Arob</title>
<a xlink:href="http://www.uesp.net/wiki/Skyrim:Arob" xlink:title="Arob">
<ellipse fill="none" stroke="black" cx="789" cy="-295" rx="34.1461" ry="18.3848"/>
<text text-anchor="middle" x="789" y="-291.4" font-family="Times Roman,serif" font-size="14.00">Arob</text>
</a>
</g>
<!-- Murbul&#45;&gt;Arob -->
<g id="edge16" class="edge"><title>Murbul&#45;&gt;Arob</title>
<a xlink:title="Murbul &#45;&gt; Arob (InLawGrandparentGrandchild, Ally)">
<path fill="none" stroke="green" d="M892.389,-658.353C780.528,-646.101 497,-611.093 497,-571 497,-571 497,-571 497,-433 497,-378.154 667.524,-326.543 747.947,-305.253"/>
<polygon fill="green" stroke="green" points="748.961,-308.605 757.751,-302.689 747.191,-301.833 748.961,-308.605"/>
</a>
<text text-anchor="middle" x="600" y="-475.4" font-family="Times Roman,serif" font-size="14.00">InLawGrandparentGrandchild</text>
</g>
<!-- Oglub&#45;&gt;Burguk -->
<g id="edge18" class="edge"><title>Oglub&#45;&gt;Burguk</title>
<a xlink:title="Oglub &#45;&gt; Chief Burguk (AuntUncle, Ally)">
<path fill="none" stroke="green" d="M1058.84,-554.082C1080.45,-531.05 1116.84,-487.461 1131,-442 1133.38,-434.362 1135.09,-430.877 1131,-424 1127.18,-417.566 1121.8,-412.181 1115.72,-407.692"/>
<polygon fill="green" stroke="green" points="1117.39,-404.599 1107.09,-402.112 1113.59,-410.479 1117.39,-404.599"/>
</a>
<text text-anchor="middle" x="1160.5" y="-475.4" font-family="Times Roman,serif" font-size="14.00">AuntUncle</text>
</g>
<!-- Oglub&#45;&gt;Ghorbash -->
<g id="edge20" class="edge"><title>Oglub&#45;&gt;Ghorbash</title>
<a xlink:title="Oglub &#45;&gt; Ghorbash the Iron Hand (Siblings, Ally)">
<path fill="none" stroke="green" d="M1017.24,-556.268C1005.88,-549.499 992.25,-541.357 980,-534 962.775,-523.655 943.747,-512.165 927.563,-502.373"/>
<polygon fill="green" stroke="green" points="929.261,-499.309 918.894,-497.125 925.637,-505.298 929.261,-499.309"/>
</a>
<text text-anchor="middle" x="1006.5" y="-521.4" font-family="Times Roman,serif" font-size="14.00">Siblings</text>
</g>
<!-- Oglub&#45;&gt;Shel -->
<g id="edge22" class="edge"><title>Oglub&#45;&gt;Shel</title>
<a xlink:title="Oglub &#45;&gt; Shel (InLawAuntUncle, Ally)">
<path fill="none" stroke="green" d="M1013.25,-557.936C1007.91,-555.777 1002.33,-553.693 997,-552 889.896,-518.001 850.212,-548.84 750,-498 727.255,-486.461 730.035,-470.949 707,-460 662.654,-438.922 629.765,-479.441 598,-442 570.14,-409.162 579.007,-355.748 588.289,-323.15"/>
<polygon fill="green" stroke="green" points="591.708,-323.935 591.271,-313.349 585.012,-321.897 591.708,-323.935"/>
</a>
<text text-anchor="middle" x="655.5" y="-429.4" font-family="Times Roman,serif" font-size="14.00">InLawAuntUncle</text>
</g>
<!-- Oglub&#45;&gt;Gharol -->
<g id="edge24" class="edge"><title>Oglub&#45;&gt;Gharol</title>
<a xlink:title="Oglub &#45;&gt; Gharol (InLawAuntUncle, Ally)">
<path fill="none" stroke="green" d="M1074.7,-560.183C1108.28,-548.148 1161.13,-526.574 1201,-498 1237.8,-471.629 1231.74,-446.55 1271,-424 1301.47,-406.494 1326.16,-433.535 1348,-406 1366.51,-382.664 1358.81,-347.301 1349.71,-322.786"/>
<polygon fill="green" stroke="green" points="1352.89,-321.32 1345.93,-313.331 1346.39,-323.916 1352.89,-321.32"/>
</a>
<text text-anchor="middle" x="1328.5" y="-429.4" font-family="Times Roman,serif" font-size="14.00">InLawAuntUncle</text>
</g>
<!-- Oglub&#45;&gt;Arob -->
<g id="edge26" class="edge"><title>Oglub&#45;&gt;Arob</title>
<a xlink:title="Oglub &#45;&gt; Arob (InLawAuntUncle, Ally)">
<path fill="none" stroke="green" d="M1045.68,-552.487C1049.4,-527.892 1051.65,-484.684 1028,-460 994.94,-425.496 955.439,-476.136 922,-442 898.732,-418.247 932.579,-393.297 911,-368 893.759,-347.788 877.262,-362.831 854,-350 838.856,-341.646 823.977,-329.44 812.285,-318.648"/>
<polygon fill="green" stroke="green" points="814.393,-315.823 804.735,-311.467 809.569,-320.895 814.393,-315.823"/>
</a>
<text text-anchor="middle" x="979.5" y="-429.4" font-family="Times Roman,serif" font-size="14.00">InLawAuntUncle</text>
</g>
<!-- Burguk&#45;&gt;Nagrub -->
<g id="edge28" class="edge"><title>Burguk&#45;&gt;Nagrub</title>
<a xlink:title="Chief Burguk &#45;&gt; Nagrub (ParentChild, Ally)">
<path fill="none" stroke="green" d="M1023.86,-371.213C996.062,-360.075 957.826,-344.903 924,-332 902.323,-323.731 891.087,-330.717 875,-314 851.026,-289.086 877.243,-262.512 851,-240 825.984,-218.54 739.088,-209.384 680.094,-205.579"/>
<polygon fill="green" stroke="green" points="679.984,-202.066 669.789,-204.95 679.557,-209.053 679.984,-202.066"/>
</a>
<text text-anchor="middle" x="915.5" y="-291.4" font-family="Times Roman,serif" font-size="14.00">ParentChild</text>
</g>
<!-- Burguk&#45;&gt;Umurn -->
<g id="edge30" class="edge"><title>Burguk&#45;&gt;Umurn</title>
<a xlink:title="Chief Burguk &#45;&gt; Umurn (ParentChild, Ally)">
<path fill="none" stroke="green" d="M1076.01,-368.639C1079.82,-362.831 1083.82,-356.285 1087,-350 1102.88,-318.626 1089.51,-300.226 1115,-276 1133.95,-257.989 1151.35,-275.24 1171,-258 1179.16,-250.843 1184.96,-240.571 1188.97,-230.838"/>
<polygon fill="green" stroke="green" points="1192.27,-232.013 1192.42,-221.419 1185.7,-229.607 1192.27,-232.013"/>
</a>
<text text-anchor="middle" x="1155.5" y="-291.4" font-family="Times Roman,serif" font-size="14.00">ParentChild</text>
</g>
<!-- Burguk&#45;&gt;Shel -->
<g id="edge34" class="edge"><title>Burguk&#45;&gt;Shel</title>
<a xlink:title="Chief Burguk &#45;&gt; Shel (Spouse, Lover)">
<path fill="none" stroke="forestgreen" d="M993.681,-379.886C939.75,-373.743 863.206,-363.692 797,-350 740.372,-338.289 676.086,-319.496 636.284,-307.197"/>
<polygon fill="forestgreen" stroke="forestgreen" points="637.3,-303.848 626.711,-304.219 635.22,-310.532 637.3,-303.848"/>
</a>
<text text-anchor="middle" x="822" y="-337.4" font-family="Times Roman,serif" font-size="14.00">Spouse</text>
</g>
<!-- Burguk&#45;&gt;Gharol -->
<g id="edge36" class="edge"><title>Burguk&#45;&gt;Gharol</title>
<a xlink:title="Chief Burguk &#45;&gt; Gharol (Spouse, Lover)">
<path fill="none" stroke="forestgreen" d="M1086.49,-369.391C1094.6,-363.281 1103.72,-356.367 1112,-350 1122.29,-342.089 1123.16,-337.324 1135,-332 1161.09,-320.269 1233.82,-308.709 1284.48,-301.713"/>
<polygon fill="forestgreen" stroke="forestgreen" points="1285.18,-305.151 1294.62,-300.334 1284.24,-298.215 1285.18,-305.151"/>
</a>
<text text-anchor="middle" x="1160" y="-337.4" font-family="Times Roman,serif" font-size="14.00">Spouse</text>
</g>
<!-- Burguk&#45;&gt;Arob -->
<g id="edge38" class="edge"><title>Burguk&#45;&gt;Arob</title>
<a xlink:title="Chief Burguk &#45;&gt; Arob (Spouse, Lover)">
<path fill="none" stroke="forestgreen" d="M998.222,-377.621C952.563,-370.39 895.819,-359.972 874,-350 862.194,-344.604 861.706,-339.341 851,-332 841.755,-325.661 831.404,-319.236 821.848,-313.559"/>
<polygon fill="forestgreen" stroke="forestgreen" points="823.389,-310.405 812.991,-308.372 819.851,-316.446 823.389,-310.405"/>
</a>
<text text-anchor="middle" x="899" y="-337.4" font-family="Times Roman,serif" font-size="14.00">Spouse</text>
</g>
<!-- Lurbuk -->
<g id="node25" class="node"><title>Lurbuk</title>
<a xlink:href="http://www.uesp.net/wiki/Skyrim:Lurbuk" xlink:title="Lurbuk">
<ellipse fill="none" stroke="black" cx="1011" cy="-295" rx="45.9619" ry="18.3848"/>
<text text-anchor="middle" x="1011" y="-291.4" font-family="Times Roman,serif" font-size="14.00">Lurbuk</text>
</a>
</g>
<!-- Burguk&#45;&gt;Lurbuk -->
<g id="edge32" class="edge"><title>Burguk&#45;&gt;Lurbuk</title>
<a xlink:title="Chief Burguk &#45;&gt; Lurbuk (ParentChild, Rival)">
<path fill="none" stroke="orangered" d="M1026.2,-370.739C1018.12,-365.353 1010.62,-358.501 1006,-350 1001.66,-342.006 1001.22,-332.383 1002.39,-323.437"/>
<polygon fill="orangered" stroke="orangered" points="1005.87,-323.87 1004.37,-313.383 999.005,-322.522 1005.87,-323.87"/>
</a>
<text text-anchor="middle" x="1046.5" y="-337.4" font-family="Times Roman,serif" font-size="14.00">ParentChild</text>
</g>
<!-- Ghorbash&#45;&gt;Burguk -->
<g id="edge44" class="edge"><title>Ghorbash&#45;&gt;Burguk</title>
<a xlink:title="Ghorbash the Iron Hand &#45;&gt; Chief Burguk (AuntUncle, Ally)">
<path fill="none" stroke="green" d="M975.251,-465.058C1003.51,-459.02 1030.38,-451.21 1041,-442 1048.9,-435.148 1053.99,-425.062 1057.27,-415.393"/>
<polygon fill="green" stroke="green" points="1060.68,-416.196 1060.06,-405.62 1053.95,-414.274 1060.68,-416.196"/>
</a>
<text text-anchor="middle" x="1090.5" y="-429.4" font-family="Times Roman,serif" font-size="14.00">AuntUncle</text>
</g>
<!-- Ghorbash&#45;&gt;Nagrub -->
<g id="edge46" class="edge"><title>Ghorbash&#45;&gt;Nagrub</title>
<a xlink:title="Ghorbash the Iron Hand &#45;&gt; Nagrub (GrandAuntUncle, Ally)">
<path fill="none" stroke="green" d="M797.879,-465.739C771.21,-460.18 742.409,-452.492 717,-442 703.326,-436.353 702.409,-430.25 689,-424 664.536,-412.598 656.393,-415.148 631,-406 569.501,-383.846 538.729,-398.587 495,-350 461.324,-312.583 436.809,-279.513 468,-240 480.379,-224.319 528.125,-214.554 567.392,-209.022"/>
<polygon fill="green" stroke="green" points="567.98,-212.475 577.424,-207.672 567.047,-205.537 567.98,-212.475"/>
</a>
<text text-anchor="middle" x="552.5" y="-337.4" font-family="Times Roman,serif" font-size="14.00">GrandAuntUncle</text>
</g>
<!-- Ghorbash&#45;&gt;Umurn -->
<g id="edge48" class="edge"><title>Ghorbash&#45;&gt;Umurn</title>
<a xlink:title="Ghorbash the Iron Hand &#45;&gt; Umurn (GrandAuntUncle, Ally)">
<path fill="none" stroke="green" d="M1005.41,-470.676C1056.76,-465.11 1110.16,-456.133 1131,-442 1199.33,-395.667 1202.32,-284.617 1199.52,-231.822"/>
<polygon fill="green" stroke="green" points="1203.01,-231.537 1198.88,-221.78 1196.03,-231.983 1203.01,-231.537"/>
</a>
<text text-anchor="middle" x="1251.5" y="-337.4" font-family="Times Roman,serif" font-size="14.00">GrandAuntUncle</text>
</g>
<!-- Ghorbash&#45;&gt;Shel -->
<g id="edge50" class="edge"><title>Ghorbash&#45;&gt;Shel</title>
<a xlink:title="Ghorbash the Iron Hand &#45;&gt; Shel (InLawAuntUncle, Ally)">
<path fill="none" stroke="green" d="M834.641,-462.147C771.147,-442.31 673.838,-411.375 667,-406 639.282,-384.213 619.793,-347.984 608.754,-322.869"/>
<polygon fill="green" stroke="green" points="611.919,-321.366 604.805,-313.514 605.47,-324.088 611.919,-321.366"/>
</a>
<text text-anchor="middle" x="724.5" y="-383.4" font-family="Times Roman,serif" font-size="14.00">InLawAuntUncle</text>
</g>
<!-- Ghorbash&#45;&gt;Gharol -->
<g id="edge52" class="edge"><title>Ghorbash&#45;&gt;Gharol</title>
<a xlink:title="Ghorbash the Iron Hand &#45;&gt; Gharol (InLawAuntUncle, Ally)">
<path fill="none" stroke="green" d="M1007.15,-471.158C1069.1,-465.478 1137.67,-456.244 1165,-442 1204.61,-421.356 1194.07,-389.903 1233,-368 1268.55,-347.997 1293.42,-378.087 1323,-350 1330.19,-343.174 1333.89,-333.219 1335.73,-323.648"/>
<polygon fill="green" stroke="green" points="1339.22,-323.956 1337.08,-313.579 1332.29,-323.026 1339.22,-323.956"/>
</a>
<text text-anchor="middle" x="1290.5" y="-383.4" font-family="Times Roman,serif" font-size="14.00">InLawAuntUncle</text>
</g>
<!-- Ghorbash&#45;&gt;Arob -->
<g id="edge54" class="edge"><title>Ghorbash&#45;&gt;Arob</title>
<a xlink:title="Ghorbash the Iron Hand &#45;&gt; Arob (InLawAuntUncle, Ally)">
<path fill="none" stroke="green" d="M853.555,-461.089C832.943,-448.639 808.611,-429.98 796,-406 782.595,-380.509 782.434,-347.041 784.635,-323.545"/>
<polygon fill="green" stroke="green" points="788.123,-323.846 785.773,-313.516 781.168,-323.057 788.123,-323.846"/>
</a>
<text text-anchor="middle" x="853.5" y="-383.4" font-family="Times Roman,serif" font-size="14.00">InLawAuntUncle</text>
</g>
<!-- Shel&#45;&gt;Nagrub -->
<g id="edge56" class="edge"><title>Shel&#45;&gt;Nagrub</title>
<a xlink:title="Shel &#45;&gt; Nagrub (InLawParentChild, Ally)">
<path fill="none" stroke="green" d="M565.228,-291.958C521.286,-286.577 451.562,-272.689 477,-240 488.303,-225.476 531.319,-215.737 567.755,-209.913"/>
<polygon fill="green" stroke="green" points="568.469,-213.344 577.825,-208.373 567.411,-206.425 568.469,-213.344"/>
</a>
<text text-anchor="middle" x="539" y="-245.4" font-family="Times Roman,serif" font-size="14.00">InLawParentChild</text>
</g>
<!-- Shel&#45;&gt;Umurn -->
<g id="edge58" class="edge"><title>Shel&#45;&gt;Umurn</title>
<a xlink:title="Shel &#45;&gt; Umurn (InLawParentChild, Ally)">
<path fill="none" stroke="green" d="M600.333,-276.293C602.934,-263.883 608.425,-248.389 620,-240 640.913,-224.842 1001.27,-210.138 1141.65,-204.958"/>
<polygon fill="green" stroke="green" points="1141.9,-208.452 1151.77,-204.588 1141.65,-201.456 1141.9,-208.452"/>
</a>
<text text-anchor="middle" x="682" y="-245.4" font-family="Times Roman,serif" font-size="14.00">InLawParentChild</text>
</g>
<!-- Gharol&#45;&gt;Nagrub -->
<g id="edge60" class="edge"><title>Gharol&#45;&gt;Nagrub</title>
<a xlink:title="Gharol &#45;&gt; Nagrub (InLawParentChild, Ally)">
<path fill="none" stroke="green" d="M1296.28,-287.823C1212.3,-273.024 1027.38,-240.452 1024,-240 901.641,-223.633 757.303,-212.241 679.516,-206.748"/>
<polygon fill="green" stroke="green" points="679.669,-203.251 669.449,-206.044 679.18,-210.234 679.669,-203.251"/>
</a>
<text text-anchor="middle" x="1181" y="-245.4" font-family="Times Roman,serif" font-size="14.00">InLawParentChild</text>
</g>
<!-- Gharol&#45;&gt;Umurn -->
<g id="edge62" class="edge"><title>Gharol&#45;&gt;Umurn</title>
<a xlink:title="Gharol &#45;&gt; Umurn (ParentChild, Ally)">
<path fill="none" stroke="green" d="M1313.25,-279.393C1290.36,-264.352 1255.53,-241.462 1229.96,-224.659"/>
<polygon fill="green" stroke="green" points="1231.62,-221.559 1221.34,-218.992 1227.77,-227.409 1231.62,-221.559"/>
</a>
<text text-anchor="middle" x="1320.5" y="-245.4" font-family="Times Roman,serif" font-size="14.00">ParentChild</text>
</g>
<!-- LashGraDushnikh -->
<g id="node45" class="node"><title>LashGraDushnikh</title>
<a xlink:href="http://www.uesp.net/wiki/Skyrim:Lash gra-Dushnikh" xlink:title="Lash gra&#45;Dushnikh">
<ellipse fill="none" stroke="black" cx="1536" cy="-203" rx="103.945" ry="18.3848"/>
<text text-anchor="middle" x="1536" y="-199.4" font-family="Times Roman,serif" font-size="14.00">Lash gra&#45;Dushnikh</text>
</a>
</g>
<!-- Gharol&#45;&gt;LashGraDushnikh -->
<g id="edge64" class="edge"><title>Gharol&#45;&gt;LashGraDushnikh</title>
<a xlink:title="Gharol &#45;&gt; Lash gra&#45;Dushnikh (ParentChild, Ally)">
<path fill="none" stroke="green" d="M1366.79,-281.227C1399.18,-266.254 1451.36,-242.129 1489.23,-224.624"/>
<polygon fill="green" stroke="green" points="1490.91,-227.7 1498.52,-220.326 1487.98,-221.346 1490.91,-227.7"/>
</a>
<text text-anchor="middle" x="1495.5" y="-245.4" font-family="Times Roman,serif" font-size="14.00">ParentChild</text>
</g>
<!-- Arob&#45;&gt;Nagrub -->
<g id="edge66" class="edge"><title>Arob&#45;&gt;Nagrub</title>
<a xlink:title="Arob &#45;&gt; Nagrub (ParentChild, Ally)">
<path fill="none" stroke="green" d="M779.645,-276.97C772.499,-264.871 761.578,-249.47 748,-240 727.302,-225.565 700.921,-216.685 677.734,-211.26"/>
<polygon fill="green" stroke="green" points="678.195,-207.778 667.679,-209.071 676.706,-214.618 678.195,-207.778"/>
</a>
<text text-anchor="middle" x="806.5" y="-245.4" font-family="Times Roman,serif" font-size="14.00">ParentChild</text>
</g>
<!-- Arob&#45;&gt;Umurn -->
<g id="edge68" class="edge"><title>Arob&#45;&gt;Umurn</title>
<a xlink:title="Arob &#45;&gt; Umurn (InLawParentChild, Ally)">
<path fill="none" stroke="green" d="M811.454,-281.047C833.241,-268.204 867.664,-249.72 900,-240 944.05,-226.759 1069.22,-214.136 1142.24,-207.609"/>
<polygon fill="green" stroke="green" points="1142.97,-211.059 1152.62,-206.691 1142.35,-204.086 1142.97,-211.059"/>
</a>
<text text-anchor="middle" x="962" y="-245.4" font-family="Times Roman,serif" font-size="14.00">InLawParentChild</text>
</g>
<!-- Enmon -->
<g id="node30" class="node"><title>Enmon</title>
<a xlink:href="http://www.uesp.net/wiki/Skyrim:Enmon" xlink:title="Enmon">
<ellipse fill="none" stroke="black" cx="1914" cy="-203" rx="45.9619" ry="18.3848"/>
<text text-anchor="middle" x="1914" y="-199.4" font-family="Times Roman,serif" font-size="14.00">Enmon</text>
</a>
</g>
<!-- Fjotra -->
<g id="node31" class="node"><title>Fjotra</title>
<a xlink:href="http://www.uesp.net/wiki/Skyrim:Fjotra" xlink:title="Fjotra">
<ellipse fill="none" stroke="black" cx="1930" cy="-19" rx="39.8075" ry="18.3848"/>
<text text-anchor="middle" x="1930" y="-15.4" font-family="Times Roman,serif" font-size="14.00">Fjotra</text>
</a>
</g>
<!-- Enmon&#45;&gt;Fjotra -->
<g id="edge40" class="edge"><title>Enmon&#45;&gt;Fjotra</title>
<a xlink:title="Enmon &#45;&gt; Fjotra (ParentChild, Ally)">
<path fill="none" stroke="green" d="M1907.04,-184.413C1899.69,-162.266 1890.06,-124.208 1897,-92 1900.44,-76.0266 1907.68,-59.3397 1914.49,-45.9585"/>
<polygon fill="green" stroke="green" points="1917.73,-47.3301 1919.33,-36.8565 1911.55,-44.0477 1917.73,-47.3301"/>
</a>
<text text-anchor="middle" x="1937.5" y="-107.4" font-family="Times Roman,serif" font-size="14.00">ParentChild</text>
</g>
<!-- Mena -->
<g id="node33" class="node"><title>Mena</title>
<a xlink:href="http://www.uesp.net/wiki/Skyrim:Mena" xlink:title="Mena">
<ellipse fill="none" stroke="black" cx="2025" cy="-111" rx="38.1838" ry="18.3848"/>
<text text-anchor="middle" x="2025" y="-107.4" font-family="Times Roman,serif" font-size="14.00">Mena</text>
</a>
</g>
<!-- Enmon&#45;&gt;Mena -->
<g id="edge42" class="edge"><title>Enmon&#45;&gt;Mena</title>
<a xlink:title="Enmon &#45;&gt; Mena (Spouse, Lover)">
<path fill="none" stroke="forestgreen" d="M1926.84,-185.022C1935.61,-173.546 1947.97,-158.844 1961,-148 1969.45,-140.971 1979.41,-134.504 1988.92,-129.011"/>
<polygon fill="forestgreen" stroke="forestgreen" points="1990.8,-131.971 1997.84,-124.055 1987.4,-125.852 1990.8,-131.971"/>
</a>
<text text-anchor="middle" x="1986" y="-153.4" font-family="Times Roman,serif" font-size="14.00">Spouse</text>
</g>
<!-- Mena&#45;&gt;Fjotra -->
<g id="edge84" class="edge"><title>Mena&#45;&gt;Fjotra</title>
<a xlink:title="Mena &#45;&gt; Fjotra (ParentChild, Ally)">
<path fill="none" stroke="green" d="M2007.58,-94.1258C1992.71,-79.7307 1971.17,-58.871 1954.56,-42.7829"/>
<polygon fill="green" stroke="green" points="1956.93,-40.2097 1947.31,-35.7672 1952.06,-45.2383 1956.93,-40.2097"/>
</a>
<text text-anchor="middle" x="2026.5" y="-61.4" font-family="Times Roman,serif" font-size="14.00">ParentChild</text>
</g>
<!-- Ainethach -->
<g id="node49" class="node"><title>Ainethach</title>
<a xlink:href="http://www.uesp.net/wiki/Skyrim:Ainethach" xlink:title="Ainethach">
<ellipse fill="none" stroke="black" cx="2025" cy="-295" rx="60.8112" ry="18.3848"/>
<text text-anchor="middle" x="2025" y="-291.4" font-family="Times Roman,serif" font-size="14.00">Ainethach</text>
</a>
</g>
<!-- Ainethach&#45;&gt;Enmon -->
<g id="edge70" class="edge"><title>Ainethach&#45;&gt;Enmon</title>
<a xlink:title="Ainethach &#45;&gt; Enmon (BossEmployee, Friend)">
<path fill="none" stroke="olive" d="M1974.32,-284.523C1948,-277.947 1919.75,-268.697 1912,-258 1906.54,-250.468 1905.52,-240.71 1906.36,-231.508"/>
<polygon fill="olive" stroke="olive" points="1909.84,-231.93 1907.95,-221.505 1902.92,-230.83 1909.84,-231.93"/>
</a>
<text text-anchor="middle" x="1961.5" y="-245.4" font-family="Times Roman,serif" font-size="14.00">BossEmployee</text>
</g>
<!-- Ainethach&#45;&gt;Mena -->
<g id="edge74" class="edge"><title>Ainethach&#45;&gt;Mena</title>
<a xlink:title="Ainethach &#45;&gt; Mena (BossEmployee, Confidant)">
<path fill="none" stroke="lime" d="M2025,-276.345C2025,-244.247 2025,-178.349 2025,-140.148"/>
<polygon fill="lime" stroke="lime" points="2028.5,-139.705 2025,-129.705 2021.5,-139.705 2028.5,-139.705"/>
</a>
<text text-anchor="middle" x="2074.5" y="-199.4" font-family="Times Roman,serif" font-size="14.00">BossEmployee</text>
</g>
<!-- Ainethach&#45;&gt;LashGraDushnikh -->
<g id="edge72" class="edge"><title>Ainethach&#45;&gt;LashGraDushnikh</title>
<a xlink:title="Ainethach &#45;&gt; Lash gra&#45;Dushnikh (BossEmployee, Acquaintance)">
<path fill="none" stroke="orange" d="M1965.56,-290.457C1883.49,-283.84 1739.83,-270.926 1689,-258 1668.52,-252.793 1664.79,-247.399 1645,-240 1629.19,-234.089 1611.94,-228.05 1595.93,-222.612"/>
<polygon fill="orange" stroke="orange" points="1596.74,-219.191 1586.15,-219.31 1594.51,-225.823 1596.74,-219.191"/>
</a>
<text text-anchor="middle" x="1738.5" y="-245.4" font-family="Times Roman,serif" font-size="14.00">BossEmployee</text>
</g>
<!-- Belchimac -->
<g id="node53" class="node"><title>Belchimac</title>
<a xlink:href="http://www.uesp.net/wiki/Skyrim:Belchimac" xlink:title="Belchimac">
<ellipse fill="none" stroke="black" cx="1789" cy="-203" rx="60.8112" ry="18.3848"/>
<text text-anchor="middle" x="1789" y="-199.4" font-family="Times Roman,serif" font-size="14.00">Belchimac</text>
</a>
</g>
<!-- Ainethach&#45;&gt;Belchimac -->
<g id="edge76" class="edge"><title>Ainethach&#45;&gt;Belchimac</title>
<a xlink:title="Ainethach &#45;&gt; Belchimac (BossEmployee, Acquaintance)">
<path fill="none" stroke="orange" d="M1964.47,-292.218C1906.98,-288.319 1826.01,-279.154 1803,-258 1795.7,-251.291 1791.98,-241.361 1790.15,-231.777"/>
<polygon fill="orange" stroke="orange" points="1793.59,-231.142 1788.82,-221.682 1786.65,-232.053 1793.59,-231.142"/>
</a>
<text text-anchor="middle" x="1852.5" y="-245.4" font-family="Times Roman,serif" font-size="14.00">BossEmployee</text>
</g>
<!-- Rondach -->
<g id="node55" class="node"><title>Rondach</title>
<a xlink:href="http://www.uesp.net/wiki/Skyrim:Rondach" xlink:title="Rondach">
<ellipse fill="none" stroke="black" cx="2544" cy="-203" rx="53.033" ry="18.3848"/>
<text text-anchor="middle" x="2544" y="-199.4" font-family="Times Roman,serif" font-size="14.00">Rondach</text>
</a>
</g>
<!-- Ainethach&#45;&gt;Rondach -->
<g id="edge78" class="edge"><title>Ainethach&#45;&gt;Rondach</title>
<a xlink:title="Ainethach &#45;&gt; Rondach (ParentChild, Ally)">
<path fill="none" stroke="green" d="M2081.17,-287.601C2133.7,-280.535 2214.28,-269.314 2284,-258 2372.29,-243.673 2395.09,-243.14 2482,-222 2486.36,-220.939 2490.87,-219.747 2495.38,-218.491"/>
<polygon fill="green" stroke="green" points="2496.53,-221.801 2505.17,-215.664 2494.59,-215.075 2496.53,-221.801"/>
</a>
<text text-anchor="middle" x="2436.5" y="-245.4" font-family="Times Roman,serif" font-size="14.00">ParentChild</text>
</g>
<!-- Voada -->
<g id="node57" class="node"><title>Voada</title>
<a xlink:href="http://www.uesp.net/wiki/Skyrim:Voada" xlink:title="Voada">
<ellipse fill="none" stroke="black" cx="2421" cy="-111" rx="41.2167" ry="18.3848"/>
<text text-anchor="middle" x="2421" y="-107.4" font-family="Times Roman,serif" font-size="14.00">Voada</text>
</a>
</g>
<!-- Ainethach&#45;&gt;Voada -->
<g id="edge80" class="edge"><title>Ainethach&#45;&gt;Voada</title>
<a xlink:title="Ainethach &#45;&gt; Voada (ParentChild, Ally)">
<path fill="none" stroke="green" d="M2083.18,-288.939C2133.25,-282.87 2200.97,-272.367 2224,-258 2258.77,-236.312 2247.74,-210.5 2279,-184 2309.05,-158.524 2349.5,-138.835 2379.54,-126.361"/>
<polygon fill="green" stroke="green" points="2380.95,-129.566 2388.9,-122.566 2378.32,-123.079 2380.95,-129.566"/>
</a>
<text text-anchor="middle" x="2319.5" y="-199.4" font-family="Times Roman,serif" font-size="14.00">ParentChild</text>
</g>
<!-- Ragnar -->
<g id="node59" class="node"><title>Ragnar</title>
<a xlink:href="http://www.uesp.net/wiki/Skyrim:Ragnar" xlink:title="Ragnar">
<ellipse fill="none" stroke="black" cx="2188" cy="-203" rx="46.1672" ry="18.3848"/>
<text text-anchor="middle" x="2188" y="-199.4" font-family="Times Roman,serif" font-size="14.00">Ragnar</text>
</a>
</g>
<!-- Ainethach&#45;&gt;Ragnar -->
<g id="edge82" class="edge"><title>Ainethach&#45;&gt;Ragnar</title>
<a xlink:title="Ainethach &#45;&gt; Ragnar (BossEmployee, Confidant)">
<path fill="none" stroke="lime" d="M2054.14,-278.552C2081.69,-263.002 2123.09,-239.637 2152.54,-223.013"/>
<polygon fill="lime" stroke="lime" points="2154.28,-226.049 2161.27,-218.086 2150.84,-219.953 2154.28,-226.049"/>
</a>
<text text-anchor="middle" x="2170.5" y="-245.4" font-family="Times Roman,serif" font-size="14.00">BossEmployee</text>
</g>
<!-- Rondach&#45;&gt;Voada -->
<g id="edge86" class="edge"><title>Rondach&#45;&gt;Voada</title>
<a xlink:title="Rondach &#45;&gt; Voada (Siblings, Ally)">
<path fill="none" stroke="green" d="M2535.17,-184.661C2528.74,-172.89 2519.05,-157.992 2507,-148 2494.9,-137.967 2479.68,-130.235 2465.41,-124.496"/>
<polygon fill="green" stroke="green" points="2466.33,-121.102 2455.74,-120.838 2463.85,-127.649 2466.33,-121.102"/>
</a>
<text text-anchor="middle" x="2548.5" y="-153.4" font-family="Times Roman,serif" font-size="14.00">Siblings</text>
</g>
<!-- Banning -->
<g id="node63" class="node"><title>Banning</title>
<a xlink:href="http://www.uesp.net/wiki/Skyrim:Banning" xlink:title="Banning">
<ellipse fill="none" stroke="black" cx="2421" cy="-203" rx="51.8276" ry="18.3848"/>
<text text-anchor="middle" x="2421" y="-199.4" font-family="Times Roman,serif" font-size="14.00">Banning</text>
</a>
</g>
<!-- Banning&#45;&gt;Voada -->
<g id="edge88" class="edge"><title>Banning&#45;&gt;Voada</title>
<a xlink:title="Banning &#45;&gt; Voada (FavorTarget, Acquaintance)">
<path fill="none" stroke="orange" d="M2421,-184.382C2421,-171.538 2421,-154.216 2421,-139.627"/>
<polygon fill="orange" stroke="orange" points="2424.5,-139.59 2421,-129.59 2417.5,-139.59 2424.5,-139.59"/>
</a>
<text text-anchor="middle" x="2462" y="-153.4" font-family="Times Roman,serif" font-size="14.00">FavorTarget</text>
</g>
</g>
</svg>
