<?xml version="1.0" encoding="UTF-8" standalone="no"?>
<!DOCTYPE svg PUBLIC "-//W3C//DTD SVG 1.1//EN"
 "http://www.w3.org/Graphics/SVG/1.1/DTD/svg11.dtd">
<!-- Generated by graphviz version 2.26.3 (20100126.1600)
 -->
<!-- Title: Relationships_component_30 Pages: 1 -->
<svg width="255pt" height="500pt"
 viewBox="0.00 0.00 255.00 500.00" xmlns="http://www.w3.org/2000/svg" xmlns:xlink="http://www.w3.org/1999/xlink">
<g id="graph1" class="graph" transform="scale(1 1) rotate(0) translate(4 496)">
<title>Relationships_component_30</title>
<polygon fill="white" stroke="white" points="-4,5 -4,-496 252,-496 252,5 -4,5"/>
<!-- Rogatus -->
<g id="node1" class="node"><title>Rogatus</title>
<a xlink:href="http://www.uesp.net/wiki/Skyrim:Rogatus Salvius" xlink:title="&lt;TABLE&gt;">
<image xlink:href="120px-SR-npc-Rogatus_Salvius.jpg" width="110px" height="91px" preserveAspectRatio="xMinYMin meet" x="12" y="-301"/>
<text text-anchor="start" x="12.5" y="-193.733" font-family="Times Roman,serif" font-size="14.00">Rogatus Salvius</text>
</a>
</g>
<!-- LeontiusSalvius -->
<g id="node2" class="node"><title>LeontiusSalvius</title>
<a xlink:href="http://www.uesp.net/wiki/Skyrim:Leontius Salvius" xlink:title="&lt;TABLE&gt;">
<image xlink:href="120px-SR-npc-Leontius_Salvius.jpg" width="114px" height="91px" preserveAspectRatio="xMinYMin meet" x="63" y="-119"/>
<text text-anchor="start" x="63.5" y="-11.7333" font-family="Times Roman,serif" font-size="14.00">Leontius Salvius</text>
</a>
</g>
<!-- Rogatus&#45;&gt;LeontiusSalvius -->
<g id="edge2" class="edge"><title>Rogatus&#45;&gt;LeontiusSalvius</title>
<a xlink:title="Rogatus Salvius &#45;&gt; Leontius Salvius (ParentChild, Ally)">
<path fill="none" stroke="green" d="M68.0529,-182.307C69.3838,-170.084 71.5536,-157.513 75,-146 75.8797,-143.061 76.8747,-140.11 77.963,-137.163"/>
<polygon fill="green" stroke="green" points="81.2476,-138.376 81.73,-127.792 74.7527,-135.765 81.2476,-138.376"/>
</a>
<text text-anchor="middle" x="115.5" y="-151.4" font-family="Times Roman,serif" font-size="14.00">ParentChild</text>
</g>
<!-- Vigdis -->
<g id="node4" class="node"><title>Vigdis</title>
<a xlink:href="http://www.uesp.net/wiki/Skyrim:Vigdis Salvius" xlink:title="&lt;TABLE&gt;">
<image xlink:href="120px-SR-npc-Vigdis_Salvius.jpg" width="95px" height="91px" preserveAspectRatio="xMinYMin meet" x="81" y="-483"/>
<text text-anchor="start" x="81.5" y="-375.733" font-family="Times Roman,serif" font-size="14.00">Vigdis Salvius</text>
</a>
</g>
<!-- Vigdis&#45;&gt;Rogatus -->
<g id="edge4" class="edge"><title>Vigdis&#45;&gt;Rogatus</title>
<a xlink:title="Vigdis Salvius &#45;&gt; Rogatus Salvius (Spouse, Ally)">
<path fill="none" stroke="green" d="M106.665,-364.345C101.789,-349.798 96.5693,-334.223 91.5702,-319.308"/>
<polygon fill="green" stroke="green" points="94.8193,-317.988 88.3228,-309.619 88.1822,-320.213 94.8193,-317.988"/>
</a>
<text text-anchor="middle" x="124" y="-333.4" font-family="Times Roman,serif" font-size="14.00">Spouse</text>
</g>
<!-- Vigdis&#45;&gt;LeontiusSalvius -->
<g id="edge6" class="edge"><title>Vigdis&#45;&gt;LeontiusSalvius</title>
<a xlink:title="Vigdis Salvius &#45;&gt; Leontius Salvius (ParentChild, Ally)">
<path fill="none" stroke="green" d="M149.273,-364.391C150.764,-358.228 152.051,-352.028 153,-346 166.83,-258.183 174.257,-233.004 156,-146 155.401,-143.147 154.697,-140.272 153.906,-137.394"/>
<polygon fill="green" stroke="green" points="157.188,-136.155 150.91,-127.621 150.495,-138.207 157.188,-136.155"/>
</a>
<text text-anchor="middle" x="206.5" y="-242.4" font-family="Times Roman,serif" font-size="14.00">ParentChild</text>
</g>
</g>
</svg>
