<?xml version="1.0" encoding="UTF-8" standalone="no"?>
<!DOCTYPE svg PUBLIC "-//W3C//DTD SVG 1.1//EN"
 "http://www.w3.org/Graphics/SVG/1.1/DTD/svg11.dtd">
<!-- Generated by graphviz version 2.26.3 (20100126.1600)
 -->
<!-- Title: Relationships_component_24 Pages: 1 -->
<svg width="610pt" height="138pt"
 viewBox="0.00 0.00 610.00 138.00" xmlns="http://www.w3.org/2000/svg" xmlns:xlink="http://www.w3.org/1999/xlink">
<g id="graph1" class="graph" transform="scale(1 1) rotate(0) translate(4 134)">
<title>Relationships_component_24</title>
<polygon fill="white" stroke="white" points="-4,5 -4,-134 607,-134 607,5 -4,5"/>
<!-- Indaryn -->
<g id="node1" class="node"><title>Indaryn</title>
<a xlink:href="http://www.uesp.net/wiki/Skyrim:Indaryn" xlink:title="Indaryn">
<ellipse fill="none" stroke="black" cx="325" cy="-111" rx="48.9975" ry="18.3848"/>
<text text-anchor="middle" x="325" y="-107.4" font-family="Times Roman,serif" font-size="14.00">Indaryn</text>
</a>
</g>
<!-- Romlyn -->
<g id="node2" class="node"><title>Romlyn</title>
<a xlink:href="http://www.uesp.net/wiki/Skyrim:Romlyn Dreth" xlink:title="Romlyn Dreth">
<ellipse fill="none" stroke="black" cx="80" cy="-19" rx="79.9031" ry="18.3848"/>
<text text-anchor="middle" x="80" y="-15.4" font-family="Times Roman,serif" font-size="14.00">Romlyn Dreth</text>
</a>
</g>
<!-- Indaryn&#45;&gt;Romlyn -->
<g id="edge2" class="edge"><title>Indaryn&#45;&gt;Romlyn</title>
<a xlink:title="Indaryn &#45;&gt; Romlyn Dreth (BossEmployee, Acquaintance)">
<path fill="none" stroke="orange" d="M278.579,-104.952C245.414,-99.552 200.256,-89.9664 163,-74 144.538,-66.088 125.736,-54.0275 110.707,-43.2145"/>
<polygon fill="orange" stroke="orange" points="112.45,-40.1512 102.324,-37.0328 108.295,-45.785 112.45,-40.1512"/>
</a>
<text text-anchor="middle" x="212.5" y="-61.4" font-family="Times Roman,serif" font-size="14.00">BossEmployee</text>
</g>
<!-- Niluva -->
<g id="node4" class="node"><title>Niluva</title>
<a xlink:href="http://www.uesp.net/wiki/Skyrim:Niluva Hlaalu" xlink:title="Niluva Hlaalu">
<ellipse fill="none" stroke="black" cx="254" cy="-19" rx="75.8684" ry="18.3848"/>
<text text-anchor="middle" x="254" y="-15.4" font-family="Times Roman,serif" font-size="14.00">Niluva Hlaalu</text>
</a>
</g>
<!-- Indaryn&#45;&gt;Niluva -->
<g id="edge4" class="edge"><title>Indaryn&#45;&gt;Niluva</title>
<a xlink:title="Indaryn &#45;&gt; Niluva Hlaalu (BossEmployee, Acquaintance)">
<path fill="none" stroke="orange" d="M298.783,-95.2374C290.655,-89.3688 282.212,-82.1325 276,-74 269.949,-66.0774 265.326,-56.2686 261.917,-47.138"/>
<polygon fill="orange" stroke="orange" points="265.214,-45.9618 258.685,-37.618 258.586,-48.2124 265.214,-45.9618"/>
</a>
<text text-anchor="middle" x="325.5" y="-61.4" font-family="Times Roman,serif" font-size="14.00">BossEmployee</text>
</g>
<!-- Valindor -->
<g id="node6" class="node"><title>Valindor</title>
<a xlink:href="http://www.uesp.net/wiki/Skyrim:Valindor" xlink:title="Valindor">
<ellipse fill="none" stroke="black" cx="399" cy="-19" rx="51.1176" ry="18.3848"/>
<text text-anchor="middle" x="399" y="-15.4" font-family="Times Roman,serif" font-size="14.00">Valindor</text>
</a>
</g>
<!-- Indaryn&#45;&gt;Valindor -->
<g id="edge6" class="edge"><title>Indaryn&#45;&gt;Valindor</title>
<a xlink:title="Indaryn &#45;&gt; Valindor (BossEmployee, Acquaintance)">
<path fill="none" stroke="orange" d="M351.352,-95.3929C359.715,-89.49 368.474,-82.1935 375,-74 381.292,-66.1004 386.26,-56.2972 390.005,-47.1647"/>
<polygon fill="orange" stroke="orange" points="393.343,-48.2319 393.593,-37.64 386.792,-45.7642 393.343,-48.2319"/>
</a>
<text text-anchor="middle" x="434.5" y="-61.4" font-family="Times Roman,serif" font-size="14.00">BossEmployee</text>
</g>
<!-- Ungrien -->
<g id="node8" class="node"><title>Ungrien</title>
<a xlink:href="http://www.uesp.net/wiki/Skyrim:Ungrien" xlink:title="Ungrien">
<ellipse fill="none" stroke="black" cx="519" cy="-19" rx="50.2046" ry="18.3848"/>
<text text-anchor="middle" x="519" y="-15.4" font-family="Times Roman,serif" font-size="14.00">Ungrien</text>
</a>
</g>
<!-- Indaryn&#45;&gt;Ungrien -->
<g id="edge8" class="edge"><title>Indaryn&#45;&gt;Ungrien</title>
<a xlink:title="Indaryn &#45;&gt; Ungrien (BossEmployee, Acquaintance)">
<path fill="none" stroke="orange" d="M371.478,-104.725C412.929,-98.3742 469.792,-87.5674 488,-74 497.192,-67.1511 504.047,-56.7195 508.941,-46.7753"/>
<polygon fill="orange" stroke="orange" points="512.189,-48.0836 513.044,-37.5233 505.79,-45.2457 512.189,-48.0836"/>
</a>
<text text-anchor="middle" x="552.5" y="-61.4" font-family="Times Roman,serif" font-size="14.00">BossEmployee</text>
</g>
</g>
</svg>
