<?xml version="1.0" encoding="UTF-8" standalone="no"?>
<!DOCTYPE svg PUBLIC "-//W3C//DTD SVG 1.1//EN"
 "http://www.w3.org/Graphics/SVG/1.1/DTD/svg11.dtd">
<!-- Generated by graphviz version 2.26.3 (20100126.1600)
 -->
<!-- Title: Relationships_component_3 Pages: 1 -->
<svg width="1241pt" height="766pt"
 viewBox="0.00 0.00 1241.00 766.00" xmlns="http://www.w3.org/2000/svg" xmlns:xlink="http://www.w3.org/1999/xlink">
<g id="graph1" class="graph" transform="scale(1 1) rotate(0) translate(4 762)">
<title>Relationships_component_3</title>
<polygon fill="white" stroke="white" points="-4,5 -4,-762 1238,-762 1238,5 -4,5"/>
<!-- Thadgeir -->
<g id="node1" class="node"><title>Thadgeir</title>
<a xlink:href="http://www.uesp.net/wiki/Skyrim:Thadgeir" xlink:title="Thadgeir">
<ellipse fill="none" stroke="black" cx="158" cy="-739" rx="53.9477" ry="18.3848"/>
<text text-anchor="middle" x="158" y="-735.4" font-family="Times Roman,serif" font-size="14.00">Thadgeir</text>
</a>
</g>
<!-- Runil -->
<g id="node2" class="node"><title>Runil</title>
<a xlink:href="http://www.uesp.net/wiki/Skyrim:Runil" xlink:title="Runil">
<ellipse fill="none" stroke="black" cx="1100" cy="-387" rx="36.0624" ry="18.3848"/>
<text text-anchor="middle" x="1100" y="-383.4" font-family="Times Roman,serif" font-size="14.00">Runil</text>
</a>
</g>
<!-- Thadgeir&#45;&gt;Runil -->
<g id="edge2" class="edge"><title>Thadgeir&#45;&gt;Runil</title>
<a xlink:title="Thadgeir &#45;&gt; Runil (FavorTarget, Acquaintance)">
<path fill="none" stroke="orange" d="M211.328,-735.337C318.387,-727.536 555.823,-707.864 633,-682 787.096,-630.359 809.98,-582.177 949,-498 988.977,-473.794 1000.62,-470.045 1038,-442 1050.87,-432.342 1064.33,-420.624 1075.41,-410.49"/>
<polygon fill="orange" stroke="orange" points="1078.06,-412.808 1083.01,-403.443 1073.3,-407.675 1078.06,-412.808"/>
</a>
<text text-anchor="middle" x="906" y="-567.4" font-family="Times Roman,serif" font-size="14.00">FavorTarget</text>
</g>
<!-- Siddgeir -->
<g id="node4" class="node"><title>Siddgeir</title>
<a xlink:href="http://www.uesp.net/wiki/Skyrim:Siddgeir" xlink:title="Siddgeir">
<ellipse fill="none" stroke="black" cx="356" cy="-203" rx="50.9117" ry="18.3848"/>
<text text-anchor="middle" x="356" y="-199.4" font-family="Times Roman,serif" font-size="14.00">Siddgeir</text>
</a>
</g>
<!-- Thadgeir&#45;&gt;Siddgeir -->
<g id="edge4" class="edge"><title>Thadgeir&#45;&gt;Siddgeir</title>
<a xlink:title="Thadgeir &#45;&gt; Siddgeir (AuntUncle, Friend)">
<path fill="none" stroke="olive" d="M115.243,-727.421C68.4506,-713.456 0,-688.645 0,-663 0,-663 0,-663 0,-525 0,-374.947 44.0498,-301.322 181,-240 217.501,-223.656 261.566,-214.392 296.347,-209.222"/>
<polygon fill="olive" stroke="olive" points="296.947,-212.672 306.359,-207.807 295.968,-205.741 296.947,-212.672"/>
</a>
<text text-anchor="middle" x="40.5" y="-475.4" font-family="Times Roman,serif" font-size="14.00">AuntUncle</text>
</g>
<!-- Helvard -->
<g id="node6" class="node"><title>Helvard</title>
<a xlink:href="http://www.uesp.net/wiki/Skyrim:Helvard" xlink:title="Helvard">
<ellipse fill="none" stroke="black" cx="190" cy="-295" rx="48.9975" ry="18.3848"/>
<text text-anchor="middle" x="190" y="-291.4" font-family="Times Roman,serif" font-size="14.00">Helvard</text>
</a>
</g>
<!-- Thadgeir&#45;&gt;Helvard -->
<g id="edge6" class="edge"><title>Thadgeir&#45;&gt;Helvard</title>
<a xlink:title="Thadgeir &#45;&gt; Helvard (Ally)">
<path fill="none" stroke="green" d="M135.144,-722.014C119.287,-708.121 101,-686.915 101,-663 101,-663 101,-663 101,-525 101,-453.605 105.271,-432.911 135,-368 142.934,-350.676 155.526,-333.543 166.66,-320.233"/>
<polygon fill="green" stroke="green" points="169.472,-322.332 173.35,-312.473 164.17,-317.762 169.472,-322.332"/>
</a>
</g>
<!-- Nenya -->
<g id="node8" class="node"><title>Nenya</title>
<a xlink:href="http://www.uesp.net/wiki/Skyrim:Nenya" xlink:title="Nenya">
<ellipse fill="none" stroke="black" cx="187" cy="-387" rx="43.1335" ry="18.3848"/>
<text text-anchor="middle" x="187" y="-383.4" font-family="Times Roman,serif" font-size="14.00">Nenya</text>
</a>
</g>
<!-- Thadgeir&#45;&gt;Nenya -->
<g id="edge8" class="edge"><title>Thadgeir&#45;&gt;Nenya</title>
<a xlink:title="Thadgeir &#45;&gt; Nenya (Ally)">
<path fill="none" stroke="green" d="M150.708,-720.581C145.35,-705.385 139,-683.129 139,-663 139,-663 139,-663 139,-525 139,-484.61 157.569,-441.077 171.608,-413.936"/>
<polygon fill="green" stroke="green" points="174.729,-415.522 176.347,-405.052 168.553,-412.228 174.729,-415.522"/>
</a>
</g>
<!-- Tekla -->
<g id="node10" class="node"><title>Tekla</title>
<a xlink:href="http://www.uesp.net/wiki/Skyrim:Tekla" xlink:title="Tekla">
<ellipse fill="none" stroke="black" cx="587" cy="-663" rx="36.7696" ry="18.3848"/>
<text text-anchor="middle" x="587" y="-659.4" font-family="Times Roman,serif" font-size="14.00">Tekla</text>
</a>
</g>
<!-- Thadgeir&#45;&gt;Tekla -->
<g id="edge10" class="edge"><title>Thadgeir&#45;&gt;Tekla</title>
<a xlink:title="Thadgeir &#45;&gt; Tekla (Confidant)">
<path fill="none" stroke="lime" d="M206.378,-730.43C290.119,-715.594 460.9,-685.339 542.135,-670.948"/>
<polygon fill="lime" stroke="lime" points="542.817,-674.382 552.053,-669.191 541.596,-667.489 542.817,-674.382"/>
</a>
</g>
<!-- Kust -->
<g id="node12" class="node"><title>Kust</title>
<a xlink:href="http://www.uesp.net/wiki/Skyrim:Kust" xlink:title="Kust">
<ellipse fill="none" stroke="black" cx="1036" cy="-295" rx="33.234" ry="18.3848"/>
<text text-anchor="middle" x="1036" y="-291.4" font-family="Times Roman,serif" font-size="14.00">Kust</text>
</a>
</g>
<!-- Runil&#45;&gt;Kust -->
<g id="edge12" class="edge"><title>Runil&#45;&gt;Kust</title>
<a xlink:title="Runil &#45;&gt; Kust (MasterAssistant, Ally)">
<path fill="none" stroke="green" d="M1085.49,-370.038C1080.41,-363.863 1074.79,-356.743 1070,-350 1063.57,-340.939 1057.02,-330.66 1051.42,-321.462"/>
<polygon fill="green" stroke="green" points="1054.31,-319.481 1046.16,-312.708 1048.31,-323.083 1054.31,-319.481"/>
</a>
<text text-anchor="middle" x="1125.5" y="-337.4" font-family="Times Roman,serif" font-size="14.00">MasterAssistant</text>
</g>
<!-- Bolund -->
<g id="node20" class="node"><title>Bolund</title>
<a xlink:href="http://www.uesp.net/wiki/Skyrim:Bolund" xlink:title="Bolund">
<ellipse fill="none" stroke="black" cx="655" cy="-19" rx="45.9619" ry="18.3848"/>
<text text-anchor="middle" x="655" y="-15.4" font-family="Times Roman,serif" font-size="14.00">Bolund</text>
</a>
</g>
<!-- Siddgeir&#45;&gt;Bolund -->
<g id="edge24" class="edge"><title>Siddgeir&#45;&gt;Bolund</title>
<a xlink:title="Siddgeir &#45;&gt; Bolund (BossEmployee, Ally)">
<path fill="none" stroke="green" d="M352.899,-184.26C350.024,-160.199 348.914,-118.412 370,-92 398.458,-56.3553 525.924,-34.9152 600.4,-25.2091"/>
<polygon fill="green" stroke="green" points="601.064,-28.6529 610.542,-23.9171 600.179,-21.709 601.064,-28.6529"/>
</a>
<text text-anchor="middle" x="419.5" y="-107.4" font-family="Times Roman,serif" font-size="14.00">BossEmployee</text>
</g>
<!-- Solaf -->
<g id="node22" class="node"><title>Solaf</title>
<a xlink:href="http://www.uesp.net/wiki/Skyrim:Solaf" xlink:title="Solaf">
<ellipse fill="none" stroke="black" cx="655" cy="-111" rx="34.8574" ry="18.3848"/>
<text text-anchor="middle" x="655" y="-107.4" font-family="Times Roman,serif" font-size="14.00">Solaf</text>
</a>
</g>
<!-- Siddgeir&#45;&gt;Solaf -->
<g id="edge26" class="edge"><title>Siddgeir&#45;&gt;Solaf</title>
<a xlink:title="Siddgeir &#45;&gt; Solaf (BossEmployee, Ally)">
<path fill="none" stroke="green" d="M392.22,-189.847C424.703,-178.238 473.768,-161.164 517,-148 548.982,-138.262 585.54,-128.522 612.991,-121.481"/>
<polygon fill="green" stroke="green" points="614.211,-124.782 623.037,-118.92 612.482,-117.999 614.211,-124.782"/>
</a>
<text text-anchor="middle" x="566.5" y="-153.4" font-family="Times Roman,serif" font-size="14.00">BossEmployee</text>
</g>
<!-- Helvard&#45;&gt;Siddgeir -->
<g id="edge36" class="edge"><title>Helvard&#45;&gt;Siddgeir</title>
<a xlink:title="Helvard &#45;&gt; Siddgeir (JarlHousecarl, Ally)">
<path fill="none" stroke="green" d="M184.998,-276.45C183.019,-264.74 182.851,-249.991 191,-240 204.328,-223.659 254.655,-214.007 296.26,-208.682"/>
<polygon fill="green" stroke="green" points="296.845,-212.137 306.348,-207.452 295.998,-205.188 296.845,-212.137"/>
</a>
<text text-anchor="middle" x="236.5" y="-245.4" font-family="Times Roman,serif" font-size="14.00">JarlHousecarl</text>
</g>
<!-- Nenya&#45;&gt;Siddgeir -->
<g id="edge56" class="edge"><title>Nenya&#45;&gt;Siddgeir</title>
<a xlink:title="Nenya &#45;&gt; Siddgeir (Acquaintance)">
<path fill="none" stroke="orange" d="M202.576,-369.706C227.454,-342.131 277.763,-286.561 321,-240 324.593,-236.131 328.415,-232.053 332.162,-228.075"/>
<polygon fill="orange" stroke="orange" points="334.874,-230.301 339.199,-220.628 329.787,-225.493 334.874,-230.301"/>
</a>
</g>
<!-- Nenya&#45;&gt;Helvard -->
<g id="edge58" class="edge"><title>Nenya&#45;&gt;Helvard</title>
<a xlink:title="Nenya &#45;&gt; Helvard (Ally)">
<path fill="none" stroke="green" d="M187.607,-368.382C188.026,-355.538 188.591,-338.216 189.067,-323.627"/>
<polygon fill="green" stroke="green" points="192.566,-323.699 189.394,-313.59 185.57,-323.47 192.566,-323.699"/>
</a>
</g>
<!-- Tekla&#45;&gt;Siddgeir -->
<g id="edge76" class="edge"><title>Tekla&#45;&gt;Siddgeir</title>
<a xlink:title="Tekla &#45;&gt; Siddgeir (Rival)">
<path fill="none" stroke="orangered" d="M588.684,-644.29C591.65,-602.605 594.554,-499.801 560,-424 549.24,-400.395 432.254,-280.263 380.448,-227.691"/>
<polygon fill="orangered" stroke="orangered" points="382.812,-225.104 373.297,-220.444 377.83,-230.021 382.812,-225.104"/>
</a>
</g>
<!-- ValgaVinicia -->
<g id="node14" class="node"><title>ValgaVinicia</title>
<a xlink:href="http://www.uesp.net/wiki/Skyrim:Valga Vinicia" xlink:title="Valga Vinicia">
<ellipse fill="none" stroke="black" cx="465" cy="-571" rx="73.0388" ry="18.3848"/>
<text text-anchor="middle" x="465" y="-567.4" font-family="Times Roman,serif" font-size="14.00">Valga Vinicia</text>
</a>
</g>
<!-- Tekla&#45;&gt;ValgaVinicia -->
<g id="edge74" class="edge"><title>Tekla&#45;&gt;ValgaVinicia</title>
<a xlink:title="Tekla &#45;&gt; Valga Vinicia (Confidant)">
<path fill="none" stroke="lime" d="M566.304,-647.393C547.135,-632.938 518.353,-611.234 496.362,-594.65"/>
<polygon fill="lime" stroke="lime" points="498.391,-591.797 488.3,-588.57 494.177,-597.386 498.391,-591.797"/>
</a>
</g>
<!-- Narri -->
<g id="node16" class="node"><title>Narri</title>
<a xlink:href="http://www.uesp.net/wiki/Skyrim:Narri" xlink:title="Narri">
<ellipse fill="none" stroke="black" cx="512" cy="-295" rx="36.0624" ry="18.3848"/>
<text text-anchor="middle" x="512" y="-291.4" font-family="Times Roman,serif" font-size="14.00">Narri</text>
</a>
</g>
<!-- Tekla&#45;&gt;Narri -->
<g id="edge78" class="edge"><title>Tekla&#45;&gt;Narri</title>
<a xlink:title="Tekla &#45;&gt; Narri (Siblings, Ally)">
<path fill="none" stroke="green" d="M601.555,-645.944C615.031,-628.366 633,-599.572 633,-571 633,-571 633,-571 633,-433 633,-402.205 627.383,-392.707 609,-368 592.232,-345.464 566.633,-326.607 545.942,-313.707"/>
<polygon fill="green" stroke="green" points="547.492,-310.554 537.123,-308.378 543.872,-316.546 547.492,-310.554"/>
</a>
<text text-anchor="middle" x="659.5" y="-475.4" font-family="Times Roman,serif" font-size="14.00">Siblings</text>
</g>
<!-- Tekla&#45;&gt;Bolund -->
<g id="edge80" class="edge"><title>Tekla&#45;&gt;Bolund</title>
<a xlink:title="Tekla &#45;&gt; Bolund (Rival)">
<path fill="none" stroke="orangered" d="M624.118,-661.322C756.124,-654.869 1195,-629.049 1195,-571 1195,-571 1195,-571 1195,-111 1195,-62.2818 849.023,-32.611 710.934,-22.7088"/>
<polygon fill="orangered" stroke="orangered" points="710.797,-19.1904 700.575,-21.9751 710.302,-26.1729 710.797,-19.1904"/>
</a>
</g>
<!-- Tekla&#45;&gt;Solaf -->
<g id="edge82" class="edge"><title>Tekla&#45;&gt;Solaf</title>
<a xlink:title="Tekla &#45;&gt; Solaf (Courting, Confidant)">
<path fill="none" stroke="lime" d="M609.515,-648.29C617.686,-642.135 626.497,-634.445 633,-626 670.993,-576.658 677.05,-558.913 690,-498 718.105,-365.797 680.784,-203.494 663.228,-139.174"/>
<polygon fill="lime" stroke="lime" points="666.551,-138.058 660.495,-129.364 659.808,-139.937 666.551,-138.058"/>
</a>
<text text-anchor="middle" x="730.5" y="-383.4" font-family="Times Roman,serif" font-size="14.00">Courting</text>
</g>
<!-- Kust&#45;&gt;Bolund -->
<g id="edge72" class="edge"><title>Kust&#45;&gt;Bolund</title>
<a xlink:title="Kust &#45;&gt; Bolund (Rival)">
<path fill="none" stroke="orangered" d="M1016.57,-280.036C966.703,-241.762 829.804,-137.576 712,-56 704.459,-50.7784 696.242,-45.316 688.454,-40.2406"/>
<polygon fill="orangered" stroke="orangered" points="690.201,-37.2017 679.903,-34.7082 686.398,-43.0789 690.201,-37.2017"/>
</a>
</g>
<!-- ValgaVinicia&#45;&gt;Siddgeir -->
<g id="edge14" class="edge"><title>ValgaVinicia&#45;&gt;Siddgeir</title>
<a xlink:title="Valga Vinicia &#45;&gt; Siddgeir (Rival)">
<path fill="none" stroke="orangered" d="M457.3,-552.37C455.072,-546.551 452.767,-540.067 451,-534 425.362,-445.959 435.872,-419.672 409,-332 397.99,-296.078 380.854,-256.307 369.064,-230.551"/>
<polygon fill="orangered" stroke="orangered" points="372.207,-229.01 364.831,-221.404 365.854,-231.949 372.207,-229.01"/>
</a>
</g>
<!-- ValgaVinicia&#45;&gt;Narri -->
<g id="edge16" class="edge"><title>ValgaVinicia&#45;&gt;Narri</title>
<a xlink:title="Valga Vinicia &#45;&gt; Narri (BossEmployee, Confidant)">
<path fill="none" stroke="lime" d="M460.958,-552.212C455.574,-524.042 447.741,-469.325 457,-424 464.562,-386.985 483.165,-347.446 496.645,-322.043"/>
<polygon fill="lime" stroke="lime" points="499.84,-323.493 501.527,-313.034 493.685,-320.158 499.84,-323.493"/>
</a>
<text text-anchor="middle" x="506.5" y="-429.4" font-family="Times Roman,serif" font-size="14.00">BossEmployee</text>
</g>
<!-- Dengeir -->
<g id="node18" class="node"><title>Dengeir</title>
<a xlink:href="http://www.uesp.net/wiki/Skyrim:Dengeir of Stuhn" xlink:title="Dengeir of Stuhn">
<ellipse fill="none" stroke="black" cx="300" cy="-479" rx="94.9596" ry="18.3848"/>
<text text-anchor="middle" x="300" y="-475.4" font-family="Times Roman,serif" font-size="14.00">Dengeir of Stuhn</text>
</a>
</g>
<!-- ValgaVinicia&#45;&gt;Dengeir -->
<g id="edge18" class="edge"><title>ValgaVinicia&#45;&gt;Dengeir</title>
<a xlink:title="Valga Vinicia &#45;&gt; Dengeir of Stuhn (Rival)">
<path fill="none" stroke="orangered" d="M439.228,-553.552C422.17,-542.295 399.132,-527.636 378,-516 368.25,-510.631 357.592,-505.263 347.374,-500.348"/>
<polygon fill="orangered" stroke="orangered" points="348.688,-497.097 338.153,-495.974 345.688,-503.422 348.688,-497.097"/>
</a>
</g>
<!-- ValgaVinicia&#45;&gt;Bolund -->
<g id="edge20" class="edge"><title>ValgaVinicia&#45;&gt;Bolund</title>
<a xlink:title="Valga Vinicia &#45;&gt; Bolund (Rival)">
<path fill="none" stroke="orangered" d="M413.136,-557.89C337.537,-538.642 205.029,-504.325 196,-498 105.61,-434.684 53,-405.36 53,-295 53,-295 53,-295 53,-111 53,-56.0843 449.511,-29.7088 598.935,-21.7189"/>
<polygon fill="orangered" stroke="orangered" points="599.456,-25.1965 609.258,-21.1753 599.088,-18.2062 599.456,-25.1965"/>
</a>
</g>
<!-- ValgaVinicia&#45;&gt;Solaf -->
<g id="edge22" class="edge"><title>ValgaVinicia&#45;&gt;Solaf</title>
<a xlink:title="Valga Vinicia &#45;&gt; Solaf (Rival)">
<path fill="none" stroke="orangered" d="M480.957,-552.56C501,-528.563 535.27,-484.643 556,-442 607.35,-336.371 638.066,-198.676 649.671,-139.769"/>
<polygon fill="orangered" stroke="orangered" points="653.154,-140.195 651.617,-129.712 646.281,-138.866 653.154,-140.195"/>
</a>
</g>
<!-- Narri&#45;&gt;Siddgeir -->
<g id="edge30" class="edge"><title>Narri&#45;&gt;Siddgeir</title>
<a xlink:title="Narri &#45;&gt; Siddgeir (Rival)">
<path fill="none" stroke="orangered" d="M497.123,-277.998C485.953,-266.068 469.756,-250.444 453,-240 438.56,-231 421.578,-223.606 405.894,-217.857"/>
<polygon fill="orangered" stroke="orangered" points="406.925,-214.51 396.33,-214.491 404.601,-221.113 406.925,-214.51"/>
</a>
</g>
<!-- Narri&#45;&gt;Bolund -->
<g id="edge32" class="edge"><title>Narri&#45;&gt;Bolund</title>
<a xlink:title="Narri &#45;&gt; Bolund (Rival)">
<path fill="none" stroke="orangered" d="M504.306,-276.777C493.367,-247.928 476.765,-190.645 497,-148 521.455,-96.464 577.693,-58.7082 616.033,-37.796"/>
<polygon fill="orangered" stroke="orangered" points="617.695,-40.8762 624.883,-33.0928 614.41,-34.6948 617.695,-40.8762"/>
</a>
</g>
<!-- Narri&#45;&gt;Solaf -->
<g id="edge34" class="edge"><title>Narri&#45;&gt;Solaf</title>
<a xlink:title="Narri &#45;&gt; Solaf (Rival)">
<path fill="none" stroke="orangered" d="M526.477,-277.744C546.894,-253.251 585.106,-206.837 616,-166 623.064,-156.662 630.563,-146.224 637.077,-136.971"/>
<polygon fill="orangered" stroke="orangered" points="640.112,-138.739 642.975,-128.538 634.376,-134.727 640.112,-138.739"/>
</a>
</g>
<!-- Dengeir&#45;&gt;Thadgeir -->
<g id="edge44" class="edge"><title>Dengeir&#45;&gt;Thadgeir</title>
<a xlink:title="Dengeir of Stuhn &#45;&gt; Thadgeir (Siblings, Confidant)">
<path fill="none" stroke="lime" d="M285.098,-497.369C280.662,-503.177 275.938,-509.722 272,-516 229.775,-583.321 189.737,-668.177 170.284,-711.219"/>
<polygon fill="lime" stroke="lime" points="167.026,-709.932 166.122,-720.488 173.411,-712.8 167.026,-709.932"/>
</a>
<text text-anchor="middle" x="247.5" y="-613.4" font-family="Times Roman,serif" font-size="14.00">Siblings</text>
</g>
<!-- Dengeir&#45;&gt;Runil -->
<g id="edge46" class="edge"><title>Dengeir&#45;&gt;Runil</title>
<a xlink:title="Dengeir of Stuhn &#45;&gt; Runil (Confidant)">
<path fill="none" stroke="lime" d="M390.485,-473.241C452.531,-469.349 536.739,-464.178 611,-460 688.758,-455.625 884.897,-458.546 961,-442 966.246,-440.86 1022.79,-418.213 1062.12,-402.34"/>
<polygon fill="lime" stroke="lime" points="1063.74,-405.458 1071.71,-398.467 1061.12,-398.968 1063.74,-405.458"/>
</a>
</g>
<!-- Dengeir&#45;&gt;Siddgeir -->
<g id="edge48" class="edge"><title>Dengeir&#45;&gt;Siddgeir</title>
<a xlink:title="Dengeir of Stuhn &#45;&gt; Siddgeir (AuntUncle, Friend)">
<path fill="none" stroke="olive" d="M319.647,-460.662C332.739,-447.023 348.813,-427.176 356,-406 361.428,-390.007 362.871,-383.428 356,-368 351.135,-357.076 340.865,-360.924 336,-350 332.745,-342.692 335.385,-339.976 336,-332 338.678,-297.245 345.358,-257.686 350.264,-231.642"/>
<polygon fill="olive" stroke="olive" points="353.725,-232.176 352.175,-221.695 346.851,-230.854 353.725,-232.176"/>
</a>
<text text-anchor="middle" x="372.5" y="-337.4" font-family="Times Roman,serif" font-size="14.00">AuntUncle</text>
</g>
<!-- Dengeir&#45;&gt;Helvard -->
<g id="edge50" class="edge"><title>Dengeir&#45;&gt;Helvard</title>
<a xlink:title="Dengeir of Stuhn &#45;&gt; Helvard (JarlHousecarl, Ally)">
<path fill="none" stroke="green" d="M290.348,-460.252C278.718,-437.95 258.323,-399.743 239,-368 229.429,-352.278 218.003,-335.17 208.592,-321.471"/>
<polygon fill="green" stroke="green" points="211.307,-319.242 202.739,-313.009 205.55,-323.224 211.307,-319.242"/>
</a>
<text text-anchor="middle" x="306.5" y="-383.4" font-family="Times Roman,serif" font-size="14.00">JarlHousecarl</text>
</g>
<!-- Dengeir&#45;&gt;Nenya -->
<g id="edge52" class="edge"><title>Dengeir&#45;&gt;Nenya</title>
<a xlink:title="Dengeir of Stuhn &#45;&gt; Nenya (JarlSteward, Ally)">
<path fill="none" stroke="green" d="M230.987,-466.187C206.138,-460.057 182.381,-451.882 175,-442 169.14,-434.154 169.706,-424.025 172.564,-414.601"/>
<polygon fill="green" stroke="green" points="175.872,-415.751 176.2,-405.162 169.34,-413.235 175.872,-415.751"/>
</a>
<text text-anchor="middle" x="216" y="-429.4" font-family="Times Roman,serif" font-size="14.00">JarlSteward</text>
</g>
<!-- Dengeir&#45;&gt;Tekla -->
<g id="edge54" class="edge"><title>Dengeir&#45;&gt;Tekla</title>
<a xlink:title="Dengeir of Stuhn &#45;&gt; Tekla (BossEmployee, Rival)">
<path fill="none" stroke="orangered" d="M289.342,-497.718C277.009,-522.143 261.137,-564.737 284,-590 310.974,-619.806 425.152,-597.663 464,-608 481.185,-612.573 521.345,-631.115 551.127,-645.42"/>
<polygon fill="orangered" stroke="orangered" points="549.862,-648.696 560.389,-649.892 552.906,-642.392 549.862,-648.696"/>
</a>
<text text-anchor="middle" x="333.5" y="-567.4" font-family="Times Roman,serif" font-size="14.00">BossEmployee</text>
</g>
<!-- Solaf&#45;&gt;Bolund -->
<g id="edge84" class="edge"><title>Solaf&#45;&gt;Bolund</title>
<a xlink:title="Solaf &#45;&gt; Bolund (Siblings, Ally)">
<path fill="none" stroke="green" d="M655,-92.3824C655,-79.5383 655,-62.2161 655,-47.6269"/>
<polygon fill="green" stroke="green" points="658.5,-47.5898 655,-37.5899 651.5,-47.5899 658.5,-47.5898"/>
</a>
<text text-anchor="middle" x="681.5" y="-61.4" font-family="Times Roman,serif" font-size="14.00">Siblings</text>
</g>
<!-- Mathies -->
<g id="node26" class="node"><title>Mathies</title>
<a xlink:href="http://www.uesp.net/wiki/Skyrim:Mathies" xlink:title="Mathies">
<ellipse fill="none" stroke="black" cx="1074" cy="-479" rx="50.2046" ry="18.3848"/>
<text text-anchor="middle" x="1074" y="-475.4" font-family="Times Roman,serif" font-size="14.00">Mathies</text>
</a>
</g>
<!-- Mathies&#45;&gt;Runil -->
<g id="edge28" class="edge"><title>Mathies&#45;&gt;Runil</title>
<a xlink:title="Mathies &#45;&gt; Runil (Confidant)">
<path fill="none" stroke="lime" d="M1079.26,-460.382C1082.89,-447.538 1087.79,-430.216 1091.91,-415.627"/>
<polygon fill="lime" stroke="lime" points="1095.39,-416.165 1094.75,-405.59 1088.66,-414.261 1095.39,-416.165"/>
</a>
</g>
<!-- Zaria -->
<g id="node32" class="node"><title>Zaria</title>
<a xlink:href="http://www.uesp.net/wiki/Skyrim:Zaria" xlink:title="Zaria">
<ellipse fill="none" stroke="black" cx="587" cy="-739" rx="36.977" ry="18.3848"/>
<text text-anchor="middle" x="587" y="-735.4" font-family="Times Roman,serif" font-size="14.00">Zaria</text>
</a>
</g>
<!-- Zaria&#45;&gt;Tekla -->
<g id="edge42" class="edge"><title>Zaria&#45;&gt;Tekla</title>
<a xlink:title="Zaria &#45;&gt; Tekla (Friend)">
<path fill="none" stroke="olive" d="M587,-720.213C587,-711.654 587,-701.33 587,-691.822"/>
<polygon fill="olive" stroke="olive" points="590.5,-691.57 587,-681.57 583.5,-691.57 590.5,-691.57"/>
</a>
</g>
<!-- Zaria&#45;&gt;Dengeir -->
<g id="edge38" class="edge"><title>Zaria&#45;&gt;Dengeir</title>
<a xlink:title="Zaria &#45;&gt; Dengeir of Stuhn (BossEmployee, Confidant)">
<path fill="none" stroke="lime" d="M560.881,-725.595C525.018,-706.454 459.572,-668.832 412,-626 396.731,-612.253 395.598,-606.23 383,-590 360.889,-561.516 336.224,-528.344 319.571,-505.733"/>
<polygon fill="lime" stroke="lime" points="322.346,-503.599 313.603,-497.616 316.707,-507.746 322.346,-503.599"/>
</a>
<text text-anchor="middle" x="461.5" y="-613.4" font-family="Times Roman,serif" font-size="14.00">BossEmployee</text>
</g>
<!-- Zaria&#45;&gt;Bolund -->
<g id="edge40" class="edge"><title>Zaria&#45;&gt;Bolund</title>
<a xlink:title="Zaria &#45;&gt; Bolund (Confidant)">
<path fill="none" stroke="lime" d="M624.052,-738.564C761.319,-736.464 1233,-724.757 1233,-663 1233,-663 1233,-663 1233,-111 1233,-70.49 1224.24,-81.7214 1090,-56 955.657,-30.2592 794.542,-22.423 711.168,-20.0398"/>
<polygon fill="lime" stroke="lime" points="711.24,-16.5405 701.149,-19.7691 711.051,-23.538 711.24,-16.5405"/>
</a>
</g>
<!-- Lod -->
<g id="node44" class="node"><title>Lod</title>
<a xlink:href="http://www.uesp.net/wiki/Skyrim:Lod" xlink:title="Lod">
<ellipse fill="none" stroke="black" cx="911" cy="-479" rx="28.9914" ry="18.3848"/>
<text text-anchor="middle" x="911" y="-475.4" font-family="Times Roman,serif" font-size="14.00">Lod</text>
</a>
</g>
<!-- Lod&#45;&gt;Runil -->
<g id="edge60" class="edge"><title>Lod&#45;&gt;Runil</title>
<a xlink:title="Lod &#45;&gt; Runil (Rival)">
<path fill="none" stroke="orangered" d="M937.661,-471.135C958.642,-464.52 988.352,-454.201 1013,-442 1026.26,-435.437 1028.51,-431.93 1041,-424 1049.88,-418.362 1059.54,-412.282 1068.42,-406.713"/>
<polygon fill="orangered" stroke="orangered" points="1070.37,-409.623 1076.99,-401.349 1066.65,-403.69 1070.37,-409.623"/>
</a>
</g>
<!-- Lod&#45;&gt;Kust -->
<g id="edge64" class="edge"><title>Lod&#45;&gt;Kust</title>
<a xlink:title="Lod &#45;&gt; Kust (Rival)">
<path fill="none" stroke="orangered" d="M935.511,-469.048C960.265,-457.651 997.546,-436.526 1017,-406 1032.67,-381.408 1036.53,-347.791 1037.02,-324.014"/>
<polygon fill="orangered" stroke="orangered" points="1040.52,-323.857 1037.04,-313.85 1033.52,-323.844 1040.52,-323.857"/>
</a>
</g>
<!-- Lod&#45;&gt;Solaf -->
<g id="edge66" class="edge"><title>Lod&#45;&gt;Solaf</title>
<a xlink:title="Lod &#45;&gt; Solaf (Confidant)">
<path fill="none" stroke="lime" d="M883.355,-473.239C843.859,-463.206 776,-438.478 776,-387 776,-387 776,-387 776,-203 776,-161.752 730.892,-136.577 695.76,-123.224"/>
<polygon fill="lime" stroke="lime" points="696.755,-119.862 686.161,-119.768 694.384,-126.448 696.755,-119.862"/>
</a>
</g>
<!-- GunnarStoneEye -->
<g id="node46" class="node"><title>GunnarStoneEye</title>
<a xlink:href="http://www.uesp.net/wiki/Skyrim:Gunnar Stone-Eye" xlink:title="Gunnar Stone&#45;Eye">
<ellipse fill="none" stroke="black" cx="906" cy="-387" rx="102.03" ry="18.3848"/>
<text text-anchor="middle" x="906" y="-383.4" font-family="Times Roman,serif" font-size="14.00">Gunnar Stone&#45;Eye</text>
</a>
</g>
<!-- Lod&#45;&gt;GunnarStoneEye -->
<g id="edge62" class="edge"><title>Lod&#45;&gt;GunnarStoneEye</title>
<a xlink:title="Lod &#45;&gt; Gunnar Stone&#45;Eye (Siblings, Ally)">
<path fill="none" stroke="green" d="M909.988,-460.382C909.29,-447.538 908.349,-430.216 907.556,-415.627"/>
<polygon fill="green" stroke="green" points="911.048,-415.385 907.01,-405.59 904.058,-415.765 911.048,-415.385"/>
</a>
<text text-anchor="middle" x="934.5" y="-429.4" font-family="Times Roman,serif" font-size="14.00">Siblings</text>
</g>
<!-- IndaraCaerellia -->
<g id="node50" class="node"><title>IndaraCaerellia</title>
<a xlink:href="http://www.uesp.net/wiki/Skyrim:Indara Caerellia" xlink:title="Indara Caerellia">
<ellipse fill="none" stroke="black" cx="1079" cy="-571" rx="87.889" ry="18.3848"/>
<text text-anchor="middle" x="1079" y="-567.4" font-family="Times Roman,serif" font-size="14.00">Indara Caerellia</text>
</a>
</g>
<!-- IndaraCaerellia&#45;&gt;Runil -->
<g id="edge68" class="edge"><title>IndaraCaerellia&#45;&gt;Runil</title>
<a xlink:title="Indara Caerellia &#45;&gt; Runil (Confidant)">
<path fill="none" stroke="lime" d="M1111.55,-553.787C1118.78,-548.419 1125.6,-541.815 1130,-534 1151.44,-495.955 1131.93,-444.693 1115.91,-413.844"/>
<polygon fill="lime" stroke="lime" points="1118.94,-412.089 1111.1,-404.962 1112.79,-415.422 1118.94,-412.089"/>
</a>
</g>
<!-- IndaraCaerellia&#45;&gt;Mathies -->
<g id="edge70" class="edge"><title>IndaraCaerellia&#45;&gt;Mathies</title>
<a xlink:title="Indara Caerellia &#45;&gt; Mathies (Spouse, Lover)">
<path fill="none" stroke="forestgreen" d="M1077.99,-552.382C1077.29,-539.538 1076.35,-522.216 1075.56,-507.627"/>
<polygon fill="forestgreen" stroke="forestgreen" points="1079.05,-507.385 1075.01,-497.59 1072.06,-507.765 1079.05,-507.385"/>
</a>
<text text-anchor="middle" x="1101" y="-521.4" font-family="Times Roman,serif" font-size="14.00">Spouse</text>
</g>
</g>
</svg>
