<?xml version="1.0" encoding="UTF-8" standalone="no"?>
<!DOCTYPE svg PUBLIC "-//W3C//DTD SVG 1.1//EN"
 "http://www.w3.org/Graphics/SVG/1.1/DTD/svg11.dtd">
<!-- Generated by graphviz version 2.26.3 (20100126.1600)
 -->
<!-- Title: Relationships_component_0 Pages: 1 -->
<svg width="175pt" height="464pt"
 viewBox="0.00 0.00 175.00 464.00" xmlns="http://www.w3.org/2000/svg" xmlns:xlink="http://www.w3.org/1999/xlink">
<g id="graph1" class="graph" transform="scale(1 1) rotate(0) translate(4 460)">
<title>Relationships_component_0</title>
<polygon fill="white" stroke="white" points="-4,5 -4,-460 172,-460 172,5 -4,5"/>
<!-- BrelynaMaryon -->
<g id="node1" class="node"><title>BrelynaMaryon</title>
<a xlink:href="http://www.uesp.net/wiki/Skyrim:Brelyna Maryon" xlink:title="&lt;TABLE&gt;">
<image xlink:href="120px-SR-npc-Brelyna_Maryon.jpg" width="111px" height="91px" preserveAspectRatio="xMinYMin meet" x="12" y="-447"/>
<text text-anchor="start" x="12.5" y="-339.733" font-family="Times Roman,serif" font-size="14.00">Brelyna Maryon</text>
</a>
</g>
<!-- Onmund -->
<g id="node2" class="node"><title>Onmund</title>
<a xlink:href="http://www.uesp.net/wiki/Skyrim:Onmund" xlink:title="&lt;TABLE&gt;">
<image xlink:href="120px-SR-npc-Onmund.jpg" width="91px" height="91px" preserveAspectRatio="xMinYMin meet" x="22" y="-119"/>
<text text-anchor="start" x="37.5" y="-11.7333" font-family="Times Roman,serif" font-size="14.00">Onmund</text>
</a>
</g>
<!-- BrelynaMaryon&#45;&gt;Onmund -->
<g id="edge2" class="edge"><title>BrelynaMaryon&#45;&gt;Onmund</title>
<a xlink:title="Brelyna Maryon &#45;&gt; Onmund (Friend)">
<path fill="none" stroke="olive" d="M50.103,-328.356C47.5633,-316.361 45.3463,-303.859 44,-292 37.5833,-235.474 37.5833,-220.526 44,-164 44.9781,-155.383 46.4159,-146.428 48.1032,-137.574"/>
<polygon fill="olive" stroke="olive" points="51.5598,-138.138 50.103,-127.644 44.6975,-136.756 51.5598,-138.138"/>
</a>
</g>
<!-- Jzargo -->
<g id="node4" class="node"><title>Jzargo</title>
<a xlink:href="http://www.uesp.net/wiki/Skyrim:J&#39;zargo" xlink:title="&lt;TABLE&gt;">
<image xlink:href="dummy.jpg" width="91px" height="91px" preserveAspectRatio="xMinYMin meet" x="65" y="-283"/>
<text text-anchor="start" x="87" y="-175.733" font-family="Times Roman,serif" font-size="14.00">J&#39;zargo</text>
</a>
</g>
<!-- BrelynaMaryon&#45;&gt;Jzargo -->
<g id="edge4" class="edge"><title>BrelynaMaryon&#45;&gt;Jzargo</title>
<a xlink:title="Brelyna Maryon &#45;&gt; J&#39;zargo (Friend)">
<path fill="none" stroke="olive" d="M83.748,-328.124C86.0268,-319.433 88.3805,-310.456 90.6997,-301.61"/>
<polygon fill="olive" stroke="olive" points="94.1469,-302.263 93.2977,-291.702 87.3758,-300.487 94.1469,-302.263"/>
</a>
</g>
<!-- Jzargo&#45;&gt;Onmund -->
<g id="edge6" class="edge"><title>Jzargo&#45;&gt;Onmund</title>
<a xlink:title="J&#39;zargo &#45;&gt; Onmund (Friend)">
<path fill="none" stroke="olive" d="M93.252,-164.124C90.9732,-155.433 88.6195,-146.456 86.3003,-137.61"/>
<polygon fill="olive" stroke="olive" points="89.6242,-136.487 83.7023,-127.702 82.8531,-138.263 89.6242,-136.487"/>
</a>
</g>
</g>
</svg>
