<?xml version="1.0" encoding="UTF-8" standalone="no"?>
<!DOCTYPE svg PUBLIC "-//W3C//DTD SVG 1.1//EN"
 "http://www.w3.org/Graphics/SVG/1.1/DTD/svg11.dtd">
<!-- Generated by graphviz version 2.26.3 (20100126.1600)
 -->
<!-- Title: Relationships_component_11 Pages: 1 -->
<svg width="1150pt" height="414pt"
 viewBox="0.00 0.00 1149.83 414.00" xmlns="http://www.w3.org/2000/svg" xmlns:xlink="http://www.w3.org/1999/xlink">
<g id="graph1" class="graph" transform="scale(1 1) rotate(0) translate(4 410)">
<title>Relationships_component_11</title>
<polygon fill="white" stroke="white" points="-4,5 -4,-410 1146.83,-410 1146.83,5 -4,5"/>
<!-- Larak -->
<g id="node1" class="node"><title>Larak</title>
<ellipse fill="none" stroke="black" cx="291.83" cy="-295" rx="67.1751" ry="18.3848"/>
<text text-anchor="middle" x="291.83" y="-291.4" font-family="Times Roman,serif" font-size="14.00">Chief Larak</text>
</g>
<!-- Shuftharz -->
<g id="node2" class="node"><title>Shuftharz</title>
<ellipse fill="none" stroke="black" cx="325.83" cy="-203" rx="60.8112" ry="18.3848"/>
<text text-anchor="middle" x="325.83" y="-199.4" font-family="Times Roman,serif" font-size="14.00">Shuftharz</text>
</g>
<!-- Larak&#45;&gt;Shuftharz -->
<g id="edge2" class="edge"><title>Larak&#45;&gt;Shuftharz</title>
<a xlink:title="Chief Larak &#45;&gt; Shuftharz (Spouse, Lover)">
<path fill="none" stroke="forestgreen" d="M298.711,-276.382C303.503,-263.414 309.984,-245.879 315.407,-231.203"/>
<polygon fill="forestgreen" stroke="forestgreen" points="318.776,-232.183 318.96,-221.59 312.211,-229.757 318.776,-232.183"/>
</a>
<text text-anchor="middle" x="336.83" y="-245.4" font-family="Times Roman,serif" font-size="14.00">Spouse</text>
</g>
<!-- Olur -->
<g id="node4" class="node"><title>Olur</title>
<ellipse fill="none" stroke="black" cx="309.83" cy="-19" rx="33.234" ry="18.3848"/>
<text text-anchor="middle" x="309.83" y="-15.4" font-family="Times Roman,serif" font-size="14.00">Olur</text>
</g>
<!-- Larak&#45;&gt;Olur -->
<g id="edge4" class="edge"><title>Larak&#45;&gt;Olur</title>
<a xlink:title="Chief Larak &#45;&gt; Olur (InLawParentChild, Ally)">
<path fill="none" stroke="green" d="M250.492,-280.388C174.471,-252.315 22.2867,-189.914 45.8302,-148 91.2679,-67.1091 205.394,-36.0448 267.675,-24.8372"/>
<polygon fill="green" stroke="green" points="268.307,-28.2801 277.574,-23.1449 267.127,-21.3802 268.307,-28.2801"/>
</a>
<text text-anchor="middle" x="107.83" y="-153.4" font-family="Times Roman,serif" font-size="14.00">InLawParentChild</text>
</g>
<!-- Borgakh -->
<g id="node6" class="node"><title>Borgakh</title>
<ellipse fill="none" stroke="black" cx="539.83" cy="-111" rx="130.815" ry="18.3848"/>
<text text-anchor="middle" x="539.83" y="-107.4" font-family="Times Roman,serif" font-size="14.00">Borgakh the Steel Heart</text>
</g>
<!-- Larak&#45;&gt;Borgakh -->
<g id="edge6" class="edge"><title>Larak&#45;&gt;Borgakh</title>
<a xlink:title="Chief Larak &#45;&gt; Borgakh the Steel Heart (InLawParentChild, Rival)">
<path fill="none" stroke="orangered" d="M327.791,-279.148C340.199,-273.129 353.956,-265.823 365.83,-258 422.388,-220.737 481.15,-167.538 513.852,-136.404"/>
<polygon fill="orangered" stroke="orangered" points="516.402,-138.808 521.2,-129.362 511.558,-133.754 516.402,-138.808"/>
</a>
<text text-anchor="middle" x="522.83" y="-199.4" font-family="Times Roman,serif" font-size="14.00">InLawParentChild</text>
</g>
<!-- Bagrak -->
<g id="node8" class="node"><title>Bagrak</title>
<ellipse fill="none" stroke="black" cx="182.83" cy="-203" rx="45.9619" ry="18.3848"/>
<text text-anchor="middle" x="182.83" y="-199.4" font-family="Times Roman,serif" font-size="14.00">Bagrak</text>
</g>
<!-- Larak&#45;&gt;Bagrak -->
<g id="edge8" class="edge"><title>Larak&#45;&gt;Bagrak</title>
<a xlink:title="Chief Larak &#45;&gt; Bagrak (Spouse, Lover)">
<path fill="none" stroke="forestgreen" d="M270.814,-277.261C253.6,-262.733 229.111,-242.063 210.338,-226.217"/>
<polygon fill="forestgreen" stroke="forestgreen" points="212.579,-223.529 202.68,-219.754 208.064,-228.879 212.579,-223.529"/>
</a>
<text text-anchor="middle" x="271.83" y="-245.4" font-family="Times Roman,serif" font-size="14.00">Spouse</text>
</g>
<!-- Shuftharz&#45;&gt;Olur -->
<g id="edge10" class="edge"><title>Shuftharz&#45;&gt;Olur</title>
<a xlink:title="Shuftharz &#45;&gt; Olur (ParentChild, Ally)">
<path fill="none" stroke="green" d="M323.971,-184.404C322.515,-169.656 320.469,-148.516 318.83,-130 316.37,-102.195 313.822,-70.4479 312.068,-48.0486"/>
<polygon fill="green" stroke="green" points="315.541,-47.5597 311.275,-37.8617 308.562,-48.1033 315.541,-47.5597"/>
</a>
<text text-anchor="middle" x="359.33" y="-107.4" font-family="Times Roman,serif" font-size="14.00">ParentChild</text>
</g>
<!-- Shuftharz&#45;&gt;Borgakh -->
<g id="edge12" class="edge"><title>Shuftharz&#45;&gt;Borgakh</title>
<a xlink:title="Shuftharz &#45;&gt; Borgakh the Steel Heart (InLawParentChild, Ally)">
<path fill="none" stroke="green" d="M327.178,-184.283C329.059,-172.195 333.487,-157.082 343.83,-148 351.51,-141.257 393.788,-132.864 437.121,-125.778"/>
<polygon fill="green" stroke="green" points="437.934,-129.192 447.25,-124.147 436.821,-122.281 437.934,-129.192"/>
</a>
<text text-anchor="middle" x="405.83" y="-153.4" font-family="Times Roman,serif" font-size="14.00">InLawParentChild</text>
</g>
<!-- Borgakh&#45;&gt;Olur -->
<g id="edge24" class="edge"><title>Borgakh&#45;&gt;Olur</title>
<a xlink:title="Borgakh the Steel Heart &#45;&gt; Olur (Siblings, Ally)">
<path fill="none" stroke="green" d="M496.028,-93.479C452.68,-76.1401 387.084,-49.9013 346.432,-33.6407"/>
<polygon fill="green" stroke="green" points="347.496,-30.2969 336.912,-29.8326 344.897,-36.7962 347.496,-30.2969"/>
</a>
<text text-anchor="middle" x="471.33" y="-61.4" font-family="Times Roman,serif" font-size="14.00">Siblings</text>
</g>
<!-- Bagrak&#45;&gt;Olur -->
<g id="edge26" class="edge"><title>Bagrak&#45;&gt;Olur</title>
<a xlink:title="Bagrak &#45;&gt; Olur (InLawParentChild, Ally)">
<path fill="none" stroke="green" d="M178.372,-184.203C173.916,-160.825 169.903,-120.523 186.83,-92 205.139,-61.1498 241.954,-41.871 270.558,-30.9281"/>
<polygon fill="green" stroke="green" points="272.081,-34.0988 280.289,-27.3998 269.695,-27.518 272.081,-34.0988"/>
</a>
<text text-anchor="middle" x="248.83" y="-107.4" font-family="Times Roman,serif" font-size="14.00">InLawParentChild</text>
</g>
<!-- Bagrak&#45;&gt;Borgakh -->
<g id="edge28" class="edge"><title>Bagrak&#45;&gt;Borgakh</title>
<a xlink:title="Bagrak &#45;&gt; Borgakh the Steel Heart (ParentChild, Ally)">
<path fill="none" stroke="green" d="M198.027,-185.254C209.939,-172.626 227.663,-156.456 246.83,-148 307.456,-121.255 329.09,-138.305 394.83,-130 407.476,-128.403 420.738,-126.701 433.888,-124.997"/>
<polygon fill="green" stroke="green" points="434.445,-128.455 443.911,-123.696 433.543,-121.513 434.445,-128.455"/>
</a>
<text text-anchor="middle" x="287.33" y="-153.4" font-family="Times Roman,serif" font-size="14.00">ParentChild</text>
</g>
<!-- Sharamph -->
<g id="node12" class="node"><title>Sharamph</title>
<ellipse fill="none" stroke="black" cx="412.83" cy="-387" rx="61.0181" ry="18.3848"/>
<text text-anchor="middle" x="412.83" y="-383.4" font-family="Times Roman,serif" font-size="14.00">Sharamph</text>
</g>
<!-- Sharamph&#45;&gt;Larak -->
<g id="edge14" class="edge"><title>Sharamph&#45;&gt;Larak</title>
<a xlink:title="Sharamph &#45;&gt; Chief Larak (InLawGrandparentGrandchild, Ally)">
<path fill="none" stroke="green" d="M354.78,-381.108C293.172,-374.258 203.242,-362.309 192.83,-350 176.973,-331.253 200.146,-317.708 228.043,-308.751"/>
<polygon fill="green" stroke="green" points="229.054,-312.102 237.635,-305.888 227.052,-305.394 229.054,-312.102"/>
</a>
<text text-anchor="middle" x="295.83" y="-337.4" font-family="Times Roman,serif" font-size="14.00">InLawGrandparentGrandchild</text>
</g>
<!-- Sharamph&#45;&gt;Shuftharz -->
<g id="edge16" class="edge"><title>Sharamph&#45;&gt;Shuftharz</title>
<a xlink:title="Sharamph &#45;&gt; Shuftharz (InLawGrandparentGrandchild, Ally)">
<path fill="none" stroke="green" d="M410.222,-368.415C405.409,-339.07 393.028,-281.119 365.83,-240 362.968,-235.673 359.496,-231.502 355.808,-227.618"/>
<polygon fill="green" stroke="green" points="358.153,-225.016 348.55,-220.539 353.265,-230.027 358.153,-225.016"/>
</a>
<text text-anchor="middle" x="499.83" y="-291.4" font-family="Times Roman,serif" font-size="14.00">InLawGrandparentGrandchild</text>
</g>
<!-- Sharamph&#45;&gt;Olur -->
<g id="edge18" class="edge"><title>Sharamph&#45;&gt;Olur</title>
<a xlink:title="Sharamph &#45;&gt; Olur (GreatGrandparentGreatgrandchild, Ally)">
<path fill="none" stroke="green" d="M471.815,-382.008C601.874,-370.208 901.83,-338.301 901.83,-295 901.83,-295 901.83,-295 901.83,-111 901.83,-55.4363 489.37,-28.532 353.01,-21.1557"/>
<polygon fill="green" stroke="green" points="353.099,-17.6556 342.927,-20.6188 352.727,-24.6457 353.099,-17.6556"/>
</a>
<text text-anchor="middle" x="1021.83" y="-199.4" font-family="Times Roman,serif" font-size="14.00">GreatGrandparentGreatgrandchild</text>
</g>
<!-- Sharamph&#45;&gt;Borgakh -->
<g id="edge20" class="edge"><title>Sharamph&#45;&gt;Borgakh</title>
<a xlink:title="Sharamph &#45;&gt; Borgakh the Steel Heart (GreatGrandparentGreatgrandchild, Ally)">
<path fill="none" stroke="green" d="M461.134,-375.504C512.845,-362.104 589.78,-338.633 606.83,-314 645.561,-258.044 594.433,-178.098 562.303,-137.238"/>
<polygon fill="green" stroke="green" points="564.966,-134.964 555.969,-129.37 559.514,-139.354 564.966,-134.964"/>
</a>
<text text-anchor="middle" x="739.83" y="-245.4" font-family="Times Roman,serif" font-size="14.00">GreatGrandparentGreatgrandchild</text>
</g>
<!-- Sharamph&#45;&gt;Bagrak -->
<g id="edge22" class="edge"><title>Sharamph&#45;&gt;Bagrak</title>
<a xlink:title="Sharamph &#45;&gt; Bagrak (InLawGrandparentGrandchild, Ally)">
<path fill="none" stroke="green" d="M351.966,-385.277C250.101,-380.956 52.0595,-365.922 9.83022,-314 -29.9777,-265.056 67.7037,-230.775 131.961,-214.247"/>
<polygon fill="green" stroke="green" points="133.108,-217.568 141.961,-211.747 131.411,-210.776 133.108,-217.568"/>
</a>
<text text-anchor="middle" x="112.83" y="-291.4" font-family="Times Roman,serif" font-size="14.00">InLawGrandparentGrandchild</text>
</g>
</g>
</svg>
