<?xml version="1.0" encoding="UTF-8" standalone="no"?>
<!DOCTYPE svg PUBLIC "-//W3C//DTD SVG 1.1//EN"
 "http://www.w3.org/Graphics/SVG/1.1/DTD/svg11.dtd">
<!-- Generated by graphviz version 2.26.3 (20100126.1600)
 -->
<!-- Title: Relationships_component_26 Pages: 1 -->
<svg width="290pt" height="470pt"
 viewBox="0.00 0.00 290.00 470.00" xmlns="http://www.w3.org/2000/svg" xmlns:xlink="http://www.w3.org/1999/xlink">
<g id="graph1" class="graph" transform="scale(1 1) rotate(0) translate(4 466)">
<title>Relationships_component_26</title>
<polygon fill="white" stroke="white" points="-4,5 -4,-466 287,-466 287,5 -4,5"/>
<!-- Wilhelm -->
<g id="node1" class="node"><title>Wilhelm</title>
<a xlink:href="http://www.uesp.net/wiki/Skyrim:Wilhelm" xlink:title="&lt;TABLE&gt;">
<text text-anchor="start" x="29" y="-163.733" font-family="Times Roman,serif" font-size="14.00">Wilhelm</text>
</a>
</g>
<!-- Lynly -->
<g id="node2" class="node"><title>Lynly</title>
<a xlink:href="http://www.uesp.net/wiki/Skyrim:Lynly Star-Sung" xlink:title="&lt;TABLE&gt;">
<text text-anchor="start" x="45.5" y="-11.7333" font-family="Times Roman,serif" font-size="14.00">Lynly Star&#45;Sung</text>
</a>
</g>
<!-- Wilhelm&#45;&gt;Lynly -->
<g id="edge2" class="edge"><title>Wilhelm&#45;&gt;Lynly</title>
<a xlink:title="Wilhelm &#45;&gt; Lynly Star&#45;Sung (Confidant)">
<path fill="none" stroke="lime" d="M74.242,-152.245C76.7738,-142.883 79.3877,-133.218 81.9355,-123.797"/>
<polygon fill="lime" stroke="lime" points="85.3284,-124.657 84.5605,-114.09 78.5712,-122.83 85.3284,-124.657"/>
</a>
</g>
<!-- Drifa -->
<g id="node4" class="node"><title>Drifa</title>
<a xlink:href="http://www.uesp.net/wiki/Skyrim:Drifa" xlink:title="&lt;TABLE&gt;">
<image xlink:href="120px-SR-npc-Drifa.jpg" width="91px" height="91px" preserveAspectRatio="xMinYMin meet" x="162" y="-453"/>
<text text-anchor="start" x="190.5" y="-345.733" font-family="Times Roman,serif" font-size="14.00">Drifa</text>
</a>
</g>
<!-- Bersi -->
<g id="node5" class="node"><title>Bersi</title>
<a xlink:href="http://www.uesp.net/wiki/Skyrim:Bersi Honey-Hand" xlink:title="&lt;TABLE&gt;">
<image xlink:href="120px-SR-npc-Bersi_Honey-Hand.jpg" width="120px" height="91px" preserveAspectRatio="xMinYMin meet" x="147" y="-271"/>
<text text-anchor="start" x="144.5" y="-163.733" font-family="Times Roman,serif" font-size="14.00">Bersi Honey&#45;Hand</text>
</a>
</g>
<!-- Drifa&#45;&gt;Bersi -->
<g id="edge4" class="edge"><title>Drifa&#45;&gt;Bersi</title>
<a xlink:title="Drifa &#45;&gt; Bersi Honey&#45;Hand (Spouse, Ally)">
<path fill="none" stroke="green" d="M207,-334.345C207,-319.937 207,-304.52 207,-289.734"/>
<polygon fill="green" stroke="green" points="210.5,-289.619 207,-279.619 203.5,-289.619 210.5,-289.619"/>
</a>
<text text-anchor="middle" x="232" y="-303.4" font-family="Times Roman,serif" font-size="14.00">Spouse</text>
</g>
<!-- Bersi&#45;&gt;Lynly -->
<g id="edge6" class="edge"><title>Bersi&#45;&gt;Lynly</title>
<a xlink:title="Bersi Honey&#45;Hand &#45;&gt; Lynly Star&#45;Sung (Confidant)">
<path fill="none" stroke="lime" d="M164.096,-152.245C157.53,-142.489 150.743,-132.403 144.151,-122.608"/>
<polygon fill="lime" stroke="lime" points="146.906,-120.433 138.419,-114.09 141.099,-124.341 146.906,-120.433"/>
</a>
</g>
</g>
</svg>
