<?xml version="1.0" encoding="UTF-8" standalone="no"?>
<!DOCTYPE svg PUBLIC "-//W3C//DTD SVG 1.1//EN"
 "http://www.w3.org/Graphics/SVG/1.1/DTD/svg11.dtd">
<!-- Generated by graphviz version 2.26.3 (20100126.1600)
 -->
<!-- Title: Relationships_component_28 Pages: 1 -->
<svg width="766pt" height="194pt"
 viewBox="0.00 0.00 766.00 194.00" xmlns="http://www.w3.org/2000/svg" xmlns:xlink="http://www.w3.org/1999/xlink">
<g id="graph1" class="graph" transform="scale(1 1) rotate(0) translate(4 190)">
<title>Relationships_component_28</title>
<polygon fill="white" stroke="white" points="-4,5 -4,-190 763,-190 763,5 -4,5"/>
<!-- Player -->
<g id="node1" class="node"><title>Player</title>
<a xlink:href="http://www.uesp.net/wiki/Skyrim:Prisoner" xlink:title="Prisoner">
<ellipse fill="none" stroke="black" cx="471" cy="-93" rx="51.8276" ry="18.3848"/>
<text text-anchor="middle" x="471" y="-89.4" font-family="Times Roman,serif" font-size="14.00">Prisoner</text>
</a>
</g>
<!-- DB02PlayerFriend -->
<g id="node2" class="node"><title>DB02PlayerFriend</title>
<a xlink:href="http://www.uesp.net/wiki/Skyrim:Player Friend" xlink:title="Player Friend">
<ellipse fill="none" stroke="black" cx="471" cy="-19" rx="75.1594" ry="18.3848"/>
<text text-anchor="middle" x="471" y="-15.4" font-family="Times Roman,serif" font-size="14.00">Player Friend</text>
</a>
</g>
<!-- Player&#45;&gt;DB02PlayerFriend -->
<g id="edge2" class="edge"><title>Player&#45;&gt;DB02PlayerFriend</title>
<a xlink:title="Prisoner &#45;&gt; Player Friend (Friend)">
<path fill="none" stroke="olive" d="M471,-74.3267C471,-66.2639 471,-56.6477 471,-47.7115"/>
<polygon fill="olive" stroke="olive" points="474.5,-47.6673 471,-37.6674 467.5,-47.6674 474.5,-47.6673"/>
</a>
</g>
<!-- HousecarlSolitude -->
<g id="node4" class="node"><title>HousecarlSolitude</title>
<a xlink:href="http://www.uesp.net/wiki/Skyrim:Jordis the Sword-Maiden" xlink:title="Jordis the Sword&#45;Maiden">
<ellipse fill="none" stroke="black" cx="131" cy="-167" rx="130.815" ry="18.3848"/>
<text text-anchor="middle" x="131" y="-163.4" font-family="Times Roman,serif" font-size="14.00">Jordis the Sword&#45;Maiden</text>
</a>
</g>
<!-- HousecarlSolitude&#45;&gt;Player -->
<g id="edge4" class="edge"><title>HousecarlSolitude&#45;&gt;Player</title>
<a xlink:title="Jordis the Sword&#45;Maiden &#45;&gt; Prisoner (Ally)">
<path fill="none" stroke="green" d="M202.69,-151.397C266.466,-137.516 358.368,-117.514 416.362,-104.892"/>
<polygon fill="green" stroke="green" points="417.401,-108.248 426.427,-102.701 415.912,-101.408 417.401,-108.248"/>
</a>
</g>
<!-- HousecarlWhiterun -->
<g id="node6" class="node"><title>HousecarlWhiterun</title>
<a xlink:href="http://www.uesp.net/wiki/Skyrim:Lydia" xlink:title="Lydia">
<ellipse fill="none" stroke="black" cx="317" cy="-167" rx="36.7696" ry="18.3848"/>
<text text-anchor="middle" x="317" y="-163.4" font-family="Times Roman,serif" font-size="14.00">Lydia</text>
</a>
</g>
<!-- HousecarlWhiterun&#45;&gt;Player -->
<g id="edge6" class="edge"><title>HousecarlWhiterun&#45;&gt;Player</title>
<a xlink:title="Lydia &#45;&gt; Prisoner (Ally)">
<path fill="none" stroke="green" d="M343.825,-154.11C367.799,-142.59 403.267,-125.547 430.66,-112.384"/>
<polygon fill="green" stroke="green" points="432.483,-115.391 439.981,-107.905 429.451,-109.082 432.483,-115.391"/>
</a>
</g>
<!-- HousecarlMarkarth -->
<g id="node8" class="node"><title>HousecarlMarkarth</title>
<a xlink:href="http://www.uesp.net/wiki/Skyrim:Argis the Bulwark" xlink:title="Argis the Bulwark">
<ellipse fill="none" stroke="black" cx="471" cy="-167" rx="99.201" ry="18.3848"/>
<text text-anchor="middle" x="471" y="-163.4" font-family="Times Roman,serif" font-size="14.00">Argis the Bulwark</text>
</a>
</g>
<!-- HousecarlMarkarth&#45;&gt;Player -->
<g id="edge8" class="edge"><title>HousecarlMarkarth&#45;&gt;Player</title>
<a xlink:title="Argis the Bulwark &#45;&gt; Prisoner (Ally)">
<path fill="none" stroke="green" d="M471,-148.327C471,-140.264 471,-130.648 471,-121.711"/>
<polygon fill="green" stroke="green" points="474.5,-121.667 471,-111.667 467.5,-121.667 474.5,-121.667"/>
</a>
</g>
<!-- HousecarlRiften -->
<g id="node10" class="node"><title>HousecarlRiften</title>
<a xlink:href="http://www.uesp.net/wiki/Skyrim:Iona" xlink:title="Iona">
<ellipse fill="none" stroke="black" cx="621" cy="-167" rx="33.234" ry="18.3848"/>
<text text-anchor="middle" x="621" y="-163.4" font-family="Times Roman,serif" font-size="14.00">Iona</text>
</a>
</g>
<!-- HousecarlRiften&#45;&gt;Player -->
<g id="edge10" class="edge"><title>HousecarlRiften&#45;&gt;Player</title>
<a xlink:title="Iona &#45;&gt; Prisoner (Ally)">
<path fill="none" stroke="green" d="M595.893,-154.614C572.691,-143.168 537.83,-125.969 510.83,-112.649"/>
<polygon fill="green" stroke="green" points="512.156,-109.401 501.64,-108.115 509.059,-115.679 512.156,-109.401"/>
</a>
</g>
<!-- HousecarlWindhelm -->
<g id="node12" class="node"><title>HousecarlWindhelm</title>
<a xlink:href="http://www.uesp.net/wiki/Skyrim:Calder" xlink:title="Calder">
<ellipse fill="none" stroke="black" cx="715" cy="-167" rx="43.1335" ry="18.3848"/>
<text text-anchor="middle" x="715" y="-163.4" font-family="Times Roman,serif" font-size="14.00">Calder</text>
</a>
</g>
<!-- HousecarlWindhelm&#45;&gt;Player -->
<g id="edge12" class="edge"><title>HousecarlWindhelm&#45;&gt;Player</title>
<a xlink:title="Calder &#45;&gt; Prisoner (Ally)">
<path fill="none" stroke="green" d="M682.67,-154.782C676.185,-152.446 669.398,-150.082 663,-148 615.935,-132.682 561.661,-117.346 522.851,-106.775"/>
<polygon fill="green" stroke="green" points="523.401,-103.298 512.833,-104.059 521.569,-110.054 523.401,-103.298"/>
</a>
</g>
</g>
</svg>
