<?xml version="1.0" encoding="UTF-8" standalone="no"?>
<!DOCTYPE svg PUBLIC "-//W3C//DTD SVG 1.1//EN"
 "http://www.w3.org/Graphics/SVG/1.1/DTD/svg11.dtd">
<!-- Generated by graphviz version 2.26.3 (20100126.1600)
 -->
<!-- Title: Relationships_component_1 Pages: 1 -->
<svg width="1282pt" height="322pt"
 viewBox="0.00 0.00 1282.00 322.00" xmlns="http://www.w3.org/2000/svg" xmlns:xlink="http://www.w3.org/1999/xlink">
<g id="graph1" class="graph" transform="scale(1 1) rotate(0) translate(4 318)">
<title>Relationships_component_1</title>
<polygon fill="white" stroke="white" points="-4,5 -4,-318 1279,-318 1279,5 -4,5"/>
<!-- Laila -->
<g id="node1" class="node"><title>Laila</title>
<ellipse fill="none" stroke="black" cx="963" cy="-203" rx="89.0955" ry="18.3848"/>
<text text-anchor="middle" x="963" y="-199.4" font-family="Times Roman,serif" font-size="14.00">Laila Law&#45;Giver</text>
</g>
<!-- Anuriel -->
<g id="node2" class="node"><title>Anuriel</title>
<ellipse fill="none" stroke="black" cx="923" cy="-111" rx="46.1672" ry="18.3848"/>
<text text-anchor="middle" x="923" y="-107.4" font-family="Times Roman,serif" font-size="14.00">Anuriel</text>
</g>
<!-- Laila&#45;&gt;Anuriel -->
<g id="edge2" class="edge"><title>Laila&#45;&gt;Anuriel</title>
<a xlink:title="Laila Law&#45;Giver &#45;&gt; Anuriel (JarlSteward, Confidant)">
<path fill="none" stroke="lime" d="M932.531,-185.574C925.878,-180.21 919.719,-173.661 916,-166 912.042,-157.847 911.942,-148.251 913.398,-139.377"/>
<polygon fill="lime" stroke="lime" points="916.858,-139.949 915.684,-129.42 910.035,-138.383 916.858,-139.949"/>
</a>
<text text-anchor="middle" x="957" y="-153.4" font-family="Times Roman,serif" font-size="14.00">JarlSteward</text>
</g>
<!-- Harrald -->
<g id="node4" class="node"><title>Harrald</title>
<ellipse fill="none" stroke="black" cx="1159" cy="-111" rx="48.0833" ry="18.3848"/>
<text text-anchor="middle" x="1159" y="-107.4" font-family="Times Roman,serif" font-size="14.00">Harrald</text>
</g>
<!-- Laila&#45;&gt;Harrald -->
<g id="edge4" class="edge"><title>Laila&#45;&gt;Harrald</title>
<a xlink:title="Laila Law&#45;Giver &#45;&gt; Harrald (ParentChild, Ally)">
<path fill="none" stroke="green" d="M999.407,-185.911C1033.31,-169.999 1083.74,-146.325 1118.81,-129.866"/>
<polygon fill="green" stroke="green" points="1120.7,-132.844 1128.26,-125.427 1117.73,-126.508 1120.7,-132.844"/>
</a>
<text text-anchor="middle" x="1118.5" y="-153.4" font-family="Times Roman,serif" font-size="14.00">ParentChild</text>
</g>
<!-- Saerlund -->
<g id="node6" class="node"><title>Saerlund</title>
<ellipse fill="none" stroke="black" cx="1028" cy="-19" rx="55.1543" ry="18.3848"/>
<text text-anchor="middle" x="1028" y="-15.4" font-family="Times Roman,serif" font-size="14.00">Saerlund</text>
</g>
<!-- Laila&#45;&gt;Saerlund -->
<g id="edge6" class="edge"><title>Laila&#45;&gt;Saerlund</title>
<a xlink:title="Laila Law&#45;Giver &#45;&gt; Saerlund (ParentChild, Ally)">
<path fill="none" stroke="green" d="M984.163,-184.647C989.391,-179.136 994.492,-172.747 998,-166 1008.53,-145.755 1018.7,-84.367 1024.07,-47.6347"/>
<polygon fill="green" stroke="green" points="1027.56,-47.9362 1025.51,-37.5409 1020.63,-46.9435 1027.56,-47.9362"/>
</a>
<text text-anchor="middle" x="1056.5" y="-107.4" font-family="Times Roman,serif" font-size="14.00">ParentChild</text>
</g>
<!-- Unmid -->
<g id="node8" class="node"><title>Unmid</title>
<ellipse fill="none" stroke="black" cx="709" cy="-19" rx="101.823" ry="18.3848"/>
<text text-anchor="middle" x="709" y="-15.4" font-family="Times Roman,serif" font-size="14.00">Unmid Snow&#45;Shod</text>
</g>
<!-- Laila&#45;&gt;Unmid -->
<g id="edge8" class="edge"><title>Laila&#45;&gt;Unmid</title>
<a xlink:title="Laila Law&#45;Giver &#45;&gt; Unmid Snow&#45;Shod (JarlHousecarl, Acquaintance)">
<path fill="none" stroke="orange" d="M901.242,-189.531C862.285,-178.6 812.758,-159.971 777,-130 762.762,-118.066 738.764,-75.6762 723.416,-46.8732"/>
<polygon fill="orange" stroke="orange" points="726.332,-44.8999 718.569,-37.6897 720.141,-48.1672 726.332,-44.8999"/>
</a>
<text text-anchor="middle" x="822.5" y="-107.4" font-family="Times Roman,serif" font-size="14.00">JarlHousecarl</text>
</g>
<!-- Anuriel&#45;&gt;Unmid -->
<g id="edge10" class="edge"><title>Anuriel&#45;&gt;Unmid</title>
<a xlink:title="Anuriel &#45;&gt; Unmid Snow&#45;Shod (Courting, Ally)">
<path fill="none" stroke="green" d="M891.424,-97.4251C856.26,-82.3081 798.986,-57.6854 757.992,-40.0619"/>
<polygon fill="green" stroke="green" points="759.296,-36.813 748.727,-36.0788 756.531,-43.2439 759.296,-36.813"/>
</a>
<text text-anchor="middle" x="865.5" y="-61.4" font-family="Times Roman,serif" font-size="14.00">Courting</text>
</g>
<!-- Harrald&#45;&gt;Saerlund -->
<g id="edge22" class="edge"><title>Harrald&#45;&gt;Saerlund</title>
<a xlink:title="Harrald &#45;&gt; Saerlund (Siblings, Ally)">
<path fill="none" stroke="green" d="M1135.88,-94.764C1114.82,-79.9705 1083.5,-57.9795 1060.03,-41.4952"/>
<polygon fill="green" stroke="green" points="1061.97,-38.5777 1051.77,-35.6947 1057.94,-44.3061 1061.97,-38.5777"/>
</a>
<text text-anchor="middle" x="1131.5" y="-61.4" font-family="Times Roman,serif" font-size="14.00">Siblings</text>
</g>
<!-- Nura -->
<g id="node11" class="node"><title>Nura</title>
<ellipse fill="none" stroke="black" cx="651" cy="-203" rx="94.7523" ry="18.3848"/>
<text text-anchor="middle" x="651" y="-199.4" font-family="Times Roman,serif" font-size="14.00">Nura Snow&#45;Shod</text>
</g>
<!-- Nura&#45;&gt;Unmid -->
<g id="edge14" class="edge"><title>Nura&#45;&gt;Unmid</title>
<a xlink:title="Nura Snow&#45;Shod &#45;&gt; Unmid Snow&#45;Shod (ParentChild, Ally)">
<path fill="none" stroke="green" d="M651.014,-184.398C651.555,-161.908 654.177,-123.196 665,-92 670.635,-75.7567 680.219,-59.2207 689.006,-46.0035"/>
<polygon fill="green" stroke="green" points="692.121,-47.6507 694.904,-37.4278 686.353,-43.6841 692.121,-47.6507"/>
</a>
<text text-anchor="middle" x="705.5" y="-107.4" font-family="Times Roman,serif" font-size="14.00">ParentChild</text>
</g>
<!-- Asgeir -->
<g id="node12" class="node"><title>Asgeir</title>
<ellipse fill="none" stroke="black" cx="514" cy="-111" rx="101.116" ry="18.3848"/>
<text text-anchor="middle" x="514" y="-107.4" font-family="Times Roman,serif" font-size="14.00">Asgeir Snow&#45;Shod</text>
</g>
<!-- Nura&#45;&gt;Asgeir -->
<g id="edge12" class="edge"><title>Nura&#45;&gt;Asgeir</title>
<a xlink:title="Nura Snow&#45;Shod &#45;&gt; Asgeir Snow&#45;Shod (ParentChild, Ally)">
<path fill="none" stroke="green" d="M596.557,-187.636C582.534,-182.163 568.022,-175.045 556,-166 545.901,-158.402 537.011,-147.762 530.04,-137.863"/>
<polygon fill="green" stroke="green" points="532.889,-135.826 524.427,-129.45 527.066,-139.711 532.889,-135.826"/>
</a>
<text text-anchor="middle" x="596.5" y="-153.4" font-family="Times Roman,serif" font-size="14.00">ParentChild</text>
</g>
<!-- Asgeir&#45;&gt;Unmid -->
<g id="edge16" class="edge"><title>Asgeir&#45;&gt;Unmid</title>
<a xlink:title="Asgeir Snow&#45;Shod &#45;&gt; Unmid Snow&#45;Shod (Siblings, Ally)">
<path fill="none" stroke="green" d="M533.12,-92.6958C546.464,-80.7871 565.189,-65.7189 584,-56 599.464,-48.0108 616.917,-41.4825 633.77,-36.2584"/>
<polygon fill="green" stroke="green" points="635.017,-39.539 643.603,-33.332 633.021,-32.8298 635.017,-39.539"/>
</a>
<text text-anchor="middle" x="610.5" y="-61.4" font-family="Times Roman,serif" font-size="14.00">Siblings</text>
</g>
<!-- Balimund -->
<g id="node16" class="node"><title>Balimund</title>
<ellipse fill="none" stroke="black" cx="1112" cy="-295" rx="56.7776" ry="18.3848"/>
<text text-anchor="middle" x="1112" y="-291.4" font-family="Times Roman,serif" font-size="14.00">Balimund</text>
</g>
<!-- Balimund&#45;&gt;Laila -->
<g id="edge18" class="edge"><title>Balimund&#45;&gt;Laila</title>
<a xlink:title="Balimund &#45;&gt; Laila Law&#45;Giver (Confidant)">
<path fill="none" stroke="lime" d="M1085.36,-278.552C1061.6,-263.879 1026.56,-242.248 1000.07,-225.887"/>
<polygon fill="lime" stroke="lime" points="1001.78,-222.834 991.437,-220.558 998.107,-228.79 1001.78,-222.834"/>
</a>
</g>
<!-- Asbjorn -->
<g id="node18" class="node"><title>Asbjorn</title>
<ellipse fill="none" stroke="black" cx="1172" cy="-203" rx="101.823" ry="18.3848"/>
<text text-anchor="middle" x="1172" y="-199.4" font-family="Times Roman,serif" font-size="14.00">Asbjorn Fire&#45;Tamer</text>
</g>
<!-- Balimund&#45;&gt;Asbjorn -->
<g id="edge20" class="edge"><title>Balimund&#45;&gt;Asbjorn</title>
<a xlink:title="Balimund &#45;&gt; Asbjorn Fire&#45;Tamer (ParentChild, Ally)">
<path fill="none" stroke="green" d="M1123.85,-276.824C1132.59,-263.429 1144.61,-244.991 1154.46,-229.893"/>
<polygon fill="green" stroke="green" points="1157.43,-231.741 1159.97,-221.453 1151.57,-227.918 1157.43,-231.741"/>
</a>
<text text-anchor="middle" x="1187.5" y="-245.4" font-family="Times Roman,serif" font-size="14.00">ParentChild</text>
</g>
<!-- VittoriaVici -->
<g id="node21" class="node"><title>VittoriaVici</title>
<ellipse fill="none" stroke="black" cx="68" cy="-203" rx="68.0887" ry="18.3848"/>
<text text-anchor="middle" x="68" y="-199.4" font-family="Times Roman,serif" font-size="14.00">Vittoria Vici</text>
</g>
<!-- VittoriaVici&#45;&gt;Asgeir -->
<g id="edge24" class="edge"><title>VittoriaVici&#45;&gt;Asgeir</title>
<a xlink:title="Vittoria Vici &#45;&gt; Asgeir Snow&#45;Shod (Courting, Lover)">
<path fill="none" stroke="forestgreen" d="M122.242,-191.811C200.894,-175.587 346.994,-145.45 436.84,-126.916"/>
<polygon fill="forestgreen" stroke="forestgreen" points="437.614,-130.331 446.701,-124.882 436.2,-123.475 437.614,-130.331"/>
</a>
<text text-anchor="middle" x="361.5" y="-153.4" font-family="Times Roman,serif" font-size="14.00">Courting</text>
</g>
<!-- JareeRa -->
<g id="node23" class="node"><title>JareeRa</title>
<ellipse fill="none" stroke="black" cx="191" cy="-19" rx="53.033" ry="18.3848"/>
<text text-anchor="middle" x="191" y="-15.4" font-family="Times Roman,serif" font-size="14.00">Jaree&#45;Ra</text>
</g>
<!-- VittoriaVici&#45;&gt;JareeRa -->
<g id="edge26" class="edge"><title>VittoriaVici&#45;&gt;JareeRa</title>
<a xlink:title="Vittoria Vici &#45;&gt; Jaree&#45;Ra (BossEmployee, Acquaintance)">
<path fill="none" stroke="orange" d="M56.4,-184.704C43.3068,-161.49 26.0284,-120.99 44,-92 63.8646,-59.956 102.463,-41.5352 135.125,-31.2153"/>
<polygon fill="orange" stroke="orange" points="136.455,-34.4712 145.043,-28.2665 134.46,-27.7615 136.455,-34.4712"/>
</a>
<text text-anchor="middle" x="93.5" y="-107.4" font-family="Times Roman,serif" font-size="14.00">BossEmployee</text>
</g>
<!-- Deeja -->
<g id="node25" class="node"><title>Deeja</title>
<ellipse fill="none" stroke="black" cx="191" cy="-111" rx="39.0967" ry="18.3848"/>
<text text-anchor="middle" x="191" y="-107.4" font-family="Times Roman,serif" font-size="14.00">Deeja</text>
</g>
<!-- VittoriaVici&#45;&gt;Deeja -->
<g id="edge28" class="edge"><title>VittoriaVici&#45;&gt;Deeja</title>
<a xlink:title="Vittoria Vici &#45;&gt; Deeja (BossEmployee, Acquaintance)">
<path fill="none" stroke="orange" d="M68.7136,-184.242C70.1236,-172.447 73.7913,-157.681 83,-148 100.726,-129.364 113.67,-138.341 138,-130 142.005,-128.627 146.172,-127.175 150.331,-125.709"/>
<polygon fill="orange" stroke="orange" points="151.69,-128.941 159.943,-122.297 149.348,-122.344 151.69,-128.941"/>
</a>
<text text-anchor="middle" x="132.5" y="-153.4" font-family="Times Roman,serif" font-size="14.00">BossEmployee</text>
</g>
<!-- Deeja&#45;&gt;JareeRa -->
<g id="edge34" class="edge"><title>Deeja&#45;&gt;JareeRa</title>
<a xlink:title="Deeja &#45;&gt; Jaree&#45;Ra (Siblings, Confidant)">
<path fill="none" stroke="lime" d="M191,-92.3824C191,-79.5383 191,-62.2161 191,-47.6269"/>
<polygon fill="lime" stroke="lime" points="194.5,-47.5898 191,-37.5899 187.5,-47.5899 194.5,-47.5898"/>
</a>
<text text-anchor="middle" x="217.5" y="-61.4" font-family="Times Roman,serif" font-size="14.00">Siblings</text>
</g>
<!-- GulumEi -->
<g id="node27" class="node"><title>GulumEi</title>
<ellipse fill="none" stroke="black" cx="276" cy="-203" rx="56.0679" ry="18.3848"/>
<text text-anchor="middle" x="276" y="-199.4" font-family="Times Roman,serif" font-size="14.00">Gulum&#45;Ei</text>
</g>
<!-- GulumEi&#45;&gt;JareeRa -->
<g id="edge30" class="edge"><title>GulumEi&#45;&gt;JareeRa</title>
<a xlink:title="Gulum&#45;Ei &#45;&gt; Jaree&#45;Ra (Siblings, Ally)">
<path fill="none" stroke="green" d="M307.472,-187.683C315.645,-182.067 323.429,-174.863 328,-166 331.667,-158.89 330.802,-155.493 328,-148 309.984,-99.8266 262.315,-62.1175 228.278,-40.2207"/>
<polygon fill="green" stroke="green" points="229.844,-37.0719 219.511,-34.7332 226.13,-43.0055 229.844,-37.0719"/>
</a>
<text text-anchor="middle" x="345.5" y="-107.4" font-family="Times Roman,serif" font-size="14.00">Siblings</text>
</g>
<!-- GulumEi&#45;&gt;Deeja -->
<g id="edge32" class="edge"><title>GulumEi&#45;&gt;Deeja</title>
<a xlink:title="Gulum&#45;Ei &#45;&gt; Deeja (Siblings, Confidant)">
<path fill="none" stroke="lime" d="M228.265,-193.022C213.833,-187.532 199.557,-179.057 191,-166 185.997,-158.365 184.73,-148.764 185.107,-139.728"/>
<polygon fill="lime" stroke="lime" points="188.614,-139.844 186.179,-129.533 181.652,-139.112 188.614,-139.844"/>
</a>
<text text-anchor="middle" x="217.5" y="-153.4" font-family="Times Roman,serif" font-size="14.00">Siblings</text>
</g>
<!-- Vulwulf -->
<g id="node31" class="node"><title>Vulwulf</title>
<ellipse fill="none" stroke="black" cx="514" cy="-295" rx="106.98" ry="18.3848"/>
<text text-anchor="middle" x="514" y="-291.4" font-family="Times Roman,serif" font-size="14.00">Vulwulf Snow&#45;Shod</text>
</g>
<!-- Vulwulf&#45;&gt;Nura -->
<g id="edge36" class="edge"><title>Vulwulf&#45;&gt;Nura</title>
<a xlink:title="Vulwulf Snow&#45;Shod &#45;&gt; Nura Snow&#45;Shod (Spouse, Ally)">
<path fill="none" stroke="green" d="M540.74,-277.043C562.145,-262.669 592.348,-242.387 615.732,-226.684"/>
<polygon fill="green" stroke="green" points="617.977,-229.392 624.327,-220.912 614.074,-223.581 617.977,-229.392"/>
</a>
<text text-anchor="middle" x="620" y="-245.4" font-family="Times Roman,serif" font-size="14.00">Spouse</text>
</g>
<!-- Vulwulf&#45;&gt;Asgeir -->
<g id="edge38" class="edge"><title>Vulwulf&#45;&gt;Asgeir</title>
<a xlink:title="Vulwulf Snow&#45;Shod &#45;&gt; Asgeir Snow&#45;Shod (ParentChild, Ally)">
<path fill="none" stroke="green" d="M497.356,-276.445C486.071,-262.553 472.133,-242.489 466,-222 461.157,-205.82 461.157,-200.18 466,-184 471.066,-167.074 481.46,-150.437 491.284,-137.331"/>
<polygon fill="green" stroke="green" points="494.192,-139.294 497.596,-129.26 488.678,-134.981 494.192,-139.294"/>
</a>
<text text-anchor="middle" x="506.5" y="-199.4" font-family="Times Roman,serif" font-size="14.00">ParentChild</text>
</g>
</g>
</svg>
