<?xml version="1.0" encoding="UTF-8" standalone="no"?>
<!DOCTYPE svg PUBLIC "-//W3C//DTD SVG 1.1//EN"
 "http://www.w3.org/Graphics/SVG/1.1/DTD/svg11.dtd">
<!-- Generated by graphviz version 2.26.3 (20100126.1600)
 -->
<!-- Title: Relationships_component_28 Pages: 1 -->
<svg width="766pt" height="464pt"
 viewBox="0.00 0.00 766.00 464.00" xmlns="http://www.w3.org/2000/svg" xmlns:xlink="http://www.w3.org/1999/xlink">
<g id="graph1" class="graph" transform="scale(1 1) rotate(0) translate(4 460)">
<title>Relationships_component_28</title>
<polygon fill="white" stroke="white" points="-4,5 -4,-460 763,-460 763,5 -4,5"/>
<!-- Player -->
<g id="node1" class="node"><title>Player</title>
<a xlink:href="http://www.uesp.net/wiki/Skyrim:Prisoner" xlink:title="&lt;TABLE&gt;">
<image xlink:href="dummy.jpg" width="91px" height="91px" preserveAspectRatio="xMinYMin meet" x="374" y="-283"/>
<text text-anchor="start" x="390.5" y="-175.733" font-family="Times Roman,serif" font-size="14.00">Prisoner</text>
</a>
</g>
<!-- DB02PlayerFriend -->
<g id="node2" class="node"><title>DB02PlayerFriend</title>
<a xlink:href="http://www.uesp.net/wiki/Skyrim:Player Friend" xlink:title="&lt;TABLE&gt;">
<image xlink:href="dummy.jpg" width="92px" height="91px" preserveAspectRatio="xMinYMin meet" x="373" y="-119"/>
<text text-anchor="start" x="373.5" y="-11.7333" font-family="Times Roman,serif" font-size="14.00">Player Friend</text>
</a>
</g>
<!-- Player&#45;&gt;DB02PlayerFriend -->
<g id="edge2" class="edge"><title>Player&#45;&gt;DB02PlayerFriend</title>
<a xlink:title="Prisoner &#45;&gt; Player Friend (Friend)">
<path fill="none" stroke="olive" d="M419,-164.124C419,-155.526 419,-146.649 419,-137.896"/>
<polygon fill="olive" stroke="olive" points="422.5,-137.702 419,-127.702 415.5,-137.702 422.5,-137.702"/>
</a>
</g>
<!-- HousecarlSolitude -->
<g id="node4" class="node"><title>HousecarlSolitude</title>
<a xlink:href="http://www.uesp.net/wiki/Skyrim:Jordis the Sword-Maiden" xlink:title="&lt;TABLE&gt;">
<image xlink:href="dummy.jpg" width="120px" height="91px" preserveAspectRatio="xMinYMin meet" x="37" y="-447"/>
<text text-anchor="start" x="12.5" y="-339.733" font-family="Times Roman,serif" font-size="14.00">Jordis the Sword&#45;Maiden</text>
</a>
</g>
<!-- HousecarlSolitude&#45;&gt;Player -->
<g id="edge4" class="edge"><title>HousecarlSolitude&#45;&gt;Player</title>
<a xlink:title="Jordis the Sword&#45;Maiden &#45;&gt; Prisoner (Ally)">
<path fill="none" stroke="green" d="M194.09,-332.815C197.083,-331.172 200.058,-329.563 203,-328 252.127,-301.898 309.318,-275.595 352.505,-256.52"/>
<polygon fill="green" stroke="green" points="354.033,-259.672 361.777,-252.441 351.214,-253.264 354.033,-259.672"/>
</a>
</g>
<!-- HousecarlWhiterun -->
<g id="node6" class="node"><title>HousecarlWhiterun</title>
<a xlink:href="http://www.uesp.net/wiki/Skyrim:Lydia" xlink:title="&lt;TABLE&gt;">
<image xlink:href="120px-SR-npc-Lydia.jpg" width="91px" height="91px" preserveAspectRatio="xMinYMin meet" x="224" y="-447"/>
<text text-anchor="start" x="251.5" y="-339.733" font-family="Times Roman,serif" font-size="14.00">Lydia</text>
</a>
</g>
<!-- HousecarlWhiterun&#45;&gt;Player -->
<g id="edge6" class="edge"><title>HousecarlWhiterun&#45;&gt;Player</title>
<a xlink:title="Lydia &#45;&gt; Prisoner (Ally)">
<path fill="none" stroke="green" d="M326.136,-329.531C335.53,-319.26 345.321,-308.556 354.871,-298.114"/>
<polygon fill="green" stroke="green" points="357.608,-300.308 361.774,-290.567 352.442,-295.584 357.608,-300.308"/>
</a>
</g>
<!-- HousecarlMarkarth -->
<g id="node8" class="node"><title>HousecarlMarkarth</title>
<a xlink:href="http://www.uesp.net/wiki/Skyrim:Argis the Bulwark" xlink:title="&lt;TABLE&gt;">
<image xlink:href="120px-SR-npc-Argis_the_Bulwark.jpg" width="120px" height="91px" preserveAspectRatio="xMinYMin meet" x="359" y="-447"/>
<text text-anchor="start" x="356.5" y="-339.733" font-family="Times Roman,serif" font-size="14.00">Argis the Bulwark</text>
</a>
</g>
<!-- HousecarlMarkarth&#45;&gt;Player -->
<g id="edge8" class="edge"><title>HousecarlMarkarth&#45;&gt;Player</title>
<a xlink:title="Argis the Bulwark &#45;&gt; Prisoner (Ally)">
<path fill="none" stroke="green" d="M419,-328.124C419,-319.526 419,-310.649 419,-301.896"/>
<polygon fill="green" stroke="green" points="422.5,-301.702 419,-291.702 415.5,-301.702 422.5,-301.702"/>
</a>
</g>
<!-- HousecarlRiften -->
<g id="node10" class="node"><title>HousecarlRiften</title>
<a xlink:href="http://www.uesp.net/wiki/Skyrim:Iona" xlink:title="&lt;TABLE&gt;">
<image xlink:href="120px-SR-npc-Iona.jpg" width="91px" height="91px" preserveAspectRatio="xMinYMin meet" x="524" y="-447"/>
<text text-anchor="start" x="554" y="-339.733" font-family="Times Roman,serif" font-size="14.00">Iona</text>
</a>
</g>
<!-- HousecarlRiften&#45;&gt;Player -->
<g id="edge10" class="edge"><title>HousecarlRiften&#45;&gt;Player</title>
<a xlink:title="Iona &#45;&gt; Prisoner (Ally)">
<path fill="none" stroke="green" d="M511.864,-329.531C502.47,-319.26 492.679,-308.556 483.129,-298.114"/>
<polygon fill="green" stroke="green" points="485.558,-295.584 476.226,-290.567 480.392,-300.308 485.558,-295.584"/>
</a>
</g>
<!-- HousecarlWindhelm -->
<g id="node12" class="node"><title>HousecarlWindhelm</title>
<a xlink:href="http://www.uesp.net/wiki/Skyrim:Calder" xlink:title="&lt;TABLE&gt;">
<image xlink:href="dummy.jpg" width="91px" height="91px" preserveAspectRatio="xMinYMin meet" x="656" y="-447"/>
<text text-anchor="start" x="679" y="-339.733" font-family="Times Roman,serif" font-size="14.00">Calder</text>
</a>
</g>
<!-- HousecarlWindhelm&#45;&gt;Player -->
<g id="edge12" class="edge"><title>HousecarlWindhelm&#45;&gt;Player</title>
<a xlink:title="Calder &#45;&gt; Prisoner (Ally)">
<path fill="none" stroke="green" d="M643.634,-334.319C640.779,-332.107 637.895,-329.988 635,-328 588.508,-296.07 530.193,-269.762 485.877,-252.158"/>
<polygon fill="green" stroke="green" points="486.946,-248.817 476.358,-248.424 484.39,-255.334 486.946,-248.817"/>
</a>
</g>
</g>
</svg>
