<?xml version="1.0" encoding="UTF-8" standalone="no"?>
<!DOCTYPE svg PUBLIC "-//W3C//DTD SVG 1.1//EN"
 "http://www.w3.org/Graphics/SVG/1.1/DTD/svg11.dtd">
<!-- Generated by graphviz version 2.26.3 (20100126.1600)
 -->
<!-- Title: Relationships_component_20 Pages: 1 -->
<svg width="212pt" height="230pt"
 viewBox="0.00 0.00 211.75 230.00" xmlns="http://www.w3.org/2000/svg" xmlns:xlink="http://www.w3.org/1999/xlink">
<g id="graph1" class="graph" transform="scale(1 1) rotate(0) translate(4 226)">
<title>Relationships_component_20</title>
<polygon fill="white" stroke="white" points="-4,5 -4,-226 208.75,-226 208.75,5 -4,5"/>
<!-- Vekel -->
<g id="node1" class="node"><title>Vekel</title>
<a xlink:href="http://www.uesp.net/wiki/Skyrim:Vekel the Man" xlink:title="Vekel the Man">
<ellipse fill="none" stroke="black" cx="81" cy="-111" rx="80.8184" ry="18.3848"/>
<text text-anchor="middle" x="81" y="-107.4" font-family="Times Roman,serif" font-size="14.00">Vekel the Man</text>
</a>
</g>
<!-- Dirge -->
<g id="node2" class="node"><title>Dirge</title>
<a xlink:href="http://www.uesp.net/wiki/Skyrim:Dirge" xlink:title="Dirge">
<ellipse fill="none" stroke="black" cx="136" cy="-19" rx="38.1838" ry="18.3848"/>
<text text-anchor="middle" x="136" y="-15.4" font-family="Times Roman,serif" font-size="14.00">Dirge</text>
</a>
</g>
<!-- Vekel&#45;&gt;Dirge -->
<g id="edge2" class="edge"><title>Vekel&#45;&gt;Dirge</title>
<a xlink:title="Vekel the Man &#45;&gt; Dirge (BusinessPartners, Friend)">
<path fill="none" stroke="olive" d="M71.1847,-92.595C66.6304,-81.367 63.5028,-67.0908 70,-56 75.6428,-46.3675 84.8126,-39.0529 94.5459,-33.5787"/>
<polygon fill="olive" stroke="olive" points="96.1907,-36.6693 103.558,-29.0551 93.0505,-30.4132 96.1907,-36.6693"/>
</a>
<text text-anchor="middle" x="129.5" y="-61.4" font-family="Times Roman,serif" font-size="14.00">BusinessPartners</text>
</g>
<!-- Tonilia -->
<g id="node4" class="node"><title>Tonilia</title>
<a xlink:href="http://www.uesp.net/wiki/Skyrim:Tonilia" xlink:title="Tonilia">
<ellipse fill="none" stroke="black" cx="150" cy="-203" rx="41.9273" ry="18.3848"/>
<text text-anchor="middle" x="150" y="-199.4" font-family="Times Roman,serif" font-size="14.00">Tonilia</text>
</a>
</g>
<!-- Tonilia&#45;&gt;Vekel -->
<g id="edge4" class="edge"><title>Tonilia&#45;&gt;Vekel</title>
<a xlink:title="Tonilia &#45;&gt; Vekel the Man (Courting, Lover)">
<path fill="none" stroke="forestgreen" d="M136.696,-185.261C126.519,-171.692 112.324,-152.766 100.812,-137.416"/>
<polygon fill="forestgreen" stroke="forestgreen" points="103.535,-135.214 94.7353,-129.314 97.9354,-139.414 103.535,-135.214"/>
</a>
<text text-anchor="middle" x="151.5" y="-153.4" font-family="Times Roman,serif" font-size="14.00">Courting</text>
</g>
<!-- Tonilia&#45;&gt;Dirge -->
<g id="edge6" class="edge"><title>Tonilia&#45;&gt;Dirge</title>
<a xlink:title="Tonilia &#45;&gt; Dirge (Friend)">
<path fill="none" stroke="olive" d="M171.042,-186.616C176.973,-180.8 182.703,-173.753 186,-166 205.142,-120.995 211.613,-99.3652 189,-56 185.206,-48.7239 179.255,-42.5857 172.689,-37.5289"/>
<polygon fill="olive" stroke="olive" points="174.389,-34.4518 164.159,-31.6977 170.439,-40.2306 174.389,-34.4518"/>
</a>
</g>
</g>
</svg>
