<?xml version="1.0" encoding="UTF-8" standalone="no"?>
<!DOCTYPE svg PUBLIC "-//W3C//DTD SVG 1.1//EN"
 "http://www.w3.org/Graphics/SVG/1.1/DTD/svg11.dtd">
<!-- Generated by graphviz version 2.26.3 (20100126.1600)
 -->
<!-- Title: Relationships_component_46 Pages: 1 -->
<svg width="304pt" height="138pt"
 viewBox="0.00 0.00 304.00 138.00" xmlns="http://www.w3.org/2000/svg" xmlns:xlink="http://www.w3.org/1999/xlink">
<g id="graph1" class="graph" transform="scale(1 1) rotate(0) translate(4 134)">
<title>Relationships_component_46</title>
<polygon fill="white" stroke="white" points="-4,5 -4,-134 301,-134 301,5 -4,5"/>
<!-- Skaggi -->
<g id="node1" class="node"><title>Skaggi</title>
<a xlink:href="http://www.uesp.net/wiki/Skyrim:Skaggi Scar-Face" xlink:title="Skaggi Scar&#45;Face">
<ellipse fill="none" stroke="black" cx="155" cy="-111" rx="92.1303" ry="18.3848"/>
<text text-anchor="middle" x="155" y="-107.4" font-family="Times Roman,serif" font-size="14.00">Skaggi Scar&#45;Face</text>
</a>
</g>
<!-- Sosia -->
<g id="node2" class="node"><title>Sosia</title>
<a xlink:href="http://www.uesp.net/wiki/Skyrim:Sosia Tremellia" xlink:title="Sosia Tremellia">
<ellipse fill="none" stroke="black" cx="84" cy="-19" rx="84.1457" ry="18.3848"/>
<text text-anchor="middle" x="84" y="-15.4" font-family="Times Roman,serif" font-size="14.00">Sosia Tremellia</text>
</a>
</g>
<!-- Skaggi&#45;&gt;Sosia -->
<g id="edge2" class="edge"><title>Skaggi&#45;&gt;Sosia</title>
<a xlink:title="Skaggi Scar&#45;Face &#45;&gt; Sosia Tremellia (Spouse, Ally)">
<path fill="none" stroke="green" d="M140.632,-92.3824C130.17,-78.8262 115.859,-60.2816 104.24,-45.2268"/>
<polygon fill="green" stroke="green" points="106.985,-43.0542 98.1042,-37.2759 101.443,-47.3309 106.985,-43.0542"/>
</a>
<text text-anchor="middle" x="151" y="-61.4" font-family="Times Roman,serif" font-size="14.00">Spouse</text>
</g>
<!-- Ennoc -->
<g id="node4" class="node"><title>Ennoc</title>
<a xlink:href="http://www.uesp.net/wiki/Skyrim:Ennoc" xlink:title="Ennoc">
<ellipse fill="none" stroke="black" cx="227" cy="-19" rx="41.2167" ry="18.3848"/>
<text text-anchor="middle" x="227" y="-15.4" font-family="Times Roman,serif" font-size="14.00">Ennoc</text>
</a>
</g>
<!-- Skaggi&#45;&gt;Ennoc -->
<g id="edge4" class="edge"><title>Skaggi&#45;&gt;Ennoc</title>
<a xlink:title="Skaggi Scar&#45;Face &#45;&gt; Ennoc (BossEmployee, Acquaintance)">
<path fill="none" stroke="orange" d="M169.57,-92.3824C180.318,-78.649 195.073,-59.7959 206.935,-44.6382"/>
<polygon fill="orange" stroke="orange" points="209.777,-46.6856 213.184,-36.6535 204.265,-42.3714 209.777,-46.6856"/>
</a>
<text text-anchor="middle" x="246.5" y="-61.4" font-family="Times Roman,serif" font-size="14.00">BossEmployee</text>
</g>
</g>
</svg>
