<?xml version="1.0" encoding="UTF-8" standalone="no"?>
<!DOCTYPE svg PUBLIC "-//W3C//DTD SVG 1.1//EN"
 "http://www.w3.org/Graphics/SVG/1.1/DTD/svg11.dtd">
<!-- Generated by graphviz version 2.26.3 (20100126.1600)
 -->
<!-- Title: Relationships_component_37 Pages: 1 -->
<svg width="240pt" height="230pt"
 viewBox="0.00 0.00 240.00 230.00" xmlns="http://www.w3.org/2000/svg" xmlns:xlink="http://www.w3.org/1999/xlink">
<g id="graph1" class="graph" transform="scale(1 1) rotate(0) translate(4 226)">
<title>Relationships_component_37</title>
<polygon fill="white" stroke="white" points="-4,5 -4,-226 237,-226 237,5 -4,5"/>
<!-- Sorli -->
<g id="node1" class="node"><title>Sorli</title>
<ellipse fill="none" stroke="black" cx="90" cy="-203" rx="90.0096" ry="18.3848"/>
<text text-anchor="middle" x="90" y="-199.4" font-family="Times Roman,serif" font-size="14.00">Sorli the Builder</text>
</g>
<!-- Sirgar -->
<g id="node2" class="node"><title>Sirgar</title>
<ellipse fill="none" stroke="black" cx="90" cy="-19" rx="41.0122" ry="18.3848"/>
<text text-anchor="middle" x="90" y="-15.4" font-family="Times Roman,serif" font-size="14.00">Sirgar</text>
</g>
<!-- Sorli&#45;&gt;Sirgar -->
<g id="edge2" class="edge"><title>Sorli&#45;&gt;Sirgar</title>
<a xlink:title="Sorli the Builder &#45;&gt; Sirgar (ParentChild, Ally)">
<path fill="none" stroke="green" d="M78.6705,-184.595C70.5667,-170.297 60.353,-149.656 56,-130 52.3483,-113.511 52.3483,-108.489 56,-92 59.5271,-76.0731 66.902,-59.4998 73.8846,-46.178"/>
<polygon fill="green" stroke="green" points="77.1167,-47.5619 78.839,-37.108 70.9735,-44.2062 77.1167,-47.5619"/>
</a>
<text text-anchor="middle" x="96.5" y="-107.4" font-family="Times Roman,serif" font-size="14.00">ParentChild</text>
</g>
<!-- Pactur -->
<g id="node4" class="node"><title>Pactur</title>
<ellipse fill="none" stroke="black" cx="189" cy="-111" rx="43.1335" ry="18.3848"/>
<text text-anchor="middle" x="189" y="-107.4" font-family="Times Roman,serif" font-size="14.00">Pactur</text>
</g>
<!-- Sorli&#45;&gt;Pactur -->
<g id="edge4" class="edge"><title>Sorli&#45;&gt;Pactur</title>
<a xlink:title="Sorli the Builder &#45;&gt; Pactur (Spouse, Lover)">
<path fill="none" stroke="forestgreen" d="M109.559,-184.824C125.001,-170.474 146.67,-150.337 163.477,-134.719"/>
<polygon fill="forestgreen" stroke="forestgreen" points="165.874,-137.269 170.817,-127.898 161.109,-132.141 165.874,-137.269"/>
</a>
<text text-anchor="middle" x="173" y="-153.4" font-family="Times Roman,serif" font-size="14.00">Spouse</text>
</g>
<!-- Pactur&#45;&gt;Sirgar -->
<g id="edge6" class="edge"><title>Pactur&#45;&gt;Sirgar</title>
<a xlink:title="Pactur &#45;&gt; Sirgar (ParentChild, Ally)">
<path fill="none" stroke="green" d="M170.842,-94.1258C155.351,-79.7307 132.905,-58.871 115.593,-42.7829"/>
<polygon fill="green" stroke="green" points="117.751,-40.0108 108.043,-35.7672 112.986,-45.1385 117.751,-40.0108"/>
</a>
<text text-anchor="middle" x="188.5" y="-61.4" font-family="Times Roman,serif" font-size="14.00">ParentChild</text>
</g>
</g>
</svg>
