<?xml version="1.0" encoding="UTF-8" standalone="no"?>
<!DOCTYPE svg PUBLIC "-//W3C//DTD SVG 1.1//EN"
 "http://www.w3.org/Graphics/SVG/1.1/DTD/svg11.dtd">
<!-- Generated by graphviz version 2.26.3 (20100126.1600)
 -->
<!-- Title: Relationships_component_31 Pages: 1 -->
<svg width="217pt" height="230pt"
 viewBox="0.00 0.00 216.97 230.00" xmlns="http://www.w3.org/2000/svg" xmlns:xlink="http://www.w3.org/1999/xlink">
<g id="graph1" class="graph" transform="scale(1 1) rotate(0) translate(4 226)">
<title>Relationships_component_31</title>
<polygon fill="white" stroke="white" points="-4,5 -4,-226 213.973,-226 213.973,5 -4,5"/>
<!-- Horgeir -->
<g id="node1" class="node"><title>Horgeir</title>
<a xlink:href="http://www.uesp.net/wiki/Skyrim:Horgeir" xlink:title="Horgeir">
<ellipse fill="none" stroke="black" cx="76.9728" cy="-203" rx="48.0833" ry="18.3848"/>
<text text-anchor="middle" x="76.9728" y="-199.4" font-family="Times Roman,serif" font-size="14.00">Horgeir</text>
</a>
</g>
<!-- Olda -->
<g id="node2" class="node"><title>Olda</title>
<a xlink:href="http://www.uesp.net/wiki/Skyrim:Olda" xlink:title="Olda">
<ellipse fill="none" stroke="black" cx="42.9728" cy="-111" rx="33.9411" ry="18.3848"/>
<text text-anchor="middle" x="42.9728" y="-107.4" font-family="Times Roman,serif" font-size="14.00">Olda</text>
</a>
</g>
<!-- Horgeir&#45;&gt;Olda -->
<g id="edge2" class="edge"><title>Horgeir&#45;&gt;Olda</title>
<a xlink:title="Horgeir &#45;&gt; Olda (InLawBrotherSister, Ally)">
<path fill="none" stroke="green" d="M37.2165,-192.471C23.9875,-186.868 10.6753,-178.463 2.97284,-166 -4.16983,-154.443 3.19044,-142.163 13.4588,-132.145"/>
<polygon fill="green" stroke="green" points="16.0664,-134.514 21.284,-125.293 11.4549,-129.248 16.0664,-134.514"/>
</a>
<text text-anchor="middle" x="70.9728" y="-153.4" font-family="Times Roman,serif" font-size="14.00">InLawBrotherSister</text>
</g>
<!-- Lodvar -->
<g id="node4" class="node"><title>Lodvar</title>
<a xlink:href="http://www.uesp.net/wiki/Skyrim:Lodvar" xlink:title="Lodvar">
<ellipse fill="none" stroke="black" cx="108.973" cy="-19" rx="44.7575" ry="18.3848"/>
<text text-anchor="middle" x="108.973" y="-15.4" font-family="Times Roman,serif" font-size="14.00">Lodvar</text>
</a>
</g>
<!-- Horgeir&#45;&gt;Lodvar -->
<g id="edge4" class="edge"><title>Horgeir&#45;&gt;Lodvar</title>
<a xlink:title="Horgeir &#45;&gt; Lodvar (Siblings, Rival)">
<path fill="none" stroke="orangered" d="M112.067,-190.147C122.614,-184.446 132.97,-176.574 138.973,-166 147.926,-150.231 177.497,-176.639 135.973,-56 134.671,-52.2169 132.838,-48.4917 130.732,-44.9478"/>
<polygon fill="orangered" stroke="orangered" points="133.582,-42.913 125.086,-36.5819 127.779,-46.8289 133.582,-42.913"/>
</a>
<text text-anchor="middle" x="182.473" y="-107.4" font-family="Times Roman,serif" font-size="14.00">Siblings</text>
</g>
<!-- Olda&#45;&gt;Lodvar -->
<g id="edge6" class="edge"><title>Olda&#45;&gt;Lodvar</title>
<a xlink:title="Olda &#45;&gt; Lodvar (Spouse, Acquaintance)">
<path fill="none" stroke="orange" d="M55.3869,-93.6955C65.2169,-79.9931 79.1046,-60.6346 90.2786,-45.0586"/>
<polygon fill="orange" stroke="orange" points="93.179,-47.02 96.1642,-36.8544 87.4912,-42.9396 93.179,-47.02"/>
</a>
<text text-anchor="middle" x="106.973" y="-61.4" font-family="Times Roman,serif" font-size="14.00">Spouse</text>
</g>
</g>
</svg>
