<?xml version="1.0" encoding="UTF-8" standalone="no"?>
<!DOCTYPE svg PUBLIC "-//W3C//DTD SVG 1.1//EN"
 "http://www.w3.org/Graphics/SVG/1.1/DTD/svg11.dtd">
<!-- Generated by graphviz version 2.26.3 (20100126.1600)
 -->
<!-- Title: Relationships_component_22 Pages: 1 -->
<svg width="418pt" height="230pt"
 viewBox="0.00 0.00 418.00 230.00" xmlns="http://www.w3.org/2000/svg" xmlns:xlink="http://www.w3.org/1999/xlink">
<g id="graph1" class="graph" transform="scale(1 1) rotate(0) translate(4 226)">
<title>Relationships_component_22</title>
<polygon fill="white" stroke="white" points="-4,5 -4,-226 415,-226 415,5 -4,5"/>
<!-- JouaneManette -->
<g id="node1" class="node"><title>JouaneManette</title>
<ellipse fill="none" stroke="black" cx="89" cy="-111" rx="89.0955" ry="18.3848"/>
<text text-anchor="middle" x="89" y="-107.4" font-family="Times Roman,serif" font-size="14.00">Jouane Manette</text>
</g>
<!-- Sissel -->
<g id="node2" class="node"><title>Sissel</title>
<ellipse fill="none" stroke="black" cx="231" cy="-19" rx="38.8909" ry="18.3848"/>
<text text-anchor="middle" x="231" y="-15.4" font-family="Times Roman,serif" font-size="14.00">Sissel</text>
</g>
<!-- JouaneManette&#45;&gt;Sissel -->
<g id="edge2" class="edge"><title>JouaneManette&#45;&gt;Sissel</title>
<a xlink:title="Jouane Manette &#45;&gt; Sissel (MasterAssistant, Confidant)">
<path fill="none" stroke="lime" d="M90.3308,-92.3722C92.1378,-80.4788 96.3313,-65.5534 106,-56 117.282,-44.8526 153.678,-34.8209 184.307,-28.0246"/>
<polygon fill="lime" stroke="lime" points="185.389,-31.372 194.429,-25.8468 183.916,-24.5286 185.389,-31.372"/>
</a>
<text text-anchor="middle" x="161.5" y="-61.4" font-family="Times Roman,serif" font-size="14.00">MasterAssistant</text>
</g>
<!-- Rorik -->
<g id="node4" class="node"><title>Rorik</title>
<ellipse fill="none" stroke="black" cx="72" cy="-19" rx="36.7696" ry="18.3848"/>
<text text-anchor="middle" x="72" y="-15.4" font-family="Times Roman,serif" font-size="14.00">Rorik</text>
</g>
<!-- JouaneManette&#45;&gt;Rorik -->
<g id="edge4" class="edge"><title>JouaneManette&#45;&gt;Rorik</title>
<a xlink:title="Jouane Manette &#45;&gt; Rorik (Ally)">
<path fill="none" stroke="green" d="M85.5598,-92.3824C83.1864,-79.5383 79.9856,-62.2161 77.2898,-47.6269"/>
<polygon fill="green" stroke="green" points="80.694,-46.7874 75.4351,-37.5899 73.8105,-48.0594 80.694,-46.7874"/>
</a>
</g>
<!-- Lemkil -->
<g id="node6" class="node"><title>Lemkil</title>
<ellipse fill="none" stroke="black" cx="273" cy="-203" rx="43.8406" ry="18.3848"/>
<text text-anchor="middle" x="273" y="-199.4" font-family="Times Roman,serif" font-size="14.00">Lemkil</text>
</g>
<!-- Lemkil&#45;&gt;Sissel -->
<g id="edge6" class="edge"><title>Lemkil&#45;&gt;Sissel</title>
<a xlink:title="Lemkil &#45;&gt; Sissel (ParentChild, Rival)">
<path fill="none" stroke="orangered" d="M262.612,-184.742C254.96,-170.353 245.043,-149.527 240,-130 232.979,-102.812 231.027,-70.7472 230.653,-48.0892"/>
<polygon fill="orangered" stroke="orangered" points="234.151,-47.7596 230.581,-37.7845 227.151,-47.8088 234.151,-47.7596"/>
</a>
<text text-anchor="middle" x="280.5" y="-107.4" font-family="Times Roman,serif" font-size="14.00">ParentChild</text>
</g>
<!-- Britte -->
<g id="node8" class="node"><title>Britte</title>
<ellipse fill="none" stroke="black" cx="369" cy="-111" rx="39.0967" ry="18.3848"/>
<text text-anchor="middle" x="369" y="-107.4" font-family="Times Roman,serif" font-size="14.00">Britte</text>
</g>
<!-- Lemkil&#45;&gt;Britte -->
<g id="edge8" class="edge"><title>Lemkil&#45;&gt;Britte</title>
<a xlink:title="Lemkil &#45;&gt; Britte (ParentChild, Rival)">
<path fill="none" stroke="orangered" d="M291.057,-185.696C306.129,-171.251 327.759,-150.522 344.412,-134.564"/>
<polygon fill="orangered" stroke="orangered" points="346.872,-137.053 351.671,-127.607 342.029,-131.999 346.872,-137.053"/>
</a>
<text text-anchor="middle" x="369.5" y="-153.4" font-family="Times Roman,serif" font-size="14.00">ParentChild</text>
</g>
<!-- Britte&#45;&gt;Sissel -->
<g id="edge10" class="edge"><title>Britte&#45;&gt;Sissel</title>
<a xlink:title="Britte &#45;&gt; Sissel (Siblings, Rival)">
<path fill="none" stroke="orangered" d="M346.212,-95.8081C323.34,-80.5598 287.929,-56.9528 262.402,-39.9347"/>
<polygon fill="orangered" stroke="orangered" points="264.084,-36.8494 253.822,-34.2145 260.201,-42.6737 264.084,-36.8494"/>
</a>
<text text-anchor="middle" x="338.5" y="-61.4" font-family="Times Roman,serif" font-size="14.00">Siblings</text>
</g>
</g>
</svg>
