<?xml version="1.0" encoding="UTF-8" standalone="no"?>
<!DOCTYPE svg PUBLIC "-//W3C//DTD SVG 1.1//EN"
 "http://www.w3.org/Graphics/SVG/1.1/DTD/svg11.dtd">
<!-- Generated by graphviz version 2.26.3 (20100126.1600)
 -->
<!-- Title: Relationships_component_25 Pages: 1 -->
<svg width="180pt" height="484pt"
 viewBox="0.00 0.00 180.00 484.00" xmlns="http://www.w3.org/2000/svg" xmlns:xlink="http://www.w3.org/1999/xlink">
<g id="graph1" class="graph" transform="scale(1 1) rotate(0) translate(4 480)">
<title>Relationships_component_25</title>
<polygon fill="white" stroke="white" points="-4,5 -4,-480 177,-480 177,5 -4,5"/>
<!-- Torom -->
<g id="node1" class="node"><title>Torom</title>
<a xlink:href="http://www.uesp.net/wiki/Skyrim:Torom" xlink:title="&lt;TABLE&gt;">
<image xlink:href="dummy.jpg" width="91px" height="91px" preserveAspectRatio="xMinYMin meet" x="12" y="-467"/>
<text text-anchor="start" x="36" y="-359.733" font-family="Times Roman,serif" font-size="14.00">Torom</text>
</a>
</g>
<!-- Erith -->
<g id="node2" class="node"><title>Erith</title>
<a xlink:href="http://www.uesp.net/wiki/Skyrim:Erith" xlink:title="&lt;TABLE&gt;">
<image xlink:href="120px-SR-npc-Erith.jpg" width="91px" height="91px" preserveAspectRatio="xMinYMin meet" x="14" y="-119"/>
<text text-anchor="start" x="42.5" y="-11.7333" font-family="Times Roman,serif" font-size="14.00">Erith</text>
</a>
</g>
<!-- Torom&#45;&gt;Erith -->
<g id="edge2" class="edge"><title>Torom&#45;&gt;Erith</title>
<a xlink:title="Torom &#45;&gt; Erith (Ally)">
<path fill="none" stroke="green" d="M51.2378,-348.385C50.3051,-335.681 49.4865,-322.424 49,-310 46.7742,-253.155 46.5959,-238.838 49,-182 49.6071,-167.647 50.6278,-152.338 51.7911,-137.664"/>
<polygon fill="green" stroke="green" points="55.2851,-137.88 52.6159,-127.627 48.3086,-137.306 55.2851,-137.88"/>
</a>
</g>
<!-- Daighre -->
<g id="node4" class="node"><title>Daighre</title>
<a xlink:href="http://www.uesp.net/wiki/Skyrim:Daighre" xlink:title="&lt;TABLE&gt;">
<image xlink:href="120px-SR-npc-Daighre.jpg" width="91px" height="91px" preserveAspectRatio="xMinYMin meet" x="70" y="-301"/>
<text text-anchor="start" x="88" y="-193.733" font-family="Times Roman,serif" font-size="14.00">Daighre</text>
</a>
</g>
<!-- Torom&#45;&gt;Daighre -->
<g id="edge4" class="edge"><title>Torom&#45;&gt;Daighre</title>
<a xlink:title="Torom &#45;&gt; Daighre (Ally)">
<path fill="none" stroke="green" d="M79.2584,-348.295C82.5888,-338.763 86.0447,-328.872 89.437,-319.163"/>
<polygon fill="green" stroke="green" points="92.8067,-320.13 92.8011,-309.535 86.1985,-317.821 92.8067,-320.13"/>
</a>
</g>
<!-- Daighre&#45;&gt;Erith -->
<g id="edge6" class="edge"><title>Daighre&#45;&gt;Erith</title>
<a xlink:title="Daighre &#45;&gt; Erith (ParentChild, Ally)">
<path fill="none" stroke="green" d="M95.4139,-182.345C90.9379,-167.798 86.1456,-152.223 81.5562,-137.308"/>
<polygon fill="green" stroke="green" points="84.8612,-136.147 78.575,-127.619 78.1707,-138.206 84.8612,-136.147"/>
</a>
<text text-anchor="middle" x="128.5" y="-151.4" font-family="Times Roman,serif" font-size="14.00">ParentChild</text>
</g>
</g>
</svg>
