<?xml version="1.0" encoding="UTF-8" standalone="no"?>
<!DOCTYPE svg PUBLIC "-//W3C//DTD SVG 1.1//EN"
 "http://www.w3.org/Graphics/SVG/1.1/DTD/svg11.dtd">
<!-- Generated by graphviz version 2.26.3 (20100126.1600)
 -->
<!-- Title: Relationships_component_27 Pages: 1 -->
<svg width="338pt" height="230pt"
 viewBox="0.00 0.00 338.00 230.00" xmlns="http://www.w3.org/2000/svg" xmlns:xlink="http://www.w3.org/1999/xlink">
<g id="graph1" class="graph" transform="scale(1 1) rotate(0) translate(4 226)">
<title>Relationships_component_27</title>
<polygon fill="white" stroke="white" points="-4,5 -4,-226 335,-226 335,5 -4,5"/>
<!-- Leigelf -->
<g id="node1" class="node"><title>Leigelf</title>
<ellipse fill="none" stroke="black" cx="44" cy="-111" rx="43.8406" ry="18.3848"/>
<text text-anchor="middle" x="44" y="-107.4" font-family="Times Roman,serif" font-size="14.00">Leigelf</text>
</g>
<!-- Fruki -->
<g id="node2" class="node"><title>Fruki</title>
<ellipse fill="none" stroke="black" cx="44" cy="-19" rx="36.0624" ry="18.3848"/>
<text text-anchor="middle" x="44" y="-15.4" font-family="Times Roman,serif" font-size="14.00">Fruki</text>
</g>
<!-- Leigelf&#45;&gt;Fruki -->
<g id="edge2" class="edge"><title>Leigelf&#45;&gt;Fruki</title>
<a xlink:title="Leigelf &#45;&gt; Fruki (BossEmployee, Confidant)">
<path fill="none" stroke="lime" d="M44,-92.3824C44,-79.5383 44,-62.2161 44,-47.6269"/>
<polygon fill="lime" stroke="lime" points="47.5001,-47.5898 44,-37.5899 40.5001,-47.5899 47.5001,-47.5898"/>
</a>
<text text-anchor="middle" x="93.5" y="-61.4" font-family="Times Roman,serif" font-size="14.00">BossEmployee</text>
</g>
<!-- Beitild -->
<g id="node4" class="node"><title>Beitild</title>
<ellipse fill="none" stroke="black" cx="117" cy="-203" rx="41.9273" ry="18.3848"/>
<text text-anchor="middle" x="117" y="-199.4" font-family="Times Roman,serif" font-size="14.00">Beitild</text>
</g>
<!-- Beitild&#45;&gt;Leigelf -->
<g id="edge4" class="edge"><title>Beitild&#45;&gt;Leigelf</title>
<a xlink:title="Beitild &#45;&gt; Leigelf (Spouse, Rival)">
<path fill="none" stroke="orangered" d="M88.0233,-189.601C77.8907,-183.648 67.2479,-175.754 60,-166 54.2684,-158.287 50.5841,-148.56 48.2181,-139.439"/>
<polygon fill="orangered" stroke="orangered" points="51.6105,-138.567 46.0682,-129.537 44.7699,-140.052 51.6105,-138.567"/>
</a>
<text text-anchor="middle" x="85" y="-153.4" font-family="Times Roman,serif" font-size="14.00">Spouse</text>
</g>
<!-- Irgnir -->
<g id="node6" class="node"><title>Irgnir</title>
<ellipse fill="none" stroke="black" cx="150" cy="-111" rx="38.1838" ry="18.3848"/>
<text text-anchor="middle" x="150" y="-107.4" font-family="Times Roman,serif" font-size="14.00">Irgnir</text>
</g>
<!-- Beitild&#45;&gt;Irgnir -->
<g id="edge6" class="edge"><title>Beitild&#45;&gt;Irgnir</title>
<a xlink:title="Beitild &#45;&gt; Irgnir (BossEmployee, Friend)">
<path fill="none" stroke="olive" d="M114.242,-184.317C113.376,-173.381 113.595,-159.505 118,-148 119.731,-143.479 122.277,-139.137 125.19,-135.118"/>
<polygon fill="olive" stroke="olive" points="127.909,-137.323 131.541,-127.37 122.495,-132.886 127.909,-137.323"/>
</a>
<text text-anchor="middle" x="167.5" y="-153.4" font-family="Times Roman,serif" font-size="14.00">BossEmployee</text>
</g>
<!-- Karl -->
<g id="node8" class="node"><title>Karl</title>
<ellipse fill="none" stroke="black" cx="206" cy="-19" rx="31.1127" ry="18.3848"/>
<text text-anchor="middle" x="206" y="-15.4" font-family="Times Roman,serif" font-size="14.00">Karl</text>
</g>
<!-- Beitild&#45;&gt;Karl -->
<g id="edge8" class="edge"><title>Beitild&#45;&gt;Karl</title>
<a xlink:title="Beitild &#45;&gt; Karl (BossEmployee, Friend)">
<path fill="none" stroke="olive" d="M153.831,-194.086C179.121,-187.134 209.437,-176.862 217,-166 241.543,-130.75 229.177,-78.5362 217.748,-46.7534"/>
<polygon fill="olive" stroke="olive" points="220.942,-45.3046 214.119,-37.1996 214.398,-47.7907 220.942,-45.3046"/>
</a>
<text text-anchor="middle" x="280.5" y="-107.4" font-family="Times Roman,serif" font-size="14.00">BossEmployee</text>
</g>
<!-- Irgnir&#45;&gt;Karl -->
<g id="edge10" class="edge"><title>Irgnir&#45;&gt;Karl</title>
<a xlink:title="Irgnir &#45;&gt; Karl (Confidant)">
<path fill="none" stroke="lime" d="M160.797,-93.2615C169.087,-79.6431 180.66,-60.6292 190.021,-45.2505"/>
<polygon fill="lime" stroke="lime" points="193.026,-47.0459 195.236,-36.6841 187.047,-43.4062 193.026,-47.0459"/>
</a>
</g>
</g>
</svg>
