<?xml version="1.0" encoding="UTF-8" standalone="no"?>
<!DOCTYPE svg PUBLIC "-//W3C//DTD SVG 1.1//EN"
 "http://www.w3.org/Graphics/SVG/1.1/DTD/svg11.dtd">
<!-- Generated by graphviz version 2.26.3 (20100126.1600)
 -->
<!-- Title: Relationships_component_17 Pages: 1 -->
<svg width="324pt" height="342pt"
 viewBox="0.00 0.00 324.00 342.00" xmlns="http://www.w3.org/2000/svg" xmlns:xlink="http://www.w3.org/1999/xlink">
<g id="graph1" class="graph" transform="scale(1 1) rotate(0) translate(4 338)">
<title>Relationships_component_17</title>
<polygon fill="white" stroke="white" points="-4,5 -4,-338 321,-338 321,5 -4,5"/>
<!-- Samuel -->
<g id="node1" class="node"><title>Samuel</title>
<a xlink:href="http://www.uesp.net/wiki/Skyrim:Samuel" xlink:title="Samuel">
<ellipse fill="none" stroke="black" cx="48" cy="-167" rx="48.0833" ry="18.3848"/>
<text text-anchor="middle" x="48" y="-163.4" font-family="Times Roman,serif" font-size="14.00">Samuel</text>
</a>
</g>
<!-- Runa -->
<g id="node2" class="node"><title>Runa</title>
<a xlink:href="http://www.uesp.net/wiki/Skyrim:Runa Fair-Shield" xlink:title="Runa Fair&#45;Shield">
<ellipse fill="none" stroke="black" cx="126" cy="-93" rx="90.0096" ry="18.3848"/>
<text text-anchor="middle" x="126" y="-89.4" font-family="Times Roman,serif" font-size="14.00">Runa Fair&#45;Shield</text>
</a>
</g>
<!-- Samuel&#45;&gt;Runa -->
<g id="edge2" class="edge"><title>Samuel&#45;&gt;Runa</title>
<a xlink:title="Samuel &#45;&gt; Runa Fair&#45;Shield (Friend)">
<path fill="none" stroke="olive" d="M66.0908,-149.837C76.0367,-140.401 88.5584,-128.522 99.5792,-118.066"/>
<polygon fill="olive" stroke="olive" points="102.073,-120.524 106.919,-111.102 97.2555,-115.446 102.073,-120.524"/>
</a>
</g>
<!-- Hroar -->
<g id="node4" class="node"><title>Hroar</title>
<a xlink:href="http://www.uesp.net/wiki/Skyrim:Hroar" xlink:title="Hroar">
<ellipse fill="none" stroke="black" cx="185" cy="-19" rx="39.0967" ry="18.3848"/>
<text text-anchor="middle" x="185" y="-15.4" font-family="Times Roman,serif" font-size="14.00">Hroar</text>
</a>
</g>
<!-- Samuel&#45;&gt;Hroar -->
<g id="edge4" class="edge"><title>Samuel&#45;&gt;Hroar</title>
<a xlink:title="Samuel &#45;&gt; Hroar (Friend)">
<path fill="none" stroke="olive" d="M36.1361,-148.903C24.6374,-128.851 11.0818,-96.3962 27,-74 40.2909,-55.3003 97.3446,-38.7354 139.089,-28.7914"/>
<polygon fill="olive" stroke="olive" points="140.123,-32.1445 149.069,-26.4693 138.536,-25.3266 140.123,-32.1445"/>
</a>
</g>
<!-- Runa&#45;&gt;Hroar -->
<g id="edge6" class="edge"><title>Runa&#45;&gt;Hroar</title>
<a xlink:title="Runa Fair&#45;Shield &#45;&gt; Hroar (Friend)">
<path fill="none" stroke="olive" d="M140.584,-74.7079C147.889,-65.546 156.849,-54.3074 164.804,-44.3301"/>
<polygon fill="olive" stroke="olive" points="167.694,-46.32 171.192,-36.3191 162.221,-41.9561 167.694,-46.32"/>
</a>
</g>
<!-- ConstanceMichel -->
<g id="node7" class="node"><title>ConstanceMichel</title>
<a xlink:href="http://www.uesp.net/wiki/Skyrim:Constance Michel" xlink:title="Constance Michel">
<ellipse fill="none" stroke="black" cx="219" cy="-315" rx="96.8736" ry="18.3848"/>
<text text-anchor="middle" x="219" y="-311.4" font-family="Times Roman,serif" font-size="14.00">Constance Michel</text>
</a>
</g>
<!-- ConstanceMichel&#45;&gt;Samuel -->
<g id="edge8" class="edge"><title>ConstanceMichel&#45;&gt;Samuel</title>
<a xlink:title="Constance Michel &#45;&gt; Samuel (Friend)">
<path fill="none" stroke="olive" d="M152.47,-301.407C111.183,-291.495 63.6567,-276.882 51,-260 37.3647,-241.813 37.8124,-215.522 40.981,-195.531"/>
<polygon fill="olive" stroke="olive" points="44.469,-195.922 42.8872,-185.446 37.5907,-194.622 44.469,-195.922"/>
</a>
</g>
<!-- ConstanceMichel&#45;&gt;Runa -->
<g id="edge10" class="edge"><title>ConstanceMichel&#45;&gt;Runa</title>
<a xlink:title="Constance Michel &#45;&gt; Runa Fair&#45;Shield (Friend)">
<path fill="none" stroke="olive" d="M238.947,-296.649C248.171,-286.797 258.143,-273.847 263,-260 268.59,-244.063 269.697,-237.504 263,-222 243.081,-175.886 197.667,-138.629 164.57,-116.226"/>
<polygon fill="olive" stroke="olive" points="166.293,-113.17 156.019,-110.58 162.436,-119.011 166.293,-113.17"/>
</a>
</g>
<!-- ConstanceMichel&#45;&gt;Hroar -->
<g id="edge12" class="edge"><title>ConstanceMichel&#45;&gt;Hroar</title>
<a xlink:title="Constance Michel &#45;&gt; Hroar (Friend)">
<path fill="none" stroke="olive" d="M247.284,-297.106C259.461,-287.704 272.4,-275.004 279,-260 285.801,-244.541 281.17,-238.749 279,-222 270.261,-154.54 273.89,-132.98 240,-74 233.099,-61.9896 222.898,-50.7735 213.149,-41.6437"/>
<polygon fill="olive" stroke="olive" points="215.284,-38.8573 205.499,-34.7936 210.614,-44.0721 215.284,-38.8573"/>
</a>
</g>
<!-- Francois -->
<g id="node11" class="node"><title>Francois</title>
<a xlink:href="http://www.uesp.net/wiki/Skyrim:Francois Beaufort" xlink:title="Francois Beaufort">
<ellipse fill="none" stroke="black" cx="157" cy="-241" rx="96.8736" ry="18.3848"/>
<text text-anchor="middle" x="157" y="-237.4" font-family="Times Roman,serif" font-size="14.00">Francois Beaufort</text>
</a>
</g>
<!-- ConstanceMichel&#45;&gt;Francois -->
<g id="edge14" class="edge"><title>ConstanceMichel&#45;&gt;Francois</title>
<a xlink:title="Constance Michel &#45;&gt; Francois Beaufort (Friend)">
<path fill="none" stroke="olive" d="M203.674,-296.708C196.222,-287.814 187.13,-276.962 178.957,-267.207"/>
<polygon fill="olive" stroke="olive" points="181.469,-264.756 172.364,-259.338 176.104,-269.251 181.469,-264.756"/>
</a>
</g>
<!-- Francois&#45;&gt;Samuel -->
<g id="edge16" class="edge"><title>Francois&#45;&gt;Samuel</title>
<a xlink:title="Francois Beaufort &#45;&gt; Samuel (Friend)">
<path fill="none" stroke="olive" d="M130.614,-223.087C115.516,-212.837 96.4549,-199.896 80.4468,-189.028"/>
<polygon fill="olive" stroke="olive" points="82.1515,-185.955 71.9121,-183.234 78.2197,-191.747 82.1515,-185.955"/>
</a>
</g>
<!-- Francois&#45;&gt;Runa -->
<g id="edge18" class="edge"><title>Francois&#45;&gt;Runa</title>
<a xlink:title="Francois Beaufort &#45;&gt; Runa Fair&#45;Shield (Friend)">
<path fill="none" stroke="olive" d="M153.074,-222.256C147.763,-196.901 138.241,-151.439 132.022,-121.75"/>
<polygon fill="olive" stroke="olive" points="135.37,-120.662 129.894,-111.592 128.519,-122.097 135.37,-120.662"/>
</a>
</g>
<!-- Francois&#45;&gt;Hroar -->
<g id="edge20" class="edge"><title>Francois&#45;&gt;Hroar</title>
<a xlink:title="Francois Beaufort &#45;&gt; Hroar (Friend)">
<path fill="none" stroke="olive" d="M170.492,-222.52C187.124,-198.481 214.48,-154.516 225,-112 229.056,-95.6055 230.223,-90.061 225,-74 221.514,-63.2789 215.063,-52.904 208.345,-44.1084"/>
<polygon fill="olive" stroke="olive" points="210.936,-41.7473 201.91,-36.1998 205.506,-46.1654 210.936,-41.7473"/>
</a>
</g>
</g>
</svg>
