<?xml version="1.0" encoding="UTF-8" standalone="no"?>
<!DOCTYPE svg PUBLIC "-//W3C//DTD SVG 1.1//EN"
 "http://www.w3.org/Graphics/SVG/1.1/DTD/svg11.dtd">
<!-- Generated by graphviz version 2.26.3 (20100126.1600)
 -->
<!-- Title: Relationships_component_32 Pages: 1 -->
<svg width="310pt" height="138pt"
 viewBox="0.00 0.00 310.00 138.00" xmlns="http://www.w3.org/2000/svg" xmlns:xlink="http://www.w3.org/1999/xlink">
<g id="graph1" class="graph" transform="scale(1 1) rotate(0) translate(4 134)">
<title>Relationships_component_32</title>
<polygon fill="white" stroke="white" points="-4,5 -4,-134 307,-134 307,5 -4,5"/>
<!-- VignarGrayMane -->
<g id="node1" class="node"><title>VignarGrayMane</title>
<a xlink:href="http://www.uesp.net/wiki/Skyrim:Vignar Gray-Mane" xlink:title="Vignar Gray&#45;Mane">
<ellipse fill="none" stroke="black" cx="176" cy="-111" rx="101.116" ry="18.3848"/>
<text text-anchor="middle" x="176" y="-107.4" font-family="Times Roman,serif" font-size="14.00">Vignar Gray&#45;Mane</text>
</a>
</g>
<!-- Tilma -->
<g id="node2" class="node"><title>Tilma</title>
<a xlink:href="http://www.uesp.net/wiki/Skyrim:Tilma the Haggard" xlink:title="Tilma the Haggard">
<ellipse fill="none" stroke="black" cx="101" cy="-19" rx="101.116" ry="18.3848"/>
<text text-anchor="middle" x="101" y="-15.4" font-family="Times Roman,serif" font-size="14.00">Tilma the Haggard</text>
</a>
</g>
<!-- VignarGrayMane&#45;&gt;Tilma -->
<g id="edge2" class="edge"><title>VignarGrayMane&#45;&gt;Tilma</title>
<a xlink:title="Vignar Gray&#45;Mane &#45;&gt; Tilma the Haggard (Friend)">
<path fill="none" stroke="olive" d="M160.823,-92.3824C149.844,-78.9148 134.851,-60.5238 122.622,-45.5224"/>
<polygon fill="olive" stroke="olive" points="125.186,-43.1292 116.155,-37.5899 119.761,-47.5523 125.186,-43.1292"/>
</a>
</g>
<!-- Brill -->
<g id="node4" class="node"><title>Brill</title>
<a xlink:href="http://www.uesp.net/wiki/Skyrim:Brill" xlink:title="Brill">
<ellipse fill="none" stroke="black" cx="251" cy="-19" rx="31.1127" ry="18.3848"/>
<text text-anchor="middle" x="251" y="-15.4" font-family="Times Roman,serif" font-size="14.00">Brill</text>
</a>
</g>
<!-- VignarGrayMane&#45;&gt;Brill -->
<g id="edge4" class="edge"><title>VignarGrayMane&#45;&gt;Brill</title>
<a xlink:title="Vignar Gray&#45;Mane &#45;&gt; Brill (JarlSteward, Confidant)">
<path fill="none" stroke="lime" d="M191.177,-92.3824C202.59,-78.3832 218.339,-59.0642 230.813,-43.7623"/>
<polygon fill="lime" stroke="lime" points="233.752,-45.6962 237.358,-35.7339 228.327,-41.2732 233.752,-45.6962"/>
</a>
<text text-anchor="middle" x="261" y="-61.4" font-family="Times Roman,serif" font-size="14.00">JarlSteward</text>
</g>
</g>
</svg>
