<?xml version="1.0" encoding="UTF-8" standalone="no"?>
<!DOCTYPE svg PUBLIC "-//W3C//DTD SVG 1.1//EN"
 "http://www.w3.org/Graphics/SVG/1.1/DTD/svg11.dtd">
<!-- Generated by graphviz version 2.26.3 (20100126.1600)
 -->
<!-- Title: Relationships_component_13 Pages: 1 -->
<svg width="214pt" height="230pt"
 viewBox="0.00 0.00 214.00 230.00" xmlns="http://www.w3.org/2000/svg" xmlns:xlink="http://www.w3.org/1999/xlink">
<g id="graph1" class="graph" transform="scale(1 1) rotate(0) translate(4 226)">
<title>Relationships_component_13</title>
<polygon fill="white" stroke="white" points="-4,5 -4,-226 211,-226 211,5 -4,5"/>
<!-- Kerah -->
<g id="node1" class="node"><title>Kerah</title>
<ellipse fill="none" stroke="black" cx="39" cy="-111" rx="39.0967" ry="18.3848"/>
<text text-anchor="middle" x="39" y="-107.4" font-family="Times Roman,serif" font-size="14.00">Kerah</text>
</g>
<!-- Adara -->
<g id="node2" class="node"><title>Adara</title>
<ellipse fill="none" stroke="black" cx="79" cy="-19" rx="39.8075" ry="18.3848"/>
<text text-anchor="middle" x="79" y="-15.4" font-family="Times Roman,serif" font-size="14.00">Adara</text>
</g>
<!-- Kerah&#45;&gt;Adara -->
<g id="edge2" class="edge"><title>Kerah&#45;&gt;Adara</title>
<a xlink:title="Kerah &#45;&gt; Adara (ParentChild, Ally)">
<path fill="none" stroke="green" d="M31.6843,-92.5802C28.4553,-81.4798 26.4932,-67.3436 32,-56 35.0471,-49.7232 39.7321,-44.1926 44.9855,-39.4487"/>
<polygon fill="green" stroke="green" points="47.3417,-42.046 52.9643,-33.0662 42.969,-36.5797 47.3417,-42.046"/>
</a>
<text text-anchor="middle" x="72.5" y="-61.4" font-family="Times Roman,serif" font-size="14.00">ParentChild</text>
</g>
<!-- Endon -->
<g id="node4" class="node"><title>Endon</title>
<ellipse fill="none" stroke="black" cx="87" cy="-203" rx="41.9273" ry="18.3848"/>
<text text-anchor="middle" x="87" y="-199.4" font-family="Times Roman,serif" font-size="14.00">Endon</text>
</g>
<!-- Endon&#45;&gt;Kerah -->
<g id="edge4" class="edge"><title>Endon&#45;&gt;Kerah</title>
<a xlink:title="Endon &#45;&gt; Kerah (Spouse, Lover)">
<path fill="none" stroke="forestgreen" d="M74.6737,-185.293C70.727,-179.295 66.4816,-172.474 63,-166 58.3749,-157.4 53.9195,-147.725 50.1294,-138.915"/>
<polygon fill="forestgreen" stroke="forestgreen" points="53.2517,-137.31 46.1594,-129.439 46.7954,-140.015 53.2517,-137.31"/>
</a>
<text text-anchor="middle" x="88" y="-153.4" font-family="Times Roman,serif" font-size="14.00">Spouse</text>
</g>
<!-- Endon&#45;&gt;Adara -->
<g id="edge6" class="edge"><title>Endon&#45;&gt;Adara</title>
<a xlink:title="Endon &#45;&gt; Adara (ParentChild, Ally)">
<path fill="none" stroke="green" d="M102.385,-185.756C106.678,-179.894 110.775,-173.037 113,-166 127.74,-119.386 130.751,-101.552 113,-56 111.194,-51.3668 108.507,-46.9625 105.421,-42.9149"/>
<polygon fill="green" stroke="green" points="107.877,-40.4055 98.6787,-35.1484 102.591,-44.9944 107.877,-40.4055"/>
</a>
<text text-anchor="middle" x="165.5" y="-107.4" font-family="Times Roman,serif" font-size="14.00">ParentChild</text>
</g>
</g>
</svg>
