<?xml version="1.0" encoding="UTF-8" standalone="no"?>
<!DOCTYPE svg PUBLIC "-//W3C//DTD SVG 1.1//EN"
 "http://www.w3.org/Graphics/SVG/1.1/DTD/svg11.dtd">
<!-- Generated by graphviz version 2.26.3 (20100126.1600)
 -->
<!-- Title: Relationships_component_14 Pages: 1 -->
<svg width="150pt" height="484pt"
 viewBox="0.00 0.00 150.00 484.00" xmlns="http://www.w3.org/2000/svg" xmlns:xlink="http://www.w3.org/1999/xlink">
<g id="graph1" class="graph" transform="scale(1 1) rotate(0) translate(4 480)">
<title>Relationships_component_14</title>
<polygon fill="white" stroke="white" points="-4,5 -4,-480 147,-480 147,5 -4,5"/>
<!-- Elrindir -->
<g id="node1" class="node"><title>Elrindir</title>
<a xlink:href="http://www.uesp.net/wiki/Skyrim:Elrindir" xlink:title="&lt;TABLE&gt;">
<image xlink:href="120px-SR-npc-Elrindir.jpg" width="91px" height="91px" preserveAspectRatio="xMinYMin meet" x="26" y="-285"/>
<text text-anchor="start" x="46.5" y="-177.733" font-family="Times Roman,serif" font-size="14.00">Elrindir</text>
</a>
</g>
<!-- OlavatheFeeble -->
<g id="node2" class="node"><title>OlavatheFeeble</title>
<a xlink:href="http://www.uesp.net/wiki/Skyrim:Olava the Feeble" xlink:title="&lt;TABLE&gt;">
<image xlink:href="120px-SR-npc-Olava_the_Feeble.jpg" width="118px" height="91px" preserveAspectRatio="xMinYMin meet" x="12" y="-119"/>
<text text-anchor="start" x="12.5" y="-11.7333" font-family="Times Roman,serif" font-size="14.00">Olava the Feeble</text>
</a>
</g>
<!-- Elrindir&#45;&gt;OlavatheFeeble -->
<g id="edge2" class="edge"><title>Elrindir&#45;&gt;OlavatheFeeble</title>
<a xlink:title="Elrindir &#45;&gt; Olava the Feeble (Friend)">
<path fill="none" stroke="olive" d="M71,-166.295C71,-156.962 71,-147.284 71,-137.77"/>
<polygon fill="olive" stroke="olive" points="74.5001,-137.535 71,-127.535 67.5001,-137.535 74.5001,-137.535"/>
</a>
</g>
<!-- Anoriath -->
<g id="node4" class="node"><title>Anoriath</title>
<a xlink:href="http://www.uesp.net/wiki/Skyrim:Anoriath" xlink:title="&lt;TABLE&gt;">
<image xlink:href="120px-SR-npc-Anoriath.jpg" width="91px" height="91px" preserveAspectRatio="xMinYMin meet" x="26" y="-467"/>
<text text-anchor="start" x="41" y="-359.733" font-family="Times Roman,serif" font-size="14.00">Anoriath</text>
</a>
</g>
<!-- Anoriath&#45;&gt;Elrindir -->
<g id="edge4" class="edge"><title>Anoriath&#45;&gt;Elrindir</title>
<a xlink:title="Anoriath &#45;&gt; Elrindir (Siblings, Ally)">
<path fill="none" stroke="green" d="M71,-348.345C71,-333.937 71,-318.52 71,-303.734"/>
<polygon fill="green" stroke="green" points="74.5001,-303.619 71,-293.619 67.5001,-303.619 74.5001,-303.619"/>
</a>
<text text-anchor="middle" x="97.5" y="-317.4" font-family="Times Roman,serif" font-size="14.00">Siblings</text>
</g>
</g>
</svg>
