<?xml version="1.0" encoding="UTF-8" standalone="no"?>
<!DOCTYPE svg PUBLIC "-//W3C//DTD SVG 1.1//EN"
 "http://www.w3.org/Graphics/SVG/1.1/DTD/svg11.dtd">
<!-- Generated by graphviz version 2.26.3 (20100126.1600)
 -->
<!-- Title: Relationships_component_4 Pages: 1 -->
<svg width="2365pt" height="734pt"
 viewBox="0.00 0.00 2365.00 734.00" xmlns="http://www.w3.org/2000/svg" xmlns:xlink="http://www.w3.org/1999/xlink">
<g id="graph1" class="graph" transform="scale(1 1) rotate(0) translate(4 730)">
<title>Relationships_component_4</title>
<polygon fill="white" stroke="white" points="-4,5 -4,-730 2362,-730 2362,5 -4,5"/>
<!-- Annekke -->
<g id="node1" class="node"><title>Annekke</title>
<a xlink:href="http://www.uesp.net/wiki/Skyrim:Annekke Crag-Jumper" xlink:title="Annekke Crag&#45;Jumper">
<ellipse fill="none" stroke="black" cx="226" cy="-387" rx="118.794" ry="18.3848"/>
<text text-anchor="middle" x="226" y="-383.4" font-family="Times Roman,serif" font-size="14.00">Annekke Crag&#45;Jumper</text>
</a>
</g>
<!-- Verner -->
<g id="node2" class="node"><title>Verner</title>
<a xlink:href="http://www.uesp.net/wiki/Skyrim:Verner Rock-Chucker" xlink:title="Verner Rock&#45;Chucker">
<ellipse fill="none" stroke="black" cx="114" cy="-295" rx="113.844" ry="18.3848"/>
<text text-anchor="middle" x="114" y="-291.4" font-family="Times Roman,serif" font-size="14.00">Verner Rock&#45;Chucker</text>
</a>
</g>
<!-- Annekke&#45;&gt;Verner -->
<g id="edge2" class="edge"><title>Annekke&#45;&gt;Verner</title>
<a xlink:title="Annekke Crag&#45;Jumper &#45;&gt; Verner Rock&#45;Chucker (Spouse, Ally)">
<path fill="none" stroke="green" d="M203.604,-368.604C186.588,-354.626 163.004,-335.253 144.302,-319.891"/>
<polygon fill="green" stroke="green" points="146.306,-317.007 136.357,-313.365 141.863,-322.417 146.306,-317.007"/>
</a>
<text text-anchor="middle" x="206" y="-337.4" font-family="Times Roman,serif" font-size="14.00">Spouse</text>
</g>
<!-- Sylgja -->
<g id="node4" class="node"><title>Sylgja</title>
<a xlink:href="http://www.uesp.net/wiki/Skyrim:Sylgja" xlink:title="Sylgja">
<ellipse fill="none" stroke="black" cx="203" cy="-203" rx="41.0122" ry="18.3848"/>
<text text-anchor="middle" x="203" y="-199.4" font-family="Times Roman,serif" font-size="14.00">Sylgja</text>
</a>
</g>
<!-- Annekke&#45;&gt;Sylgja -->
<g id="edge4" class="edge"><title>Annekke&#45;&gt;Sylgja</title>
<a xlink:title="Annekke Crag&#45;Jumper &#45;&gt; Sylgja (ParentChild, Ally)">
<path fill="none" stroke="green" d="M235.783,-368.342C249.522,-339.396 270.666,-282.57 250,-240 247.014,-233.849 242.455,-228.414 237.329,-223.734"/>
<polygon fill="green" stroke="green" points="239.506,-220.994 229.531,-217.422 235.102,-226.435 239.506,-220.994"/>
</a>
<text text-anchor="middle" x="299.5" y="-291.4" font-family="Times Roman,serif" font-size="14.00">ParentChild</text>
</g>
<!-- Nurelion -->
<g id="node6" class="node"><title>Nurelion</title>
<a xlink:href="http://www.uesp.net/wiki/Skyrim:Nurelion" xlink:title="Nurelion">
<ellipse fill="none" stroke="black" cx="593" cy="-295" rx="53.033" ry="18.3848"/>
<text text-anchor="middle" x="593" y="-291.4" font-family="Times Roman,serif" font-size="14.00">Nurelion</text>
</a>
</g>
<!-- Annekke&#45;&gt;Nurelion -->
<g id="edge6" class="edge"><title>Annekke&#45;&gt;Nurelion</title>
<a xlink:title="Annekke Crag&#45;Jumper &#45;&gt; Nurelion (Friend)">
<path fill="none" stroke="olive" d="M289.09,-371.185C359.949,-353.422 473.696,-324.907 540.094,-308.262"/>
<polygon fill="olive" stroke="olive" points="541.085,-311.623 549.933,-305.796 539.383,-304.833 541.085,-311.623"/>
</a>
</g>
<!-- Verner&#45;&gt;Sylgja -->
<g id="edge8" class="edge"><title>Verner&#45;&gt;Sylgja</title>
<a xlink:title="Verner Rock&#45;Chucker &#45;&gt; Sylgja (ParentChild, Ally)">
<path fill="none" stroke="green" d="M132.01,-276.382C145.592,-262.343 164.35,-242.953 179.173,-227.631"/>
<polygon fill="green" stroke="green" points="182.08,-229.659 186.517,-220.038 177.049,-224.792 182.08,-229.659"/>
</a>
<text text-anchor="middle" x="207.5" y="-245.4" font-family="Times Roman,serif" font-size="14.00">ParentChild</text>
</g>
<!-- Filnjar -->
<g id="node27" class="node"><title>Filnjar</title>
<a xlink:href="http://www.uesp.net/wiki/Skyrim:Filnjar" xlink:title="Filnjar">
<ellipse fill="none" stroke="black" cx="203" cy="-111" rx="41.2167" ry="18.3848"/>
<text text-anchor="middle" x="203" y="-107.4" font-family="Times Roman,serif" font-size="14.00">Filnjar</text>
</a>
</g>
<!-- Sylgja&#45;&gt;Filnjar -->
<g id="edge40" class="edge"><title>Sylgja&#45;&gt;Filnjar</title>
<a xlink:title="Sylgja &#45;&gt; Filnjar (BossEmployee, Friend)">
<path fill="none" stroke="olive" d="M203,-184.382C203,-171.538 203,-154.216 203,-139.627"/>
<polygon fill="olive" stroke="olive" points="206.5,-139.59 203,-129.59 199.5,-139.59 206.5,-139.59"/>
</a>
<text text-anchor="middle" x="252.5" y="-153.4" font-family="Times Roman,serif" font-size="14.00">BossEmployee</text>
</g>
<!-- QuintusNavale -->
<g id="node22" class="node"><title>QuintusNavale</title>
<a xlink:href="http://www.uesp.net/wiki/Skyrim:Quintus Navale" xlink:title="Quintus Navale">
<ellipse fill="none" stroke="black" cx="799" cy="-203" rx="86.9741" ry="18.3848"/>
<text text-anchor="middle" x="799" y="-199.4" font-family="Times Roman,serif" font-size="14.00">Quintus Navale</text>
</a>
</g>
<!-- Nurelion&#45;&gt;QuintusNavale -->
<g id="edge64" class="edge"><title>Nurelion&#45;&gt;QuintusNavale</title>
<a xlink:title="Nurelion &#45;&gt; Quintus Navale (MasterAssistant, Ally)">
<path fill="none" stroke="green" d="M625.641,-280.422C659.632,-265.242 713.205,-241.316 751.802,-224.079"/>
<polygon fill="green" stroke="green" points="753.568,-227.123 761.272,-219.85 750.714,-220.732 753.568,-227.123"/>
</a>
<text text-anchor="middle" x="770.5" y="-245.4" font-family="Times Roman,serif" font-size="14.00">MasterAssistant</text>
</g>
<!-- Iddra -->
<g id="node9" class="node"><title>Iddra</title>
<a xlink:href="http://www.uesp.net/wiki/Skyrim:Iddra" xlink:title="Iddra">
<ellipse fill="none" stroke="black" cx="1063" cy="-479" rx="36.7696" ry="18.3848"/>
<text text-anchor="middle" x="1063" y="-475.4" font-family="Times Roman,serif" font-size="14.00">Iddra</text>
</a>
</g>
<!-- Roggi -->
<g id="node10" class="node"><title>Roggi</title>
<a xlink:href="http://www.uesp.net/wiki/Skyrim:Roggi Knot-Beard" xlink:title="Roggi Knot&#45;Beard">
<ellipse fill="none" stroke="black" cx="983" cy="-295" rx="96.1665" ry="18.3848"/>
<text text-anchor="middle" x="983" y="-291.4" font-family="Times Roman,serif" font-size="14.00">Roggi Knot&#45;Beard</text>
</a>
</g>
<!-- Iddra&#45;&gt;Roggi -->
<g id="edge10" class="edge"><title>Iddra&#45;&gt;Roggi</title>
<a xlink:title="Iddra &#45;&gt; Roggi Knot&#45;Beard (FavorTarget, Acquaintance)">
<path fill="none" stroke="orange" d="M1055.04,-460.685C1041,-428.392 1011.76,-361.146 995.173,-322.998"/>
<polygon fill="orange" stroke="orange" points="998.247,-321.289 991.05,-313.514 991.827,-324.081 998.247,-321.289"/>
</a>
<text text-anchor="middle" x="1072" y="-383.4" font-family="Times Roman,serif" font-size="14.00">FavorTarget</text>
</g>
<!-- Kjeld -->
<g id="node12" class="node"><title>Kjeld</title>
<a xlink:href="http://www.uesp.net/wiki/Skyrim:Kjeld" xlink:title="Kjeld">
<ellipse fill="none" stroke="black" cx="1164" cy="-387" rx="34.8574" ry="18.3848"/>
<text text-anchor="middle" x="1164" y="-383.4" font-family="Times Roman,serif" font-size="14.00">Kjeld</text>
</a>
</g>
<!-- Iddra&#45;&gt;Kjeld -->
<g id="edge12" class="edge"><title>Iddra&#45;&gt;Kjeld</title>
<a xlink:title="Iddra &#45;&gt; Kjeld (Spouse, Acquaintance)">
<path fill="none" stroke="orange" d="M1081.06,-462.552C1097,-448.031 1120.42,-426.695 1138.31,-410.397"/>
<polygon fill="orange" stroke="orange" points="1141.06,-412.627 1146.1,-403.305 1136.35,-407.452 1141.06,-412.627"/>
</a>
<text text-anchor="middle" x="1148" y="-429.4" font-family="Times Roman,serif" font-size="14.00">Spouse</text>
</g>
<!-- Kjeld&#45;&gt;Roggi -->
<g id="edge22" class="edge"><title>Kjeld&#45;&gt;Roggi</title>
<a xlink:title="Kjeld &#45;&gt; Roggi Knot&#45;Beard (Friend)">
<path fill="none" stroke="olive" d="M1138.45,-374.014C1109.29,-359.191 1061.11,-334.703 1026.11,-316.911"/>
<polygon fill="olive" stroke="olive" points="1027.56,-313.725 1017.06,-312.314 1024.39,-319.965 1027.56,-313.725"/>
</a>
</g>
<!-- KjeldtheYounger -->
<g id="node25" class="node"><title>KjeldtheYounger</title>
<a xlink:href="http://www.uesp.net/wiki/Skyrim:Kjeld the Younger" xlink:title="Kjeld the Younger">
<ellipse fill="none" stroke="black" cx="1504" cy="-295" rx="97.0803" ry="18.3848"/>
<text text-anchor="middle" x="1504" y="-291.4" font-family="Times Roman,serif" font-size="14.00">Kjeld the Younger</text>
</a>
</g>
<!-- Kjeld&#45;&gt;KjeldtheYounger -->
<g id="edge24" class="edge"><title>Kjeld&#45;&gt;KjeldtheYounger</title>
<a xlink:title="Kjeld &#45;&gt; Kjeld the Younger (ParentChild, Acquaintance)">
<path fill="none" stroke="orange" d="M1190.72,-374.626C1196.36,-372.25 1202.32,-369.911 1208,-368 1280.82,-343.487 1366.24,-323.3 1426.54,-310.417"/>
<polygon fill="orange" stroke="orange" points="1427.32,-313.83 1436.38,-308.333 1425.87,-306.982 1427.32,-313.83"/>
</a>
<text text-anchor="middle" x="1369.5" y="-337.4" font-family="Times Roman,serif" font-size="14.00">ParentChild</text>
</g>
<!-- AmbarysRendar -->
<g id="node14" class="node"><title>AmbarysRendar</title>
<a xlink:href="http://www.uesp.net/wiki/Skyrim:Ambarys Rendar" xlink:title="Ambarys Rendar">
<ellipse fill="none" stroke="black" cx="731" cy="-479" rx="91.9239" ry="18.3848"/>
<text text-anchor="middle" x="731" y="-475.4" font-family="Times Roman,serif" font-size="14.00">Ambarys Rendar</text>
</a>
</g>
<!-- MalthyrElenil -->
<g id="node15" class="node"><title>MalthyrElenil</title>
<a xlink:href="http://www.uesp.net/wiki/Skyrim:Malthyr Elenil" xlink:title="Malthyr Elenil">
<ellipse fill="none" stroke="black" cx="600" cy="-387" rx="79.196" ry="18.3848"/>
<text text-anchor="middle" x="600" y="-383.4" font-family="Times Roman,serif" font-size="14.00">Malthyr Elenil</text>
</a>
</g>
<!-- AmbarysRendar&#45;&gt;MalthyrElenil -->
<g id="edge14" class="edge"><title>AmbarysRendar&#45;&gt;MalthyrElenil</title>
<a xlink:title="Ambarys Rendar &#45;&gt; Malthyr Elenil (BossEmployee, Ally)">
<path fill="none" stroke="green" d="M703.476,-461.199C694.35,-455.194 684.18,-448.393 675,-442 660.761,-432.084 645.261,-420.801 632.067,-411.047"/>
<polygon fill="green" stroke="green" points="633.883,-408.036 623.767,-404.887 629.711,-413.657 633.883,-408.036"/>
</a>
<text text-anchor="middle" x="724.5" y="-429.4" font-family="Times Roman,serif" font-size="14.00">BossEmployee</text>
</g>
<!-- Dravynea -->
<g id="node17" class="node"><title>Dravynea</title>
<a xlink:href="http://www.uesp.net/wiki/Skyrim:Dravynea the Stoneweaver" xlink:title="Dravynea the Stoneweaver">
<ellipse fill="none" stroke="black" cx="845" cy="-387" rx="147.785" ry="18.3848"/>
<text text-anchor="middle" x="845" y="-383.4" font-family="Times Roman,serif" font-size="14.00">Dravynea the Stoneweaver</text>
</a>
</g>
<!-- AmbarysRendar&#45;&gt;Dravynea -->
<g id="edge16" class="edge"><title>AmbarysRendar&#45;&gt;Dravynea</title>
<a xlink:title="Ambarys Rendar &#45;&gt; Dravynea the Stoneweaver (Confidant)">
<path fill="none" stroke="lime" d="M753.251,-461.043C770.6,-447.042 794.895,-427.435 814.127,-411.915"/>
<polygon fill="lime" stroke="lime" points="816.44,-414.546 822.024,-405.542 812.044,-409.099 816.44,-414.546"/>
</a>
</g>
<!-- Dravynea&#45;&gt;Roggi -->
<g id="edge56" class="edge"><title>Dravynea&#45;&gt;Roggi</title>
<a xlink:title="Dravynea the Stoneweaver &#45;&gt; Roggi Knot&#45;Beard (Friend)">
<path fill="none" stroke="olive" d="M872.595,-368.604C894.076,-354.282 924.055,-334.297 947.353,-318.765"/>
<polygon fill="olive" stroke="olive" points="949.544,-321.51 955.923,-313.051 945.661,-315.686 949.544,-321.51"/>
</a>
</g>
<!-- Hrefna -->
<g id="node19" class="node"><title>Hrefna</title>
<a xlink:href="http://www.uesp.net/wiki/Skyrim:Hrefna" xlink:title="Hrefna">
<ellipse fill="none" stroke="black" cx="1415" cy="-387" rx="44.0472" ry="18.3848"/>
<text text-anchor="middle" x="1415" y="-383.4" font-family="Times Roman,serif" font-size="14.00">Hrefna</text>
</a>
</g>
<!-- SondasDrenim -->
<g id="node20" class="node"><title>SondasDrenim</title>
<a xlink:href="http://www.uesp.net/wiki/Skyrim:Sondas Drenim" xlink:title="Sondas Drenim">
<ellipse fill="none" stroke="black" cx="1285" cy="-295" rx="85.7684" ry="18.3848"/>
<text text-anchor="middle" x="1285" y="-291.4" font-family="Times Roman,serif" font-size="14.00">Sondas Drenim</text>
</a>
</g>
<!-- Hrefna&#45;&gt;SondasDrenim -->
<g id="edge18" class="edge"><title>Hrefna&#45;&gt;SondasDrenim</title>
<a xlink:title="Hrefna &#45;&gt; Sondas Drenim (Confidant)">
<path fill="none" stroke="lime" d="M1414.69,-368.242C1413.52,-356.447 1410.12,-341.681 1401,-332 1393.87,-324.429 1375.08,-317.211 1354.64,-311.194"/>
<polygon fill="lime" stroke="lime" points="1355.43,-307.778 1344.85,-308.428 1353.52,-314.515 1355.43,-307.778"/>
</a>
</g>
<!-- SondasDrenim&#45;&gt;QuintusNavale -->
<g id="edge20" class="edge"><title>SondasDrenim&#45;&gt;QuintusNavale</title>
<a xlink:title="Sondas Drenim &#45;&gt; Quintus Navale (FavorTarget, Acquaintance)">
<path fill="none" stroke="orange" d="M1220.21,-282.736C1130.57,-265.767 969.07,-235.194 874.214,-217.238"/>
<polygon fill="orange" stroke="orange" points="874.594,-213.748 864.117,-215.327 873.292,-220.626 874.594,-213.748"/>
</a>
<text text-anchor="middle" x="1127" y="-245.4" font-family="Times Roman,serif" font-size="14.00">FavorTarget</text>
</g>
<!-- Odfel -->
<g id="node28" class="node"><title>Odfel</title>
<a xlink:href="http://www.uesp.net/wiki/Skyrim:Odfel" xlink:title="Odfel">
<ellipse fill="none" stroke="black" cx="120" cy="-19" rx="36.977" ry="18.3848"/>
<text text-anchor="middle" x="120" y="-15.4" font-family="Times Roman,serif" font-size="14.00">Odfel</text>
</a>
</g>
<!-- Filnjar&#45;&gt;Odfel -->
<g id="edge26" class="edge"><title>Filnjar&#45;&gt;Odfel</title>
<a xlink:title="Filnjar &#45;&gt; Odfel (BossEmployee, Acquaintance)">
<path fill="none" stroke="orange" d="M184.799,-94.0861C178.384,-87.9161 171.224,-80.7859 165,-74 156.357,-64.5768 147.337,-53.769 139.661,-44.2421"/>
<polygon fill="orange" stroke="orange" points="142.275,-41.9059 133.305,-36.2667 136.801,-46.2685 142.275,-41.9059"/>
</a>
<text text-anchor="middle" x="214.5" y="-61.4" font-family="Times Roman,serif" font-size="14.00">BossEmployee</text>
</g>
<!-- GrogmarGroBurzag -->
<g id="node30" class="node"><title>GrogmarGroBurzag</title>
<a xlink:href="http://www.uesp.net/wiki/Skyrim:Grogmar gro-Burzag" xlink:title="Grogmar gro&#45;Burzag">
<ellipse fill="none" stroke="black" cx="286" cy="-19" rx="111.222" ry="18.3848"/>
<text text-anchor="middle" x="286" y="-15.4" font-family="Times Roman,serif" font-size="14.00">Grogmar gro&#45;Burzag</text>
</a>
</g>
<!-- Filnjar&#45;&gt;GrogmarGroBurzag -->
<g id="edge28" class="edge"><title>Filnjar&#45;&gt;GrogmarGroBurzag</title>
<a xlink:title="Filnjar &#45;&gt; Grogmar gro&#45;Burzag (BossEmployee, Acquaintance)">
<path fill="none" stroke="orange" d="M232.543,-98.0937C243.594,-92.0812 255.511,-84.0161 264,-74 270.494,-66.3371 275.236,-56.5153 278.616,-47.2975"/>
<polygon fill="orange" stroke="orange" points="281.985,-48.2556 281.769,-37.663 275.332,-46.0785 281.985,-48.2556"/>
</a>
<text text-anchor="middle" x="324.5" y="-61.4" font-family="Times Roman,serif" font-size="14.00">BossEmployee</text>
</g>
<!-- Elda -->
<g id="node32" class="node"><title>Elda</title>
<a xlink:href="http://www.uesp.net/wiki/Skyrim:Elda Early-Dawn" xlink:title="Elda Early&#45;Dawn">
<ellipse fill="none" stroke="black" cx="1735" cy="-479" rx="92.839" ry="18.3848"/>
<text text-anchor="middle" x="1735" y="-475.4" font-family="Times Roman,serif" font-size="14.00">Elda Early&#45;Dawn</text>
</a>
</g>
<!-- Susanna -->
<g id="node33" class="node"><title>Susanna</title>
<a xlink:href="http://www.uesp.net/wiki/Skyrim:Susanna the Wicked" xlink:title="Susanna the Wicked">
<ellipse fill="none" stroke="black" cx="1588" cy="-387" rx="111.222" ry="18.3848"/>
<text text-anchor="middle" x="1588" y="-383.4" font-family="Times Roman,serif" font-size="14.00">Susanna the Wicked</text>
</a>
</g>
<!-- Elda&#45;&gt;Susanna -->
<g id="edge30" class="edge"><title>Elda&#45;&gt;Susanna</title>
<a xlink:title="Elda Early&#45;Dawn &#45;&gt; Susanna the Wicked (BossEmployee, Friend)">
<path fill="none" stroke="olive" d="M1668.97,-465.86C1652.48,-460.394 1635.63,-452.724 1622,-442 1612.91,-434.845 1605.63,-424.536 1600.17,-414.774"/>
<polygon fill="olive" stroke="olive" points="1603.19,-412.99 1595.5,-405.701 1596.97,-416.194 1603.19,-412.99"/>
</a>
<text text-anchor="middle" x="1671.5" y="-429.4" font-family="Times Roman,serif" font-size="14.00">BossEmployee</text>
</g>
<!-- Nils -->
<g id="node35" class="node"><title>Nils</title>
<a xlink:href="http://www.uesp.net/wiki/Skyrim:Nils" xlink:title="Nils">
<ellipse fill="none" stroke="black" cx="1689" cy="-295" rx="28.9914" ry="18.3848"/>
<text text-anchor="middle" x="1689" y="-291.4" font-family="Times Roman,serif" font-size="14.00">Nils</text>
</a>
</g>
<!-- Elda&#45;&gt;Nils -->
<g id="edge32" class="edge"><title>Elda&#45;&gt;Nils</title>
<a xlink:title="Elda Early&#45;Dawn &#45;&gt; Nils (BossEmployee, Acquaintance)">
<path fill="none" stroke="orange" d="M1730.6,-460.516C1725.33,-438.467 1716.18,-400.503 1708,-368 1704.25,-353.124 1699.96,-336.577 1696.4,-323.003"/>
<polygon fill="orange" stroke="orange" points="1699.77,-322.061 1693.84,-313.28 1693,-323.841 1699.77,-322.061"/>
</a>
<text text-anchor="middle" x="1767.5" y="-383.4" font-family="Times Roman,serif" font-size="14.00">BossEmployee</text>
</g>
<!-- Brunwulf -->
<g id="node37" class="node"><title>Brunwulf</title>
<a xlink:href="http://www.uesp.net/wiki/Skyrim:Brunwulf Free-Winter" xlink:title="Brunwulf Free&#45;Winter">
<ellipse fill="none" stroke="black" cx="1970" cy="-387" rx="118.087" ry="18.3848"/>
<text text-anchor="middle" x="1970" y="-383.4" font-family="Times Roman,serif" font-size="14.00">Brunwulf Free&#45;Winter</text>
</a>
</g>
<!-- Elda&#45;&gt;Brunwulf -->
<g id="edge34" class="edge"><title>Elda&#45;&gt;Brunwulf</title>
<a xlink:title="Elda Early&#45;Dawn &#45;&gt; Brunwulf Free&#45;Winter (Lover)">
<path fill="none" stroke="forestgreen" d="M1777.28,-462.446C1816.27,-447.184 1874.31,-424.461 1916.51,-407.942"/>
<polygon fill="forestgreen" stroke="forestgreen" points="1918.03,-411.106 1926.06,-404.201 1915.47,-404.588 1918.03,-411.106"/>
</a>
</g>
<!-- Susanna&#45;&gt;KjeldtheYounger -->
<g id="edge36" class="edge"><title>Susanna&#45;&gt;KjeldtheYounger</title>
<a xlink:title="Susanna the Wicked &#45;&gt; Kjeld the Younger (Courting, Confidant)">
<path fill="none" stroke="lime" d="M1558.16,-369.033C1550.4,-363.524 1542.42,-357.039 1536,-350 1528.63,-341.921 1522.17,-331.865 1517.03,-322.57"/>
<polygon fill="lime" stroke="lime" points="1520.08,-320.856 1512.33,-313.629 1513.88,-324.11 1520.08,-320.856"/>
</a>
<text text-anchor="middle" x="1566.5" y="-337.4" font-family="Times Roman,serif" font-size="14.00">Courting</text>
</g>
<!-- Susanna&#45;&gt;Nils -->
<g id="edge38" class="edge"><title>Susanna&#45;&gt;Nils</title>
<a xlink:title="Susanna the Wicked &#45;&gt; Nils (Friend)">
<path fill="none" stroke="olive" d="M1608.44,-368.382C1624.73,-353.539 1647.6,-332.715 1664.8,-317.04"/>
<polygon fill="olive" stroke="olive" points="1667.23,-319.562 1672.27,-310.24 1662.52,-314.387 1667.23,-319.562"/>
</a>
</g>
<!-- GannaUriel -->
<g id="node42" class="node"><title>GannaUriel</title>
<a xlink:href="http://www.uesp.net/wiki/Skyrim:Ganna Uriel" xlink:title="Ganna Uriel">
<ellipse fill="none" stroke="black" cx="433" cy="-387" rx="70.0036" ry="18.3848"/>
<text text-anchor="middle" x="433" y="-383.4" font-family="Times Roman,serif" font-size="14.00">Ganna Uriel</text>
</a>
</g>
<!-- GannaUriel&#45;&gt;Roggi -->
<g id="edge42" class="edge"><title>GannaUriel&#45;&gt;Roggi</title>
<a xlink:title="Ganna Uriel &#45;&gt; Roggi Knot&#45;Beard (Friend)">
<path fill="none" stroke="olive" d="M483.861,-374.117C493.191,-371.939 502.866,-369.803 512,-368 643.784,-341.986 797.828,-319.61 892.909,-306.719"/>
<polygon fill="olive" stroke="olive" points="893.622,-310.154 903.063,-305.347 892.685,-303.217 893.622,-310.154"/>
</a>
</g>
<!-- Tormir -->
<g id="node44" class="node"><title>Tormir</title>
<a xlink:href="http://www.uesp.net/wiki/Skyrim:Tormir" xlink:title="Tormir">
<ellipse fill="none" stroke="black" cx="1267" cy="-479" rx="41.9273" ry="18.3848"/>
<text text-anchor="middle" x="1267" y="-475.4" font-family="Times Roman,serif" font-size="14.00">Tormir</text>
</a>
</g>
<!-- Tormir&#45;&gt;Kjeld -->
<g id="edge46" class="edge"><title>Tormir&#45;&gt;Kjeld</title>
<a xlink:title="Tormir &#45;&gt; Kjeld (Foe)">
<path fill="none" stroke="firebrick" d="M1248.11,-462.126C1231.79,-447.551 1208.05,-426.349 1189.95,-410.182"/>
<polygon fill="firebrick" stroke="firebrick" points="1191.87,-407.202 1182.08,-403.15 1187.21,-412.422 1191.87,-407.202"/>
</a>
</g>
<!-- Tormir&#45;&gt;Hrefna -->
<g id="edge44" class="edge"><title>Tormir&#45;&gt;Hrefna</title>
<a xlink:title="Tormir &#45;&gt; Hrefna (ParentChild, Friend)">
<path fill="none" stroke="olive" d="M1291.44,-463.808C1315.93,-448.585 1353.82,-425.031 1381.19,-408.019"/>
<polygon fill="olive" stroke="olive" points="1383.38,-410.774 1390.03,-402.522 1379.69,-404.829 1383.38,-410.774"/>
</a>
<text text-anchor="middle" x="1395.5" y="-429.4" font-family="Times Roman,serif" font-size="14.00">ParentChild</text>
</g>
<!-- Liesl -->
<g id="node47" class="node"><title>Liesl</title>
<a xlink:href="http://www.uesp.net/wiki/Skyrim:Liesl" xlink:title="Liesl">
<ellipse fill="none" stroke="black" cx="1964" cy="-707" rx="33.234" ry="18.3848"/>
<text text-anchor="middle" x="1964" y="-703.4" font-family="Times Roman,serif" font-size="14.00">Liesl</text>
</a>
</g>
<!-- Edorfin -->
<g id="node48" class="node"><title>Edorfin</title>
<a xlink:href="http://www.uesp.net/wiki/Skyrim:Edorfin" xlink:title="Edorfin">
<ellipse fill="none" stroke="black" cx="1915" cy="-631" rx="45.9619" ry="18.3848"/>
<text text-anchor="middle" x="1915" y="-627.4" font-family="Times Roman,serif" font-size="14.00">Edorfin</text>
</a>
</g>
<!-- Liesl&#45;&gt;Edorfin -->
<g id="edge48" class="edge"><title>Liesl&#45;&gt;Edorfin</title>
<a xlink:title="Liesl &#45;&gt; Edorfin (Rival)">
<path fill="none" stroke="orangered" d="M1952.64,-689.373C1946.54,-679.918 1938.9,-668.074 1932.1,-657.529"/>
<polygon fill="orangered" stroke="orangered" points="1935,-655.567 1926.64,-649.059 1929.12,-659.36 1935,-655.567"/>
</a>
</g>
<!-- Brond -->
<g id="node50" class="node"><title>Brond</title>
<a xlink:href="http://www.uesp.net/wiki/Skyrim:Brond" xlink:title="Brond">
<ellipse fill="none" stroke="black" cx="1970" cy="-555" rx="41.0122" ry="18.3848"/>
<text text-anchor="middle" x="1970" y="-551.4" font-family="Times Roman,serif" font-size="14.00">Brond</text>
</a>
</g>
<!-- Liesl&#45;&gt;Brond -->
<g id="edge50" class="edge"><title>Liesl&#45;&gt;Brond</title>
<a xlink:title="Liesl &#45;&gt; Brond (Foe)">
<path fill="none" stroke="firebrick" d="M1966.47,-688.298C1967.81,-677.192 1969.33,-662.819 1970,-650 1971.17,-627.73 1971.1,-602.482 1970.78,-583.615"/>
<polygon fill="firebrick" stroke="firebrick" points="1974.28,-583.509 1970.57,-573.583 1967.28,-583.652 1974.28,-583.509"/>
</a>
</g>
<!-- Edorfin&#45;&gt;Brond -->
<g id="edge52" class="edge"><title>Edorfin&#45;&gt;Brond</title>
<a xlink:title="Edorfin &#45;&gt; Brond (Rival)">
<path fill="none" stroke="orangered" d="M1928.03,-612.989C1935,-603.36 1943.7,-591.338 1951.37,-580.74"/>
<polygon fill="orangered" stroke="orangered" points="1954.22,-582.773 1957.25,-572.619 1948.55,-578.669 1954.22,-582.773"/>
</a>
</g>
<!-- Huki -->
<g id="node57" class="node"><title>Huki</title>
<a xlink:href="http://www.uesp.net/wiki/Skyrim:Huki Seven-Swords" xlink:title="Huki Seven&#45;Swords">
<ellipse fill="none" stroke="black" cx="1970" cy="-479" rx="106.98" ry="18.3848"/>
<text text-anchor="middle" x="1970" y="-475.4" font-family="Times Roman,serif" font-size="14.00">Huki Seven&#45;Swords</text>
</a>
</g>
<!-- Brond&#45;&gt;Huki -->
<g id="edge62" class="edge"><title>Brond&#45;&gt;Huki</title>
<a xlink:title="Brond &#45;&gt; Huki Seven&#45;Swords (Friend)">
<path fill="none" stroke="olive" d="M1970,-536.213C1970,-527.654 1970,-517.33 1970,-507.822"/>
<polygon fill="olive" stroke="olive" points="1973.5,-507.57 1970,-497.57 1966.5,-507.57 1973.5,-507.57"/>
</a>
</g>
<!-- Angrenor -->
<g id="node53" class="node"><title>Angrenor</title>
<a xlink:href="http://www.uesp.net/wiki/Skyrim:Angrenor Once-Honored" xlink:title="Angrenor Once&#45;Honored">
<ellipse fill="none" stroke="black" cx="2226" cy="-479" rx="130.815" ry="18.3848"/>
<text text-anchor="middle" x="2226" y="-475.4" font-family="Times Roman,serif" font-size="14.00">Angrenor Once&#45;Honored</text>
</a>
</g>
<!-- Benkum -->
<g id="node54" class="node"><title>Benkum</title>
<a xlink:href="http://www.uesp.net/wiki/Skyrim:Benkum" xlink:title="Benkum">
<ellipse fill="none" stroke="black" cx="2191" cy="-387" rx="51.1176" ry="18.3848"/>
<text text-anchor="middle" x="2191" y="-383.4" font-family="Times Roman,serif" font-size="14.00">Benkum</text>
</a>
</g>
<!-- Angrenor&#45;&gt;Benkum -->
<g id="edge54" class="edge"><title>Angrenor&#45;&gt;Benkum</title>
<a xlink:title="Angrenor Once&#45;Honored &#45;&gt; Benkum (Friend)">
<path fill="none" stroke="olive" d="M2218.92,-460.382C2213.98,-447.414 2207.31,-429.879 2201.73,-415.203"/>
<polygon fill="olive" stroke="olive" points="2204.9,-413.692 2198.07,-405.59 2198.36,-416.181 2204.9,-413.692"/>
</a>
</g>
<!-- Huki&#45;&gt;Brunwulf -->
<g id="edge60" class="edge"><title>Huki&#45;&gt;Brunwulf</title>
<a xlink:title="Huki Seven&#45;Swords &#45;&gt; Brunwulf Free&#45;Winter (Friend)">
<path fill="none" stroke="olive" d="M1970,-460.382C1970,-447.538 1970,-430.216 1970,-415.627"/>
<polygon fill="olive" stroke="olive" points="1973.5,-415.59 1970,-405.59 1966.5,-415.59 1973.5,-415.59"/>
</a>
</g>
<!-- Huki&#45;&gt;Benkum -->
<g id="edge58" class="edge"><title>Huki&#45;&gt;Benkum</title>
<a xlink:title="Huki Seven&#45;Swords &#45;&gt; Benkum (BossEmployee, Acquaintance)">
<path fill="none" stroke="orange" d="M2011.02,-461.897C2037.08,-451.037 2071.52,-436.687 2102,-424 2116.95,-417.776 2133.32,-410.969 2147.9,-404.91"/>
<polygon fill="orange" stroke="orange" points="2149.3,-408.12 2157.19,-401.049 2146.61,-401.656 2149.3,-408.12"/>
</a>
<text text-anchor="middle" x="2151.5" y="-429.4" font-family="Times Roman,serif" font-size="14.00">BossEmployee</text>
</g>
<!-- Derkeethus -->
<g id="node62" class="node"><title>Derkeethus</title>
<a xlink:href="http://www.uesp.net/wiki/Skyrim:Derkeethus" xlink:title="Derkeethus">
<ellipse fill="none" stroke="black" cx="1285" cy="-387" rx="68.0887" ry="18.3848"/>
<text text-anchor="middle" x="1285" y="-383.4" font-family="Times Roman,serif" font-size="14.00">Derkeethus</text>
</a>
</g>
<!-- Derkeethus&#45;&gt;SondasDrenim -->
<g id="edge66" class="edge"><title>Derkeethus&#45;&gt;SondasDrenim</title>
<a xlink:title="Derkeethus &#45;&gt; Sondas Drenim (Friend)">
<path fill="none" stroke="olive" d="M1285,-368.382C1285,-355.538 1285,-338.216 1285,-323.627"/>
<polygon fill="olive" stroke="olive" points="1288.5,-323.59 1285,-313.59 1281.5,-323.59 1288.5,-323.59"/>
</a>
</g>
<!-- GemmaUriel -->
<g id="node64" class="node"><title>GemmaUriel</title>
<a xlink:href="http://www.uesp.net/wiki/Skyrim:Gemma Uriel" xlink:title="Gemma Uriel">
<ellipse fill="none" stroke="black" cx="433" cy="-479" rx="75.1594" ry="18.3848"/>
<text text-anchor="middle" x="433" y="-475.4" font-family="Times Roman,serif" font-size="14.00">Gemma Uriel</text>
</a>
</g>
<!-- GemmaUriel&#45;&gt;GannaUriel -->
<g id="edge68" class="edge"><title>GemmaUriel&#45;&gt;GannaUriel</title>
<a xlink:title="Gemma Uriel &#45;&gt; Ganna Uriel (Siblings, Friend)">
<path fill="none" stroke="olive" d="M433,-460.382C433,-447.538 433,-430.216 433,-415.627"/>
<polygon fill="olive" stroke="olive" points="436.5,-415.59 433,-405.59 429.5,-415.59 436.5,-415.59"/>
</a>
<text text-anchor="middle" x="459.5" y="-429.4" font-family="Times Roman,serif" font-size="14.00">Siblings</text>
</g>
</g>
</svg>
